G75*
%MOIN*%
%OFA0B0*%
%FSLAX24Y24*%
%IPPOS*%
%LPD*%
%AMOC8*
5,1,8,0,0,1.08239X$1,22.5*
%
%ADD10C,0.0000*%
%ADD11C,0.0030*%
D10*
X000159Y000130D02*
X000159Y005645D01*
X007598Y005645D01*
X007598Y000130D01*
X000159Y000130D01*
D11*
X002367Y002338D02*
X002428Y002276D01*
X002675Y002276D01*
X002737Y002338D01*
X002737Y002461D01*
X002675Y002523D01*
X002737Y002644D02*
X002737Y002891D01*
X002737Y002768D02*
X002367Y002768D01*
X002490Y002644D01*
X002428Y002523D02*
X002367Y002461D01*
X002367Y002338D01*
X002104Y002349D02*
X002104Y002596D01*
X002104Y002718D02*
X001857Y002965D01*
X001795Y002965D01*
X001733Y002903D01*
X001733Y002779D01*
X001795Y002718D01*
X002104Y002718D02*
X002104Y002965D01*
X002104Y002349D02*
X001733Y002349D01*
X002992Y002309D02*
X003053Y002247D01*
X003300Y002247D01*
X003362Y002309D01*
X003362Y002432D01*
X003300Y002494D01*
X003362Y002615D02*
X003115Y002862D01*
X003053Y002862D01*
X002992Y002800D01*
X002992Y002677D01*
X003053Y002615D01*
X003053Y002494D02*
X002992Y002432D01*
X002992Y002309D01*
X003362Y002615D02*
X003362Y002862D01*
X003807Y002825D02*
X004178Y002825D01*
X004178Y002702D02*
X004178Y002949D01*
X003931Y002702D02*
X003807Y002825D01*
X004178Y002581D02*
X004178Y002334D01*
X003807Y002334D01*
X004771Y002361D02*
X004771Y002238D01*
X004833Y002176D01*
X005080Y002176D01*
X005141Y002238D01*
X005141Y002361D01*
X005080Y002423D01*
X005080Y002544D02*
X005141Y002606D01*
X005141Y002729D01*
X005080Y002791D01*
X005018Y002791D01*
X004956Y002729D01*
X004956Y002668D01*
X004956Y002729D02*
X004895Y002791D01*
X004833Y002791D01*
X004771Y002729D01*
X004771Y002606D01*
X004833Y002544D01*
X004833Y002423D02*
X004771Y002361D01*
X005556Y002375D02*
X005556Y002252D01*
X005618Y002190D01*
X005865Y002190D01*
X005927Y002252D01*
X005927Y002375D01*
X005865Y002437D01*
X005741Y002559D02*
X005741Y002805D01*
X005556Y002744D02*
X005741Y002559D01*
X005618Y002437D02*
X005556Y002375D01*
X005556Y002744D02*
X005927Y002744D01*
M02*
