%
M48
M72
T01C0.0295
T02C0.0472
T03C0.0571
T04C0.0650
%
T01
X5523Y31104
X6123Y31104
X27510Y23690
X27510Y23090
X27528Y19841
X27528Y19241
T02
X25491Y21336
X29821Y23836
X8481Y29513
X3481Y29513
T03
X8830Y13544
X8830Y12560
X8830Y11576
T04
X9252Y8368
X11221Y6399
X15886Y24982
X12402Y26084
X10434Y26084
X21516Y24982
X25000Y26084
X26969Y26084
X28150Y8368
X26182Y6399
M30
