G75*
%MOIN*%
%OFA0B0*%
%FSLAX24Y24*%
%IPPOS*%
%LPD*%
%AMOC8*
5,1,8,0,0,1.08239X$1,22.5*
%
%ADD10C,0.0000*%
%ADD11C,0.0100*%
%ADD12C,0.0160*%
%ADD13C,0.0040*%
%ADD14C,0.0030*%
D10*
X002560Y002483D02*
X002560Y041849D01*
X006400Y041849D01*
X006400Y044233D01*
X030896Y044233D01*
X030896Y041849D01*
X034737Y041849D01*
X034737Y002484D01*
X030896Y002484D01*
X030896Y000100D01*
X030897Y000100D01*
X030896Y000100D02*
X006400Y000100D01*
X006400Y002484D01*
X002560Y002484D01*
X002560Y002483D02*
X002562Y002483D01*
X034598Y041852D02*
X034737Y041849D01*
D11*
X031710Y039050D02*
X031710Y029800D01*
X020060Y029800D01*
X020060Y028350D01*
X020039Y028328D02*
X020030Y028255D01*
X020017Y028182D01*
X020000Y028110D01*
X019980Y028040D01*
X019955Y027970D01*
X019927Y027901D01*
X019896Y027835D01*
X019861Y027770D01*
X019823Y027706D01*
X019781Y027645D01*
X019737Y027587D01*
X019689Y027530D01*
X019638Y027477D01*
X019585Y027426D01*
X019529Y027378D01*
X019470Y027332D01*
X019410Y027290D01*
X019347Y027252D01*
X019282Y027216D01*
X019215Y027184D01*
X019147Y027156D01*
X019078Y027131D01*
X019007Y027110D01*
X018935Y027093D01*
X018863Y027079D01*
X018789Y027070D01*
X018716Y027064D01*
X018642Y027062D01*
X018568Y027064D01*
X018495Y027070D01*
X018421Y027079D01*
X018349Y027093D01*
X018277Y027110D01*
X018206Y027131D01*
X018137Y027156D01*
X018069Y027184D01*
X018002Y027216D01*
X017937Y027252D01*
X017874Y027290D01*
X017814Y027332D01*
X017755Y027378D01*
X017699Y027426D01*
X017646Y027477D01*
X017595Y027530D01*
X017547Y027587D01*
X017503Y027645D01*
X017461Y027706D01*
X017423Y027770D01*
X017388Y027835D01*
X017357Y027901D01*
X017329Y027970D01*
X017304Y028040D01*
X017284Y028110D01*
X017267Y028182D01*
X017254Y028255D01*
X017245Y028328D01*
X017260Y028350D02*
X017260Y029800D01*
X009460Y029800D01*
X009410Y029850D02*
X009410Y039050D01*
X009449Y039076D02*
X012599Y039076D01*
X012668Y039154D01*
X012741Y039229D01*
X012816Y039302D01*
X012894Y039371D01*
X012974Y039438D01*
X013057Y039502D01*
X013142Y039563D01*
X013229Y039621D01*
X013318Y039675D01*
X013410Y039726D01*
X013503Y039774D01*
X013597Y039818D01*
X013693Y039859D01*
X013791Y039896D01*
X013890Y039930D01*
X013990Y039960D01*
X014091Y039987D01*
X014193Y040009D01*
X014296Y040028D01*
X014399Y040044D01*
X014503Y040055D01*
X014607Y040063D01*
X014712Y040067D01*
X014816Y040067D01*
X014921Y040063D01*
X015025Y040055D01*
X015129Y040044D01*
X015232Y040028D01*
X015335Y040009D01*
X015437Y039987D01*
X015538Y039960D01*
X015638Y039930D01*
X015737Y039896D01*
X015835Y039859D01*
X015931Y039818D01*
X016025Y039774D01*
X016118Y039726D01*
X016210Y039675D01*
X016299Y039621D01*
X016386Y039563D01*
X016471Y039502D01*
X016554Y039438D01*
X016634Y039371D01*
X016712Y039302D01*
X016787Y039229D01*
X016860Y039154D01*
X016929Y039076D01*
X016930Y039076D02*
X031693Y039076D01*
X022164Y016776D02*
X021491Y016776D01*
X019992Y016352D01*
X017402Y016352D01*
X016049Y016776D01*
X015378Y016776D01*
X009252Y010769D01*
X013827Y006104D01*
X017244Y007601D01*
X020844Y007601D01*
X023469Y006104D01*
X028150Y010769D01*
X022164Y016776D01*
X013069Y018182D02*
X013069Y024072D01*
X008717Y024072D01*
X008717Y028450D01*
X004137Y028450D01*
X004137Y010733D01*
X005623Y010733D01*
X013069Y018182D01*
D12*
X016389Y021887D02*
X016391Y021982D01*
X016397Y022076D01*
X016407Y022170D01*
X016421Y022264D01*
X016438Y022357D01*
X016460Y022449D01*
X016486Y022541D01*
X016515Y022631D01*
X016548Y022719D01*
X016584Y022807D01*
X016625Y022892D01*
X016669Y022976D01*
X016716Y023058D01*
X016767Y023138D01*
X016821Y023216D01*
X016878Y023291D01*
X016938Y023364D01*
X017002Y023435D01*
X017068Y023502D01*
X017137Y023567D01*
X017209Y023629D01*
X017283Y023688D01*
X017360Y023744D01*
X017438Y023796D01*
X017519Y023845D01*
X017602Y023891D01*
X017687Y023933D01*
X017774Y023971D01*
X017862Y024006D01*
X017951Y024037D01*
X018042Y024065D01*
X018134Y024088D01*
X018226Y024108D01*
X018320Y024124D01*
X018414Y024136D01*
X018508Y024144D01*
X018603Y024148D01*
X018697Y024148D01*
X018792Y024144D01*
X018886Y024136D01*
X018980Y024124D01*
X019074Y024108D01*
X019166Y024088D01*
X019258Y024065D01*
X019349Y024037D01*
X019438Y024006D01*
X019526Y023971D01*
X019613Y023933D01*
X019698Y023891D01*
X019780Y023845D01*
X019862Y023796D01*
X019940Y023744D01*
X020017Y023688D01*
X020091Y023629D01*
X020163Y023567D01*
X020232Y023502D01*
X020298Y023435D01*
X020362Y023364D01*
X020422Y023291D01*
X020479Y023216D01*
X020533Y023138D01*
X020584Y023058D01*
X020631Y022976D01*
X020675Y022892D01*
X020716Y022807D01*
X020752Y022719D01*
X020785Y022631D01*
X020814Y022541D01*
X020840Y022449D01*
X020862Y022357D01*
X020879Y022264D01*
X020893Y022170D01*
X020903Y022076D01*
X020909Y021982D01*
X020911Y021887D01*
X020909Y021792D01*
X020903Y021698D01*
X020893Y021604D01*
X020879Y021510D01*
X020862Y021417D01*
X020840Y021325D01*
X020814Y021233D01*
X020785Y021143D01*
X020752Y021055D01*
X020716Y020967D01*
X020675Y020882D01*
X020631Y020798D01*
X020584Y020716D01*
X020533Y020636D01*
X020479Y020558D01*
X020422Y020483D01*
X020362Y020410D01*
X020298Y020339D01*
X020232Y020272D01*
X020163Y020207D01*
X020091Y020145D01*
X020017Y020086D01*
X019940Y020030D01*
X019862Y019978D01*
X019781Y019929D01*
X019698Y019883D01*
X019613Y019841D01*
X019526Y019803D01*
X019438Y019768D01*
X019349Y019737D01*
X019258Y019709D01*
X019166Y019686D01*
X019074Y019666D01*
X018980Y019650D01*
X018886Y019638D01*
X018792Y019630D01*
X018697Y019626D01*
X018603Y019626D01*
X018508Y019630D01*
X018414Y019638D01*
X018320Y019650D01*
X018226Y019666D01*
X018134Y019686D01*
X018042Y019709D01*
X017951Y019737D01*
X017862Y019768D01*
X017774Y019803D01*
X017687Y019841D01*
X017602Y019883D01*
X017520Y019929D01*
X017438Y019978D01*
X017360Y020030D01*
X017283Y020086D01*
X017209Y020145D01*
X017137Y020207D01*
X017068Y020272D01*
X017002Y020339D01*
X016938Y020410D01*
X016878Y020483D01*
X016821Y020558D01*
X016767Y020636D01*
X016716Y020716D01*
X016669Y020798D01*
X016625Y020882D01*
X016584Y020967D01*
X016548Y021055D01*
X016515Y021143D01*
X016486Y021233D01*
X016460Y021325D01*
X016438Y021417D01*
X016421Y021510D01*
X016407Y021604D01*
X016397Y021698D01*
X016391Y021792D01*
X016389Y021887D01*
D13*
X017295Y001613D02*
X017218Y001537D01*
X017218Y001460D01*
X017295Y001383D01*
X017448Y001383D01*
X017525Y001307D01*
X017525Y001230D01*
X017448Y001153D01*
X017295Y001153D01*
X017218Y001230D01*
X017295Y001613D02*
X017448Y001613D01*
X017525Y001537D01*
X017679Y001613D02*
X017679Y001230D01*
X017755Y001153D01*
X017909Y001153D01*
X017985Y001230D01*
X017985Y001613D01*
X018139Y001537D02*
X018139Y001230D01*
X018216Y001153D01*
X018369Y001153D01*
X018446Y001230D01*
X018599Y001153D02*
X018599Y001613D01*
X018446Y001537D02*
X018369Y001613D01*
X018216Y001613D01*
X018139Y001537D01*
X018599Y001383D02*
X018906Y001383D01*
X019060Y001383D02*
X019367Y001383D01*
X019367Y001460D02*
X019367Y001153D01*
X019520Y001153D02*
X019674Y001153D01*
X019597Y001153D02*
X019597Y001613D01*
X019520Y001613D02*
X019674Y001613D01*
X019367Y001460D02*
X019213Y001613D01*
X019060Y001460D01*
X019060Y001153D01*
X018906Y001153D02*
X018906Y001613D01*
X020287Y001383D02*
X020594Y001383D01*
X021208Y001383D02*
X021515Y001383D01*
X021515Y001460D02*
X021515Y001153D01*
X021669Y001153D02*
X021669Y001460D01*
X021899Y001460D01*
X021976Y001383D01*
X021976Y001153D01*
X022206Y001230D02*
X022282Y001153D01*
X022206Y001230D02*
X022206Y001537D01*
X022129Y001460D02*
X022282Y001460D01*
X022436Y001383D02*
X022436Y001230D01*
X022513Y001153D01*
X022666Y001153D01*
X022743Y001307D02*
X022436Y001307D01*
X022436Y001383D02*
X022513Y001460D01*
X022666Y001460D01*
X022743Y001383D01*
X022743Y001307D01*
X022896Y001460D02*
X022896Y001153D01*
X022896Y001460D02*
X023127Y001460D01*
X023203Y001383D01*
X023203Y001153D01*
X023357Y001230D02*
X023433Y001307D01*
X023664Y001307D01*
X023664Y001383D02*
X023664Y001153D01*
X023433Y001153D01*
X023357Y001230D01*
X023433Y001460D02*
X023587Y001460D01*
X023664Y001383D01*
X023817Y001383D02*
X023894Y001307D01*
X024047Y001307D01*
X024124Y001230D01*
X024047Y001153D01*
X023817Y001153D01*
X023817Y001383D02*
X023894Y001460D01*
X024124Y001460D01*
X024738Y001383D02*
X025045Y001383D01*
X025659Y001307D02*
X025812Y001153D01*
X025966Y001307D01*
X025966Y001613D01*
X026119Y001613D02*
X026426Y001613D01*
X026426Y001537D01*
X026119Y001230D01*
X026119Y001153D01*
X025659Y001307D02*
X025659Y001613D01*
X021515Y001460D02*
X021362Y001613D01*
X021208Y001460D01*
X021208Y001153D01*
X016604Y001230D02*
X016604Y001383D01*
X016528Y001460D01*
X016374Y001460D01*
X016297Y001383D01*
X016297Y001230D01*
X016374Y001153D01*
X016528Y001153D01*
X016604Y001230D01*
X016144Y001153D02*
X016067Y001230D01*
X016067Y001537D01*
X015990Y001460D02*
X016144Y001460D01*
X015837Y001460D02*
X015607Y001460D01*
X015530Y001383D01*
X015530Y001230D01*
X015607Y001153D01*
X015837Y001153D01*
X015377Y001307D02*
X015377Y001383D01*
X015300Y001460D01*
X015146Y001460D01*
X015070Y001383D01*
X015070Y001230D01*
X015146Y001153D01*
X015300Y001153D01*
X015377Y001307D02*
X015070Y001307D01*
X014916Y001460D02*
X014916Y001076D01*
X014839Y001000D01*
X014763Y001000D01*
X014686Y001153D02*
X014916Y001153D01*
X014686Y001153D02*
X014609Y001230D01*
X014609Y001460D01*
X014456Y001383D02*
X014379Y001460D01*
X014226Y001460D01*
X014149Y001383D01*
X014149Y001230D01*
X014226Y001153D01*
X014379Y001153D01*
X014456Y001230D01*
X014456Y001383D01*
X013995Y001460D02*
X013919Y001460D01*
X013765Y001307D01*
X013765Y001460D02*
X013765Y001153D01*
X013612Y001383D02*
X013535Y001307D01*
X013305Y001307D01*
X013305Y001153D02*
X013305Y001613D01*
X013535Y001613D01*
X013612Y001537D01*
X013612Y001383D01*
D14*
X026004Y017441D02*
X026251Y017441D01*
X026313Y017503D01*
X026313Y017627D01*
X026251Y017688D01*
X026313Y017810D02*
X025943Y017810D01*
X026004Y017688D02*
X025943Y017627D01*
X025943Y017503D01*
X026004Y017441D01*
X026128Y017810D02*
X026128Y018057D01*
X026128Y018178D02*
X026128Y018301D01*
X026313Y018178D02*
X026313Y018425D01*
X026251Y018546D02*
X026313Y018608D01*
X026313Y018732D01*
X026251Y018793D01*
X026190Y018915D02*
X025943Y019162D01*
X025943Y018915D02*
X026313Y018915D01*
X026128Y018976D02*
X026313Y019162D01*
X026375Y019283D02*
X026375Y019530D01*
X026313Y019651D02*
X026066Y019651D01*
X025943Y019775D01*
X026066Y019898D01*
X026313Y019898D01*
X026313Y020020D02*
X025943Y020020D01*
X026313Y020267D01*
X025943Y020267D01*
X025943Y020388D02*
X025943Y020635D01*
X025943Y020511D02*
X026313Y020511D01*
X026128Y019898D02*
X026128Y019651D01*
X026004Y018793D02*
X025943Y018732D01*
X025943Y018608D01*
X026004Y018546D01*
X026251Y018546D01*
X025943Y018425D02*
X025943Y018178D01*
X026313Y018178D01*
X026313Y018057D02*
X025943Y018057D01*
X026048Y022632D02*
X025925Y022755D01*
X026048Y022879D01*
X026295Y022879D01*
X026295Y023000D02*
X025925Y023000D01*
X026295Y023247D01*
X025925Y023247D01*
X025925Y023369D02*
X025925Y023615D01*
X025925Y023492D02*
X026295Y023492D01*
X026295Y023737D02*
X026048Y023984D01*
X025987Y023984D01*
X025925Y023922D01*
X025925Y023799D01*
X025987Y023737D01*
X026295Y023737D02*
X026295Y023984D01*
X026110Y022879D02*
X026110Y022632D01*
X026048Y022632D02*
X026295Y022632D01*
X006516Y031819D02*
X006269Y031819D01*
X006393Y031819D02*
X006393Y032189D01*
X006269Y032066D01*
X006148Y032189D02*
X005901Y032189D01*
X005779Y032189D02*
X005779Y031819D01*
X005533Y032189D01*
X005533Y031819D01*
X005411Y031819D02*
X005411Y032066D01*
X005288Y032189D01*
X005164Y032066D01*
X005164Y031819D01*
X005164Y032004D02*
X005411Y032004D01*
X006024Y031819D02*
X006024Y032189D01*
M02*
