%
M48
M72
T01C0.0276
T02C0.0285
T03C0.0360
T04C0.0400
T05C0.0472
T06C0.0930
T07C0.1417
%
T01
X16715Y9605
X16715Y10097
X16715Y10589
X16715Y11081
X16715Y11573
X16715Y12065
X25825Y1604
X26317Y1604
X26809Y1604
X27302Y1604
X27794Y1604
X28286Y1604
T02
X34015Y3635
X32415Y8435
X28915Y12235
X31415Y12935
X32115Y16535
X33715Y18535
X26715Y9835
X23115Y9035
X21115Y6835
X20015Y10835
X20015Y13335
X20515Y15035
X18415Y14935
X20015Y17535
X20015Y20435
X23915Y17635
X23915Y16335
X23915Y13535
X11815Y3735
X9715Y3435
X7315Y5935
X6615Y6435
X6715Y7335
X8315Y8935
X6515Y9735
X8265Y11835
X7715Y12635
X9715Y20835
X6815Y26735
X15280Y1750
T03
X16853Y2635
X17640Y2635
X18428Y2635
X19215Y2635
X20002Y2635
X20790Y2635
X21577Y2635
T04
X14415Y16235
X13415Y16235
X12415Y16235
X11415Y16235
X10415Y16235
X9415Y16235
X8415Y16235
X7415Y16235
X5125Y16325
X5125Y15325
X5125Y14325
X5125Y13325
X5125Y12325
X5125Y11325
X5125Y10325
X5125Y9325
X5125Y8325
X5125Y7325
X5125Y6325
X5125Y5325
X4125Y5325
X3125Y5325
X3125Y6325
X4125Y6325
X4125Y7325
X3125Y7325
X3125Y8325
X3125Y9325
X4125Y9325
X4125Y8325
X4125Y10325
X3125Y10325
X3125Y11325
X4125Y11325
X4125Y12325
X4125Y13325
X3125Y13325
X3125Y12325
X2125Y12325
X2125Y13325
X2125Y14325
X2125Y15325
X2125Y16325
X2125Y17325
X2125Y18325
X2125Y19325
X2125Y20325
X2125Y21325
X2125Y22325
X2125Y23325
X2125Y24325
X2125Y25325
X2125Y26325
X2125Y27325
X2125Y28325
X2125Y29325
X2125Y30325
X3125Y30325
X4125Y30325
X4125Y29325
X3125Y29325
X3125Y28325
X4125Y28325
X4125Y27325
X4125Y26325
X3125Y26325
X3125Y27325
X3125Y25325
X4125Y25325
X4125Y24325
X3125Y24325
X3125Y23325
X4125Y23325
X4125Y22325
X4125Y21325
X3125Y21325
X3125Y22325
X3125Y20325
X4125Y20325
X4125Y19325
X3125Y19325
X3125Y18325
X3125Y17325
X4125Y17325
X4125Y18325
X5125Y18325
X5125Y17325
X4125Y16325
X3125Y16325
X3125Y15325
X4125Y15325
X4125Y14325
X3125Y14325
X2125Y11325
X2125Y10325
X2125Y9325
X2125Y8325
X2125Y7325
X2125Y6325
X2125Y5325
X5125Y19325
X5125Y20325
X5125Y21325
X5125Y22325
X5125Y23325
X5125Y24325
X5125Y25325
X5125Y26325
X5125Y27325
X5125Y28325
X5125Y29325
X5125Y30325
T05
X20565Y21485
X25565Y21485
T06
X16565Y18835
X16565Y5135
X36215Y5135
X36215Y18835
T07
X2125Y3125
X2125Y32525
X35925Y33525
X35925Y2125
M30
