G75*
%MOIN*%
%OFA0B0*%
%FSLAX24Y24*%
%IPPOS*%
%LPD*%
%AMOC8*
5,1,8,0,0,1.08239X$1,22.5*
%
%ADD10C,0.0000*%
D10*
X000115Y000135D02*
X028915Y000135D01*
X029918Y001748D01*
X034009Y001748D01*
X035015Y000135D01*
X037915Y000135D01*
X037915Y007935D01*
X036015Y009035D01*
X036015Y016235D01*
X037925Y017755D01*
X037925Y021775D01*
X035935Y023765D01*
X035935Y028785D01*
X037925Y030775D01*
X037925Y035521D01*
X037926Y035521D02*
X010158Y035521D01*
X008391Y033757D01*
X004761Y033757D01*
X002997Y035521D01*
X000115Y035521D01*
X000115Y035521D01*
X000115Y000135D01*
X001416Y003125D02*
X001418Y003178D01*
X001424Y003231D01*
X001434Y003283D01*
X001447Y003334D01*
X001465Y003384D01*
X001486Y003433D01*
X001511Y003480D01*
X001539Y003524D01*
X001571Y003567D01*
X001605Y003607D01*
X001643Y003645D01*
X001683Y003679D01*
X001726Y003711D01*
X001771Y003739D01*
X001817Y003764D01*
X001866Y003785D01*
X001916Y003803D01*
X001967Y003816D01*
X002019Y003826D01*
X002072Y003832D01*
X002125Y003834D01*
X002178Y003832D01*
X002231Y003826D01*
X002283Y003816D01*
X002334Y003803D01*
X002384Y003785D01*
X002433Y003764D01*
X002480Y003739D01*
X002524Y003711D01*
X002567Y003679D01*
X002607Y003645D01*
X002645Y003607D01*
X002679Y003567D01*
X002711Y003524D01*
X002739Y003479D01*
X002764Y003433D01*
X002785Y003384D01*
X002803Y003334D01*
X002816Y003283D01*
X002826Y003231D01*
X002832Y003178D01*
X002834Y003125D01*
X002832Y003072D01*
X002826Y003019D01*
X002816Y002967D01*
X002803Y002916D01*
X002785Y002866D01*
X002764Y002817D01*
X002739Y002770D01*
X002711Y002726D01*
X002679Y002683D01*
X002645Y002643D01*
X002607Y002605D01*
X002567Y002571D01*
X002524Y002539D01*
X002479Y002511D01*
X002433Y002486D01*
X002384Y002465D01*
X002334Y002447D01*
X002283Y002434D01*
X002231Y002424D01*
X002178Y002418D01*
X002125Y002416D01*
X002072Y002418D01*
X002019Y002424D01*
X001967Y002434D01*
X001916Y002447D01*
X001866Y002465D01*
X001817Y002486D01*
X001770Y002511D01*
X001726Y002539D01*
X001683Y002571D01*
X001643Y002605D01*
X001605Y002643D01*
X001571Y002683D01*
X001539Y002726D01*
X001511Y002771D01*
X001486Y002817D01*
X001465Y002866D01*
X001447Y002916D01*
X001434Y002967D01*
X001424Y003019D01*
X001418Y003072D01*
X001416Y003125D01*
X016100Y005135D02*
X016102Y005178D01*
X016108Y005220D01*
X016118Y005262D01*
X016131Y005303D01*
X016149Y005342D01*
X016170Y005380D01*
X016194Y005415D01*
X016221Y005448D01*
X016252Y005479D01*
X016285Y005506D01*
X016320Y005530D01*
X016358Y005551D01*
X016397Y005569D01*
X016438Y005582D01*
X016480Y005592D01*
X016522Y005598D01*
X016565Y005600D01*
X016608Y005598D01*
X016650Y005592D01*
X016692Y005582D01*
X016733Y005569D01*
X016772Y005551D01*
X016810Y005530D01*
X016845Y005506D01*
X016878Y005479D01*
X016909Y005448D01*
X016936Y005415D01*
X016960Y005380D01*
X016981Y005342D01*
X016999Y005303D01*
X017012Y005262D01*
X017022Y005220D01*
X017028Y005178D01*
X017030Y005135D01*
X017028Y005092D01*
X017022Y005050D01*
X017012Y005008D01*
X016999Y004967D01*
X016981Y004928D01*
X016960Y004890D01*
X016936Y004855D01*
X016909Y004822D01*
X016878Y004791D01*
X016845Y004764D01*
X016810Y004740D01*
X016772Y004719D01*
X016733Y004701D01*
X016692Y004688D01*
X016650Y004678D01*
X016608Y004672D01*
X016565Y004670D01*
X016522Y004672D01*
X016480Y004678D01*
X016438Y004688D01*
X016397Y004701D01*
X016358Y004719D01*
X016320Y004740D01*
X016285Y004764D01*
X016252Y004791D01*
X016221Y004822D01*
X016194Y004855D01*
X016170Y004890D01*
X016149Y004928D01*
X016131Y004967D01*
X016118Y005008D01*
X016108Y005050D01*
X016102Y005092D01*
X016100Y005135D01*
X016100Y018835D02*
X016102Y018878D01*
X016108Y018920D01*
X016118Y018962D01*
X016131Y019003D01*
X016149Y019042D01*
X016170Y019080D01*
X016194Y019115D01*
X016221Y019148D01*
X016252Y019179D01*
X016285Y019206D01*
X016320Y019230D01*
X016358Y019251D01*
X016397Y019269D01*
X016438Y019282D01*
X016480Y019292D01*
X016522Y019298D01*
X016565Y019300D01*
X016608Y019298D01*
X016650Y019292D01*
X016692Y019282D01*
X016733Y019269D01*
X016772Y019251D01*
X016810Y019230D01*
X016845Y019206D01*
X016878Y019179D01*
X016909Y019148D01*
X016936Y019115D01*
X016960Y019080D01*
X016981Y019042D01*
X016999Y019003D01*
X017012Y018962D01*
X017022Y018920D01*
X017028Y018878D01*
X017030Y018835D01*
X017028Y018792D01*
X017022Y018750D01*
X017012Y018708D01*
X016999Y018667D01*
X016981Y018628D01*
X016960Y018590D01*
X016936Y018555D01*
X016909Y018522D01*
X016878Y018491D01*
X016845Y018464D01*
X016810Y018440D01*
X016772Y018419D01*
X016733Y018401D01*
X016692Y018388D01*
X016650Y018378D01*
X016608Y018372D01*
X016565Y018370D01*
X016522Y018372D01*
X016480Y018378D01*
X016438Y018388D01*
X016397Y018401D01*
X016358Y018419D01*
X016320Y018440D01*
X016285Y018464D01*
X016252Y018491D01*
X016221Y018522D01*
X016194Y018555D01*
X016170Y018590D01*
X016149Y018628D01*
X016131Y018667D01*
X016118Y018708D01*
X016108Y018750D01*
X016102Y018792D01*
X016100Y018835D01*
X001416Y032525D02*
X001418Y032578D01*
X001424Y032631D01*
X001434Y032683D01*
X001447Y032734D01*
X001465Y032784D01*
X001486Y032833D01*
X001511Y032880D01*
X001539Y032924D01*
X001571Y032967D01*
X001605Y033007D01*
X001643Y033045D01*
X001683Y033079D01*
X001726Y033111D01*
X001771Y033139D01*
X001817Y033164D01*
X001866Y033185D01*
X001916Y033203D01*
X001967Y033216D01*
X002019Y033226D01*
X002072Y033232D01*
X002125Y033234D01*
X002178Y033232D01*
X002231Y033226D01*
X002283Y033216D01*
X002334Y033203D01*
X002384Y033185D01*
X002433Y033164D01*
X002480Y033139D01*
X002524Y033111D01*
X002567Y033079D01*
X002607Y033045D01*
X002645Y033007D01*
X002679Y032967D01*
X002711Y032924D01*
X002739Y032879D01*
X002764Y032833D01*
X002785Y032784D01*
X002803Y032734D01*
X002816Y032683D01*
X002826Y032631D01*
X002832Y032578D01*
X002834Y032525D01*
X002832Y032472D01*
X002826Y032419D01*
X002816Y032367D01*
X002803Y032316D01*
X002785Y032266D01*
X002764Y032217D01*
X002739Y032170D01*
X002711Y032126D01*
X002679Y032083D01*
X002645Y032043D01*
X002607Y032005D01*
X002567Y031971D01*
X002524Y031939D01*
X002479Y031911D01*
X002433Y031886D01*
X002384Y031865D01*
X002334Y031847D01*
X002283Y031834D01*
X002231Y031824D01*
X002178Y031818D01*
X002125Y031816D01*
X002072Y031818D01*
X002019Y031824D01*
X001967Y031834D01*
X001916Y031847D01*
X001866Y031865D01*
X001817Y031886D01*
X001770Y031911D01*
X001726Y031939D01*
X001683Y031971D01*
X001643Y032005D01*
X001605Y032043D01*
X001571Y032083D01*
X001539Y032126D01*
X001511Y032171D01*
X001486Y032217D01*
X001465Y032266D01*
X001447Y032316D01*
X001434Y032367D01*
X001424Y032419D01*
X001418Y032472D01*
X001416Y032525D01*
X035216Y033525D02*
X035218Y033578D01*
X035224Y033631D01*
X035234Y033683D01*
X035247Y033734D01*
X035265Y033784D01*
X035286Y033833D01*
X035311Y033880D01*
X035339Y033924D01*
X035371Y033967D01*
X035405Y034007D01*
X035443Y034045D01*
X035483Y034079D01*
X035526Y034111D01*
X035571Y034139D01*
X035617Y034164D01*
X035666Y034185D01*
X035716Y034203D01*
X035767Y034216D01*
X035819Y034226D01*
X035872Y034232D01*
X035925Y034234D01*
X035978Y034232D01*
X036031Y034226D01*
X036083Y034216D01*
X036134Y034203D01*
X036184Y034185D01*
X036233Y034164D01*
X036280Y034139D01*
X036324Y034111D01*
X036367Y034079D01*
X036407Y034045D01*
X036445Y034007D01*
X036479Y033967D01*
X036511Y033924D01*
X036539Y033879D01*
X036564Y033833D01*
X036585Y033784D01*
X036603Y033734D01*
X036616Y033683D01*
X036626Y033631D01*
X036632Y033578D01*
X036634Y033525D01*
X036632Y033472D01*
X036626Y033419D01*
X036616Y033367D01*
X036603Y033316D01*
X036585Y033266D01*
X036564Y033217D01*
X036539Y033170D01*
X036511Y033126D01*
X036479Y033083D01*
X036445Y033043D01*
X036407Y033005D01*
X036367Y032971D01*
X036324Y032939D01*
X036279Y032911D01*
X036233Y032886D01*
X036184Y032865D01*
X036134Y032847D01*
X036083Y032834D01*
X036031Y032824D01*
X035978Y032818D01*
X035925Y032816D01*
X035872Y032818D01*
X035819Y032824D01*
X035767Y032834D01*
X035716Y032847D01*
X035666Y032865D01*
X035617Y032886D01*
X035570Y032911D01*
X035526Y032939D01*
X035483Y032971D01*
X035443Y033005D01*
X035405Y033043D01*
X035371Y033083D01*
X035339Y033126D01*
X035311Y033171D01*
X035286Y033217D01*
X035265Y033266D01*
X035247Y033316D01*
X035234Y033367D01*
X035224Y033419D01*
X035218Y033472D01*
X035216Y033525D01*
X035750Y018835D02*
X035752Y018878D01*
X035758Y018920D01*
X035768Y018962D01*
X035781Y019003D01*
X035799Y019042D01*
X035820Y019080D01*
X035844Y019115D01*
X035871Y019148D01*
X035902Y019179D01*
X035935Y019206D01*
X035970Y019230D01*
X036008Y019251D01*
X036047Y019269D01*
X036088Y019282D01*
X036130Y019292D01*
X036172Y019298D01*
X036215Y019300D01*
X036258Y019298D01*
X036300Y019292D01*
X036342Y019282D01*
X036383Y019269D01*
X036422Y019251D01*
X036460Y019230D01*
X036495Y019206D01*
X036528Y019179D01*
X036559Y019148D01*
X036586Y019115D01*
X036610Y019080D01*
X036631Y019042D01*
X036649Y019003D01*
X036662Y018962D01*
X036672Y018920D01*
X036678Y018878D01*
X036680Y018835D01*
X036678Y018792D01*
X036672Y018750D01*
X036662Y018708D01*
X036649Y018667D01*
X036631Y018628D01*
X036610Y018590D01*
X036586Y018555D01*
X036559Y018522D01*
X036528Y018491D01*
X036495Y018464D01*
X036460Y018440D01*
X036422Y018419D01*
X036383Y018401D01*
X036342Y018388D01*
X036300Y018378D01*
X036258Y018372D01*
X036215Y018370D01*
X036172Y018372D01*
X036130Y018378D01*
X036088Y018388D01*
X036047Y018401D01*
X036008Y018419D01*
X035970Y018440D01*
X035935Y018464D01*
X035902Y018491D01*
X035871Y018522D01*
X035844Y018555D01*
X035820Y018590D01*
X035799Y018628D01*
X035781Y018667D01*
X035768Y018708D01*
X035758Y018750D01*
X035752Y018792D01*
X035750Y018835D01*
X035750Y005135D02*
X035752Y005178D01*
X035758Y005220D01*
X035768Y005262D01*
X035781Y005303D01*
X035799Y005342D01*
X035820Y005380D01*
X035844Y005415D01*
X035871Y005448D01*
X035902Y005479D01*
X035935Y005506D01*
X035970Y005530D01*
X036008Y005551D01*
X036047Y005569D01*
X036088Y005582D01*
X036130Y005592D01*
X036172Y005598D01*
X036215Y005600D01*
X036258Y005598D01*
X036300Y005592D01*
X036342Y005582D01*
X036383Y005569D01*
X036422Y005551D01*
X036460Y005530D01*
X036495Y005506D01*
X036528Y005479D01*
X036559Y005448D01*
X036586Y005415D01*
X036610Y005380D01*
X036631Y005342D01*
X036649Y005303D01*
X036662Y005262D01*
X036672Y005220D01*
X036678Y005178D01*
X036680Y005135D01*
X036678Y005092D01*
X036672Y005050D01*
X036662Y005008D01*
X036649Y004967D01*
X036631Y004928D01*
X036610Y004890D01*
X036586Y004855D01*
X036559Y004822D01*
X036528Y004791D01*
X036495Y004764D01*
X036460Y004740D01*
X036422Y004719D01*
X036383Y004701D01*
X036342Y004688D01*
X036300Y004678D01*
X036258Y004672D01*
X036215Y004670D01*
X036172Y004672D01*
X036130Y004678D01*
X036088Y004688D01*
X036047Y004701D01*
X036008Y004719D01*
X035970Y004740D01*
X035935Y004764D01*
X035902Y004791D01*
X035871Y004822D01*
X035844Y004855D01*
X035820Y004890D01*
X035799Y004928D01*
X035781Y004967D01*
X035768Y005008D01*
X035758Y005050D01*
X035752Y005092D01*
X035750Y005135D01*
X035216Y002125D02*
X035218Y002178D01*
X035224Y002231D01*
X035234Y002283D01*
X035247Y002334D01*
X035265Y002384D01*
X035286Y002433D01*
X035311Y002480D01*
X035339Y002524D01*
X035371Y002567D01*
X035405Y002607D01*
X035443Y002645D01*
X035483Y002679D01*
X035526Y002711D01*
X035571Y002739D01*
X035617Y002764D01*
X035666Y002785D01*
X035716Y002803D01*
X035767Y002816D01*
X035819Y002826D01*
X035872Y002832D01*
X035925Y002834D01*
X035978Y002832D01*
X036031Y002826D01*
X036083Y002816D01*
X036134Y002803D01*
X036184Y002785D01*
X036233Y002764D01*
X036280Y002739D01*
X036324Y002711D01*
X036367Y002679D01*
X036407Y002645D01*
X036445Y002607D01*
X036479Y002567D01*
X036511Y002524D01*
X036539Y002479D01*
X036564Y002433D01*
X036585Y002384D01*
X036603Y002334D01*
X036616Y002283D01*
X036626Y002231D01*
X036632Y002178D01*
X036634Y002125D01*
X036632Y002072D01*
X036626Y002019D01*
X036616Y001967D01*
X036603Y001916D01*
X036585Y001866D01*
X036564Y001817D01*
X036539Y001770D01*
X036511Y001726D01*
X036479Y001683D01*
X036445Y001643D01*
X036407Y001605D01*
X036367Y001571D01*
X036324Y001539D01*
X036279Y001511D01*
X036233Y001486D01*
X036184Y001465D01*
X036134Y001447D01*
X036083Y001434D01*
X036031Y001424D01*
X035978Y001418D01*
X035925Y001416D01*
X035872Y001418D01*
X035819Y001424D01*
X035767Y001434D01*
X035716Y001447D01*
X035666Y001465D01*
X035617Y001486D01*
X035570Y001511D01*
X035526Y001539D01*
X035483Y001571D01*
X035443Y001605D01*
X035405Y001643D01*
X035371Y001683D01*
X035339Y001726D01*
X035311Y001771D01*
X035286Y001817D01*
X035265Y001866D01*
X035247Y001916D01*
X035234Y001967D01*
X035224Y002019D01*
X035218Y002072D01*
X035216Y002125D01*
X037915Y000135D02*
X037925Y000135D01*
M02*
