M48
;DRILL file {kicad (2015-04-08 BZR 5585)-product} date Tue 26 Apr 2016 06:00:03 PM CLT
;FORMAT={-:-/ absolute / metric / decimal}
FMAT,2
METRIC,TZ
T1C0.400
T2C1.001
T3C1.016
%
G90
G05
M71
T1
X66.Y-114.5
X66.Y-122.4
X66.Y-134.9
X66.Y-142.5
X72.4Y-132.2
X72.4Y-140.2
X72.9Y-120.
X73.Y-112.2
X73.5Y-115.
X74.5Y-122.5
X74.5Y-135.
X74.5Y-142.
X78.9Y-113.1
X80.4Y-102.4
X80.7Y-107.9
X82.8Y-112.
X85.5Y-81.75
X95.6Y-102.6
X103.1Y-110.7
X109.3Y-107.9
X109.3Y-111.8
T2
X111.2Y-103.1
X126.2Y-103.1
T3
X56.Y-86.3
X56.Y-88.84
X56.Y-91.38
X56.Y-93.92
X56.Y-96.46
X56.Y-99.
X56.2Y-66.7
X56.2Y-69.24
X56.2Y-71.78
X56.2Y-74.32
X56.2Y-76.86
X56.2Y-79.4
X59.69Y-109.41
X59.69Y-111.95
X59.69Y-114.49
X59.69Y-117.03
X59.69Y-119.57
X59.69Y-122.11
X59.69Y-128.46
X59.69Y-131.
X59.69Y-133.54
X59.69Y-136.08
X59.69Y-138.62
X59.69Y-141.16
X69.74Y-85.
X69.74Y-87.54
X72.28Y-85.
X72.28Y-87.54
X74.82Y-85.
X74.82Y-87.54
X77.36Y-85.
X77.36Y-87.54
X79.9Y-85.
X79.9Y-87.54
X82.44Y-85.
X82.44Y-87.54
X84.93Y-126.46
X84.93Y-129.
X84.93Y-131.54
X84.93Y-134.08
X84.98Y-85.
X84.98Y-87.54
X87.47Y-126.46
X87.47Y-129.
X87.47Y-131.54
X87.47Y-134.08
X87.52Y-85.
X87.52Y-87.54
X90.01Y-126.46
X90.01Y-129.
X90.01Y-131.54
X90.01Y-134.08
X90.06Y-85.
X90.06Y-87.54
X92.55Y-126.46
X92.55Y-129.
X92.55Y-131.54
X92.55Y-134.08
X92.6Y-85.
X92.6Y-87.54
X95.09Y-126.46
X95.09Y-129.
X95.09Y-131.54
X95.09Y-134.08
X95.14Y-85.
X95.14Y-87.54
X97.63Y-126.46
X97.63Y-129.
X97.63Y-131.54
X97.63Y-134.08
X97.68Y-85.
X97.68Y-87.54
X100.17Y-126.46
X100.17Y-129.
X100.17Y-131.54
X100.17Y-134.08
X100.22Y-85.
X100.22Y-87.54
X102.71Y-126.46
X102.71Y-129.
X102.71Y-131.54
X102.71Y-134.08
X102.76Y-85.
X102.76Y-87.54
X105.25Y-126.46
X105.25Y-129.
X105.25Y-131.54
X105.25Y-134.08
X105.3Y-85.
X105.3Y-87.54
X107.79Y-126.46
X107.79Y-129.
X107.79Y-131.54
X107.79Y-134.08
X107.84Y-85.
X107.84Y-87.54
X110.33Y-126.46
X110.33Y-129.
X110.33Y-131.54
X110.33Y-134.08
X110.38Y-85.
X110.38Y-87.54
X112.87Y-126.46
X112.87Y-129.
X112.87Y-131.54
X112.87Y-134.08
X112.92Y-85.
X112.92Y-87.54
X115.41Y-126.46
X115.41Y-129.
X115.41Y-131.54
X115.41Y-134.08
X115.46Y-85.
X115.46Y-87.54
X116.02Y-108.1
X117.95Y-126.46
X117.95Y-129.
X117.95Y-131.54
X117.95Y-134.08
X118.Y-85.
X118.Y-87.54
X118.56Y-108.1
X121.1Y-108.1
X132.08Y-68.58
X132.08Y-71.12
X132.08Y-73.66
X132.08Y-76.2
X132.08Y-78.74
X132.08Y-81.28
X132.08Y-83.82
X132.08Y-86.36
X132.08Y-88.9
X132.08Y-91.44
X132.08Y-93.98
X132.08Y-96.52
X132.08Y-99.06
X132.08Y-101.6
X132.08Y-104.14
X132.08Y-106.68
X132.08Y-109.22
X132.08Y-111.76
X132.08Y-114.3
X132.08Y-116.84
X132.08Y-119.38
X132.08Y-121.92
X132.08Y-124.46
X132.08Y-127.
X132.08Y-129.54
X132.08Y-132.08
X134.62Y-68.58
X134.62Y-71.12
X134.62Y-73.66
X134.62Y-76.2
X134.62Y-78.74
X134.62Y-81.28
X134.62Y-83.82
X134.62Y-86.36
X134.62Y-88.9
X134.62Y-91.44
X134.62Y-93.98
X134.62Y-96.52
X134.62Y-99.06
X134.62Y-101.6
X134.62Y-104.14
X134.62Y-106.68
X134.62Y-109.22
X134.62Y-111.76
X134.62Y-114.3
X134.62Y-116.84
X134.62Y-119.38
X134.62Y-121.92
X134.62Y-124.46
X134.62Y-127.
X134.62Y-129.54
X134.62Y-132.08
X137.16Y-68.58
X137.16Y-71.12
X137.16Y-73.66
X137.16Y-76.2
X137.16Y-78.74
X137.16Y-81.28
X137.16Y-83.82
X137.16Y-86.36
X137.16Y-88.9
X137.16Y-91.44
X137.16Y-93.98
X137.16Y-96.52
X137.16Y-99.06
X137.16Y-101.6
X137.16Y-104.14
X137.16Y-106.68
X137.16Y-109.22
X137.16Y-111.76
X137.16Y-114.3
X137.16Y-116.84
X137.16Y-119.38
X137.16Y-121.92
X137.16Y-124.46
X137.16Y-127.
X137.16Y-129.54
X137.16Y-132.08
X139.7Y-68.58
X139.7Y-71.12
X139.7Y-73.66
X139.7Y-76.2
X139.7Y-78.74
X139.7Y-81.28
X139.7Y-83.82
X139.7Y-86.36
X139.7Y-88.9
X139.7Y-91.44
X139.7Y-93.98
X139.7Y-96.52
X139.7Y-99.06
X139.7Y-101.6
X139.7Y-104.14
X139.7Y-106.68
X139.7Y-109.22
X139.7Y-111.76
X139.7Y-114.3
X139.7Y-116.84
X139.7Y-119.38
X139.7Y-121.92
X139.7Y-124.46
X139.7Y-127.
X139.7Y-129.54
X139.7Y-132.08
T0
M30
