G04 #@! TF.FileFunction,Soldermask,Bot*
%FSLAX46Y46*%
G04 Gerber Fmt 4.6, Leading zero omitted, Abs format (unit mm)*
G04 Created by KiCad (PCBNEW (2015-04-08 BZR 5585)-product) date Tue 26 Apr 2016 05:59:57 PM CLT*
%MOMM*%
G01*
G04 APERTURE LIST*
%ADD10C,0.100000*%
%ADD11R,1.727200X1.727200*%
%ADD12O,1.727200X1.727200*%
%ADD13R,1.727200X2.032000*%
%ADD14O,1.727200X2.032000*%
%ADD15C,1.998980*%
%ADD16R,2.032000X1.727200*%
%ADD17O,2.032000X1.727200*%
G04 APERTURE END LIST*
D10*
D11*
X132080000Y-68580000D03*
D12*
X134620000Y-68580000D03*
X132080000Y-71120000D03*
X134620000Y-71120000D03*
X132080000Y-73660000D03*
X134620000Y-73660000D03*
X132080000Y-76200000D03*
X134620000Y-76200000D03*
X132080000Y-78740000D03*
X134620000Y-78740000D03*
X132080000Y-81280000D03*
X134620000Y-81280000D03*
X132080000Y-83820000D03*
X134620000Y-83820000D03*
X132080000Y-86360000D03*
X134620000Y-86360000D03*
X132080000Y-88900000D03*
X134620000Y-88900000D03*
X132080000Y-91440000D03*
X134620000Y-91440000D03*
X132080000Y-93980000D03*
X134620000Y-93980000D03*
X132080000Y-96520000D03*
X134620000Y-96520000D03*
X132080000Y-99060000D03*
X134620000Y-99060000D03*
X132080000Y-101600000D03*
X134620000Y-101600000D03*
X132080000Y-104140000D03*
X134620000Y-104140000D03*
X132080000Y-106680000D03*
X134620000Y-106680000D03*
X132080000Y-109220000D03*
X134620000Y-109220000D03*
X132080000Y-111760000D03*
X134620000Y-111760000D03*
X132080000Y-114300000D03*
X134620000Y-114300000D03*
X132080000Y-116840000D03*
X134620000Y-116840000D03*
X132080000Y-119380000D03*
X134620000Y-119380000D03*
X132080000Y-121920000D03*
X134620000Y-121920000D03*
X132080000Y-124460000D03*
X134620000Y-124460000D03*
X132080000Y-127000000D03*
X134620000Y-127000000D03*
X132080000Y-129540000D03*
X134620000Y-129540000D03*
X132080000Y-132080000D03*
X134620000Y-132080000D03*
D11*
X137160000Y-68580000D03*
D12*
X139700000Y-68580000D03*
X137160000Y-71120000D03*
X139700000Y-71120000D03*
X137160000Y-73660000D03*
X139700000Y-73660000D03*
X137160000Y-76200000D03*
X139700000Y-76200000D03*
X137160000Y-78740000D03*
X139700000Y-78740000D03*
X137160000Y-81280000D03*
X139700000Y-81280000D03*
X137160000Y-83820000D03*
X139700000Y-83820000D03*
X137160000Y-86360000D03*
X139700000Y-86360000D03*
X137160000Y-88900000D03*
X139700000Y-88900000D03*
X137160000Y-91440000D03*
X139700000Y-91440000D03*
X137160000Y-93980000D03*
X139700000Y-93980000D03*
X137160000Y-96520000D03*
X139700000Y-96520000D03*
X137160000Y-99060000D03*
X139700000Y-99060000D03*
X137160000Y-101600000D03*
X139700000Y-101600000D03*
X137160000Y-104140000D03*
X139700000Y-104140000D03*
X137160000Y-106680000D03*
X139700000Y-106680000D03*
X137160000Y-109220000D03*
X139700000Y-109220000D03*
X137160000Y-111760000D03*
X139700000Y-111760000D03*
X137160000Y-114300000D03*
X139700000Y-114300000D03*
X137160000Y-116840000D03*
X139700000Y-116840000D03*
X137160000Y-119380000D03*
X139700000Y-119380000D03*
X137160000Y-121920000D03*
X139700000Y-121920000D03*
X137160000Y-124460000D03*
X139700000Y-124460000D03*
X137160000Y-127000000D03*
X139700000Y-127000000D03*
X137160000Y-129540000D03*
X139700000Y-129540000D03*
X137160000Y-132080000D03*
X139700000Y-132080000D03*
D13*
X117950000Y-134080000D03*
D14*
X115410000Y-134080000D03*
X112870000Y-134080000D03*
X110330000Y-134080000D03*
X107790000Y-134080000D03*
X105250000Y-134080000D03*
X102710000Y-134080000D03*
X100170000Y-134080000D03*
X97630000Y-134080000D03*
X95090000Y-134080000D03*
X92550000Y-134080000D03*
X90010000Y-134080000D03*
X87470000Y-134080000D03*
X84930000Y-134080000D03*
D13*
X117950000Y-131540000D03*
D14*
X115410000Y-131540000D03*
X112870000Y-131540000D03*
X110330000Y-131540000D03*
X107790000Y-131540000D03*
X105250000Y-131540000D03*
X102710000Y-131540000D03*
X100170000Y-131540000D03*
X97630000Y-131540000D03*
X95090000Y-131540000D03*
X92550000Y-131540000D03*
X90010000Y-131540000D03*
X87470000Y-131540000D03*
X84930000Y-131540000D03*
D13*
X117950000Y-129000000D03*
D14*
X115410000Y-129000000D03*
X112870000Y-129000000D03*
X110330000Y-129000000D03*
X107790000Y-129000000D03*
X105250000Y-129000000D03*
X102710000Y-129000000D03*
X100170000Y-129000000D03*
X97630000Y-129000000D03*
X95090000Y-129000000D03*
X92550000Y-129000000D03*
X90010000Y-129000000D03*
X87470000Y-129000000D03*
X84930000Y-129000000D03*
D13*
X117950000Y-126460000D03*
D14*
X115410000Y-126460000D03*
X112870000Y-126460000D03*
X110330000Y-126460000D03*
X107790000Y-126460000D03*
X105250000Y-126460000D03*
X102710000Y-126460000D03*
X100170000Y-126460000D03*
X97630000Y-126460000D03*
X95090000Y-126460000D03*
X92550000Y-126460000D03*
X90010000Y-126460000D03*
X87470000Y-126460000D03*
X84930000Y-126460000D03*
D13*
X121100000Y-108100000D03*
D14*
X118560000Y-108100000D03*
X116020000Y-108100000D03*
D15*
X126200000Y-103100000D03*
X111200000Y-103100000D03*
D16*
X59690000Y-141160000D03*
D17*
X59690000Y-138620000D03*
X59690000Y-136080000D03*
X59690000Y-133540000D03*
X59690000Y-131000000D03*
X59690000Y-128460000D03*
D16*
X59690000Y-122110000D03*
D17*
X59690000Y-119570000D03*
X59690000Y-117030000D03*
X59690000Y-114490000D03*
X59690000Y-111950000D03*
X59690000Y-109410000D03*
D16*
X56000000Y-99000000D03*
D17*
X56000000Y-96460000D03*
X56000000Y-93920000D03*
X56000000Y-91380000D03*
X56000000Y-88840000D03*
X56000000Y-86300000D03*
D16*
X56200000Y-79400000D03*
D17*
X56200000Y-76860000D03*
X56200000Y-74320000D03*
X56200000Y-71780000D03*
X56200000Y-69240000D03*
X56200000Y-66700000D03*
D11*
X118000000Y-85000000D03*
D12*
X118000000Y-87540000D03*
X115460000Y-85000000D03*
X115460000Y-87540000D03*
X112920000Y-85000000D03*
X112920000Y-87540000D03*
X110380000Y-85000000D03*
X110380000Y-87540000D03*
X107840000Y-85000000D03*
X107840000Y-87540000D03*
X105300000Y-85000000D03*
X105300000Y-87540000D03*
X102760000Y-85000000D03*
X102760000Y-87540000D03*
X100220000Y-85000000D03*
X100220000Y-87540000D03*
X97680000Y-85000000D03*
X97680000Y-87540000D03*
X95140000Y-85000000D03*
X95140000Y-87540000D03*
X92600000Y-85000000D03*
X92600000Y-87540000D03*
X90060000Y-85000000D03*
X90060000Y-87540000D03*
X87520000Y-85000000D03*
X87520000Y-87540000D03*
X84980000Y-85000000D03*
X84980000Y-87540000D03*
X82440000Y-85000000D03*
X82440000Y-87540000D03*
X79900000Y-85000000D03*
X79900000Y-87540000D03*
X77360000Y-85000000D03*
X77360000Y-87540000D03*
X74820000Y-85000000D03*
X74820000Y-87540000D03*
X72280000Y-85000000D03*
X72280000Y-87540000D03*
X69740000Y-85000000D03*
X69740000Y-87540000D03*
M02*
