G04 #@! TF.FileFunction,Copper,L1,Top,Signal*
%FSLAX46Y46*%
G04 Gerber Fmt 4.6, Leading zero omitted, Abs format (unit mm)*
G04 Created by KiCad (PCBNEW (2015-04-08 BZR 5585)-product) date Thu 09 Apr 2015 06:27:39 PM CLST*
%MOMM*%
G01*
G04 APERTURE LIST*
%ADD10C,0.100000*%
%ADD11R,1.727200X1.727200*%
%ADD12O,1.727200X1.727200*%
%ADD13R,2.032000X1.727200*%
%ADD14O,2.032000X1.727200*%
%ADD15R,1.727200X2.032000*%
%ADD16O,1.727200X2.032000*%
%ADD17R,1.450000X0.450000*%
%ADD18C,0.600000*%
%ADD19C,0.250000*%
%ADD20C,0.254000*%
G04 APERTURE END LIST*
D10*
D11*
X132080000Y-68580000D03*
D12*
X134620000Y-68580000D03*
X132080000Y-71120000D03*
X134620000Y-71120000D03*
X132080000Y-73660000D03*
X134620000Y-73660000D03*
X132080000Y-76200000D03*
X134620000Y-76200000D03*
X132080000Y-78740000D03*
X134620000Y-78740000D03*
X132080000Y-81280000D03*
X134620000Y-81280000D03*
X132080000Y-83820000D03*
X134620000Y-83820000D03*
X132080000Y-86360000D03*
X134620000Y-86360000D03*
X132080000Y-88900000D03*
X134620000Y-88900000D03*
X132080000Y-91440000D03*
X134620000Y-91440000D03*
X132080000Y-93980000D03*
X134620000Y-93980000D03*
X132080000Y-96520000D03*
X134620000Y-96520000D03*
X132080000Y-99060000D03*
X134620000Y-99060000D03*
X132080000Y-101600000D03*
X134620000Y-101600000D03*
X132080000Y-104140000D03*
X134620000Y-104140000D03*
X132080000Y-106680000D03*
X134620000Y-106680000D03*
X132080000Y-109220000D03*
X134620000Y-109220000D03*
X132080000Y-111760000D03*
X134620000Y-111760000D03*
X132080000Y-114300000D03*
X134620000Y-114300000D03*
X132080000Y-116840000D03*
X134620000Y-116840000D03*
X132080000Y-119380000D03*
X134620000Y-119380000D03*
X132080000Y-121920000D03*
X134620000Y-121920000D03*
X132080000Y-124460000D03*
X134620000Y-124460000D03*
X132080000Y-127000000D03*
X134620000Y-127000000D03*
X132080000Y-129540000D03*
X134620000Y-129540000D03*
X132080000Y-132080000D03*
X134620000Y-132080000D03*
D11*
X137160000Y-68580000D03*
D12*
X139700000Y-68580000D03*
X137160000Y-71120000D03*
X139700000Y-71120000D03*
X137160000Y-73660000D03*
X139700000Y-73660000D03*
X137160000Y-76200000D03*
X139700000Y-76200000D03*
X137160000Y-78740000D03*
X139700000Y-78740000D03*
X137160000Y-81280000D03*
X139700000Y-81280000D03*
X137160000Y-83820000D03*
X139700000Y-83820000D03*
X137160000Y-86360000D03*
X139700000Y-86360000D03*
X137160000Y-88900000D03*
X139700000Y-88900000D03*
X137160000Y-91440000D03*
X139700000Y-91440000D03*
X137160000Y-93980000D03*
X139700000Y-93980000D03*
X137160000Y-96520000D03*
X139700000Y-96520000D03*
X137160000Y-99060000D03*
X139700000Y-99060000D03*
X137160000Y-101600000D03*
X139700000Y-101600000D03*
X137160000Y-104140000D03*
X139700000Y-104140000D03*
X137160000Y-106680000D03*
X139700000Y-106680000D03*
X137160000Y-109220000D03*
X139700000Y-109220000D03*
X137160000Y-111760000D03*
X139700000Y-111760000D03*
X137160000Y-114300000D03*
X139700000Y-114300000D03*
X137160000Y-116840000D03*
X139700000Y-116840000D03*
X137160000Y-119380000D03*
X139700000Y-119380000D03*
X137160000Y-121920000D03*
X139700000Y-121920000D03*
X137160000Y-124460000D03*
X139700000Y-124460000D03*
X137160000Y-127000000D03*
X139700000Y-127000000D03*
X137160000Y-129540000D03*
X139700000Y-129540000D03*
X137160000Y-132080000D03*
X139700000Y-132080000D03*
D13*
X71120000Y-93980000D03*
D14*
X71120000Y-96520000D03*
X71120000Y-99060000D03*
X71120000Y-101600000D03*
X71120000Y-104140000D03*
X71120000Y-106680000D03*
X71120000Y-109220000D03*
X71120000Y-111760000D03*
X71120000Y-114300000D03*
X71120000Y-116840000D03*
X71120000Y-119380000D03*
X71120000Y-121920000D03*
X71120000Y-124460000D03*
X71120000Y-127000000D03*
D13*
X68580000Y-93980000D03*
D14*
X68580000Y-96520000D03*
X68580000Y-99060000D03*
X68580000Y-101600000D03*
X68580000Y-104140000D03*
X68580000Y-106680000D03*
X68580000Y-109220000D03*
X68580000Y-111760000D03*
X68580000Y-114300000D03*
X68580000Y-116840000D03*
X68580000Y-119380000D03*
X68580000Y-121920000D03*
X68580000Y-124460000D03*
X68580000Y-127000000D03*
D13*
X66040000Y-93980000D03*
D14*
X66040000Y-96520000D03*
X66040000Y-99060000D03*
X66040000Y-101600000D03*
X66040000Y-104140000D03*
X66040000Y-106680000D03*
X66040000Y-109220000D03*
X66040000Y-111760000D03*
X66040000Y-114300000D03*
X66040000Y-116840000D03*
X66040000Y-119380000D03*
X66040000Y-121920000D03*
X66040000Y-124460000D03*
X66040000Y-127000000D03*
D13*
X63500000Y-93980000D03*
D14*
X63500000Y-96520000D03*
X63500000Y-99060000D03*
X63500000Y-101600000D03*
X63500000Y-104140000D03*
X63500000Y-106680000D03*
X63500000Y-109220000D03*
X63500000Y-111760000D03*
X63500000Y-114300000D03*
X63500000Y-116840000D03*
X63500000Y-119380000D03*
X63500000Y-121920000D03*
X63500000Y-124460000D03*
X63500000Y-127000000D03*
D15*
X100330000Y-97790000D03*
D16*
X97790000Y-97790000D03*
X95250000Y-97790000D03*
D15*
X101600000Y-120650000D03*
D16*
X99060000Y-120650000D03*
X96520000Y-120650000D03*
D17*
X95100000Y-85485000D03*
X95100000Y-86135000D03*
X95100000Y-86785000D03*
X95100000Y-87435000D03*
X95100000Y-88085000D03*
X95100000Y-88735000D03*
X95100000Y-89385000D03*
X95100000Y-90035000D03*
X95100000Y-90685000D03*
X95100000Y-91335000D03*
X101000000Y-91335000D03*
X101000000Y-90685000D03*
X101000000Y-90035000D03*
X101000000Y-89385000D03*
X101000000Y-88735000D03*
X101000000Y-88085000D03*
X101000000Y-87435000D03*
X101000000Y-86785000D03*
X101000000Y-86135000D03*
X101000000Y-85485000D03*
X96100000Y-109335000D03*
X96100000Y-109985000D03*
X96100000Y-110635000D03*
X96100000Y-111285000D03*
X96100000Y-111935000D03*
X96100000Y-112585000D03*
X96100000Y-113235000D03*
X96100000Y-113885000D03*
X96100000Y-114535000D03*
X96100000Y-115185000D03*
X102000000Y-115185000D03*
X102000000Y-114535000D03*
X102000000Y-113885000D03*
X102000000Y-113235000D03*
X102000000Y-112585000D03*
X102000000Y-111935000D03*
X102000000Y-111285000D03*
X102000000Y-110635000D03*
X102000000Y-109985000D03*
X102000000Y-109335000D03*
D18*
X88000000Y-86500000D03*
X88000000Y-108000000D03*
X123190000Y-93980000D03*
X127000000Y-95250000D03*
X83820000Y-113030000D03*
X74930000Y-119380000D03*
X85090000Y-114300000D03*
X74930000Y-121920000D03*
X90170000Y-101600000D03*
X91440000Y-119380000D03*
X74960000Y-97760000D03*
X74550000Y-113000000D03*
X109220000Y-86360000D03*
X125730000Y-92710000D03*
X86360000Y-90170000D03*
X76200000Y-125730000D03*
X111760000Y-87630000D03*
X125730000Y-90170000D03*
X116840000Y-87630000D03*
X125730000Y-87630000D03*
X77470000Y-99060000D03*
X82550000Y-97790000D03*
X118110000Y-88900000D03*
X125730000Y-88900000D03*
X76200000Y-111760000D03*
X76200000Y-105410000D03*
X111760000Y-91440000D03*
X110490000Y-92710000D03*
X123190000Y-100330000D03*
X105410000Y-97790000D03*
X104140000Y-85090000D03*
D19*
X88000000Y-85485000D02*
X88000000Y-86500000D01*
X89335000Y-109335000D02*
X88000000Y-108000000D01*
X89335000Y-109335000D02*
X96100000Y-109335000D01*
X88000000Y-85485000D02*
X88000000Y-85500000D01*
X88000000Y-85500000D02*
X88000000Y-85485000D01*
X83000000Y-85910000D02*
X83425000Y-85485000D01*
X66040000Y-96520000D02*
X67310000Y-95250000D01*
X83425000Y-85485000D02*
X88000000Y-85485000D01*
X88000000Y-85485000D02*
X95100000Y-85485000D01*
X73660000Y-95250000D02*
X83000000Y-85910000D01*
X67310000Y-95250000D02*
X73660000Y-95250000D01*
X66040000Y-110490000D02*
X64770000Y-110490000D01*
X85265000Y-111935000D02*
X83820000Y-110490000D01*
X83820000Y-110490000D02*
X66040000Y-110490000D01*
X96100000Y-111935000D02*
X85265000Y-111935000D01*
X64770000Y-110490000D02*
X63500000Y-109220000D01*
X96100000Y-112585000D02*
X84645000Y-112585000D01*
X69850000Y-115570000D02*
X68580000Y-116840000D01*
X77470000Y-115570000D02*
X69850000Y-115570000D01*
X81280000Y-111760000D02*
X77470000Y-115570000D01*
X83820000Y-111760000D02*
X81280000Y-111760000D01*
X84645000Y-112585000D02*
X83820000Y-111760000D01*
X134620000Y-96520000D02*
X134620000Y-96420000D01*
X134620000Y-96420000D02*
X133400000Y-95200000D01*
X116840000Y-100330000D02*
X123190000Y-93980000D01*
X102000000Y-112585000D02*
X104585000Y-112585000D01*
X104585000Y-112585000D02*
X116840000Y-100330000D01*
X127050000Y-95200000D02*
X127000000Y-95250000D01*
X133400000Y-95200000D02*
X127050000Y-95200000D01*
X71120000Y-119380000D02*
X74930000Y-119380000D01*
X83820000Y-113030000D02*
X84025000Y-113235000D01*
X84025000Y-113235000D02*
X96100000Y-113235000D01*
X116600000Y-101800000D02*
X124400000Y-94000000D01*
X105165000Y-113235000D02*
X116600000Y-101800000D01*
X102000000Y-113235000D02*
X105165000Y-113235000D01*
X124400000Y-94000000D02*
X132060000Y-94000000D01*
X132060000Y-94000000D02*
X132080000Y-93980000D01*
X71120000Y-121920000D02*
X74930000Y-121920000D01*
X85505000Y-113885000D02*
X85090000Y-114300000D01*
X85505000Y-113885000D02*
X96100000Y-113885000D01*
X106680000Y-113030000D02*
X123190000Y-96520000D01*
X105825000Y-113885000D02*
X106680000Y-113030000D01*
X102000000Y-113885000D02*
X105825000Y-113885000D01*
X123190000Y-96520000D02*
X132080000Y-96520000D01*
X96100000Y-114535000D02*
X87395000Y-114535000D01*
X69850000Y-118110000D02*
X68580000Y-119380000D01*
X83820000Y-118110000D02*
X69850000Y-118110000D01*
X87395000Y-114535000D02*
X83820000Y-118110000D01*
X132800000Y-97790000D02*
X134990000Y-97790000D01*
X135900000Y-95260000D02*
X134620000Y-93980000D01*
X135900000Y-97300000D02*
X135900000Y-95260000D01*
X135400000Y-97800000D02*
X135900000Y-97300000D01*
X135000000Y-97800000D02*
X135400000Y-97800000D01*
X134990000Y-97790000D02*
X135000000Y-97800000D01*
X106445000Y-114535000D02*
X123190000Y-97790000D01*
X132810000Y-97790000D02*
X132800000Y-97790000D01*
X132800000Y-97790000D02*
X128270000Y-97790000D01*
X102000000Y-114535000D02*
X106445000Y-114535000D01*
X123190000Y-97790000D02*
X128270000Y-97790000D01*
X134620000Y-93980000D02*
X134020000Y-93980000D01*
X139700000Y-104140000D02*
X139700000Y-106680000D01*
X137160000Y-104140000D02*
X139700000Y-104140000D01*
X96520000Y-120650000D02*
X92710000Y-120650000D01*
X93980000Y-100330000D02*
X95250000Y-99060000D01*
X91440000Y-100330000D02*
X93980000Y-100330000D01*
X90170000Y-101600000D02*
X91440000Y-100330000D01*
X92710000Y-120650000D02*
X91440000Y-119380000D01*
X96520000Y-120650000D02*
X96520000Y-121920000D01*
X103755000Y-115185000D02*
X102000000Y-115185000D01*
X105410000Y-116840000D02*
X103755000Y-115185000D01*
X105410000Y-121920000D02*
X105410000Y-116840000D01*
X104140000Y-123190000D02*
X105410000Y-121920000D01*
X97790000Y-123190000D02*
X104140000Y-123190000D01*
X96520000Y-121920000D02*
X97790000Y-123190000D01*
X101000000Y-91335000D02*
X102765000Y-91335000D01*
X102765000Y-91335000D02*
X104140000Y-92710000D01*
X104140000Y-92710000D02*
X104140000Y-99060000D01*
X104140000Y-99060000D02*
X102870000Y-100330000D01*
X102870000Y-100330000D02*
X96520000Y-100330000D01*
X96520000Y-100330000D02*
X95250000Y-99060000D01*
X95250000Y-99060000D02*
X95250000Y-97790000D01*
X137160000Y-104140000D02*
X135890000Y-105410000D01*
X119765000Y-115185000D02*
X102000000Y-115185000D01*
X129540000Y-105410000D02*
X119765000Y-115185000D01*
X130810000Y-105410000D02*
X129540000Y-105410000D01*
X132080000Y-105410000D02*
X130810000Y-105410000D01*
X135890000Y-105410000D02*
X132080000Y-105410000D01*
X66040000Y-99060000D02*
X64770000Y-97790000D01*
X64770000Y-97790000D02*
X60960000Y-97790000D01*
X74550000Y-113000000D02*
X67340000Y-113000000D01*
X67340000Y-113000000D02*
X66100000Y-111760000D01*
X66100000Y-111760000D02*
X66040000Y-111760000D01*
X74550000Y-113000000D02*
X74450000Y-113100000D01*
X85285000Y-87435000D02*
X74960000Y-97760000D01*
X74960000Y-97760000D02*
X74930000Y-97790000D01*
X85285000Y-87435000D02*
X95100000Y-87435000D01*
X134620000Y-91440000D02*
X133350000Y-92710000D01*
X109220000Y-86360000D02*
X107950000Y-86360000D01*
X107950000Y-86360000D02*
X106875000Y-87435000D01*
X106875000Y-87435000D02*
X101000000Y-87435000D01*
X127000000Y-92710000D02*
X125730000Y-92710000D01*
X133350000Y-92710000D02*
X127000000Y-92710000D01*
X68580000Y-124460000D02*
X69850000Y-125730000D01*
X86360000Y-90170000D02*
X88445000Y-88085000D01*
X88445000Y-88085000D02*
X95100000Y-88085000D01*
X72390000Y-125730000D02*
X76200000Y-125730000D01*
X69850000Y-125730000D02*
X72390000Y-125730000D01*
X132080000Y-91440000D02*
X129540000Y-91440000D01*
X111760000Y-87630000D02*
X111305000Y-88085000D01*
X111305000Y-88085000D02*
X101000000Y-88085000D01*
X128270000Y-90170000D02*
X125730000Y-90170000D01*
X129540000Y-91440000D02*
X128270000Y-90170000D01*
X95100000Y-88735000D02*
X90335000Y-88735000D01*
X74930000Y-104140000D02*
X71120000Y-104140000D01*
X90335000Y-88735000D02*
X74930000Y-104140000D01*
X134620000Y-88900000D02*
X133350000Y-87630000D01*
X113195000Y-88735000D02*
X101000000Y-88735000D01*
X114300000Y-87630000D02*
X113195000Y-88735000D01*
X114300000Y-87630000D02*
X116840000Y-87630000D01*
X133350000Y-87630000D02*
X125730000Y-87630000D01*
X95100000Y-89385000D02*
X90955000Y-89385000D01*
X64770000Y-100330000D02*
X63500000Y-99060000D01*
X76200000Y-100330000D02*
X64770000Y-100330000D01*
X77470000Y-99060000D02*
X76200000Y-100330000D01*
X90955000Y-89385000D02*
X82550000Y-97790000D01*
X101000000Y-89385000D02*
X115085000Y-89385000D01*
X115570000Y-88900000D02*
X115085000Y-89385000D01*
X115570000Y-88900000D02*
X118110000Y-88900000D01*
X125730000Y-88900000D02*
X132080000Y-88900000D01*
X95100000Y-90035000D02*
X91575000Y-90035000D01*
X73050000Y-111800000D02*
X71120000Y-111760000D01*
X74900000Y-111800000D02*
X73050000Y-111800000D01*
X76200000Y-111760000D02*
X74900000Y-111800000D01*
X91575000Y-90035000D02*
X76200000Y-105410000D01*
X101000000Y-90035000D02*
X110355000Y-90035000D01*
X110355000Y-90035000D02*
X111760000Y-91440000D01*
X95100000Y-90685000D02*
X92195000Y-90685000D01*
X69850000Y-107950000D02*
X68580000Y-106680000D01*
X74930000Y-107950000D02*
X69850000Y-107950000D01*
X92195000Y-90685000D02*
X74930000Y-107950000D01*
X108465000Y-90685000D02*
X101000000Y-90685000D01*
X110490000Y-92710000D02*
X108465000Y-90685000D01*
X120650000Y-85090000D02*
X120650000Y-87630000D01*
X135890000Y-77470000D02*
X128270000Y-77470000D01*
X128270000Y-77470000D02*
X120650000Y-85090000D01*
X137160000Y-78740000D02*
X135890000Y-77470000D01*
X103965000Y-111935000D02*
X102000000Y-111935000D01*
X107950000Y-107950000D02*
X103965000Y-111935000D01*
X107950000Y-100330000D02*
X107950000Y-107950000D01*
X109220000Y-99060000D02*
X107950000Y-100330000D01*
X120650000Y-87630000D02*
X109220000Y-99060000D01*
X63500000Y-93980000D02*
X63500000Y-91500000D01*
X102500000Y-83500000D02*
X104140000Y-85090000D01*
X71498701Y-83480954D02*
X102500000Y-83500000D01*
X63500000Y-91500000D02*
X71498701Y-83480954D01*
X101000000Y-85485000D02*
X98665000Y-85485000D01*
X100330000Y-95250000D02*
X100330000Y-97790000D01*
X97790000Y-92710000D02*
X100330000Y-95250000D01*
X97790000Y-86360000D02*
X97790000Y-92710000D01*
X98665000Y-85485000D02*
X97790000Y-86360000D01*
X99290000Y-110490000D02*
X99290000Y-117070000D01*
X100445000Y-109335000D02*
X99290000Y-110490000D01*
X102000000Y-109335000D02*
X100445000Y-109335000D01*
X101600000Y-119380000D02*
X101600000Y-120650000D01*
X99290000Y-117070000D02*
X101600000Y-119380000D01*
X139700000Y-101600000D02*
X137160000Y-101600000D01*
X137160000Y-101600000D02*
X135890000Y-100330000D01*
X135890000Y-100330000D02*
X123190000Y-100330000D01*
X101000000Y-85485000D02*
X103745000Y-85485000D01*
X104025000Y-109335000D02*
X102000000Y-109335000D01*
X105410000Y-107950000D02*
X104025000Y-109335000D01*
X105410000Y-106680000D02*
X105410000Y-107950000D01*
X105410000Y-97790000D02*
X105410000Y-106680000D01*
X103745000Y-85485000D02*
X104140000Y-85090000D01*
X102115000Y-109220000D02*
X102000000Y-109335000D01*
X97790000Y-97790000D02*
X97790000Y-95250000D01*
X95100000Y-92560000D02*
X95100000Y-91335000D01*
X97790000Y-95250000D02*
X95100000Y-92560000D01*
X99060000Y-120650000D02*
X99060000Y-119380000D01*
X96100000Y-116420000D02*
X96100000Y-115185000D01*
X99060000Y-119380000D02*
X96100000Y-116420000D01*
D20*
G36*
X65105069Y-97786460D02*
X64789753Y-98068183D01*
X64744415Y-98000330D01*
X64429634Y-97790000D01*
X64744415Y-97579670D01*
X64770000Y-97541379D01*
X64795585Y-97579670D01*
X65105069Y-97786460D01*
X65105069Y-97786460D01*
G37*
X65105069Y-97786460D02*
X64789753Y-98068183D01*
X64744415Y-98000330D01*
X64429634Y-97790000D01*
X64744415Y-97579670D01*
X64770000Y-97541379D01*
X64795585Y-97579670D01*
X65105069Y-97786460D01*
G36*
X66187000Y-99187000D02*
X66167000Y-99187000D01*
X66167000Y-99207000D01*
X65913000Y-99207000D01*
X65913000Y-99187000D01*
X65893000Y-99187000D01*
X65893000Y-98933000D01*
X65913000Y-98933000D01*
X65913000Y-98913000D01*
X66167000Y-98913000D01*
X66167000Y-98933000D01*
X66187000Y-98933000D01*
X66187000Y-99187000D01*
X66187000Y-99187000D01*
G37*
X66187000Y-99187000D02*
X66167000Y-99187000D01*
X66167000Y-99207000D01*
X65913000Y-99207000D01*
X65913000Y-99187000D01*
X65893000Y-99187000D01*
X65893000Y-98933000D01*
X65913000Y-98933000D01*
X65913000Y-98913000D01*
X66167000Y-98913000D01*
X66167000Y-98933000D01*
X66187000Y-98933000D01*
X66187000Y-99187000D01*
G36*
X117545198Y-89660000D02*
X108682599Y-98522599D01*
X107412599Y-99792599D01*
X107247852Y-100039161D01*
X107190000Y-100330000D01*
X107190000Y-107635198D01*
X103650198Y-111175000D01*
X103372440Y-111175000D01*
X103372440Y-111060000D01*
X103352717Y-110958347D01*
X103372440Y-110860000D01*
X103372440Y-110410000D01*
X103352717Y-110308347D01*
X103372440Y-110210000D01*
X103372440Y-110095000D01*
X104025000Y-110095000D01*
X104315839Y-110037148D01*
X104562401Y-109872401D01*
X105947401Y-108487401D01*
X106112148Y-108240839D01*
X106170000Y-107950000D01*
X106170000Y-106680000D01*
X106170000Y-98352462D01*
X106202192Y-98320327D01*
X106344838Y-97976799D01*
X106345162Y-97604833D01*
X106203117Y-97261057D01*
X105940327Y-96997808D01*
X105596799Y-96855162D01*
X105224833Y-96854838D01*
X104881057Y-96996883D01*
X104617808Y-97259673D01*
X104475162Y-97603201D01*
X104474838Y-97975167D01*
X104616883Y-98318943D01*
X104650000Y-98352117D01*
X104650000Y-106680000D01*
X104650000Y-107635198D01*
X103710198Y-108575000D01*
X103067048Y-108575000D01*
X102974640Y-108512623D01*
X102725000Y-108462560D01*
X102127869Y-108462560D01*
X102115000Y-108460000D01*
X102102130Y-108462560D01*
X101275000Y-108462560D01*
X101032877Y-108509537D01*
X100933221Y-108575000D01*
X100445000Y-108575000D01*
X100154161Y-108632852D01*
X99907599Y-108797599D01*
X98752599Y-109952599D01*
X98587852Y-110199161D01*
X98530000Y-110490000D01*
X98530000Y-117070000D01*
X98587852Y-117360839D01*
X98752599Y-117607401D01*
X100303835Y-119158637D01*
X100281473Y-119173327D01*
X100139023Y-119384360D01*
X100131281Y-119422962D01*
X100119670Y-119405585D01*
X99779934Y-119178581D01*
X99762148Y-119089161D01*
X99597401Y-118842599D01*
X96860000Y-116105198D01*
X96860000Y-116050649D01*
X97067123Y-116010463D01*
X97279927Y-115870673D01*
X97422377Y-115659640D01*
X97472440Y-115410000D01*
X97472440Y-114960000D01*
X97452717Y-114858347D01*
X97472440Y-114760000D01*
X97472440Y-114310000D01*
X97452717Y-114208347D01*
X97472440Y-114110000D01*
X97472440Y-113660000D01*
X97452717Y-113558347D01*
X97472440Y-113460000D01*
X97472440Y-113010000D01*
X97452717Y-112908347D01*
X97472440Y-112810000D01*
X97472440Y-112360000D01*
X97452717Y-112258347D01*
X97472440Y-112160000D01*
X97472440Y-111710000D01*
X97452717Y-111608347D01*
X97472440Y-111510000D01*
X97472440Y-111060000D01*
X97452717Y-110958347D01*
X97472440Y-110860000D01*
X97472440Y-110410000D01*
X97452717Y-110308347D01*
X97472440Y-110210000D01*
X97472440Y-109760000D01*
X97452717Y-109658347D01*
X97472440Y-109560000D01*
X97472440Y-109110000D01*
X97425463Y-108867877D01*
X97285673Y-108655073D01*
X97074640Y-108512623D01*
X96825000Y-108462560D01*
X95375000Y-108462560D01*
X95132877Y-108509537D01*
X95123000Y-108516025D01*
X95123000Y-99276217D01*
X95123000Y-97917000D01*
X95123000Y-97663000D01*
X95123000Y-96303783D01*
X94890974Y-96182642D01*
X94875209Y-96185291D01*
X94347964Y-96439268D01*
X93958046Y-96875680D01*
X93764816Y-97428087D01*
X93909076Y-97663000D01*
X95123000Y-97663000D01*
X95123000Y-97917000D01*
X93909076Y-97917000D01*
X93764816Y-98151913D01*
X93958046Y-98704320D01*
X94347964Y-99140732D01*
X94875209Y-99394709D01*
X94890974Y-99397358D01*
X95123000Y-99276217D01*
X95123000Y-108516025D01*
X95033221Y-108575000D01*
X89649802Y-108575000D01*
X88935122Y-107860320D01*
X88935162Y-107814833D01*
X88793117Y-107471057D01*
X88530327Y-107207808D01*
X88186799Y-107065162D01*
X87814833Y-107064838D01*
X87471057Y-107206883D01*
X87207808Y-107469673D01*
X87065162Y-107813201D01*
X87064838Y-108185167D01*
X87206883Y-108528943D01*
X87469673Y-108792192D01*
X87813201Y-108934838D01*
X87860076Y-108934878D01*
X88797599Y-109872401D01*
X89044161Y-110037148D01*
X89335000Y-110095000D01*
X94727560Y-110095000D01*
X94727560Y-110210000D01*
X94747282Y-110311652D01*
X94727560Y-110410000D01*
X94727560Y-110860000D01*
X94747282Y-110961652D01*
X94727560Y-111060000D01*
X94727560Y-111175000D01*
X85579802Y-111175000D01*
X84357401Y-109952599D01*
X84110839Y-109787852D01*
X83820000Y-109730000D01*
X72701899Y-109730000D01*
X72803345Y-109220000D01*
X72701899Y-108710000D01*
X74930000Y-108710000D01*
X75220839Y-108652148D01*
X75467401Y-108487401D01*
X92509802Y-91445000D01*
X93727560Y-91445000D01*
X93727560Y-91560000D01*
X93774537Y-91802123D01*
X93914327Y-92014927D01*
X94125360Y-92157377D01*
X94340000Y-92200421D01*
X94340000Y-92560000D01*
X94397852Y-92850839D01*
X94562599Y-93097401D01*
X97030000Y-95564802D01*
X97030000Y-96345351D01*
X96730330Y-96545585D01*
X96523539Y-96855069D01*
X96152036Y-96439268D01*
X95624791Y-96185291D01*
X95609026Y-96182642D01*
X95377000Y-96303783D01*
X95377000Y-97663000D01*
X95397000Y-97663000D01*
X95397000Y-97917000D01*
X95377000Y-97917000D01*
X95377000Y-99276217D01*
X95609026Y-99397358D01*
X95624791Y-99394709D01*
X96152036Y-99140732D01*
X96523539Y-98724930D01*
X96730330Y-99034415D01*
X97216511Y-99359271D01*
X97790000Y-99473345D01*
X98363489Y-99359271D01*
X98849670Y-99034415D01*
X98860215Y-99018632D01*
X98865937Y-99048123D01*
X99005727Y-99260927D01*
X99216760Y-99403377D01*
X99466400Y-99453440D01*
X101193600Y-99453440D01*
X101435723Y-99406463D01*
X101648527Y-99266673D01*
X101790977Y-99055640D01*
X101841040Y-98806000D01*
X101841040Y-96774000D01*
X101794063Y-96531877D01*
X101654273Y-96319073D01*
X101443240Y-96176623D01*
X101193600Y-96126560D01*
X101090000Y-96126560D01*
X101090000Y-95250000D01*
X101041746Y-95007413D01*
X101032148Y-94959161D01*
X101032148Y-94959160D01*
X100867401Y-94712599D01*
X98550000Y-92395198D01*
X98550000Y-86674802D01*
X98979802Y-86245000D01*
X99627560Y-86245000D01*
X99627560Y-86360000D01*
X99647282Y-86461652D01*
X99627560Y-86560000D01*
X99627560Y-87010000D01*
X99647282Y-87111652D01*
X99627560Y-87210000D01*
X99627560Y-87660000D01*
X99647282Y-87761652D01*
X99627560Y-87860000D01*
X99627560Y-88310000D01*
X99647282Y-88411652D01*
X99627560Y-88510000D01*
X99627560Y-88960000D01*
X99647282Y-89061652D01*
X99627560Y-89160000D01*
X99627560Y-89610000D01*
X99647282Y-89711652D01*
X99627560Y-89810000D01*
X99627560Y-90260000D01*
X99647282Y-90361652D01*
X99627560Y-90460000D01*
X99627560Y-90910000D01*
X99641264Y-90980636D01*
X99640000Y-90983690D01*
X99640000Y-91063750D01*
X99661577Y-91085327D01*
X99674537Y-91152123D01*
X99814327Y-91364927D01*
X99936655Y-91447500D01*
X99798750Y-91447500D01*
X99640000Y-91606250D01*
X99640000Y-91686310D01*
X99736673Y-91919699D01*
X99915302Y-92098327D01*
X100148691Y-92195000D01*
X100714250Y-92195000D01*
X100873000Y-92036250D01*
X100873000Y-91557440D01*
X101127000Y-91557440D01*
X101127000Y-92036250D01*
X101285750Y-92195000D01*
X101851309Y-92195000D01*
X102084698Y-92098327D01*
X102263327Y-91919699D01*
X102360000Y-91686310D01*
X102360000Y-91606250D01*
X102215752Y-91462002D01*
X102360000Y-91462002D01*
X102360000Y-91445000D01*
X108150198Y-91445000D01*
X109554877Y-92849679D01*
X109554838Y-92895167D01*
X109696883Y-93238943D01*
X109959673Y-93502192D01*
X110303201Y-93644838D01*
X110675167Y-93645162D01*
X111018943Y-93503117D01*
X111282192Y-93240327D01*
X111424838Y-92896799D01*
X111425162Y-92524833D01*
X111319689Y-92269570D01*
X111573201Y-92374838D01*
X111945167Y-92375162D01*
X112288943Y-92233117D01*
X112552192Y-91970327D01*
X112694838Y-91626799D01*
X112695162Y-91254833D01*
X112553117Y-90911057D01*
X112290327Y-90647808D01*
X111946799Y-90505162D01*
X111899923Y-90505121D01*
X111539801Y-90145000D01*
X115085000Y-90145000D01*
X115375839Y-90087148D01*
X115622401Y-89922401D01*
X115884802Y-89660000D01*
X117545198Y-89660000D01*
X117545198Y-89660000D01*
G37*
X117545198Y-89660000D02*
X108682599Y-98522599D01*
X107412599Y-99792599D01*
X107247852Y-100039161D01*
X107190000Y-100330000D01*
X107190000Y-107635198D01*
X103650198Y-111175000D01*
X103372440Y-111175000D01*
X103372440Y-111060000D01*
X103352717Y-110958347D01*
X103372440Y-110860000D01*
X103372440Y-110410000D01*
X103352717Y-110308347D01*
X103372440Y-110210000D01*
X103372440Y-110095000D01*
X104025000Y-110095000D01*
X104315839Y-110037148D01*
X104562401Y-109872401D01*
X105947401Y-108487401D01*
X106112148Y-108240839D01*
X106170000Y-107950000D01*
X106170000Y-106680000D01*
X106170000Y-98352462D01*
X106202192Y-98320327D01*
X106344838Y-97976799D01*
X106345162Y-97604833D01*
X106203117Y-97261057D01*
X105940327Y-96997808D01*
X105596799Y-96855162D01*
X105224833Y-96854838D01*
X104881057Y-96996883D01*
X104617808Y-97259673D01*
X104475162Y-97603201D01*
X104474838Y-97975167D01*
X104616883Y-98318943D01*
X104650000Y-98352117D01*
X104650000Y-106680000D01*
X104650000Y-107635198D01*
X103710198Y-108575000D01*
X103067048Y-108575000D01*
X102974640Y-108512623D01*
X102725000Y-108462560D01*
X102127869Y-108462560D01*
X102115000Y-108460000D01*
X102102130Y-108462560D01*
X101275000Y-108462560D01*
X101032877Y-108509537D01*
X100933221Y-108575000D01*
X100445000Y-108575000D01*
X100154161Y-108632852D01*
X99907599Y-108797599D01*
X98752599Y-109952599D01*
X98587852Y-110199161D01*
X98530000Y-110490000D01*
X98530000Y-117070000D01*
X98587852Y-117360839D01*
X98752599Y-117607401D01*
X100303835Y-119158637D01*
X100281473Y-119173327D01*
X100139023Y-119384360D01*
X100131281Y-119422962D01*
X100119670Y-119405585D01*
X99779934Y-119178581D01*
X99762148Y-119089161D01*
X99597401Y-118842599D01*
X96860000Y-116105198D01*
X96860000Y-116050649D01*
X97067123Y-116010463D01*
X97279927Y-115870673D01*
X97422377Y-115659640D01*
X97472440Y-115410000D01*
X97472440Y-114960000D01*
X97452717Y-114858347D01*
X97472440Y-114760000D01*
X97472440Y-114310000D01*
X97452717Y-114208347D01*
X97472440Y-114110000D01*
X97472440Y-113660000D01*
X97452717Y-113558347D01*
X97472440Y-113460000D01*
X97472440Y-113010000D01*
X97452717Y-112908347D01*
X97472440Y-112810000D01*
X97472440Y-112360000D01*
X97452717Y-112258347D01*
X97472440Y-112160000D01*
X97472440Y-111710000D01*
X97452717Y-111608347D01*
X97472440Y-111510000D01*
X97472440Y-111060000D01*
X97452717Y-110958347D01*
X97472440Y-110860000D01*
X97472440Y-110410000D01*
X97452717Y-110308347D01*
X97472440Y-110210000D01*
X97472440Y-109760000D01*
X97452717Y-109658347D01*
X97472440Y-109560000D01*
X97472440Y-109110000D01*
X97425463Y-108867877D01*
X97285673Y-108655073D01*
X97074640Y-108512623D01*
X96825000Y-108462560D01*
X95375000Y-108462560D01*
X95132877Y-108509537D01*
X95123000Y-108516025D01*
X95123000Y-99276217D01*
X95123000Y-97917000D01*
X95123000Y-97663000D01*
X95123000Y-96303783D01*
X94890974Y-96182642D01*
X94875209Y-96185291D01*
X94347964Y-96439268D01*
X93958046Y-96875680D01*
X93764816Y-97428087D01*
X93909076Y-97663000D01*
X95123000Y-97663000D01*
X95123000Y-97917000D01*
X93909076Y-97917000D01*
X93764816Y-98151913D01*
X93958046Y-98704320D01*
X94347964Y-99140732D01*
X94875209Y-99394709D01*
X94890974Y-99397358D01*
X95123000Y-99276217D01*
X95123000Y-108516025D01*
X95033221Y-108575000D01*
X89649802Y-108575000D01*
X88935122Y-107860320D01*
X88935162Y-107814833D01*
X88793117Y-107471057D01*
X88530327Y-107207808D01*
X88186799Y-107065162D01*
X87814833Y-107064838D01*
X87471057Y-107206883D01*
X87207808Y-107469673D01*
X87065162Y-107813201D01*
X87064838Y-108185167D01*
X87206883Y-108528943D01*
X87469673Y-108792192D01*
X87813201Y-108934838D01*
X87860076Y-108934878D01*
X88797599Y-109872401D01*
X89044161Y-110037148D01*
X89335000Y-110095000D01*
X94727560Y-110095000D01*
X94727560Y-110210000D01*
X94747282Y-110311652D01*
X94727560Y-110410000D01*
X94727560Y-110860000D01*
X94747282Y-110961652D01*
X94727560Y-111060000D01*
X94727560Y-111175000D01*
X85579802Y-111175000D01*
X84357401Y-109952599D01*
X84110839Y-109787852D01*
X83820000Y-109730000D01*
X72701899Y-109730000D01*
X72803345Y-109220000D01*
X72701899Y-108710000D01*
X74930000Y-108710000D01*
X75220839Y-108652148D01*
X75467401Y-108487401D01*
X92509802Y-91445000D01*
X93727560Y-91445000D01*
X93727560Y-91560000D01*
X93774537Y-91802123D01*
X93914327Y-92014927D01*
X94125360Y-92157377D01*
X94340000Y-92200421D01*
X94340000Y-92560000D01*
X94397852Y-92850839D01*
X94562599Y-93097401D01*
X97030000Y-95564802D01*
X97030000Y-96345351D01*
X96730330Y-96545585D01*
X96523539Y-96855069D01*
X96152036Y-96439268D01*
X95624791Y-96185291D01*
X95609026Y-96182642D01*
X95377000Y-96303783D01*
X95377000Y-97663000D01*
X95397000Y-97663000D01*
X95397000Y-97917000D01*
X95377000Y-97917000D01*
X95377000Y-99276217D01*
X95609026Y-99397358D01*
X95624791Y-99394709D01*
X96152036Y-99140732D01*
X96523539Y-98724930D01*
X96730330Y-99034415D01*
X97216511Y-99359271D01*
X97790000Y-99473345D01*
X98363489Y-99359271D01*
X98849670Y-99034415D01*
X98860215Y-99018632D01*
X98865937Y-99048123D01*
X99005727Y-99260927D01*
X99216760Y-99403377D01*
X99466400Y-99453440D01*
X101193600Y-99453440D01*
X101435723Y-99406463D01*
X101648527Y-99266673D01*
X101790977Y-99055640D01*
X101841040Y-98806000D01*
X101841040Y-96774000D01*
X101794063Y-96531877D01*
X101654273Y-96319073D01*
X101443240Y-96176623D01*
X101193600Y-96126560D01*
X101090000Y-96126560D01*
X101090000Y-95250000D01*
X101041746Y-95007413D01*
X101032148Y-94959161D01*
X101032148Y-94959160D01*
X100867401Y-94712599D01*
X98550000Y-92395198D01*
X98550000Y-86674802D01*
X98979802Y-86245000D01*
X99627560Y-86245000D01*
X99627560Y-86360000D01*
X99647282Y-86461652D01*
X99627560Y-86560000D01*
X99627560Y-87010000D01*
X99647282Y-87111652D01*
X99627560Y-87210000D01*
X99627560Y-87660000D01*
X99647282Y-87761652D01*
X99627560Y-87860000D01*
X99627560Y-88310000D01*
X99647282Y-88411652D01*
X99627560Y-88510000D01*
X99627560Y-88960000D01*
X99647282Y-89061652D01*
X99627560Y-89160000D01*
X99627560Y-89610000D01*
X99647282Y-89711652D01*
X99627560Y-89810000D01*
X99627560Y-90260000D01*
X99647282Y-90361652D01*
X99627560Y-90460000D01*
X99627560Y-90910000D01*
X99641264Y-90980636D01*
X99640000Y-90983690D01*
X99640000Y-91063750D01*
X99661577Y-91085327D01*
X99674537Y-91152123D01*
X99814327Y-91364927D01*
X99936655Y-91447500D01*
X99798750Y-91447500D01*
X99640000Y-91606250D01*
X99640000Y-91686310D01*
X99736673Y-91919699D01*
X99915302Y-92098327D01*
X100148691Y-92195000D01*
X100714250Y-92195000D01*
X100873000Y-92036250D01*
X100873000Y-91557440D01*
X101127000Y-91557440D01*
X101127000Y-92036250D01*
X101285750Y-92195000D01*
X101851309Y-92195000D01*
X102084698Y-92098327D01*
X102263327Y-91919699D01*
X102360000Y-91686310D01*
X102360000Y-91606250D01*
X102215752Y-91462002D01*
X102360000Y-91462002D01*
X102360000Y-91445000D01*
X108150198Y-91445000D01*
X109554877Y-92849679D01*
X109554838Y-92895167D01*
X109696883Y-93238943D01*
X109959673Y-93502192D01*
X110303201Y-93644838D01*
X110675167Y-93645162D01*
X111018943Y-93503117D01*
X111282192Y-93240327D01*
X111424838Y-92896799D01*
X111425162Y-92524833D01*
X111319689Y-92269570D01*
X111573201Y-92374838D01*
X111945167Y-92375162D01*
X112288943Y-92233117D01*
X112552192Y-91970327D01*
X112694838Y-91626799D01*
X112695162Y-91254833D01*
X112553117Y-90911057D01*
X112290327Y-90647808D01*
X111946799Y-90505162D01*
X111899923Y-90505121D01*
X111539801Y-90145000D01*
X115085000Y-90145000D01*
X115375839Y-90087148D01*
X115622401Y-89922401D01*
X115884802Y-89660000D01*
X117545198Y-89660000D01*
G36*
X136394228Y-105404336D02*
X136070971Y-105620330D01*
X135890000Y-105891172D01*
X135709029Y-105620330D01*
X135394248Y-105410000D01*
X135709029Y-105199670D01*
X135889992Y-104928839D01*
X136271510Y-105346821D01*
X136394228Y-105404336D01*
X136394228Y-105404336D01*
G37*
X136394228Y-105404336D02*
X136070971Y-105620330D01*
X135890000Y-105891172D01*
X135709029Y-105620330D01*
X135394248Y-105410000D01*
X135709029Y-105199670D01*
X135889992Y-104928839D01*
X136271510Y-105346821D01*
X136394228Y-105404336D01*
G36*
X142873000Y-134947395D02*
X141947395Y-135873000D01*
X141227959Y-135873000D01*
X141227959Y-132080000D01*
X141113885Y-131506511D01*
X140789029Y-131020330D01*
X140474248Y-130810000D01*
X140789029Y-130599670D01*
X141113885Y-130113489D01*
X141227959Y-129540000D01*
X141113885Y-128966511D01*
X140789029Y-128480330D01*
X140474248Y-128270000D01*
X140789029Y-128059670D01*
X141113885Y-127573489D01*
X141227959Y-127000000D01*
X141113885Y-126426511D01*
X140789029Y-125940330D01*
X140474248Y-125730000D01*
X140789029Y-125519670D01*
X141113885Y-125033489D01*
X141227959Y-124460000D01*
X141113885Y-123886511D01*
X140789029Y-123400330D01*
X140474248Y-123190000D01*
X140789029Y-122979670D01*
X141113885Y-122493489D01*
X141227959Y-121920000D01*
X141113885Y-121346511D01*
X140789029Y-120860330D01*
X140474248Y-120650000D01*
X140789029Y-120439670D01*
X141113885Y-119953489D01*
X141227959Y-119380000D01*
X141113885Y-118806511D01*
X140789029Y-118320330D01*
X140474248Y-118110000D01*
X140789029Y-117899670D01*
X141113885Y-117413489D01*
X141227959Y-116840000D01*
X141113885Y-116266511D01*
X140789029Y-115780330D01*
X140474248Y-115570000D01*
X140789029Y-115359670D01*
X141113885Y-114873489D01*
X141227959Y-114300000D01*
X141113885Y-113726511D01*
X140789029Y-113240330D01*
X140474248Y-113030000D01*
X140789029Y-112819670D01*
X141113885Y-112333489D01*
X141227959Y-111760000D01*
X141113885Y-111186511D01*
X140789029Y-110700330D01*
X140474248Y-110490000D01*
X140789029Y-110279670D01*
X141113885Y-109793489D01*
X141227959Y-109220000D01*
X141113885Y-108646511D01*
X140789029Y-108160330D01*
X140465771Y-107944336D01*
X140588490Y-107886821D01*
X140982688Y-107454947D01*
X141154958Y-107039026D01*
X141154958Y-106320974D01*
X140982688Y-105905053D01*
X140588490Y-105473179D01*
X140453687Y-105410000D01*
X140588490Y-105346821D01*
X140982688Y-104914947D01*
X141154958Y-104499026D01*
X141033817Y-104267000D01*
X139827000Y-104267000D01*
X139827000Y-105345531D01*
X139827000Y-105474469D01*
X139827000Y-106553000D01*
X141033817Y-106553000D01*
X141154958Y-106320974D01*
X141154958Y-107039026D01*
X141033817Y-106807000D01*
X139827000Y-106807000D01*
X139827000Y-106827000D01*
X139573000Y-106827000D01*
X139573000Y-106807000D01*
X139553000Y-106807000D01*
X139553000Y-106553000D01*
X139573000Y-106553000D01*
X139573000Y-105474469D01*
X139573000Y-105345531D01*
X139573000Y-104267000D01*
X138493817Y-104267000D01*
X138366183Y-104267000D01*
X137287000Y-104267000D01*
X137287000Y-104287000D01*
X137033000Y-104287000D01*
X137033000Y-104267000D01*
X137013000Y-104267000D01*
X137013000Y-104013000D01*
X137033000Y-104013000D01*
X137033000Y-103993000D01*
X137287000Y-103993000D01*
X137287000Y-104013000D01*
X138366183Y-104013000D01*
X138493817Y-104013000D01*
X139573000Y-104013000D01*
X139573000Y-103993000D01*
X139827000Y-103993000D01*
X139827000Y-104013000D01*
X141033817Y-104013000D01*
X141154958Y-103780974D01*
X140982688Y-103365053D01*
X140588490Y-102933179D01*
X140465771Y-102875663D01*
X140789029Y-102659670D01*
X141113885Y-102173489D01*
X141227959Y-101600000D01*
X141113885Y-101026511D01*
X140789029Y-100540330D01*
X140474248Y-100330000D01*
X140789029Y-100119670D01*
X141113885Y-99633489D01*
X141227959Y-99060000D01*
X141113885Y-98486511D01*
X140789029Y-98000330D01*
X140474248Y-97790000D01*
X140789029Y-97579670D01*
X141113885Y-97093489D01*
X141227959Y-96520000D01*
X141113885Y-95946511D01*
X140789029Y-95460330D01*
X140474248Y-95250000D01*
X140789029Y-95039670D01*
X141113885Y-94553489D01*
X141227959Y-93980000D01*
X141113885Y-93406511D01*
X140789029Y-92920330D01*
X140474248Y-92710000D01*
X140789029Y-92499670D01*
X141113885Y-92013489D01*
X141227959Y-91440000D01*
X141113885Y-90866511D01*
X140789029Y-90380330D01*
X140474248Y-90170000D01*
X140789029Y-89959670D01*
X141113885Y-89473489D01*
X141227959Y-88900000D01*
X141113885Y-88326511D01*
X140789029Y-87840330D01*
X140474248Y-87630000D01*
X140789029Y-87419670D01*
X141113885Y-86933489D01*
X141227959Y-86360000D01*
X141113885Y-85786511D01*
X140789029Y-85300330D01*
X140474248Y-85090000D01*
X140789029Y-84879670D01*
X141113885Y-84393489D01*
X141227959Y-83820000D01*
X141113885Y-83246511D01*
X140789029Y-82760330D01*
X140474248Y-82550000D01*
X140789029Y-82339670D01*
X141113885Y-81853489D01*
X141227959Y-81280000D01*
X141113885Y-80706511D01*
X140789029Y-80220330D01*
X140474248Y-80010000D01*
X140789029Y-79799670D01*
X141113885Y-79313489D01*
X141227959Y-78740000D01*
X141113885Y-78166511D01*
X140789029Y-77680330D01*
X140474248Y-77470000D01*
X140789029Y-77259670D01*
X141113885Y-76773489D01*
X141227959Y-76200000D01*
X141113885Y-75626511D01*
X140789029Y-75140330D01*
X140474248Y-74930000D01*
X140789029Y-74719670D01*
X141113885Y-74233489D01*
X141227959Y-73660000D01*
X141113885Y-73086511D01*
X140789029Y-72600330D01*
X140474248Y-72390000D01*
X140789029Y-72179670D01*
X141113885Y-71693489D01*
X141227959Y-71120000D01*
X141113885Y-70546511D01*
X140789029Y-70060330D01*
X140474248Y-69850000D01*
X140789029Y-69639670D01*
X141113885Y-69153489D01*
X141227959Y-68580000D01*
X141113885Y-68006511D01*
X140789029Y-67520330D01*
X140302848Y-67195474D01*
X139729359Y-67081400D01*
X139670641Y-67081400D01*
X139097152Y-67195474D01*
X138630470Y-67507300D01*
X138624063Y-67474277D01*
X138484273Y-67261473D01*
X138273240Y-67119023D01*
X138023600Y-67068960D01*
X136296400Y-67068960D01*
X136054277Y-67115937D01*
X135841473Y-67255727D01*
X135699023Y-67466760D01*
X135690731Y-67508104D01*
X135222848Y-67195474D01*
X134649359Y-67081400D01*
X134590641Y-67081400D01*
X134017152Y-67195474D01*
X133550470Y-67507300D01*
X133544063Y-67474277D01*
X133404273Y-67261473D01*
X133193240Y-67119023D01*
X132943600Y-67068960D01*
X131216400Y-67068960D01*
X130974277Y-67115937D01*
X130761473Y-67255727D01*
X130619023Y-67466760D01*
X130568960Y-67716400D01*
X130568960Y-69443600D01*
X130615937Y-69685723D01*
X130755727Y-69898527D01*
X130966760Y-70040977D01*
X131007659Y-70049179D01*
X130990971Y-70060330D01*
X130666115Y-70546511D01*
X130552041Y-71120000D01*
X130666115Y-71693489D01*
X130990971Y-72179670D01*
X131305751Y-72390000D01*
X130990971Y-72600330D01*
X130666115Y-73086511D01*
X130552041Y-73660000D01*
X130666115Y-74233489D01*
X130990971Y-74719670D01*
X131305751Y-74930000D01*
X130990971Y-75140330D01*
X130666115Y-75626511D01*
X130552041Y-76200000D01*
X130653486Y-76710000D01*
X128270000Y-76710000D01*
X127979160Y-76767852D01*
X127732599Y-76932599D01*
X120112599Y-84552599D01*
X119947852Y-84799161D01*
X119890000Y-85090000D01*
X119890000Y-87315198D01*
X118868659Y-88336538D01*
X118640327Y-88107808D01*
X118296799Y-87965162D01*
X117924833Y-87964838D01*
X117669570Y-88070310D01*
X117774838Y-87816799D01*
X117775162Y-87444833D01*
X117633117Y-87101057D01*
X117370327Y-86837808D01*
X117026799Y-86695162D01*
X116654833Y-86694838D01*
X116311057Y-86836883D01*
X116277882Y-86870000D01*
X114300000Y-86870000D01*
X114009161Y-86927852D01*
X113762599Y-87092599D01*
X112880197Y-87975000D01*
X112629146Y-87975000D01*
X112694838Y-87816799D01*
X112695162Y-87444833D01*
X112553117Y-87101057D01*
X112290327Y-86837808D01*
X111946799Y-86695162D01*
X111574833Y-86694838D01*
X111231057Y-86836883D01*
X110967808Y-87099673D01*
X110874243Y-87325000D01*
X108059802Y-87325000D01*
X108264802Y-87120000D01*
X108657537Y-87120000D01*
X108689673Y-87152192D01*
X109033201Y-87294838D01*
X109405167Y-87295162D01*
X109748943Y-87153117D01*
X110012192Y-86890327D01*
X110154838Y-86546799D01*
X110155162Y-86174833D01*
X110013117Y-85831057D01*
X109750327Y-85567808D01*
X109406799Y-85425162D01*
X109034833Y-85424838D01*
X108691057Y-85566883D01*
X108657882Y-85600000D01*
X107950000Y-85600000D01*
X107659161Y-85657852D01*
X107412599Y-85822599D01*
X106560198Y-86675000D01*
X102372440Y-86675000D01*
X102372440Y-86560000D01*
X102352717Y-86458347D01*
X102372440Y-86360000D01*
X102372440Y-86245000D01*
X103745000Y-86245000D01*
X104035839Y-86187148D01*
X104278329Y-86025121D01*
X104325167Y-86025162D01*
X104668943Y-85883117D01*
X104932192Y-85620327D01*
X105074838Y-85276799D01*
X105075162Y-84904833D01*
X104933117Y-84561057D01*
X104670327Y-84297808D01*
X104326799Y-84155162D01*
X104267543Y-84155110D01*
X103029019Y-82954345D01*
X102909496Y-82877132D01*
X102791270Y-82798031D01*
X102785165Y-82796812D01*
X102779937Y-82793435D01*
X102639994Y-82767843D01*
X102500467Y-82740000D01*
X71499168Y-82720954D01*
X71498450Y-82721096D01*
X71497736Y-82720955D01*
X71353311Y-82749873D01*
X71208293Y-82778627D01*
X71207684Y-82779032D01*
X71206970Y-82779176D01*
X71084504Y-82861229D01*
X70961630Y-82943223D01*
X70961223Y-82943830D01*
X70960618Y-82944236D01*
X62961917Y-90963282D01*
X62879950Y-91086291D01*
X62797852Y-91209161D01*
X62797756Y-91209643D01*
X62797483Y-91210053D01*
X62768845Y-91354985D01*
X62740000Y-91500000D01*
X62740000Y-92468960D01*
X62484000Y-92468960D01*
X62241877Y-92515937D01*
X62029073Y-92655727D01*
X61886623Y-92866760D01*
X61836560Y-93116400D01*
X61836560Y-94843600D01*
X61883537Y-95085723D01*
X62023327Y-95298527D01*
X62234360Y-95440977D01*
X62272962Y-95448718D01*
X62255585Y-95460330D01*
X61930729Y-95946511D01*
X61816655Y-96520000D01*
X61930729Y-97093489D01*
X62255585Y-97579670D01*
X62570365Y-97790000D01*
X62255585Y-98000330D01*
X61930729Y-98486511D01*
X61816655Y-99060000D01*
X61930729Y-99633489D01*
X62255585Y-100119670D01*
X62570365Y-100330000D01*
X62255585Y-100540330D01*
X61930729Y-101026511D01*
X61816655Y-101600000D01*
X61930729Y-102173489D01*
X62255585Y-102659670D01*
X62570365Y-102870000D01*
X62255585Y-103080330D01*
X61930729Y-103566511D01*
X61816655Y-104140000D01*
X61930729Y-104713489D01*
X62255585Y-105199670D01*
X62570365Y-105410000D01*
X62255585Y-105620330D01*
X61930729Y-106106511D01*
X61816655Y-106680000D01*
X61930729Y-107253489D01*
X62255585Y-107739670D01*
X62570365Y-107950000D01*
X62255585Y-108160330D01*
X61930729Y-108646511D01*
X61816655Y-109220000D01*
X61930729Y-109793489D01*
X62255585Y-110279670D01*
X62570365Y-110490000D01*
X62255585Y-110700330D01*
X61930729Y-111186511D01*
X61816655Y-111760000D01*
X61930729Y-112333489D01*
X62255585Y-112819670D01*
X62570365Y-113030000D01*
X62255585Y-113240330D01*
X61930729Y-113726511D01*
X61816655Y-114300000D01*
X61930729Y-114873489D01*
X62255585Y-115359670D01*
X62570365Y-115570000D01*
X62255585Y-115780330D01*
X61930729Y-116266511D01*
X61816655Y-116840000D01*
X61930729Y-117413489D01*
X62255585Y-117899670D01*
X62570365Y-118110000D01*
X62255585Y-118320330D01*
X61930729Y-118806511D01*
X61816655Y-119380000D01*
X61930729Y-119953489D01*
X62255585Y-120439670D01*
X62570365Y-120650000D01*
X62255585Y-120860330D01*
X61930729Y-121346511D01*
X61816655Y-121920000D01*
X61930729Y-122493489D01*
X62255585Y-122979670D01*
X62570365Y-123190000D01*
X62255585Y-123400330D01*
X61930729Y-123886511D01*
X61816655Y-124460000D01*
X61930729Y-125033489D01*
X62255585Y-125519670D01*
X62570365Y-125730000D01*
X62255585Y-125940330D01*
X61930729Y-126426511D01*
X61816655Y-127000000D01*
X61930729Y-127573489D01*
X62255585Y-128059670D01*
X62741766Y-128384526D01*
X63315255Y-128498600D01*
X63684745Y-128498600D01*
X64258234Y-128384526D01*
X64744415Y-128059670D01*
X64770000Y-128021379D01*
X64795585Y-128059670D01*
X65281766Y-128384526D01*
X65855255Y-128498600D01*
X66224745Y-128498600D01*
X66798234Y-128384526D01*
X67284415Y-128059670D01*
X67310000Y-128021379D01*
X67335585Y-128059670D01*
X67821766Y-128384526D01*
X68395255Y-128498600D01*
X68764745Y-128498600D01*
X69338234Y-128384526D01*
X69824415Y-128059670D01*
X69850000Y-128021379D01*
X69875585Y-128059670D01*
X70361766Y-128384526D01*
X70935255Y-128498600D01*
X71304745Y-128498600D01*
X71878234Y-128384526D01*
X72364415Y-128059670D01*
X72689271Y-127573489D01*
X72803345Y-127000000D01*
X72701899Y-126490000D01*
X75637537Y-126490000D01*
X75669673Y-126522192D01*
X76013201Y-126664838D01*
X76385167Y-126665162D01*
X76728943Y-126523117D01*
X76992192Y-126260327D01*
X77134838Y-125916799D01*
X77135162Y-125544833D01*
X76993117Y-125201057D01*
X76730327Y-124937808D01*
X76386799Y-124795162D01*
X76014833Y-124794838D01*
X75671057Y-124936883D01*
X75637882Y-124970000D01*
X72701899Y-124970000D01*
X72803345Y-124460000D01*
X72689271Y-123886511D01*
X72364415Y-123400330D01*
X72049634Y-123190000D01*
X72364415Y-122979670D01*
X72564648Y-122680000D01*
X74367537Y-122680000D01*
X74399673Y-122712192D01*
X74743201Y-122854838D01*
X75115167Y-122855162D01*
X75458943Y-122713117D01*
X75722192Y-122450327D01*
X75864838Y-122106799D01*
X75865162Y-121734833D01*
X75723117Y-121391057D01*
X75460327Y-121127808D01*
X75116799Y-120985162D01*
X74744833Y-120984838D01*
X74401057Y-121126883D01*
X74367882Y-121160000D01*
X72564648Y-121160000D01*
X72364415Y-120860330D01*
X72049634Y-120650000D01*
X72364415Y-120439670D01*
X72564648Y-120140000D01*
X74367537Y-120140000D01*
X74399673Y-120172192D01*
X74743201Y-120314838D01*
X75115167Y-120315162D01*
X75458943Y-120173117D01*
X75722192Y-119910327D01*
X75864838Y-119566799D01*
X75865162Y-119194833D01*
X75730944Y-118870000D01*
X83820000Y-118870000D01*
X84110839Y-118812148D01*
X84357401Y-118647401D01*
X87709802Y-115295000D01*
X94727560Y-115295000D01*
X94727560Y-115410000D01*
X94774537Y-115652123D01*
X94914327Y-115864927D01*
X95125360Y-116007377D01*
X95340000Y-116050421D01*
X95340000Y-116420000D01*
X95397852Y-116710839D01*
X95562599Y-116957401D01*
X98006596Y-119401398D01*
X98000330Y-119405585D01*
X97793539Y-119715069D01*
X97422036Y-119299268D01*
X96894791Y-119045291D01*
X96879026Y-119042642D01*
X96647000Y-119163783D01*
X96647000Y-120523000D01*
X96667000Y-120523000D01*
X96667000Y-120777000D01*
X96647000Y-120777000D01*
X96647000Y-122136217D01*
X96879026Y-122257358D01*
X96894791Y-122254709D01*
X97422036Y-122000732D01*
X97793539Y-121584930D01*
X98000330Y-121894415D01*
X98486511Y-122219271D01*
X99060000Y-122333345D01*
X99633489Y-122219271D01*
X100119670Y-121894415D01*
X100130215Y-121878632D01*
X100135937Y-121908123D01*
X100275727Y-122120927D01*
X100486760Y-122263377D01*
X100736400Y-122313440D01*
X102463600Y-122313440D01*
X102705723Y-122266463D01*
X102918527Y-122126673D01*
X103060977Y-121915640D01*
X103111040Y-121666000D01*
X103111040Y-119634000D01*
X103064063Y-119391877D01*
X102924273Y-119179073D01*
X102713240Y-119036623D01*
X102463600Y-118986560D01*
X102233592Y-118986560D01*
X102137401Y-118842599D01*
X100050000Y-116755198D01*
X100050000Y-110804802D01*
X100630361Y-110224440D01*
X100647282Y-110311652D01*
X100627560Y-110410000D01*
X100627560Y-110860000D01*
X100647282Y-110961652D01*
X100627560Y-111060000D01*
X100627560Y-111510000D01*
X100647282Y-111611652D01*
X100627560Y-111710000D01*
X100627560Y-112160000D01*
X100647282Y-112261652D01*
X100627560Y-112360000D01*
X100627560Y-112810000D01*
X100647282Y-112911652D01*
X100627560Y-113010000D01*
X100627560Y-113460000D01*
X100647282Y-113561652D01*
X100627560Y-113660000D01*
X100627560Y-114110000D01*
X100647282Y-114211652D01*
X100627560Y-114310000D01*
X100627560Y-114760000D01*
X100641264Y-114830636D01*
X100640000Y-114833690D01*
X100640000Y-114913750D01*
X100661577Y-114935327D01*
X100674537Y-115002123D01*
X100814327Y-115214927D01*
X100936655Y-115297500D01*
X100798750Y-115297500D01*
X100640000Y-115456250D01*
X100640000Y-115536310D01*
X100736673Y-115769699D01*
X100915302Y-115948327D01*
X101148691Y-116045000D01*
X101714250Y-116045000D01*
X101873000Y-115886250D01*
X101873000Y-115407440D01*
X102127000Y-115407440D01*
X102127000Y-115886250D01*
X102285750Y-116045000D01*
X102851309Y-116045000D01*
X103084698Y-115948327D01*
X103263327Y-115769699D01*
X103360000Y-115536310D01*
X103360000Y-115456250D01*
X103215752Y-115312002D01*
X103360000Y-115312002D01*
X103360000Y-115295000D01*
X106445000Y-115295000D01*
X106735839Y-115237148D01*
X106982401Y-115072401D01*
X123504802Y-98550000D01*
X128270000Y-98550000D01*
X130653486Y-98550000D01*
X130552041Y-99060000D01*
X130653486Y-99570000D01*
X123752462Y-99570000D01*
X123720327Y-99537808D01*
X123376799Y-99395162D01*
X123004833Y-99394838D01*
X122661057Y-99536883D01*
X122397808Y-99799673D01*
X122255162Y-100143201D01*
X122254838Y-100515167D01*
X122396883Y-100858943D01*
X122659673Y-101122192D01*
X123003201Y-101264838D01*
X123375167Y-101265162D01*
X123718943Y-101123117D01*
X123752117Y-101090000D01*
X130653486Y-101090000D01*
X130552041Y-101600000D01*
X130666115Y-102173489D01*
X130990971Y-102659670D01*
X131305751Y-102870000D01*
X130990971Y-103080330D01*
X130666115Y-103566511D01*
X130552041Y-104140000D01*
X130666115Y-104713489D01*
X130990971Y-105199670D01*
X131305751Y-105410000D01*
X130990971Y-105620330D01*
X130666115Y-106106511D01*
X130552041Y-106680000D01*
X130666115Y-107253489D01*
X130990971Y-107739670D01*
X131305751Y-107950000D01*
X130990971Y-108160330D01*
X130666115Y-108646511D01*
X130552041Y-109220000D01*
X130666115Y-109793489D01*
X130990971Y-110279670D01*
X131305751Y-110490000D01*
X130990971Y-110700330D01*
X130666115Y-111186511D01*
X130552041Y-111760000D01*
X130666115Y-112333489D01*
X130990971Y-112819670D01*
X131305751Y-113030000D01*
X130990971Y-113240330D01*
X130666115Y-113726511D01*
X130552041Y-114300000D01*
X130666115Y-114873489D01*
X130990971Y-115359670D01*
X131305751Y-115570000D01*
X130990971Y-115780330D01*
X130666115Y-116266511D01*
X130552041Y-116840000D01*
X130666115Y-117413489D01*
X130990971Y-117899670D01*
X131305751Y-118110000D01*
X130990971Y-118320330D01*
X130666115Y-118806511D01*
X130552041Y-119380000D01*
X130666115Y-119953489D01*
X130990971Y-120439670D01*
X131305751Y-120650000D01*
X130990971Y-120860330D01*
X130666115Y-121346511D01*
X130552041Y-121920000D01*
X130666115Y-122493489D01*
X130990971Y-122979670D01*
X131305751Y-123190000D01*
X130990971Y-123400330D01*
X130666115Y-123886511D01*
X130552041Y-124460000D01*
X130666115Y-125033489D01*
X130990971Y-125519670D01*
X131305751Y-125730000D01*
X130990971Y-125940330D01*
X130666115Y-126426511D01*
X130552041Y-127000000D01*
X130666115Y-127573489D01*
X130990971Y-128059670D01*
X131305751Y-128270000D01*
X130990971Y-128480330D01*
X130666115Y-128966511D01*
X130552041Y-129540000D01*
X130666115Y-130113489D01*
X130990971Y-130599670D01*
X131305751Y-130810000D01*
X130990971Y-131020330D01*
X130666115Y-131506511D01*
X130552041Y-132080000D01*
X130666115Y-132653489D01*
X130990971Y-133139670D01*
X131477152Y-133464526D01*
X132050641Y-133578600D01*
X132109359Y-133578600D01*
X132682848Y-133464526D01*
X133169029Y-133139670D01*
X133350000Y-132868827D01*
X133530971Y-133139670D01*
X134017152Y-133464526D01*
X134590641Y-133578600D01*
X134649359Y-133578600D01*
X135222848Y-133464526D01*
X135709029Y-133139670D01*
X135890000Y-132868827D01*
X136070971Y-133139670D01*
X136557152Y-133464526D01*
X137130641Y-133578600D01*
X137189359Y-133578600D01*
X137762848Y-133464526D01*
X138249029Y-133139670D01*
X138430000Y-132868827D01*
X138610971Y-133139670D01*
X139097152Y-133464526D01*
X139670641Y-133578600D01*
X139729359Y-133578600D01*
X140302848Y-133464526D01*
X140789029Y-133139670D01*
X141113885Y-132653489D01*
X141227959Y-132080000D01*
X141227959Y-135873000D01*
X96393000Y-135873000D01*
X96393000Y-122136217D01*
X96393000Y-120777000D01*
X96393000Y-120523000D01*
X96393000Y-119163783D01*
X96160974Y-119042642D01*
X96145209Y-119045291D01*
X95617964Y-119299268D01*
X95228046Y-119735680D01*
X95034816Y-120288087D01*
X95179076Y-120523000D01*
X96393000Y-120523000D01*
X96393000Y-120777000D01*
X95179076Y-120777000D01*
X95034816Y-121011913D01*
X95228046Y-121564320D01*
X95617964Y-122000732D01*
X96145209Y-122254709D01*
X96160974Y-122257358D01*
X96393000Y-122136217D01*
X96393000Y-135873000D01*
X63044549Y-135873000D01*
X58127000Y-131938961D01*
X58127000Y-86052605D01*
X63127000Y-81052605D01*
X63127000Y-70044549D01*
X67061039Y-65127000D01*
X133000000Y-65127000D01*
X140000000Y-65127000D01*
X140970019Y-65127000D01*
X142873000Y-66078490D01*
X142873000Y-70158264D01*
X142515632Y-70515632D01*
X142367143Y-70737862D01*
X142315000Y-71000000D01*
X142315000Y-132000000D01*
X142367143Y-132262138D01*
X142515632Y-132484368D01*
X142873000Y-132841736D01*
X142873000Y-134947395D01*
X142873000Y-134947395D01*
G37*
X142873000Y-134947395D02*
X141947395Y-135873000D01*
X141227959Y-135873000D01*
X141227959Y-132080000D01*
X141113885Y-131506511D01*
X140789029Y-131020330D01*
X140474248Y-130810000D01*
X140789029Y-130599670D01*
X141113885Y-130113489D01*
X141227959Y-129540000D01*
X141113885Y-128966511D01*
X140789029Y-128480330D01*
X140474248Y-128270000D01*
X140789029Y-128059670D01*
X141113885Y-127573489D01*
X141227959Y-127000000D01*
X141113885Y-126426511D01*
X140789029Y-125940330D01*
X140474248Y-125730000D01*
X140789029Y-125519670D01*
X141113885Y-125033489D01*
X141227959Y-124460000D01*
X141113885Y-123886511D01*
X140789029Y-123400330D01*
X140474248Y-123190000D01*
X140789029Y-122979670D01*
X141113885Y-122493489D01*
X141227959Y-121920000D01*
X141113885Y-121346511D01*
X140789029Y-120860330D01*
X140474248Y-120650000D01*
X140789029Y-120439670D01*
X141113885Y-119953489D01*
X141227959Y-119380000D01*
X141113885Y-118806511D01*
X140789029Y-118320330D01*
X140474248Y-118110000D01*
X140789029Y-117899670D01*
X141113885Y-117413489D01*
X141227959Y-116840000D01*
X141113885Y-116266511D01*
X140789029Y-115780330D01*
X140474248Y-115570000D01*
X140789029Y-115359670D01*
X141113885Y-114873489D01*
X141227959Y-114300000D01*
X141113885Y-113726511D01*
X140789029Y-113240330D01*
X140474248Y-113030000D01*
X140789029Y-112819670D01*
X141113885Y-112333489D01*
X141227959Y-111760000D01*
X141113885Y-111186511D01*
X140789029Y-110700330D01*
X140474248Y-110490000D01*
X140789029Y-110279670D01*
X141113885Y-109793489D01*
X141227959Y-109220000D01*
X141113885Y-108646511D01*
X140789029Y-108160330D01*
X140465771Y-107944336D01*
X140588490Y-107886821D01*
X140982688Y-107454947D01*
X141154958Y-107039026D01*
X141154958Y-106320974D01*
X140982688Y-105905053D01*
X140588490Y-105473179D01*
X140453687Y-105410000D01*
X140588490Y-105346821D01*
X140982688Y-104914947D01*
X141154958Y-104499026D01*
X141033817Y-104267000D01*
X139827000Y-104267000D01*
X139827000Y-105345531D01*
X139827000Y-105474469D01*
X139827000Y-106553000D01*
X141033817Y-106553000D01*
X141154958Y-106320974D01*
X141154958Y-107039026D01*
X141033817Y-106807000D01*
X139827000Y-106807000D01*
X139827000Y-106827000D01*
X139573000Y-106827000D01*
X139573000Y-106807000D01*
X139553000Y-106807000D01*
X139553000Y-106553000D01*
X139573000Y-106553000D01*
X139573000Y-105474469D01*
X139573000Y-105345531D01*
X139573000Y-104267000D01*
X138493817Y-104267000D01*
X138366183Y-104267000D01*
X137287000Y-104267000D01*
X137287000Y-104287000D01*
X137033000Y-104287000D01*
X137033000Y-104267000D01*
X137013000Y-104267000D01*
X137013000Y-104013000D01*
X137033000Y-104013000D01*
X137033000Y-103993000D01*
X137287000Y-103993000D01*
X137287000Y-104013000D01*
X138366183Y-104013000D01*
X138493817Y-104013000D01*
X139573000Y-104013000D01*
X139573000Y-103993000D01*
X139827000Y-103993000D01*
X139827000Y-104013000D01*
X141033817Y-104013000D01*
X141154958Y-103780974D01*
X140982688Y-103365053D01*
X140588490Y-102933179D01*
X140465771Y-102875663D01*
X140789029Y-102659670D01*
X141113885Y-102173489D01*
X141227959Y-101600000D01*
X141113885Y-101026511D01*
X140789029Y-100540330D01*
X140474248Y-100330000D01*
X140789029Y-100119670D01*
X141113885Y-99633489D01*
X141227959Y-99060000D01*
X141113885Y-98486511D01*
X140789029Y-98000330D01*
X140474248Y-97790000D01*
X140789029Y-97579670D01*
X141113885Y-97093489D01*
X141227959Y-96520000D01*
X141113885Y-95946511D01*
X140789029Y-95460330D01*
X140474248Y-95250000D01*
X140789029Y-95039670D01*
X141113885Y-94553489D01*
X141227959Y-93980000D01*
X141113885Y-93406511D01*
X140789029Y-92920330D01*
X140474248Y-92710000D01*
X140789029Y-92499670D01*
X141113885Y-92013489D01*
X141227959Y-91440000D01*
X141113885Y-90866511D01*
X140789029Y-90380330D01*
X140474248Y-90170000D01*
X140789029Y-89959670D01*
X141113885Y-89473489D01*
X141227959Y-88900000D01*
X141113885Y-88326511D01*
X140789029Y-87840330D01*
X140474248Y-87630000D01*
X140789029Y-87419670D01*
X141113885Y-86933489D01*
X141227959Y-86360000D01*
X141113885Y-85786511D01*
X140789029Y-85300330D01*
X140474248Y-85090000D01*
X140789029Y-84879670D01*
X141113885Y-84393489D01*
X141227959Y-83820000D01*
X141113885Y-83246511D01*
X140789029Y-82760330D01*
X140474248Y-82550000D01*
X140789029Y-82339670D01*
X141113885Y-81853489D01*
X141227959Y-81280000D01*
X141113885Y-80706511D01*
X140789029Y-80220330D01*
X140474248Y-80010000D01*
X140789029Y-79799670D01*
X141113885Y-79313489D01*
X141227959Y-78740000D01*
X141113885Y-78166511D01*
X140789029Y-77680330D01*
X140474248Y-77470000D01*
X140789029Y-77259670D01*
X141113885Y-76773489D01*
X141227959Y-76200000D01*
X141113885Y-75626511D01*
X140789029Y-75140330D01*
X140474248Y-74930000D01*
X140789029Y-74719670D01*
X141113885Y-74233489D01*
X141227959Y-73660000D01*
X141113885Y-73086511D01*
X140789029Y-72600330D01*
X140474248Y-72390000D01*
X140789029Y-72179670D01*
X141113885Y-71693489D01*
X141227959Y-71120000D01*
X141113885Y-70546511D01*
X140789029Y-70060330D01*
X140474248Y-69850000D01*
X140789029Y-69639670D01*
X141113885Y-69153489D01*
X141227959Y-68580000D01*
X141113885Y-68006511D01*
X140789029Y-67520330D01*
X140302848Y-67195474D01*
X139729359Y-67081400D01*
X139670641Y-67081400D01*
X139097152Y-67195474D01*
X138630470Y-67507300D01*
X138624063Y-67474277D01*
X138484273Y-67261473D01*
X138273240Y-67119023D01*
X138023600Y-67068960D01*
X136296400Y-67068960D01*
X136054277Y-67115937D01*
X135841473Y-67255727D01*
X135699023Y-67466760D01*
X135690731Y-67508104D01*
X135222848Y-67195474D01*
X134649359Y-67081400D01*
X134590641Y-67081400D01*
X134017152Y-67195474D01*
X133550470Y-67507300D01*
X133544063Y-67474277D01*
X133404273Y-67261473D01*
X133193240Y-67119023D01*
X132943600Y-67068960D01*
X131216400Y-67068960D01*
X130974277Y-67115937D01*
X130761473Y-67255727D01*
X130619023Y-67466760D01*
X130568960Y-67716400D01*
X130568960Y-69443600D01*
X130615937Y-69685723D01*
X130755727Y-69898527D01*
X130966760Y-70040977D01*
X131007659Y-70049179D01*
X130990971Y-70060330D01*
X130666115Y-70546511D01*
X130552041Y-71120000D01*
X130666115Y-71693489D01*
X130990971Y-72179670D01*
X131305751Y-72390000D01*
X130990971Y-72600330D01*
X130666115Y-73086511D01*
X130552041Y-73660000D01*
X130666115Y-74233489D01*
X130990971Y-74719670D01*
X131305751Y-74930000D01*
X130990971Y-75140330D01*
X130666115Y-75626511D01*
X130552041Y-76200000D01*
X130653486Y-76710000D01*
X128270000Y-76710000D01*
X127979160Y-76767852D01*
X127732599Y-76932599D01*
X120112599Y-84552599D01*
X119947852Y-84799161D01*
X119890000Y-85090000D01*
X119890000Y-87315198D01*
X118868659Y-88336538D01*
X118640327Y-88107808D01*
X118296799Y-87965162D01*
X117924833Y-87964838D01*
X117669570Y-88070310D01*
X117774838Y-87816799D01*
X117775162Y-87444833D01*
X117633117Y-87101057D01*
X117370327Y-86837808D01*
X117026799Y-86695162D01*
X116654833Y-86694838D01*
X116311057Y-86836883D01*
X116277882Y-86870000D01*
X114300000Y-86870000D01*
X114009161Y-86927852D01*
X113762599Y-87092599D01*
X112880197Y-87975000D01*
X112629146Y-87975000D01*
X112694838Y-87816799D01*
X112695162Y-87444833D01*
X112553117Y-87101057D01*
X112290327Y-86837808D01*
X111946799Y-86695162D01*
X111574833Y-86694838D01*
X111231057Y-86836883D01*
X110967808Y-87099673D01*
X110874243Y-87325000D01*
X108059802Y-87325000D01*
X108264802Y-87120000D01*
X108657537Y-87120000D01*
X108689673Y-87152192D01*
X109033201Y-87294838D01*
X109405167Y-87295162D01*
X109748943Y-87153117D01*
X110012192Y-86890327D01*
X110154838Y-86546799D01*
X110155162Y-86174833D01*
X110013117Y-85831057D01*
X109750327Y-85567808D01*
X109406799Y-85425162D01*
X109034833Y-85424838D01*
X108691057Y-85566883D01*
X108657882Y-85600000D01*
X107950000Y-85600000D01*
X107659161Y-85657852D01*
X107412599Y-85822599D01*
X106560198Y-86675000D01*
X102372440Y-86675000D01*
X102372440Y-86560000D01*
X102352717Y-86458347D01*
X102372440Y-86360000D01*
X102372440Y-86245000D01*
X103745000Y-86245000D01*
X104035839Y-86187148D01*
X104278329Y-86025121D01*
X104325167Y-86025162D01*
X104668943Y-85883117D01*
X104932192Y-85620327D01*
X105074838Y-85276799D01*
X105075162Y-84904833D01*
X104933117Y-84561057D01*
X104670327Y-84297808D01*
X104326799Y-84155162D01*
X104267543Y-84155110D01*
X103029019Y-82954345D01*
X102909496Y-82877132D01*
X102791270Y-82798031D01*
X102785165Y-82796812D01*
X102779937Y-82793435D01*
X102639994Y-82767843D01*
X102500467Y-82740000D01*
X71499168Y-82720954D01*
X71498450Y-82721096D01*
X71497736Y-82720955D01*
X71353311Y-82749873D01*
X71208293Y-82778627D01*
X71207684Y-82779032D01*
X71206970Y-82779176D01*
X71084504Y-82861229D01*
X70961630Y-82943223D01*
X70961223Y-82943830D01*
X70960618Y-82944236D01*
X62961917Y-90963282D01*
X62879950Y-91086291D01*
X62797852Y-91209161D01*
X62797756Y-91209643D01*
X62797483Y-91210053D01*
X62768845Y-91354985D01*
X62740000Y-91500000D01*
X62740000Y-92468960D01*
X62484000Y-92468960D01*
X62241877Y-92515937D01*
X62029073Y-92655727D01*
X61886623Y-92866760D01*
X61836560Y-93116400D01*
X61836560Y-94843600D01*
X61883537Y-95085723D01*
X62023327Y-95298527D01*
X62234360Y-95440977D01*
X62272962Y-95448718D01*
X62255585Y-95460330D01*
X61930729Y-95946511D01*
X61816655Y-96520000D01*
X61930729Y-97093489D01*
X62255585Y-97579670D01*
X62570365Y-97790000D01*
X62255585Y-98000330D01*
X61930729Y-98486511D01*
X61816655Y-99060000D01*
X61930729Y-99633489D01*
X62255585Y-100119670D01*
X62570365Y-100330000D01*
X62255585Y-100540330D01*
X61930729Y-101026511D01*
X61816655Y-101600000D01*
X61930729Y-102173489D01*
X62255585Y-102659670D01*
X62570365Y-102870000D01*
X62255585Y-103080330D01*
X61930729Y-103566511D01*
X61816655Y-104140000D01*
X61930729Y-104713489D01*
X62255585Y-105199670D01*
X62570365Y-105410000D01*
X62255585Y-105620330D01*
X61930729Y-106106511D01*
X61816655Y-106680000D01*
X61930729Y-107253489D01*
X62255585Y-107739670D01*
X62570365Y-107950000D01*
X62255585Y-108160330D01*
X61930729Y-108646511D01*
X61816655Y-109220000D01*
X61930729Y-109793489D01*
X62255585Y-110279670D01*
X62570365Y-110490000D01*
X62255585Y-110700330D01*
X61930729Y-111186511D01*
X61816655Y-111760000D01*
X61930729Y-112333489D01*
X62255585Y-112819670D01*
X62570365Y-113030000D01*
X62255585Y-113240330D01*
X61930729Y-113726511D01*
X61816655Y-114300000D01*
X61930729Y-114873489D01*
X62255585Y-115359670D01*
X62570365Y-115570000D01*
X62255585Y-115780330D01*
X61930729Y-116266511D01*
X61816655Y-116840000D01*
X61930729Y-117413489D01*
X62255585Y-117899670D01*
X62570365Y-118110000D01*
X62255585Y-118320330D01*
X61930729Y-118806511D01*
X61816655Y-119380000D01*
X61930729Y-119953489D01*
X62255585Y-120439670D01*
X62570365Y-120650000D01*
X62255585Y-120860330D01*
X61930729Y-121346511D01*
X61816655Y-121920000D01*
X61930729Y-122493489D01*
X62255585Y-122979670D01*
X62570365Y-123190000D01*
X62255585Y-123400330D01*
X61930729Y-123886511D01*
X61816655Y-124460000D01*
X61930729Y-125033489D01*
X62255585Y-125519670D01*
X62570365Y-125730000D01*
X62255585Y-125940330D01*
X61930729Y-126426511D01*
X61816655Y-127000000D01*
X61930729Y-127573489D01*
X62255585Y-128059670D01*
X62741766Y-128384526D01*
X63315255Y-128498600D01*
X63684745Y-128498600D01*
X64258234Y-128384526D01*
X64744415Y-128059670D01*
X64770000Y-128021379D01*
X64795585Y-128059670D01*
X65281766Y-128384526D01*
X65855255Y-128498600D01*
X66224745Y-128498600D01*
X66798234Y-128384526D01*
X67284415Y-128059670D01*
X67310000Y-128021379D01*
X67335585Y-128059670D01*
X67821766Y-128384526D01*
X68395255Y-128498600D01*
X68764745Y-128498600D01*
X69338234Y-128384526D01*
X69824415Y-128059670D01*
X69850000Y-128021379D01*
X69875585Y-128059670D01*
X70361766Y-128384526D01*
X70935255Y-128498600D01*
X71304745Y-128498600D01*
X71878234Y-128384526D01*
X72364415Y-128059670D01*
X72689271Y-127573489D01*
X72803345Y-127000000D01*
X72701899Y-126490000D01*
X75637537Y-126490000D01*
X75669673Y-126522192D01*
X76013201Y-126664838D01*
X76385167Y-126665162D01*
X76728943Y-126523117D01*
X76992192Y-126260327D01*
X77134838Y-125916799D01*
X77135162Y-125544833D01*
X76993117Y-125201057D01*
X76730327Y-124937808D01*
X76386799Y-124795162D01*
X76014833Y-124794838D01*
X75671057Y-124936883D01*
X75637882Y-124970000D01*
X72701899Y-124970000D01*
X72803345Y-124460000D01*
X72689271Y-123886511D01*
X72364415Y-123400330D01*
X72049634Y-123190000D01*
X72364415Y-122979670D01*
X72564648Y-122680000D01*
X74367537Y-122680000D01*
X74399673Y-122712192D01*
X74743201Y-122854838D01*
X75115167Y-122855162D01*
X75458943Y-122713117D01*
X75722192Y-122450327D01*
X75864838Y-122106799D01*
X75865162Y-121734833D01*
X75723117Y-121391057D01*
X75460327Y-121127808D01*
X75116799Y-120985162D01*
X74744833Y-120984838D01*
X74401057Y-121126883D01*
X74367882Y-121160000D01*
X72564648Y-121160000D01*
X72364415Y-120860330D01*
X72049634Y-120650000D01*
X72364415Y-120439670D01*
X72564648Y-120140000D01*
X74367537Y-120140000D01*
X74399673Y-120172192D01*
X74743201Y-120314838D01*
X75115167Y-120315162D01*
X75458943Y-120173117D01*
X75722192Y-119910327D01*
X75864838Y-119566799D01*
X75865162Y-119194833D01*
X75730944Y-118870000D01*
X83820000Y-118870000D01*
X84110839Y-118812148D01*
X84357401Y-118647401D01*
X87709802Y-115295000D01*
X94727560Y-115295000D01*
X94727560Y-115410000D01*
X94774537Y-115652123D01*
X94914327Y-115864927D01*
X95125360Y-116007377D01*
X95340000Y-116050421D01*
X95340000Y-116420000D01*
X95397852Y-116710839D01*
X95562599Y-116957401D01*
X98006596Y-119401398D01*
X98000330Y-119405585D01*
X97793539Y-119715069D01*
X97422036Y-119299268D01*
X96894791Y-119045291D01*
X96879026Y-119042642D01*
X96647000Y-119163783D01*
X96647000Y-120523000D01*
X96667000Y-120523000D01*
X96667000Y-120777000D01*
X96647000Y-120777000D01*
X96647000Y-122136217D01*
X96879026Y-122257358D01*
X96894791Y-122254709D01*
X97422036Y-122000732D01*
X97793539Y-121584930D01*
X98000330Y-121894415D01*
X98486511Y-122219271D01*
X99060000Y-122333345D01*
X99633489Y-122219271D01*
X100119670Y-121894415D01*
X100130215Y-121878632D01*
X100135937Y-121908123D01*
X100275727Y-122120927D01*
X100486760Y-122263377D01*
X100736400Y-122313440D01*
X102463600Y-122313440D01*
X102705723Y-122266463D01*
X102918527Y-122126673D01*
X103060977Y-121915640D01*
X103111040Y-121666000D01*
X103111040Y-119634000D01*
X103064063Y-119391877D01*
X102924273Y-119179073D01*
X102713240Y-119036623D01*
X102463600Y-118986560D01*
X102233592Y-118986560D01*
X102137401Y-118842599D01*
X100050000Y-116755198D01*
X100050000Y-110804802D01*
X100630361Y-110224440D01*
X100647282Y-110311652D01*
X100627560Y-110410000D01*
X100627560Y-110860000D01*
X100647282Y-110961652D01*
X100627560Y-111060000D01*
X100627560Y-111510000D01*
X100647282Y-111611652D01*
X100627560Y-111710000D01*
X100627560Y-112160000D01*
X100647282Y-112261652D01*
X100627560Y-112360000D01*
X100627560Y-112810000D01*
X100647282Y-112911652D01*
X100627560Y-113010000D01*
X100627560Y-113460000D01*
X100647282Y-113561652D01*
X100627560Y-113660000D01*
X100627560Y-114110000D01*
X100647282Y-114211652D01*
X100627560Y-114310000D01*
X100627560Y-114760000D01*
X100641264Y-114830636D01*
X100640000Y-114833690D01*
X100640000Y-114913750D01*
X100661577Y-114935327D01*
X100674537Y-115002123D01*
X100814327Y-115214927D01*
X100936655Y-115297500D01*
X100798750Y-115297500D01*
X100640000Y-115456250D01*
X100640000Y-115536310D01*
X100736673Y-115769699D01*
X100915302Y-115948327D01*
X101148691Y-116045000D01*
X101714250Y-116045000D01*
X101873000Y-115886250D01*
X101873000Y-115407440D01*
X102127000Y-115407440D01*
X102127000Y-115886250D01*
X102285750Y-116045000D01*
X102851309Y-116045000D01*
X103084698Y-115948327D01*
X103263327Y-115769699D01*
X103360000Y-115536310D01*
X103360000Y-115456250D01*
X103215752Y-115312002D01*
X103360000Y-115312002D01*
X103360000Y-115295000D01*
X106445000Y-115295000D01*
X106735839Y-115237148D01*
X106982401Y-115072401D01*
X123504802Y-98550000D01*
X128270000Y-98550000D01*
X130653486Y-98550000D01*
X130552041Y-99060000D01*
X130653486Y-99570000D01*
X123752462Y-99570000D01*
X123720327Y-99537808D01*
X123376799Y-99395162D01*
X123004833Y-99394838D01*
X122661057Y-99536883D01*
X122397808Y-99799673D01*
X122255162Y-100143201D01*
X122254838Y-100515167D01*
X122396883Y-100858943D01*
X122659673Y-101122192D01*
X123003201Y-101264838D01*
X123375167Y-101265162D01*
X123718943Y-101123117D01*
X123752117Y-101090000D01*
X130653486Y-101090000D01*
X130552041Y-101600000D01*
X130666115Y-102173489D01*
X130990971Y-102659670D01*
X131305751Y-102870000D01*
X130990971Y-103080330D01*
X130666115Y-103566511D01*
X130552041Y-104140000D01*
X130666115Y-104713489D01*
X130990971Y-105199670D01*
X131305751Y-105410000D01*
X130990971Y-105620330D01*
X130666115Y-106106511D01*
X130552041Y-106680000D01*
X130666115Y-107253489D01*
X130990971Y-107739670D01*
X131305751Y-107950000D01*
X130990971Y-108160330D01*
X130666115Y-108646511D01*
X130552041Y-109220000D01*
X130666115Y-109793489D01*
X130990971Y-110279670D01*
X131305751Y-110490000D01*
X130990971Y-110700330D01*
X130666115Y-111186511D01*
X130552041Y-111760000D01*
X130666115Y-112333489D01*
X130990971Y-112819670D01*
X131305751Y-113030000D01*
X130990971Y-113240330D01*
X130666115Y-113726511D01*
X130552041Y-114300000D01*
X130666115Y-114873489D01*
X130990971Y-115359670D01*
X131305751Y-115570000D01*
X130990971Y-115780330D01*
X130666115Y-116266511D01*
X130552041Y-116840000D01*
X130666115Y-117413489D01*
X130990971Y-117899670D01*
X131305751Y-118110000D01*
X130990971Y-118320330D01*
X130666115Y-118806511D01*
X130552041Y-119380000D01*
X130666115Y-119953489D01*
X130990971Y-120439670D01*
X131305751Y-120650000D01*
X130990971Y-120860330D01*
X130666115Y-121346511D01*
X130552041Y-121920000D01*
X130666115Y-122493489D01*
X130990971Y-122979670D01*
X131305751Y-123190000D01*
X130990971Y-123400330D01*
X130666115Y-123886511D01*
X130552041Y-124460000D01*
X130666115Y-125033489D01*
X130990971Y-125519670D01*
X131305751Y-125730000D01*
X130990971Y-125940330D01*
X130666115Y-126426511D01*
X130552041Y-127000000D01*
X130666115Y-127573489D01*
X130990971Y-128059670D01*
X131305751Y-128270000D01*
X130990971Y-128480330D01*
X130666115Y-128966511D01*
X130552041Y-129540000D01*
X130666115Y-130113489D01*
X130990971Y-130599670D01*
X131305751Y-130810000D01*
X130990971Y-131020330D01*
X130666115Y-131506511D01*
X130552041Y-132080000D01*
X130666115Y-132653489D01*
X130990971Y-133139670D01*
X131477152Y-133464526D01*
X132050641Y-133578600D01*
X132109359Y-133578600D01*
X132682848Y-133464526D01*
X133169029Y-133139670D01*
X133350000Y-132868827D01*
X133530971Y-133139670D01*
X134017152Y-133464526D01*
X134590641Y-133578600D01*
X134649359Y-133578600D01*
X135222848Y-133464526D01*
X135709029Y-133139670D01*
X135890000Y-132868827D01*
X136070971Y-133139670D01*
X136557152Y-133464526D01*
X137130641Y-133578600D01*
X137189359Y-133578600D01*
X137762848Y-133464526D01*
X138249029Y-133139670D01*
X138430000Y-132868827D01*
X138610971Y-133139670D01*
X139097152Y-133464526D01*
X139670641Y-133578600D01*
X139729359Y-133578600D01*
X140302848Y-133464526D01*
X140789029Y-133139670D01*
X141113885Y-132653489D01*
X141227959Y-132080000D01*
X141227959Y-135873000D01*
X96393000Y-135873000D01*
X96393000Y-122136217D01*
X96393000Y-120777000D01*
X96393000Y-120523000D01*
X96393000Y-119163783D01*
X96160974Y-119042642D01*
X96145209Y-119045291D01*
X95617964Y-119299268D01*
X95228046Y-119735680D01*
X95034816Y-120288087D01*
X95179076Y-120523000D01*
X96393000Y-120523000D01*
X96393000Y-120777000D01*
X95179076Y-120777000D01*
X95034816Y-121011913D01*
X95228046Y-121564320D01*
X95617964Y-122000732D01*
X96145209Y-122254709D01*
X96160974Y-122257358D01*
X96393000Y-122136217D01*
X96393000Y-135873000D01*
X63044549Y-135873000D01*
X58127000Y-131938961D01*
X58127000Y-86052605D01*
X63127000Y-81052605D01*
X63127000Y-70044549D01*
X67061039Y-65127000D01*
X133000000Y-65127000D01*
X140000000Y-65127000D01*
X140970019Y-65127000D01*
X142873000Y-66078490D01*
X142873000Y-70158264D01*
X142515632Y-70515632D01*
X142367143Y-70737862D01*
X142315000Y-71000000D01*
X142315000Y-132000000D01*
X142367143Y-132262138D01*
X142515632Y-132484368D01*
X142873000Y-132841736D01*
X142873000Y-134947395D01*
M02*
