G04 #@! TF.FileFunction,Other,ECO2*
%FSLAX46Y46*%
G04 Gerber Fmt 4.6, Leading zero omitted, Abs format (unit mm)*
G04 Created by KiCad (PCBNEW (2015-04-08 BZR 5585)-product) date Thu 09 Apr 2015 06:27:39 PM CLST*
%MOMM*%
G01*
G04 APERTURE LIST*
%ADD10C,0.100000*%
%ADD11C,0.300000*%
G04 APERTURE END LIST*
D10*
D11*
X37328571Y-130785715D02*
X37400000Y-130857144D01*
X37471429Y-131000001D01*
X37471429Y-131357144D01*
X37400000Y-131500001D01*
X37328571Y-131571430D01*
X37185714Y-131642858D01*
X37042857Y-131642858D01*
X36828571Y-131571430D01*
X35971429Y-130714287D01*
X35971429Y-131642858D01*
X37471429Y-132571429D02*
X37471429Y-132714286D01*
X37400000Y-132857143D01*
X37328571Y-132928572D01*
X37185714Y-133000001D01*
X36900000Y-133071429D01*
X36542857Y-133071429D01*
X36257143Y-133000001D01*
X36114286Y-132928572D01*
X36042857Y-132857143D01*
X35971429Y-132714286D01*
X35971429Y-132571429D01*
X36042857Y-132428572D01*
X36114286Y-132357143D01*
X36257143Y-132285715D01*
X36542857Y-132214286D01*
X36900000Y-132214286D01*
X37185714Y-132285715D01*
X37328571Y-132357143D01*
X37400000Y-132428572D01*
X37471429Y-132571429D01*
X36114286Y-133714286D02*
X36042857Y-133785714D01*
X35971429Y-133714286D01*
X36042857Y-133642857D01*
X36114286Y-133714286D01*
X35971429Y-133714286D01*
X37471429Y-134714286D02*
X37471429Y-134857143D01*
X37400000Y-135000000D01*
X37328571Y-135071429D01*
X37185714Y-135142858D01*
X36900000Y-135214286D01*
X36542857Y-135214286D01*
X36257143Y-135142858D01*
X36114286Y-135071429D01*
X36042857Y-135000000D01*
X35971429Y-134857143D01*
X35971429Y-134714286D01*
X36042857Y-134571429D01*
X36114286Y-134500000D01*
X36257143Y-134428572D01*
X36542857Y-134357143D01*
X36900000Y-134357143D01*
X37185714Y-134428572D01*
X37328571Y-134500000D01*
X37400000Y-134571429D01*
X37471429Y-134714286D01*
X37471429Y-136142857D02*
X37471429Y-136285714D01*
X37400000Y-136428571D01*
X37328571Y-136500000D01*
X37185714Y-136571429D01*
X36900000Y-136642857D01*
X36542857Y-136642857D01*
X36257143Y-136571429D01*
X36114286Y-136500000D01*
X36042857Y-136428571D01*
X35971429Y-136285714D01*
X35971429Y-136142857D01*
X36042857Y-136000000D01*
X36114286Y-135928571D01*
X36257143Y-135857143D01*
X36542857Y-135785714D01*
X36900000Y-135785714D01*
X37185714Y-135857143D01*
X37328571Y-135928571D01*
X37400000Y-136000000D01*
X37471429Y-136142857D01*
X37471429Y-137571428D02*
X37471429Y-137714285D01*
X37400000Y-137857142D01*
X37328571Y-137928571D01*
X37185714Y-138000000D01*
X36900000Y-138071428D01*
X36542857Y-138071428D01*
X36257143Y-138000000D01*
X36114286Y-137928571D01*
X36042857Y-137857142D01*
X35971429Y-137714285D01*
X35971429Y-137571428D01*
X36042857Y-137428571D01*
X36114286Y-137357142D01*
X36257143Y-137285714D01*
X36542857Y-137214285D01*
X36900000Y-137214285D01*
X37185714Y-137285714D01*
X37328571Y-137357142D01*
X37400000Y-137428571D01*
X37471429Y-137571428D01*
X35971429Y-139857142D02*
X36971429Y-139857142D01*
X36828571Y-139857142D02*
X36900000Y-139928570D01*
X36971429Y-140071428D01*
X36971429Y-140285713D01*
X36900000Y-140428570D01*
X36757143Y-140499999D01*
X35971429Y-140499999D01*
X36757143Y-140499999D02*
X36900000Y-140571428D01*
X36971429Y-140714285D01*
X36971429Y-140928570D01*
X36900000Y-141071428D01*
X36757143Y-141142856D01*
X35971429Y-141142856D01*
X35971429Y-141857142D02*
X36971429Y-141857142D01*
X36828571Y-141857142D02*
X36900000Y-141928570D01*
X36971429Y-142071428D01*
X36971429Y-142285713D01*
X36900000Y-142428570D01*
X36757143Y-142499999D01*
X35971429Y-142499999D01*
X36757143Y-142499999D02*
X36900000Y-142571428D01*
X36971429Y-142714285D01*
X36971429Y-142928570D01*
X36900000Y-143071428D01*
X36757143Y-143142856D01*
X35971429Y-143142856D01*
X38000000Y-127000000D02*
X38000000Y-147000000D01*
X64000000Y-127000000D02*
X35300000Y-127000000D01*
X64000000Y-147000000D02*
X35300000Y-147000000D01*
X38000000Y-147000000D02*
X37413579Y-145873496D01*
X38000000Y-147000000D02*
X38586421Y-145873496D01*
X38000000Y-127000000D02*
X37413579Y-128126504D01*
X38000000Y-127000000D02*
X38586421Y-128126504D01*
X51142858Y-155028571D02*
X50285715Y-155028571D01*
X50714287Y-155028571D02*
X50714287Y-153528571D01*
X50571430Y-153742857D01*
X50428572Y-153885714D01*
X50285715Y-153957143D01*
X52500001Y-153528571D02*
X51785715Y-153528571D01*
X51714286Y-154242857D01*
X51785715Y-154171429D01*
X51928572Y-154100000D01*
X52285715Y-154100000D01*
X52428572Y-154171429D01*
X52500001Y-154242857D01*
X52571429Y-154385714D01*
X52571429Y-154742857D01*
X52500001Y-154885714D01*
X52428572Y-154957143D01*
X52285715Y-155028571D01*
X51928572Y-155028571D01*
X51785715Y-154957143D01*
X51714286Y-154885714D01*
X53214286Y-154885714D02*
X53285714Y-154957143D01*
X53214286Y-155028571D01*
X53142857Y-154957143D01*
X53214286Y-154885714D01*
X53214286Y-155028571D01*
X54214286Y-153528571D02*
X54357143Y-153528571D01*
X54500000Y-153600000D01*
X54571429Y-153671429D01*
X54642858Y-153814286D01*
X54714286Y-154100000D01*
X54714286Y-154457143D01*
X54642858Y-154742857D01*
X54571429Y-154885714D01*
X54500000Y-154957143D01*
X54357143Y-155028571D01*
X54214286Y-155028571D01*
X54071429Y-154957143D01*
X54000000Y-154885714D01*
X53928572Y-154742857D01*
X53857143Y-154457143D01*
X53857143Y-154100000D01*
X53928572Y-153814286D01*
X54000000Y-153671429D01*
X54071429Y-153600000D01*
X54214286Y-153528571D01*
X55642857Y-153528571D02*
X55785714Y-153528571D01*
X55928571Y-153600000D01*
X56000000Y-153671429D01*
X56071429Y-153814286D01*
X56142857Y-154100000D01*
X56142857Y-154457143D01*
X56071429Y-154742857D01*
X56000000Y-154885714D01*
X55928571Y-154957143D01*
X55785714Y-155028571D01*
X55642857Y-155028571D01*
X55500000Y-154957143D01*
X55428571Y-154885714D01*
X55357143Y-154742857D01*
X55285714Y-154457143D01*
X55285714Y-154100000D01*
X55357143Y-153814286D01*
X55428571Y-153671429D01*
X55500000Y-153600000D01*
X55642857Y-153528571D01*
X57071428Y-153528571D02*
X57214285Y-153528571D01*
X57357142Y-153600000D01*
X57428571Y-153671429D01*
X57500000Y-153814286D01*
X57571428Y-154100000D01*
X57571428Y-154457143D01*
X57500000Y-154742857D01*
X57428571Y-154885714D01*
X57357142Y-154957143D01*
X57214285Y-155028571D01*
X57071428Y-155028571D01*
X56928571Y-154957143D01*
X56857142Y-154885714D01*
X56785714Y-154742857D01*
X56714285Y-154457143D01*
X56714285Y-154100000D01*
X56785714Y-153814286D01*
X56857142Y-153671429D01*
X56928571Y-153600000D01*
X57071428Y-153528571D01*
X59357142Y-155028571D02*
X59357142Y-154028571D01*
X59357142Y-154171429D02*
X59428570Y-154100000D01*
X59571428Y-154028571D01*
X59785713Y-154028571D01*
X59928570Y-154100000D01*
X59999999Y-154242857D01*
X59999999Y-155028571D01*
X59999999Y-154242857D02*
X60071428Y-154100000D01*
X60214285Y-154028571D01*
X60428570Y-154028571D01*
X60571428Y-154100000D01*
X60642856Y-154242857D01*
X60642856Y-155028571D01*
X61357142Y-155028571D02*
X61357142Y-154028571D01*
X61357142Y-154171429D02*
X61428570Y-154100000D01*
X61571428Y-154028571D01*
X61785713Y-154028571D01*
X61928570Y-154100000D01*
X61999999Y-154242857D01*
X61999999Y-155028571D01*
X61999999Y-154242857D02*
X62071428Y-154100000D01*
X62214285Y-154028571D01*
X62428570Y-154028571D01*
X62571428Y-154100000D01*
X62642856Y-154242857D01*
X62642856Y-155028571D01*
X49000000Y-153000000D02*
X64000000Y-153000000D01*
X49000000Y-127000000D02*
X49000000Y-155700000D01*
X64000000Y-127000000D02*
X64000000Y-155700000D01*
X64000000Y-153000000D02*
X62873496Y-153586421D01*
X64000000Y-153000000D02*
X62873496Y-152413579D01*
X49000000Y-153000000D02*
X50126504Y-153586421D01*
X49000000Y-153000000D02*
X50126504Y-152413579D01*
X137785716Y-49828571D02*
X137071430Y-49828571D01*
X137000001Y-50542857D01*
X137071430Y-50471429D01*
X137214287Y-50400000D01*
X137571430Y-50400000D01*
X137714287Y-50471429D01*
X137785716Y-50542857D01*
X137857144Y-50685714D01*
X137857144Y-51042857D01*
X137785716Y-51185714D01*
X137714287Y-51257143D01*
X137571430Y-51328571D01*
X137214287Y-51328571D01*
X137071430Y-51257143D01*
X137000001Y-51185714D01*
X138500001Y-51185714D02*
X138571429Y-51257143D01*
X138500001Y-51328571D01*
X138428572Y-51257143D01*
X138500001Y-51185714D01*
X138500001Y-51328571D01*
X139500001Y-49828571D02*
X139642858Y-49828571D01*
X139785715Y-49900000D01*
X139857144Y-49971429D01*
X139928573Y-50114286D01*
X140000001Y-50400000D01*
X140000001Y-50757143D01*
X139928573Y-51042857D01*
X139857144Y-51185714D01*
X139785715Y-51257143D01*
X139642858Y-51328571D01*
X139500001Y-51328571D01*
X139357144Y-51257143D01*
X139285715Y-51185714D01*
X139214287Y-51042857D01*
X139142858Y-50757143D01*
X139142858Y-50400000D01*
X139214287Y-50114286D01*
X139285715Y-49971429D01*
X139357144Y-49900000D01*
X139500001Y-49828571D01*
X140928572Y-49828571D02*
X141071429Y-49828571D01*
X141214286Y-49900000D01*
X141285715Y-49971429D01*
X141357144Y-50114286D01*
X141428572Y-50400000D01*
X141428572Y-50757143D01*
X141357144Y-51042857D01*
X141285715Y-51185714D01*
X141214286Y-51257143D01*
X141071429Y-51328571D01*
X140928572Y-51328571D01*
X140785715Y-51257143D01*
X140714286Y-51185714D01*
X140642858Y-51042857D01*
X140571429Y-50757143D01*
X140571429Y-50400000D01*
X140642858Y-50114286D01*
X140714286Y-49971429D01*
X140785715Y-49900000D01*
X140928572Y-49828571D01*
X142357143Y-49828571D02*
X142500000Y-49828571D01*
X142642857Y-49900000D01*
X142714286Y-49971429D01*
X142785715Y-50114286D01*
X142857143Y-50400000D01*
X142857143Y-50757143D01*
X142785715Y-51042857D01*
X142714286Y-51185714D01*
X142642857Y-51257143D01*
X142500000Y-51328571D01*
X142357143Y-51328571D01*
X142214286Y-51257143D01*
X142142857Y-51185714D01*
X142071429Y-51042857D01*
X142000000Y-50757143D01*
X142000000Y-50400000D01*
X142071429Y-50114286D01*
X142142857Y-49971429D01*
X142214286Y-49900000D01*
X142357143Y-49828571D01*
X144642857Y-51328571D02*
X144642857Y-50328571D01*
X144642857Y-50471429D02*
X144714285Y-50400000D01*
X144857143Y-50328571D01*
X145071428Y-50328571D01*
X145214285Y-50400000D01*
X145285714Y-50542857D01*
X145285714Y-51328571D01*
X145285714Y-50542857D02*
X145357143Y-50400000D01*
X145500000Y-50328571D01*
X145714285Y-50328571D01*
X145857143Y-50400000D01*
X145928571Y-50542857D01*
X145928571Y-51328571D01*
X146642857Y-51328571D02*
X146642857Y-50328571D01*
X146642857Y-50471429D02*
X146714285Y-50400000D01*
X146857143Y-50328571D01*
X147071428Y-50328571D01*
X147214285Y-50400000D01*
X147285714Y-50542857D01*
X147285714Y-51328571D01*
X147285714Y-50542857D02*
X147357143Y-50400000D01*
X147500000Y-50328571D01*
X147714285Y-50328571D01*
X147857143Y-50400000D01*
X147928571Y-50542857D01*
X147928571Y-51328571D01*
X145000000Y-52000000D02*
X140000000Y-52000000D01*
X145000000Y-68000000D02*
X145000000Y-49300000D01*
X140000000Y-68000000D02*
X140000000Y-49300000D01*
X140000000Y-52000000D02*
X141126504Y-51413579D01*
X140000000Y-52000000D02*
X141126504Y-52586421D01*
X145000000Y-52000000D02*
X143873496Y-51413579D01*
X145000000Y-52000000D02*
X143873496Y-52586421D01*
X151671429Y-56142858D02*
X151671429Y-55285715D01*
X151671429Y-55714287D02*
X153171429Y-55714287D01*
X152957143Y-55571430D01*
X152814286Y-55428572D01*
X152742857Y-55285715D01*
X153171429Y-56642858D02*
X153171429Y-57571429D01*
X152600000Y-57071429D01*
X152600000Y-57285715D01*
X152528571Y-57428572D01*
X152457143Y-57500001D01*
X152314286Y-57571429D01*
X151957143Y-57571429D01*
X151814286Y-57500001D01*
X151742857Y-57428572D01*
X151671429Y-57285715D01*
X151671429Y-56857143D01*
X151742857Y-56714286D01*
X151814286Y-56642858D01*
X151814286Y-58214286D02*
X151742857Y-58285714D01*
X151671429Y-58214286D01*
X151742857Y-58142857D01*
X151814286Y-58214286D01*
X151671429Y-58214286D01*
X153171429Y-59214286D02*
X153171429Y-59357143D01*
X153100000Y-59500000D01*
X153028571Y-59571429D01*
X152885714Y-59642858D01*
X152600000Y-59714286D01*
X152242857Y-59714286D01*
X151957143Y-59642858D01*
X151814286Y-59571429D01*
X151742857Y-59500000D01*
X151671429Y-59357143D01*
X151671429Y-59214286D01*
X151742857Y-59071429D01*
X151814286Y-59000000D01*
X151957143Y-58928572D01*
X152242857Y-58857143D01*
X152600000Y-58857143D01*
X152885714Y-58928572D01*
X153028571Y-59000000D01*
X153100000Y-59071429D01*
X153171429Y-59214286D01*
X153171429Y-60642857D02*
X153171429Y-60785714D01*
X153100000Y-60928571D01*
X153028571Y-61000000D01*
X152885714Y-61071429D01*
X152600000Y-61142857D01*
X152242857Y-61142857D01*
X151957143Y-61071429D01*
X151814286Y-61000000D01*
X151742857Y-60928571D01*
X151671429Y-60785714D01*
X151671429Y-60642857D01*
X151742857Y-60500000D01*
X151814286Y-60428571D01*
X151957143Y-60357143D01*
X152242857Y-60285714D01*
X152600000Y-60285714D01*
X152885714Y-60357143D01*
X153028571Y-60428571D01*
X153100000Y-60500000D01*
X153171429Y-60642857D01*
X153171429Y-62071428D02*
X153171429Y-62214285D01*
X153100000Y-62357142D01*
X153028571Y-62428571D01*
X152885714Y-62500000D01*
X152600000Y-62571428D01*
X152242857Y-62571428D01*
X151957143Y-62500000D01*
X151814286Y-62428571D01*
X151742857Y-62357142D01*
X151671429Y-62214285D01*
X151671429Y-62071428D01*
X151742857Y-61928571D01*
X151814286Y-61857142D01*
X151957143Y-61785714D01*
X152242857Y-61714285D01*
X152600000Y-61714285D01*
X152885714Y-61785714D01*
X153028571Y-61857142D01*
X153100000Y-61928571D01*
X153171429Y-62071428D01*
X151671429Y-64357142D02*
X152671429Y-64357142D01*
X152528571Y-64357142D02*
X152600000Y-64428570D01*
X152671429Y-64571428D01*
X152671429Y-64785713D01*
X152600000Y-64928570D01*
X152457143Y-64999999D01*
X151671429Y-64999999D01*
X152457143Y-64999999D02*
X152600000Y-65071428D01*
X152671429Y-65214285D01*
X152671429Y-65428570D01*
X152600000Y-65571428D01*
X152457143Y-65642856D01*
X151671429Y-65642856D01*
X151671429Y-66357142D02*
X152671429Y-66357142D01*
X152528571Y-66357142D02*
X152600000Y-66428570D01*
X152671429Y-66571428D01*
X152671429Y-66785713D01*
X152600000Y-66928570D01*
X152457143Y-66999999D01*
X151671429Y-66999999D01*
X152457143Y-66999999D02*
X152600000Y-67071428D01*
X152671429Y-67214285D01*
X152671429Y-67428570D01*
X152600000Y-67571428D01*
X152457143Y-67642856D01*
X151671429Y-67642856D01*
X151000000Y-55000000D02*
X151000000Y-68000000D01*
X145000000Y-55000000D02*
X153700000Y-55000000D01*
X145000000Y-68000000D02*
X153700000Y-68000000D01*
X151000000Y-68000000D02*
X150413579Y-66873496D01*
X151000000Y-68000000D02*
X151586421Y-66873496D01*
X151000000Y-55000000D02*
X150413579Y-56126504D01*
X151000000Y-55000000D02*
X151586421Y-56126504D01*
X42328571Y-107071428D02*
X42328571Y-106785713D01*
X42257143Y-106642856D01*
X42185714Y-106571428D01*
X41971429Y-106428570D01*
X41685714Y-106357142D01*
X41114286Y-106357142D01*
X40971429Y-106428570D01*
X40900000Y-106499999D01*
X40828571Y-106642856D01*
X40828571Y-106928570D01*
X40900000Y-107071428D01*
X40971429Y-107142856D01*
X41114286Y-107214285D01*
X41471429Y-107214285D01*
X41614286Y-107142856D01*
X41685714Y-107071428D01*
X41757143Y-106928570D01*
X41757143Y-106642856D01*
X41685714Y-106499999D01*
X41614286Y-106428570D01*
X41471429Y-106357142D01*
X40971429Y-105785714D02*
X40900000Y-105714285D01*
X40828571Y-105571428D01*
X40828571Y-105214285D01*
X40900000Y-105071428D01*
X40971429Y-104999999D01*
X41114286Y-104928571D01*
X41257143Y-104928571D01*
X41471429Y-104999999D01*
X42328571Y-105857142D01*
X42328571Y-104928571D01*
X42185714Y-104285714D02*
X42257143Y-104214286D01*
X42328571Y-104285714D01*
X42257143Y-104357143D01*
X42185714Y-104285714D01*
X42328571Y-104285714D01*
X40828571Y-103285714D02*
X40828571Y-103142857D01*
X40900000Y-103000000D01*
X40971429Y-102928571D01*
X41114286Y-102857142D01*
X41400000Y-102785714D01*
X41757143Y-102785714D01*
X42042857Y-102857142D01*
X42185714Y-102928571D01*
X42257143Y-103000000D01*
X42328571Y-103142857D01*
X42328571Y-103285714D01*
X42257143Y-103428571D01*
X42185714Y-103500000D01*
X42042857Y-103571428D01*
X41757143Y-103642857D01*
X41400000Y-103642857D01*
X41114286Y-103571428D01*
X40971429Y-103500000D01*
X40900000Y-103428571D01*
X40828571Y-103285714D01*
X40828571Y-101857143D02*
X40828571Y-101714286D01*
X40900000Y-101571429D01*
X40971429Y-101500000D01*
X41114286Y-101428571D01*
X41400000Y-101357143D01*
X41757143Y-101357143D01*
X42042857Y-101428571D01*
X42185714Y-101500000D01*
X42257143Y-101571429D01*
X42328571Y-101714286D01*
X42328571Y-101857143D01*
X42257143Y-102000000D01*
X42185714Y-102071429D01*
X42042857Y-102142857D01*
X41757143Y-102214286D01*
X41400000Y-102214286D01*
X41114286Y-102142857D01*
X40971429Y-102071429D01*
X40900000Y-102000000D01*
X40828571Y-101857143D01*
X40828571Y-100428572D02*
X40828571Y-100285715D01*
X40900000Y-100142858D01*
X40971429Y-100071429D01*
X41114286Y-100000000D01*
X41400000Y-99928572D01*
X41757143Y-99928572D01*
X42042857Y-100000000D01*
X42185714Y-100071429D01*
X42257143Y-100142858D01*
X42328571Y-100285715D01*
X42328571Y-100428572D01*
X42257143Y-100571429D01*
X42185714Y-100642858D01*
X42042857Y-100714286D01*
X41757143Y-100785715D01*
X41400000Y-100785715D01*
X41114286Y-100714286D01*
X40971429Y-100642858D01*
X40900000Y-100571429D01*
X40828571Y-100428572D01*
X42328571Y-98142858D02*
X41328571Y-98142858D01*
X41471429Y-98142858D02*
X41400000Y-98071430D01*
X41328571Y-97928572D01*
X41328571Y-97714287D01*
X41400000Y-97571430D01*
X41542857Y-97500001D01*
X42328571Y-97500001D01*
X41542857Y-97500001D02*
X41400000Y-97428572D01*
X41328571Y-97285715D01*
X41328571Y-97071430D01*
X41400000Y-96928572D01*
X41542857Y-96857144D01*
X42328571Y-96857144D01*
X42328571Y-96142858D02*
X41328571Y-96142858D01*
X41471429Y-96142858D02*
X41400000Y-96071430D01*
X41328571Y-95928572D01*
X41328571Y-95714287D01*
X41400000Y-95571430D01*
X41542857Y-95500001D01*
X42328571Y-95500001D01*
X41542857Y-95500001D02*
X41400000Y-95428572D01*
X41328571Y-95285715D01*
X41328571Y-95071430D01*
X41400000Y-94928572D01*
X41542857Y-94857144D01*
X42328571Y-94857144D01*
X43000000Y-147000000D02*
X43000000Y-55000000D01*
X49000000Y-147000000D02*
X40300000Y-147000000D01*
X49000000Y-55000000D02*
X40300000Y-55000000D01*
X43000000Y-55000000D02*
X43586421Y-56126504D01*
X43000000Y-55000000D02*
X42413579Y-56126504D01*
X43000000Y-147000000D02*
X43586421Y-145873496D01*
X43000000Y-147000000D02*
X42413579Y-145873496D01*
X90928572Y-152028571D02*
X91214287Y-152028571D01*
X91357144Y-151957143D01*
X91428572Y-151885714D01*
X91571430Y-151671429D01*
X91642858Y-151385714D01*
X91642858Y-150814286D01*
X91571430Y-150671429D01*
X91500001Y-150600000D01*
X91357144Y-150528571D01*
X91071430Y-150528571D01*
X90928572Y-150600000D01*
X90857144Y-150671429D01*
X90785715Y-150814286D01*
X90785715Y-151171429D01*
X90857144Y-151314286D01*
X90928572Y-151385714D01*
X91071430Y-151457143D01*
X91357144Y-151457143D01*
X91500001Y-151385714D01*
X91571430Y-151314286D01*
X91642858Y-151171429D01*
X92928572Y-150528571D02*
X92642858Y-150528571D01*
X92500001Y-150600000D01*
X92428572Y-150671429D01*
X92285715Y-150885714D01*
X92214286Y-151171429D01*
X92214286Y-151742857D01*
X92285715Y-151885714D01*
X92357143Y-151957143D01*
X92500001Y-152028571D01*
X92785715Y-152028571D01*
X92928572Y-151957143D01*
X93000001Y-151885714D01*
X93071429Y-151742857D01*
X93071429Y-151385714D01*
X93000001Y-151242857D01*
X92928572Y-151171429D01*
X92785715Y-151100000D01*
X92500001Y-151100000D01*
X92357143Y-151171429D01*
X92285715Y-151242857D01*
X92214286Y-151385714D01*
X93714286Y-151885714D02*
X93785714Y-151957143D01*
X93714286Y-152028571D01*
X93642857Y-151957143D01*
X93714286Y-151885714D01*
X93714286Y-152028571D01*
X94714286Y-150528571D02*
X94857143Y-150528571D01*
X95000000Y-150600000D01*
X95071429Y-150671429D01*
X95142858Y-150814286D01*
X95214286Y-151100000D01*
X95214286Y-151457143D01*
X95142858Y-151742857D01*
X95071429Y-151885714D01*
X95000000Y-151957143D01*
X94857143Y-152028571D01*
X94714286Y-152028571D01*
X94571429Y-151957143D01*
X94500000Y-151885714D01*
X94428572Y-151742857D01*
X94357143Y-151457143D01*
X94357143Y-151100000D01*
X94428572Y-150814286D01*
X94500000Y-150671429D01*
X94571429Y-150600000D01*
X94714286Y-150528571D01*
X96142857Y-150528571D02*
X96285714Y-150528571D01*
X96428571Y-150600000D01*
X96500000Y-150671429D01*
X96571429Y-150814286D01*
X96642857Y-151100000D01*
X96642857Y-151457143D01*
X96571429Y-151742857D01*
X96500000Y-151885714D01*
X96428571Y-151957143D01*
X96285714Y-152028571D01*
X96142857Y-152028571D01*
X96000000Y-151957143D01*
X95928571Y-151885714D01*
X95857143Y-151742857D01*
X95785714Y-151457143D01*
X95785714Y-151100000D01*
X95857143Y-150814286D01*
X95928571Y-150671429D01*
X96000000Y-150600000D01*
X96142857Y-150528571D01*
X97571428Y-150528571D02*
X97714285Y-150528571D01*
X97857142Y-150600000D01*
X97928571Y-150671429D01*
X98000000Y-150814286D01*
X98071428Y-151100000D01*
X98071428Y-151457143D01*
X98000000Y-151742857D01*
X97928571Y-151885714D01*
X97857142Y-151957143D01*
X97714285Y-152028571D01*
X97571428Y-152028571D01*
X97428571Y-151957143D01*
X97357142Y-151885714D01*
X97285714Y-151742857D01*
X97214285Y-151457143D01*
X97214285Y-151100000D01*
X97285714Y-150814286D01*
X97357142Y-150671429D01*
X97428571Y-150600000D01*
X97571428Y-150528571D01*
X99857142Y-152028571D02*
X99857142Y-151028571D01*
X99857142Y-151171429D02*
X99928570Y-151100000D01*
X100071428Y-151028571D01*
X100285713Y-151028571D01*
X100428570Y-151100000D01*
X100499999Y-151242857D01*
X100499999Y-152028571D01*
X100499999Y-151242857D02*
X100571428Y-151100000D01*
X100714285Y-151028571D01*
X100928570Y-151028571D01*
X101071428Y-151100000D01*
X101142856Y-151242857D01*
X101142856Y-152028571D01*
X101857142Y-152028571D02*
X101857142Y-151028571D01*
X101857142Y-151171429D02*
X101928570Y-151100000D01*
X102071428Y-151028571D01*
X102285713Y-151028571D01*
X102428570Y-151100000D01*
X102499999Y-151242857D01*
X102499999Y-152028571D01*
X102499999Y-151242857D02*
X102571428Y-151100000D01*
X102714285Y-151028571D01*
X102928570Y-151028571D01*
X103071428Y-151100000D01*
X103142856Y-151242857D01*
X103142856Y-152028571D01*
X145000000Y-150000000D02*
X49000000Y-150000000D01*
X145000000Y-147000000D02*
X145000000Y-152700000D01*
X49000000Y-147000000D02*
X49000000Y-152700000D01*
X49000000Y-150000000D02*
X50126504Y-149413579D01*
X49000000Y-150000000D02*
X50126504Y-150586421D01*
X145000000Y-150000000D02*
X143873496Y-149413579D01*
X145000000Y-150000000D02*
X143873496Y-150586421D01*
X90928572Y-43328571D02*
X91214287Y-43328571D01*
X91357144Y-43257143D01*
X91428572Y-43185714D01*
X91571430Y-42971429D01*
X91642858Y-42685714D01*
X91642858Y-42114286D01*
X91571430Y-41971429D01*
X91500001Y-41900000D01*
X91357144Y-41828571D01*
X91071430Y-41828571D01*
X90928572Y-41900000D01*
X90857144Y-41971429D01*
X90785715Y-42114286D01*
X90785715Y-42471429D01*
X90857144Y-42614286D01*
X90928572Y-42685714D01*
X91071430Y-42757143D01*
X91357144Y-42757143D01*
X91500001Y-42685714D01*
X91571430Y-42614286D01*
X91642858Y-42471429D01*
X92928572Y-41828571D02*
X92642858Y-41828571D01*
X92500001Y-41900000D01*
X92428572Y-41971429D01*
X92285715Y-42185714D01*
X92214286Y-42471429D01*
X92214286Y-43042857D01*
X92285715Y-43185714D01*
X92357143Y-43257143D01*
X92500001Y-43328571D01*
X92785715Y-43328571D01*
X92928572Y-43257143D01*
X93000001Y-43185714D01*
X93071429Y-43042857D01*
X93071429Y-42685714D01*
X93000001Y-42542857D01*
X92928572Y-42471429D01*
X92785715Y-42400000D01*
X92500001Y-42400000D01*
X92357143Y-42471429D01*
X92285715Y-42542857D01*
X92214286Y-42685714D01*
X93714286Y-43185714D02*
X93785714Y-43257143D01*
X93714286Y-43328571D01*
X93642857Y-43257143D01*
X93714286Y-43185714D01*
X93714286Y-43328571D01*
X94714286Y-41828571D02*
X94857143Y-41828571D01*
X95000000Y-41900000D01*
X95071429Y-41971429D01*
X95142858Y-42114286D01*
X95214286Y-42400000D01*
X95214286Y-42757143D01*
X95142858Y-43042857D01*
X95071429Y-43185714D01*
X95000000Y-43257143D01*
X94857143Y-43328571D01*
X94714286Y-43328571D01*
X94571429Y-43257143D01*
X94500000Y-43185714D01*
X94428572Y-43042857D01*
X94357143Y-42757143D01*
X94357143Y-42400000D01*
X94428572Y-42114286D01*
X94500000Y-41971429D01*
X94571429Y-41900000D01*
X94714286Y-41828571D01*
X96142857Y-41828571D02*
X96285714Y-41828571D01*
X96428571Y-41900000D01*
X96500000Y-41971429D01*
X96571429Y-42114286D01*
X96642857Y-42400000D01*
X96642857Y-42757143D01*
X96571429Y-43042857D01*
X96500000Y-43185714D01*
X96428571Y-43257143D01*
X96285714Y-43328571D01*
X96142857Y-43328571D01*
X96000000Y-43257143D01*
X95928571Y-43185714D01*
X95857143Y-43042857D01*
X95785714Y-42757143D01*
X95785714Y-42400000D01*
X95857143Y-42114286D01*
X95928571Y-41971429D01*
X96000000Y-41900000D01*
X96142857Y-41828571D01*
X97571428Y-41828571D02*
X97714285Y-41828571D01*
X97857142Y-41900000D01*
X97928571Y-41971429D01*
X98000000Y-42114286D01*
X98071428Y-42400000D01*
X98071428Y-42757143D01*
X98000000Y-43042857D01*
X97928571Y-43185714D01*
X97857142Y-43257143D01*
X97714285Y-43328571D01*
X97571428Y-43328571D01*
X97428571Y-43257143D01*
X97357142Y-43185714D01*
X97285714Y-43042857D01*
X97214285Y-42757143D01*
X97214285Y-42400000D01*
X97285714Y-42114286D01*
X97357142Y-41971429D01*
X97428571Y-41900000D01*
X97571428Y-41828571D01*
X99857142Y-43328571D02*
X99857142Y-42328571D01*
X99857142Y-42471429D02*
X99928570Y-42400000D01*
X100071428Y-42328571D01*
X100285713Y-42328571D01*
X100428570Y-42400000D01*
X100499999Y-42542857D01*
X100499999Y-43328571D01*
X100499999Y-42542857D02*
X100571428Y-42400000D01*
X100714285Y-42328571D01*
X100928570Y-42328571D01*
X101071428Y-42400000D01*
X101142856Y-42542857D01*
X101142856Y-43328571D01*
X101857142Y-43328571D02*
X101857142Y-42328571D01*
X101857142Y-42471429D02*
X101928570Y-42400000D01*
X102071428Y-42328571D01*
X102285713Y-42328571D01*
X102428570Y-42400000D01*
X102499999Y-42542857D01*
X102499999Y-43328571D01*
X102499999Y-42542857D02*
X102571428Y-42400000D01*
X102714285Y-42328571D01*
X102928570Y-42328571D01*
X103071428Y-42400000D01*
X103142856Y-42542857D01*
X103142856Y-43328571D01*
X145000000Y-44000000D02*
X49000000Y-44000000D01*
X145000000Y-55000000D02*
X145000000Y-41300000D01*
X49000000Y-55000000D02*
X49000000Y-41300000D01*
X49000000Y-44000000D02*
X50126504Y-43413579D01*
X49000000Y-44000000D02*
X50126504Y-44586421D01*
X145000000Y-44000000D02*
X143873496Y-43413579D01*
X145000000Y-44000000D02*
X143873496Y-44586421D01*
X157671429Y-94928572D02*
X157671429Y-95214287D01*
X157742857Y-95357144D01*
X157814286Y-95428572D01*
X158028571Y-95571430D01*
X158314286Y-95642858D01*
X158885714Y-95642858D01*
X159028571Y-95571430D01*
X159100000Y-95500001D01*
X159171429Y-95357144D01*
X159171429Y-95071430D01*
X159100000Y-94928572D01*
X159028571Y-94857144D01*
X158885714Y-94785715D01*
X158528571Y-94785715D01*
X158385714Y-94857144D01*
X158314286Y-94928572D01*
X158242857Y-95071430D01*
X158242857Y-95357144D01*
X158314286Y-95500001D01*
X158385714Y-95571430D01*
X158528571Y-95642858D01*
X159028571Y-96214286D02*
X159100000Y-96285715D01*
X159171429Y-96428572D01*
X159171429Y-96785715D01*
X159100000Y-96928572D01*
X159028571Y-97000001D01*
X158885714Y-97071429D01*
X158742857Y-97071429D01*
X158528571Y-97000001D01*
X157671429Y-96142858D01*
X157671429Y-97071429D01*
X157814286Y-97714286D02*
X157742857Y-97785714D01*
X157671429Y-97714286D01*
X157742857Y-97642857D01*
X157814286Y-97714286D01*
X157671429Y-97714286D01*
X159171429Y-98714286D02*
X159171429Y-98857143D01*
X159100000Y-99000000D01*
X159028571Y-99071429D01*
X158885714Y-99142858D01*
X158600000Y-99214286D01*
X158242857Y-99214286D01*
X157957143Y-99142858D01*
X157814286Y-99071429D01*
X157742857Y-99000000D01*
X157671429Y-98857143D01*
X157671429Y-98714286D01*
X157742857Y-98571429D01*
X157814286Y-98500000D01*
X157957143Y-98428572D01*
X158242857Y-98357143D01*
X158600000Y-98357143D01*
X158885714Y-98428572D01*
X159028571Y-98500000D01*
X159100000Y-98571429D01*
X159171429Y-98714286D01*
X159171429Y-100142857D02*
X159171429Y-100285714D01*
X159100000Y-100428571D01*
X159028571Y-100500000D01*
X158885714Y-100571429D01*
X158600000Y-100642857D01*
X158242857Y-100642857D01*
X157957143Y-100571429D01*
X157814286Y-100500000D01*
X157742857Y-100428571D01*
X157671429Y-100285714D01*
X157671429Y-100142857D01*
X157742857Y-100000000D01*
X157814286Y-99928571D01*
X157957143Y-99857143D01*
X158242857Y-99785714D01*
X158600000Y-99785714D01*
X158885714Y-99857143D01*
X159028571Y-99928571D01*
X159100000Y-100000000D01*
X159171429Y-100142857D01*
X159171429Y-101571428D02*
X159171429Y-101714285D01*
X159100000Y-101857142D01*
X159028571Y-101928571D01*
X158885714Y-102000000D01*
X158600000Y-102071428D01*
X158242857Y-102071428D01*
X157957143Y-102000000D01*
X157814286Y-101928571D01*
X157742857Y-101857142D01*
X157671429Y-101714285D01*
X157671429Y-101571428D01*
X157742857Y-101428571D01*
X157814286Y-101357142D01*
X157957143Y-101285714D01*
X158242857Y-101214285D01*
X158600000Y-101214285D01*
X158885714Y-101285714D01*
X159028571Y-101357142D01*
X159100000Y-101428571D01*
X159171429Y-101571428D01*
X157671429Y-103857142D02*
X158671429Y-103857142D01*
X158528571Y-103857142D02*
X158600000Y-103928570D01*
X158671429Y-104071428D01*
X158671429Y-104285713D01*
X158600000Y-104428570D01*
X158457143Y-104499999D01*
X157671429Y-104499999D01*
X158457143Y-104499999D02*
X158600000Y-104571428D01*
X158671429Y-104714285D01*
X158671429Y-104928570D01*
X158600000Y-105071428D01*
X158457143Y-105142856D01*
X157671429Y-105142856D01*
X157671429Y-105857142D02*
X158671429Y-105857142D01*
X158528571Y-105857142D02*
X158600000Y-105928570D01*
X158671429Y-106071428D01*
X158671429Y-106285713D01*
X158600000Y-106428570D01*
X158457143Y-106499999D01*
X157671429Y-106499999D01*
X158457143Y-106499999D02*
X158600000Y-106571428D01*
X158671429Y-106714285D01*
X158671429Y-106928570D01*
X158600000Y-107071428D01*
X158457143Y-107142856D01*
X157671429Y-107142856D01*
X157000000Y-55000000D02*
X157000000Y-147000000D01*
X145000000Y-55000000D02*
X159700000Y-55000000D01*
X145000000Y-147000000D02*
X159700000Y-147000000D01*
X157000000Y-147000000D02*
X156413579Y-145873496D01*
X157000000Y-147000000D02*
X157586421Y-145873496D01*
X157000000Y-55000000D02*
X156413579Y-56126504D01*
X157000000Y-55000000D02*
X157586421Y-56126504D01*
M02*
