G04 #@! TF.FileFunction,Copper,L1,Top,Signal*
%FSLAX46Y46*%
G04 Gerber Fmt 4.6, Leading zero omitted, Abs format (unit mm)*
G04 Created by KiCad (PCBNEW (2015-04-08 BZR 5585)-product) date Tue 26 Apr 2016 05:59:57 PM CLT*
%MOMM*%
G01*
G04 APERTURE LIST*
%ADD10C,0.100000*%
%ADD11R,2.200000X0.508000*%
%ADD12R,1.727200X1.727200*%
%ADD13O,1.727200X1.727200*%
%ADD14R,1.727200X2.032000*%
%ADD15O,1.727200X2.032000*%
%ADD16C,1.998980*%
%ADD17R,1.700000X2.000000*%
%ADD18R,1.524000X2.032000*%
%ADD19R,2.032000X1.727200*%
%ADD20O,2.032000X1.727200*%
%ADD21R,1.060000X0.650000*%
%ADD22C,0.600000*%
%ADD23C,0.250000*%
%ADD24C,0.254000*%
G04 APERTURE END LIST*
D10*
D11*
X94175000Y-108095000D03*
X94175000Y-109365000D03*
X94175000Y-110635000D03*
X94175000Y-111905000D03*
X87825000Y-111905000D03*
X87825000Y-110635000D03*
X87825000Y-109365000D03*
X87825000Y-108095000D03*
D12*
X132080000Y-68580000D03*
D13*
X134620000Y-68580000D03*
X132080000Y-71120000D03*
X134620000Y-71120000D03*
X132080000Y-73660000D03*
X134620000Y-73660000D03*
X132080000Y-76200000D03*
X134620000Y-76200000D03*
X132080000Y-78740000D03*
X134620000Y-78740000D03*
X132080000Y-81280000D03*
X134620000Y-81280000D03*
X132080000Y-83820000D03*
X134620000Y-83820000D03*
X132080000Y-86360000D03*
X134620000Y-86360000D03*
X132080000Y-88900000D03*
X134620000Y-88900000D03*
X132080000Y-91440000D03*
X134620000Y-91440000D03*
X132080000Y-93980000D03*
X134620000Y-93980000D03*
X132080000Y-96520000D03*
X134620000Y-96520000D03*
X132080000Y-99060000D03*
X134620000Y-99060000D03*
X132080000Y-101600000D03*
X134620000Y-101600000D03*
X132080000Y-104140000D03*
X134620000Y-104140000D03*
X132080000Y-106680000D03*
X134620000Y-106680000D03*
X132080000Y-109220000D03*
X134620000Y-109220000D03*
X132080000Y-111760000D03*
X134620000Y-111760000D03*
X132080000Y-114300000D03*
X134620000Y-114300000D03*
X132080000Y-116840000D03*
X134620000Y-116840000D03*
X132080000Y-119380000D03*
X134620000Y-119380000D03*
X132080000Y-121920000D03*
X134620000Y-121920000D03*
X132080000Y-124460000D03*
X134620000Y-124460000D03*
X132080000Y-127000000D03*
X134620000Y-127000000D03*
X132080000Y-129540000D03*
X134620000Y-129540000D03*
X132080000Y-132080000D03*
X134620000Y-132080000D03*
D12*
X137160000Y-68580000D03*
D13*
X139700000Y-68580000D03*
X137160000Y-71120000D03*
X139700000Y-71120000D03*
X137160000Y-73660000D03*
X139700000Y-73660000D03*
X137160000Y-76200000D03*
X139700000Y-76200000D03*
X137160000Y-78740000D03*
X139700000Y-78740000D03*
X137160000Y-81280000D03*
X139700000Y-81280000D03*
X137160000Y-83820000D03*
X139700000Y-83820000D03*
X137160000Y-86360000D03*
X139700000Y-86360000D03*
X137160000Y-88900000D03*
X139700000Y-88900000D03*
X137160000Y-91440000D03*
X139700000Y-91440000D03*
X137160000Y-93980000D03*
X139700000Y-93980000D03*
X137160000Y-96520000D03*
X139700000Y-96520000D03*
X137160000Y-99060000D03*
X139700000Y-99060000D03*
X137160000Y-101600000D03*
X139700000Y-101600000D03*
X137160000Y-104140000D03*
X139700000Y-104140000D03*
X137160000Y-106680000D03*
X139700000Y-106680000D03*
X137160000Y-109220000D03*
X139700000Y-109220000D03*
X137160000Y-111760000D03*
X139700000Y-111760000D03*
X137160000Y-114300000D03*
X139700000Y-114300000D03*
X137160000Y-116840000D03*
X139700000Y-116840000D03*
X137160000Y-119380000D03*
X139700000Y-119380000D03*
X137160000Y-121920000D03*
X139700000Y-121920000D03*
X137160000Y-124460000D03*
X139700000Y-124460000D03*
X137160000Y-127000000D03*
X139700000Y-127000000D03*
X137160000Y-129540000D03*
X139700000Y-129540000D03*
X137160000Y-132080000D03*
X139700000Y-132080000D03*
D14*
X117950000Y-134080000D03*
D15*
X115410000Y-134080000D03*
X112870000Y-134080000D03*
X110330000Y-134080000D03*
X107790000Y-134080000D03*
X105250000Y-134080000D03*
X102710000Y-134080000D03*
X100170000Y-134080000D03*
X97630000Y-134080000D03*
X95090000Y-134080000D03*
X92550000Y-134080000D03*
X90010000Y-134080000D03*
X87470000Y-134080000D03*
X84930000Y-134080000D03*
D14*
X117950000Y-131540000D03*
D15*
X115410000Y-131540000D03*
X112870000Y-131540000D03*
X110330000Y-131540000D03*
X107790000Y-131540000D03*
X105250000Y-131540000D03*
X102710000Y-131540000D03*
X100170000Y-131540000D03*
X97630000Y-131540000D03*
X95090000Y-131540000D03*
X92550000Y-131540000D03*
X90010000Y-131540000D03*
X87470000Y-131540000D03*
X84930000Y-131540000D03*
D14*
X117950000Y-129000000D03*
D15*
X115410000Y-129000000D03*
X112870000Y-129000000D03*
X110330000Y-129000000D03*
X107790000Y-129000000D03*
X105250000Y-129000000D03*
X102710000Y-129000000D03*
X100170000Y-129000000D03*
X97630000Y-129000000D03*
X95090000Y-129000000D03*
X92550000Y-129000000D03*
X90010000Y-129000000D03*
X87470000Y-129000000D03*
X84930000Y-129000000D03*
D14*
X117950000Y-126460000D03*
D15*
X115410000Y-126460000D03*
X112870000Y-126460000D03*
X110330000Y-126460000D03*
X107790000Y-126460000D03*
X105250000Y-126460000D03*
X102710000Y-126460000D03*
X100170000Y-126460000D03*
X97630000Y-126460000D03*
X95090000Y-126460000D03*
X92550000Y-126460000D03*
X90010000Y-126460000D03*
X87470000Y-126460000D03*
X84930000Y-126460000D03*
D14*
X121100000Y-108100000D03*
D15*
X118560000Y-108100000D03*
X116020000Y-108100000D03*
D16*
X126200000Y-103100000D03*
X111200000Y-103100000D03*
D17*
X78000000Y-109000000D03*
X78000000Y-105000000D03*
X83000000Y-109000000D03*
X83000000Y-105000000D03*
X102000000Y-108000000D03*
X102000000Y-104000000D03*
X106000000Y-108000000D03*
X106000000Y-104000000D03*
D18*
X89349000Y-104000000D03*
X92651000Y-104000000D03*
D17*
X98000000Y-108000000D03*
X98000000Y-104000000D03*
D19*
X59690000Y-141160000D03*
D20*
X59690000Y-138620000D03*
X59690000Y-136080000D03*
X59690000Y-133540000D03*
X59690000Y-131000000D03*
X59690000Y-128460000D03*
D19*
X59690000Y-122110000D03*
D20*
X59690000Y-119570000D03*
X59690000Y-117030000D03*
X59690000Y-114490000D03*
X59690000Y-111950000D03*
X59690000Y-109410000D03*
D21*
X70100000Y-132950000D03*
X70100000Y-132000000D03*
X70100000Y-131050000D03*
X67900000Y-131050000D03*
X67900000Y-132950000D03*
X67900000Y-132000000D03*
X70100000Y-140950000D03*
X70100000Y-140000000D03*
X70100000Y-139050000D03*
X67900000Y-139050000D03*
X67900000Y-140950000D03*
X67900000Y-140000000D03*
X70900000Y-112550000D03*
X70900000Y-111600000D03*
X70900000Y-110650000D03*
X68700000Y-110650000D03*
X68700000Y-112550000D03*
X68700000Y-111600000D03*
X70900000Y-120650000D03*
X70900000Y-119700000D03*
X70900000Y-118750000D03*
X68700000Y-118750000D03*
X68700000Y-120650000D03*
X68700000Y-119700000D03*
D19*
X56000000Y-99000000D03*
D20*
X56000000Y-96460000D03*
X56000000Y-93920000D03*
X56000000Y-91380000D03*
X56000000Y-88840000D03*
X56000000Y-86300000D03*
D19*
X56200000Y-79400000D03*
D20*
X56200000Y-76860000D03*
X56200000Y-74320000D03*
X56200000Y-71780000D03*
X56200000Y-69240000D03*
X56200000Y-66700000D03*
D12*
X118000000Y-85000000D03*
D13*
X118000000Y-87540000D03*
X115460000Y-85000000D03*
X115460000Y-87540000D03*
X112920000Y-85000000D03*
X112920000Y-87540000D03*
X110380000Y-85000000D03*
X110380000Y-87540000D03*
X107840000Y-85000000D03*
X107840000Y-87540000D03*
X105300000Y-85000000D03*
X105300000Y-87540000D03*
X102760000Y-85000000D03*
X102760000Y-87540000D03*
X100220000Y-85000000D03*
X100220000Y-87540000D03*
X97680000Y-85000000D03*
X97680000Y-87540000D03*
X95140000Y-85000000D03*
X95140000Y-87540000D03*
X92600000Y-85000000D03*
X92600000Y-87540000D03*
X90060000Y-85000000D03*
X90060000Y-87540000D03*
X87520000Y-85000000D03*
X87520000Y-87540000D03*
X84980000Y-85000000D03*
X84980000Y-87540000D03*
X82440000Y-85000000D03*
X82440000Y-87540000D03*
X79900000Y-85000000D03*
X79900000Y-87540000D03*
X77360000Y-85000000D03*
X77360000Y-87540000D03*
X74820000Y-85000000D03*
X74820000Y-87540000D03*
X72280000Y-85000000D03*
X72280000Y-87540000D03*
X69740000Y-85000000D03*
X69740000Y-87540000D03*
D22*
X73500000Y-115000000D03*
X80400000Y-102400000D03*
X74500000Y-122500000D03*
X74500000Y-135000000D03*
X74500000Y-142000000D03*
X80700000Y-107900000D03*
X73000000Y-112200000D03*
X72900000Y-120000000D03*
X72400000Y-132200000D03*
X72400000Y-140200000D03*
X78900000Y-113100000D03*
X109300000Y-111800000D03*
X82800000Y-112000000D03*
X103100000Y-110700000D03*
X109300000Y-107900000D03*
X95600000Y-102600000D03*
X66000000Y-114500000D03*
X66000000Y-122400000D03*
X66000000Y-134900000D03*
X66000000Y-142500000D03*
X85500000Y-81750000D03*
D23*
X77700000Y-104700000D02*
X78000000Y-105000000D01*
X80300000Y-102500000D02*
X78200000Y-102500000D01*
X78200000Y-102500000D02*
X77700000Y-103000000D01*
X77700000Y-103000000D02*
X77700000Y-104700000D01*
X80400000Y-102400000D02*
X80300000Y-102500000D01*
X83000000Y-103100000D02*
X83000000Y-105000000D01*
X82300000Y-102400000D02*
X83000000Y-103100000D01*
X80400000Y-102400000D02*
X82300000Y-102400000D01*
X83300000Y-104700000D02*
X83000000Y-105000000D01*
X86465000Y-109365000D02*
X85400000Y-108300000D01*
X85400000Y-108300000D02*
X85400000Y-105100000D01*
X85400000Y-105100000D02*
X85000000Y-104700000D01*
X85000000Y-104700000D02*
X83300000Y-104700000D01*
X87825000Y-109365000D02*
X86465000Y-109365000D01*
X70900000Y-113400000D02*
X72500000Y-115000000D01*
X72500000Y-115000000D02*
X73500000Y-115000000D01*
X70900000Y-112550000D02*
X70900000Y-113400000D01*
X74500000Y-122500000D02*
X73500000Y-123500000D01*
X73500000Y-123500000D02*
X72000000Y-123500000D01*
X72000000Y-123500000D02*
X70900000Y-122400000D01*
X70900000Y-122400000D02*
X70900000Y-120650000D01*
X74500000Y-135000000D02*
X74000000Y-135500000D01*
X74000000Y-135500000D02*
X71500000Y-135500000D01*
X71500000Y-135500000D02*
X70100000Y-134100000D01*
X70100000Y-134100000D02*
X70100000Y-132950000D01*
X74500000Y-142000000D02*
X73500000Y-143000000D01*
X73500000Y-143000000D02*
X71500000Y-143000000D01*
X71500000Y-143000000D02*
X70100000Y-141600000D01*
X70100000Y-141600000D02*
X70100000Y-140950000D01*
X69550000Y-140950000D02*
X68600000Y-140000000D01*
X68600000Y-140000000D02*
X67900000Y-140000000D01*
X70100000Y-140950000D02*
X69550000Y-140950000D01*
X70150000Y-120650000D02*
X70900000Y-120650000D01*
X69200000Y-119700000D02*
X70150000Y-120650000D01*
X68700000Y-119700000D02*
X69200000Y-119700000D01*
X80700000Y-107900000D02*
X80400000Y-107600000D01*
X80400000Y-107600000D02*
X80400000Y-102400000D01*
X137160000Y-104140000D02*
X139700000Y-104140000D01*
X139700000Y-104140000D02*
X139700000Y-106680000D01*
X72400000Y-111600000D02*
X73000000Y-112200000D01*
X70900000Y-111600000D02*
X72400000Y-111600000D01*
X72600000Y-119700000D02*
X72900000Y-120000000D01*
X70900000Y-119700000D02*
X72600000Y-119700000D01*
X70900000Y-111600000D02*
X68700000Y-111600000D01*
X70100000Y-132000000D02*
X67900000Y-132000000D01*
X72200000Y-132000000D02*
X72400000Y-132200000D01*
X70100000Y-132000000D02*
X72200000Y-132000000D01*
X72200000Y-140000000D02*
X72400000Y-140200000D01*
X70100000Y-140000000D02*
X72200000Y-140000000D01*
X100170000Y-129000000D02*
X100100000Y-129000000D01*
X99400000Y-129000000D02*
X100170000Y-129000000D01*
X76750000Y-139050000D02*
X78900000Y-136900000D01*
X78900000Y-136900000D02*
X97600000Y-136900000D01*
X97600000Y-136900000D02*
X98900000Y-135600000D01*
X98900000Y-135600000D02*
X98900000Y-129500000D01*
X98900000Y-129500000D02*
X99400000Y-129000000D01*
X70100000Y-139050000D02*
X76750000Y-139050000D01*
X74450000Y-131050000D02*
X70100000Y-131050000D01*
X79400000Y-136000000D02*
X74450000Y-131050000D01*
X85300000Y-136000000D02*
X79400000Y-136000000D01*
X86200000Y-135100000D02*
X85300000Y-136000000D01*
X86200000Y-132700000D02*
X86200000Y-135100000D01*
X87360000Y-131540000D02*
X86200000Y-132700000D01*
X87470000Y-131540000D02*
X87360000Y-131540000D01*
X75550000Y-118750000D02*
X80700000Y-123900000D01*
X98400000Y-123900000D02*
X98500000Y-123900000D01*
X80700000Y-123900000D02*
X98400000Y-123900000D01*
X70900000Y-118750000D02*
X75550000Y-118750000D01*
X106980000Y-134080000D02*
X107790000Y-134080000D01*
X105700000Y-123900000D02*
X106500000Y-124700000D01*
X106500000Y-124700000D02*
X106500000Y-133600000D01*
X106500000Y-133600000D02*
X106980000Y-134080000D01*
X98400000Y-123900000D02*
X105700000Y-123900000D01*
X112870000Y-124870000D02*
X112000000Y-124000000D01*
X112000000Y-124000000D02*
X110700000Y-122700000D01*
X110700000Y-122700000D02*
X99000000Y-122700000D01*
X99000000Y-122700000D02*
X85200000Y-122700000D01*
X85200000Y-122700000D02*
X73150000Y-110650000D01*
X73150000Y-110650000D02*
X70900000Y-110650000D01*
X112870000Y-126460000D02*
X112870000Y-124870000D01*
X78900000Y-113100000D02*
X79000000Y-113000000D01*
X79700000Y-113900000D02*
X78900000Y-113100000D01*
X85800000Y-113900000D02*
X79700000Y-113900000D01*
X87795000Y-111905000D02*
X85800000Y-113900000D01*
X87825000Y-111905000D02*
X87795000Y-111905000D01*
X78900000Y-112900000D02*
X78000000Y-112000000D01*
X78000000Y-112000000D02*
X78000000Y-109000000D01*
X78900000Y-113100000D02*
X78900000Y-112900000D01*
X115460000Y-85000000D02*
X115000000Y-85000000D01*
X104695000Y-111905000D02*
X106000000Y-110600000D01*
X106000000Y-110600000D02*
X106000000Y-108000000D01*
X104500000Y-111905000D02*
X104695000Y-111905000D01*
X94175000Y-111905000D02*
X104500000Y-111905000D01*
X109300000Y-111800000D02*
X109195000Y-111905000D01*
X109195000Y-111905000D02*
X104505000Y-111905000D01*
X104505000Y-111905000D02*
X104500000Y-111900000D01*
X104500000Y-111900000D02*
X104500000Y-111905000D01*
X83000000Y-110000000D02*
X83000000Y-109000000D01*
X83635000Y-110635000D02*
X83000000Y-110000000D01*
X87825000Y-110635000D02*
X83635000Y-110635000D01*
X83000000Y-111800000D02*
X82800000Y-112000000D01*
X83000000Y-109000000D02*
X83000000Y-111800000D01*
X101165000Y-110635000D02*
X102000000Y-109800000D01*
X102000000Y-109800000D02*
X102000000Y-108000000D01*
X94175000Y-110635000D02*
X101165000Y-110635000D01*
X103035000Y-110635000D02*
X103100000Y-110700000D01*
X101165000Y-110635000D02*
X103035000Y-110635000D01*
X139700000Y-101600000D02*
X137160000Y-101600000D01*
X121300000Y-107900000D02*
X121100000Y-108100000D01*
X137160000Y-101600000D02*
X137100000Y-101600000D01*
X125800000Y-108100000D02*
X121100000Y-108100000D01*
X128600000Y-105300000D02*
X125800000Y-108100000D01*
X128600000Y-104000000D02*
X128600000Y-105300000D01*
X129700000Y-102900000D02*
X128600000Y-104000000D01*
X135900000Y-102900000D02*
X129700000Y-102900000D01*
X137160000Y-101640000D02*
X135900000Y-102900000D01*
X137160000Y-101600000D02*
X137160000Y-101640000D01*
X102000000Y-104000000D02*
X106000000Y-104000000D01*
X102000000Y-104000000D02*
X98000000Y-104000000D01*
X108000000Y-104000000D02*
X109300000Y-105300000D01*
X109300000Y-105300000D02*
X109300000Y-107900000D01*
X106000000Y-104000000D02*
X108000000Y-104000000D01*
X97000000Y-104000000D02*
X95600000Y-102600000D01*
X66000000Y-114500000D02*
X66500000Y-115000000D01*
X66500000Y-115000000D02*
X67900000Y-115000000D01*
X67900000Y-115000000D02*
X68700000Y-114200000D01*
X68700000Y-114200000D02*
X68700000Y-112550000D01*
X98000000Y-104000000D02*
X97000000Y-104000000D01*
X66000000Y-122400000D02*
X66900000Y-123300000D01*
X66900000Y-123300000D02*
X68000000Y-123300000D01*
X68000000Y-123300000D02*
X68700000Y-122600000D01*
X68700000Y-122600000D02*
X68700000Y-120650000D01*
X66000000Y-134900000D02*
X66700000Y-135600000D01*
X66700000Y-135600000D02*
X67600000Y-135600000D01*
X67600000Y-135600000D02*
X67900000Y-135300000D01*
X67900000Y-135300000D02*
X67900000Y-132950000D01*
X66000000Y-142500000D02*
X66800000Y-143300000D01*
X66800000Y-143300000D02*
X67300000Y-143300000D01*
X67300000Y-143300000D02*
X67900000Y-142700000D01*
X67900000Y-142700000D02*
X67900000Y-140950000D01*
X127000000Y-100000000D02*
X127000000Y-100100000D01*
X127000000Y-96540000D02*
X127000000Y-100000000D01*
X118830000Y-88370000D02*
X127000000Y-96540000D01*
X118000000Y-87540000D02*
X118830000Y-88370000D01*
X127000000Y-100100000D02*
X126800000Y-100300000D01*
X118000000Y-87540000D02*
X115460000Y-87540000D01*
X126200000Y-101800000D02*
X126200000Y-103100000D01*
X126200000Y-100900000D02*
X126200000Y-101800000D01*
X126800000Y-100300000D02*
X126200000Y-100900000D01*
X139700000Y-99060000D02*
X137160000Y-99060000D01*
X136000000Y-100300000D02*
X126800000Y-100300000D01*
X137160000Y-99140000D02*
X136000000Y-100300000D01*
X137160000Y-99060000D02*
X137160000Y-99140000D01*
X118540000Y-125870000D02*
X117950000Y-126460000D01*
X118560000Y-125850000D02*
X117950000Y-126460000D01*
X118560000Y-108100000D02*
X118560000Y-126850000D01*
X113000000Y-108100000D02*
X111200000Y-106300000D01*
X111200000Y-106300000D02*
X111200000Y-103100000D01*
X116020000Y-108100000D02*
X113000000Y-108100000D01*
X132060000Y-94000000D02*
X132080000Y-93980000D01*
X134620000Y-93980000D02*
X134020000Y-93980000D01*
X134620000Y-96520000D02*
X134620000Y-96420000D01*
X94175000Y-108095000D02*
X94175000Y-109365000D01*
X94175000Y-104475000D02*
X93700000Y-104000000D01*
X93700000Y-104000000D02*
X92651000Y-104000000D01*
X94175000Y-108095000D02*
X94175000Y-104475000D01*
X97935000Y-109365000D02*
X98000000Y-109300000D01*
X98000000Y-109300000D02*
X98000000Y-108000000D01*
X94175000Y-109365000D02*
X97935000Y-109365000D01*
X67470000Y-138620000D02*
X67900000Y-139050000D01*
X59690000Y-138620000D02*
X67470000Y-138620000D01*
X66750000Y-131050000D02*
X61720000Y-136080000D01*
X61720000Y-136080000D02*
X59690000Y-136080000D01*
X67900000Y-131050000D02*
X66750000Y-131050000D01*
X64830000Y-119570000D02*
X65650000Y-118750000D01*
X65650000Y-118750000D02*
X68700000Y-118750000D01*
X59690000Y-119570000D02*
X64830000Y-119570000D01*
X67250000Y-110650000D02*
X60870000Y-117030000D01*
X60870000Y-117030000D02*
X59690000Y-117030000D01*
X68700000Y-110650000D02*
X67250000Y-110650000D01*
X73200000Y-83000000D02*
X64000000Y-83000000D01*
X60400000Y-79400000D02*
X56200000Y-79400000D01*
X64000000Y-83000000D02*
X60400000Y-79400000D01*
X73000000Y-83000000D02*
X73200000Y-83000000D01*
X73200000Y-83000000D02*
X86750000Y-83000000D01*
X86750000Y-83000000D02*
X87500000Y-83000000D01*
X88750000Y-87000000D02*
X89290000Y-87540000D01*
X88750000Y-84250000D02*
X88750000Y-87000000D01*
X87500000Y-83000000D02*
X88750000Y-84250000D01*
X89290000Y-87540000D02*
X90060000Y-87540000D01*
X86750000Y-83000000D02*
X87000000Y-83000000D01*
X74000000Y-81750000D02*
X65350000Y-81750000D01*
X60460000Y-76860000D02*
X56200000Y-76860000D01*
X65350000Y-81750000D02*
X60460000Y-76860000D01*
X73750000Y-81750000D02*
X74000000Y-81750000D01*
X74000000Y-81750000D02*
X85500000Y-81750000D01*
X74600000Y-80250000D02*
X66450000Y-80250000D01*
X60520000Y-74320000D02*
X66400000Y-80200000D01*
X60520000Y-74320000D02*
X56200000Y-74320000D01*
X66450000Y-80250000D02*
X66400000Y-80200000D01*
X90060000Y-83060000D02*
X90060000Y-85000000D01*
X87250000Y-80250000D02*
X90060000Y-83060000D01*
X74500000Y-80250000D02*
X74600000Y-80250000D01*
X74600000Y-80250000D02*
X74800000Y-80250000D01*
X74800000Y-80250000D02*
X87250000Y-80250000D01*
X75600000Y-78750000D02*
X67550000Y-78750000D01*
X60580000Y-71780000D02*
X56200000Y-71780000D01*
X67550000Y-78750000D02*
X60580000Y-71780000D01*
X92600000Y-85000000D02*
X92600000Y-81850000D01*
X89500000Y-78750000D02*
X75600000Y-78750000D01*
X75600000Y-78750000D02*
X75250000Y-78750000D01*
X92600000Y-81850000D02*
X89500000Y-78750000D01*
X56200000Y-69240000D02*
X60440000Y-69240000D01*
X76000000Y-77000000D02*
X76400000Y-77000000D01*
X68200000Y-77000000D02*
X76000000Y-77000000D01*
X60440000Y-69240000D02*
X68200000Y-77000000D01*
X95250000Y-82500000D02*
X95250000Y-84890000D01*
X89750000Y-77000000D02*
X95250000Y-82500000D01*
X75750000Y-77000000D02*
X76400000Y-77000000D01*
X76400000Y-77000000D02*
X89750000Y-77000000D01*
X95250000Y-84890000D02*
X95140000Y-85000000D01*
X110380000Y-87540000D02*
X110380000Y-88620000D01*
X102540000Y-96460000D02*
X56000000Y-96460000D01*
X110380000Y-88620000D02*
X102540000Y-96460000D01*
X107840000Y-87540000D02*
X107840000Y-88160000D01*
X107840000Y-88160000D02*
X102080000Y-93920000D01*
X102080000Y-93920000D02*
X56000000Y-93920000D01*
D24*
G36*
X78557541Y-136232343D02*
X78362599Y-136362599D01*
X76435198Y-138290000D01*
X71103762Y-138290000D01*
X71090673Y-138270073D01*
X70879640Y-138127623D01*
X70630000Y-138077560D01*
X69570000Y-138077560D01*
X69327877Y-138124537D01*
X69115073Y-138264327D01*
X68999433Y-138435640D01*
X68890673Y-138270073D01*
X68679640Y-138127623D01*
X68430000Y-138077560D01*
X67999859Y-138077560D01*
X67760839Y-137917852D01*
X67470000Y-137860000D01*
X61134648Y-137860000D01*
X60934415Y-137560330D01*
X60619634Y-137350000D01*
X60934415Y-137139670D01*
X61134648Y-136840000D01*
X61720000Y-136840000D01*
X62010839Y-136782148D01*
X62257401Y-136617401D01*
X66747799Y-132127002D01*
X66893748Y-132127002D01*
X66735000Y-132285750D01*
X66735000Y-132451310D01*
X66750087Y-132487734D01*
X66722560Y-132625000D01*
X66722560Y-133275000D01*
X66769537Y-133517123D01*
X66909327Y-133729927D01*
X67120360Y-133872377D01*
X67140000Y-133876315D01*
X67140000Y-134840000D01*
X67014802Y-134840000D01*
X66935122Y-134760319D01*
X66935162Y-134714833D01*
X66793117Y-134371057D01*
X66530327Y-134107808D01*
X66186799Y-133965162D01*
X65814833Y-133964838D01*
X65471057Y-134106883D01*
X65207808Y-134369673D01*
X65065162Y-134713201D01*
X65064838Y-135085167D01*
X65206883Y-135428943D01*
X65469673Y-135692192D01*
X65813201Y-135834838D01*
X65860076Y-135834878D01*
X66162598Y-136137401D01*
X66162599Y-136137401D01*
X66327345Y-136247480D01*
X66409160Y-136302147D01*
X66409161Y-136302148D01*
X66700000Y-136360000D01*
X67600000Y-136360000D01*
X67890839Y-136302148D01*
X68137401Y-136137401D01*
X68437401Y-135837401D01*
X68602148Y-135590839D01*
X68660000Y-135300000D01*
X68660000Y-133877815D01*
X68672123Y-133875463D01*
X68884927Y-133735673D01*
X69000566Y-133564359D01*
X69109327Y-133729927D01*
X69320360Y-133872377D01*
X69340000Y-133876315D01*
X69340000Y-134100000D01*
X69397852Y-134390839D01*
X69562599Y-134637401D01*
X70962599Y-136037401D01*
X71209161Y-136202148D01*
X71500000Y-136260000D01*
X74000000Y-136260000D01*
X74290839Y-136202148D01*
X74537401Y-136037401D01*
X74639679Y-135935122D01*
X74685167Y-135935162D01*
X75028943Y-135793117D01*
X75292192Y-135530327D01*
X75434838Y-135186799D01*
X75435162Y-134814833D01*
X75293117Y-134471057D01*
X75030327Y-134207808D01*
X74686799Y-134065162D01*
X74314833Y-134064838D01*
X73971057Y-134206883D01*
X73707808Y-134469673D01*
X73595557Y-134740000D01*
X71814802Y-134740000D01*
X70919284Y-133844482D01*
X71084927Y-133735673D01*
X71227377Y-133524640D01*
X71277440Y-133275000D01*
X71277440Y-132625000D01*
X71250522Y-132486262D01*
X71265000Y-132451310D01*
X71265000Y-132285750D01*
X71106250Y-132127000D01*
X71026862Y-132127000D01*
X70879640Y-132027623D01*
X70743746Y-132000370D01*
X70872123Y-131975463D01*
X71028103Y-131873000D01*
X71106250Y-131873000D01*
X71169250Y-131810000D01*
X74135198Y-131810000D01*
X78557541Y-136232343D01*
X78557541Y-136232343D01*
G37*
X78557541Y-136232343D02*
X78362599Y-136362599D01*
X76435198Y-138290000D01*
X71103762Y-138290000D01*
X71090673Y-138270073D01*
X70879640Y-138127623D01*
X70630000Y-138077560D01*
X69570000Y-138077560D01*
X69327877Y-138124537D01*
X69115073Y-138264327D01*
X68999433Y-138435640D01*
X68890673Y-138270073D01*
X68679640Y-138127623D01*
X68430000Y-138077560D01*
X67999859Y-138077560D01*
X67760839Y-137917852D01*
X67470000Y-137860000D01*
X61134648Y-137860000D01*
X60934415Y-137560330D01*
X60619634Y-137350000D01*
X60934415Y-137139670D01*
X61134648Y-136840000D01*
X61720000Y-136840000D01*
X62010839Y-136782148D01*
X62257401Y-136617401D01*
X66747799Y-132127002D01*
X66893748Y-132127002D01*
X66735000Y-132285750D01*
X66735000Y-132451310D01*
X66750087Y-132487734D01*
X66722560Y-132625000D01*
X66722560Y-133275000D01*
X66769537Y-133517123D01*
X66909327Y-133729927D01*
X67120360Y-133872377D01*
X67140000Y-133876315D01*
X67140000Y-134840000D01*
X67014802Y-134840000D01*
X66935122Y-134760319D01*
X66935162Y-134714833D01*
X66793117Y-134371057D01*
X66530327Y-134107808D01*
X66186799Y-133965162D01*
X65814833Y-133964838D01*
X65471057Y-134106883D01*
X65207808Y-134369673D01*
X65065162Y-134713201D01*
X65064838Y-135085167D01*
X65206883Y-135428943D01*
X65469673Y-135692192D01*
X65813201Y-135834838D01*
X65860076Y-135834878D01*
X66162598Y-136137401D01*
X66162599Y-136137401D01*
X66327345Y-136247480D01*
X66409160Y-136302147D01*
X66409161Y-136302148D01*
X66700000Y-136360000D01*
X67600000Y-136360000D01*
X67890839Y-136302148D01*
X68137401Y-136137401D01*
X68437401Y-135837401D01*
X68602148Y-135590839D01*
X68660000Y-135300000D01*
X68660000Y-133877815D01*
X68672123Y-133875463D01*
X68884927Y-133735673D01*
X69000566Y-133564359D01*
X69109327Y-133729927D01*
X69320360Y-133872377D01*
X69340000Y-133876315D01*
X69340000Y-134100000D01*
X69397852Y-134390839D01*
X69562599Y-134637401D01*
X70962599Y-136037401D01*
X71209161Y-136202148D01*
X71500000Y-136260000D01*
X74000000Y-136260000D01*
X74290839Y-136202148D01*
X74537401Y-136037401D01*
X74639679Y-135935122D01*
X74685167Y-135935162D01*
X75028943Y-135793117D01*
X75292192Y-135530327D01*
X75434838Y-135186799D01*
X75435162Y-134814833D01*
X75293117Y-134471057D01*
X75030327Y-134207808D01*
X74686799Y-134065162D01*
X74314833Y-134064838D01*
X73971057Y-134206883D01*
X73707808Y-134469673D01*
X73595557Y-134740000D01*
X71814802Y-134740000D01*
X70919284Y-133844482D01*
X71084927Y-133735673D01*
X71227377Y-133524640D01*
X71277440Y-133275000D01*
X71277440Y-132625000D01*
X71250522Y-132486262D01*
X71265000Y-132451310D01*
X71265000Y-132285750D01*
X71106250Y-132127000D01*
X71026862Y-132127000D01*
X70879640Y-132027623D01*
X70743746Y-132000370D01*
X70872123Y-131975463D01*
X71028103Y-131873000D01*
X71106250Y-131873000D01*
X71169250Y-131810000D01*
X74135198Y-131810000D01*
X78557541Y-136232343D01*
G36*
X84565198Y-123140000D02*
X81014802Y-123140000D01*
X76087401Y-118212599D01*
X75840839Y-118047852D01*
X75550000Y-117990000D01*
X71903762Y-117990000D01*
X71890673Y-117970073D01*
X71679640Y-117827623D01*
X71430000Y-117777560D01*
X70370000Y-117777560D01*
X70127877Y-117824537D01*
X69915073Y-117964327D01*
X69799433Y-118135640D01*
X69690673Y-117970073D01*
X69479640Y-117827623D01*
X69230000Y-117777560D01*
X68170000Y-117777560D01*
X67927877Y-117824537D01*
X67715073Y-117964327D01*
X67697743Y-117990000D01*
X65650000Y-117990000D01*
X65359161Y-118047852D01*
X65112599Y-118212599D01*
X64515198Y-118810000D01*
X61134648Y-118810000D01*
X60934415Y-118510330D01*
X60619634Y-118300000D01*
X60934415Y-118089670D01*
X61183357Y-117717101D01*
X61407401Y-117567401D01*
X67564802Y-111410000D01*
X67630750Y-111410000D01*
X67693750Y-111473000D01*
X67773137Y-111473000D01*
X67920360Y-111572377D01*
X68056253Y-111599629D01*
X67927877Y-111624537D01*
X67771896Y-111727000D01*
X67693750Y-111727000D01*
X67535000Y-111885750D01*
X67535000Y-112051310D01*
X67550087Y-112087734D01*
X67522560Y-112225000D01*
X67522560Y-112875000D01*
X67569537Y-113117123D01*
X67709327Y-113329927D01*
X67920360Y-113472377D01*
X67940000Y-113476315D01*
X67940000Y-113885198D01*
X67585198Y-114240000D01*
X66904241Y-114240000D01*
X66793117Y-113971057D01*
X66530327Y-113707808D01*
X66186799Y-113565162D01*
X65814833Y-113564838D01*
X65471057Y-113706883D01*
X65207808Y-113969673D01*
X65065162Y-114313201D01*
X65064838Y-114685167D01*
X65206883Y-115028943D01*
X65469673Y-115292192D01*
X65813201Y-115434838D01*
X65860076Y-115434878D01*
X65962599Y-115537401D01*
X66209161Y-115702148D01*
X66500000Y-115760000D01*
X67900000Y-115760000D01*
X68190839Y-115702148D01*
X68437401Y-115537401D01*
X69237401Y-114737401D01*
X69402148Y-114490839D01*
X69460000Y-114200000D01*
X69460000Y-113477815D01*
X69472123Y-113475463D01*
X69684927Y-113335673D01*
X69800566Y-113164359D01*
X69909327Y-113329927D01*
X70120360Y-113472377D01*
X70155810Y-113479486D01*
X70197852Y-113690839D01*
X70362599Y-113937401D01*
X71962599Y-115537401D01*
X72209161Y-115702148D01*
X72500000Y-115760000D01*
X72937537Y-115760000D01*
X72969673Y-115792192D01*
X73313201Y-115934838D01*
X73685167Y-115935162D01*
X74028943Y-115793117D01*
X74292192Y-115530327D01*
X74434838Y-115186799D01*
X74435162Y-114814833D01*
X74293117Y-114471057D01*
X74030327Y-114207808D01*
X73686799Y-114065162D01*
X73314833Y-114064838D01*
X72971057Y-114206883D01*
X72937882Y-114240000D01*
X72814802Y-114240000D01*
X71895222Y-113320420D01*
X72027377Y-113124640D01*
X72077440Y-112875000D01*
X72077440Y-112225000D01*
X72050522Y-112086262D01*
X72065000Y-112051310D01*
X72065000Y-111885750D01*
X71906250Y-111727000D01*
X71826862Y-111727000D01*
X71679640Y-111627623D01*
X71543746Y-111600370D01*
X71672123Y-111575463D01*
X71828103Y-111473000D01*
X71906250Y-111473000D01*
X71969250Y-111410000D01*
X72835198Y-111410000D01*
X84565198Y-123140000D01*
X84565198Y-123140000D01*
G37*
X84565198Y-123140000D02*
X81014802Y-123140000D01*
X76087401Y-118212599D01*
X75840839Y-118047852D01*
X75550000Y-117990000D01*
X71903762Y-117990000D01*
X71890673Y-117970073D01*
X71679640Y-117827623D01*
X71430000Y-117777560D01*
X70370000Y-117777560D01*
X70127877Y-117824537D01*
X69915073Y-117964327D01*
X69799433Y-118135640D01*
X69690673Y-117970073D01*
X69479640Y-117827623D01*
X69230000Y-117777560D01*
X68170000Y-117777560D01*
X67927877Y-117824537D01*
X67715073Y-117964327D01*
X67697743Y-117990000D01*
X65650000Y-117990000D01*
X65359161Y-118047852D01*
X65112599Y-118212599D01*
X64515198Y-118810000D01*
X61134648Y-118810000D01*
X60934415Y-118510330D01*
X60619634Y-118300000D01*
X60934415Y-118089670D01*
X61183357Y-117717101D01*
X61407401Y-117567401D01*
X67564802Y-111410000D01*
X67630750Y-111410000D01*
X67693750Y-111473000D01*
X67773137Y-111473000D01*
X67920360Y-111572377D01*
X68056253Y-111599629D01*
X67927877Y-111624537D01*
X67771896Y-111727000D01*
X67693750Y-111727000D01*
X67535000Y-111885750D01*
X67535000Y-112051310D01*
X67550087Y-112087734D01*
X67522560Y-112225000D01*
X67522560Y-112875000D01*
X67569537Y-113117123D01*
X67709327Y-113329927D01*
X67920360Y-113472377D01*
X67940000Y-113476315D01*
X67940000Y-113885198D01*
X67585198Y-114240000D01*
X66904241Y-114240000D01*
X66793117Y-113971057D01*
X66530327Y-113707808D01*
X66186799Y-113565162D01*
X65814833Y-113564838D01*
X65471057Y-113706883D01*
X65207808Y-113969673D01*
X65065162Y-114313201D01*
X65064838Y-114685167D01*
X65206883Y-115028943D01*
X65469673Y-115292192D01*
X65813201Y-115434838D01*
X65860076Y-115434878D01*
X65962599Y-115537401D01*
X66209161Y-115702148D01*
X66500000Y-115760000D01*
X67900000Y-115760000D01*
X68190839Y-115702148D01*
X68437401Y-115537401D01*
X69237401Y-114737401D01*
X69402148Y-114490839D01*
X69460000Y-114200000D01*
X69460000Y-113477815D01*
X69472123Y-113475463D01*
X69684927Y-113335673D01*
X69800566Y-113164359D01*
X69909327Y-113329927D01*
X70120360Y-113472377D01*
X70155810Y-113479486D01*
X70197852Y-113690839D01*
X70362599Y-113937401D01*
X71962599Y-115537401D01*
X72209161Y-115702148D01*
X72500000Y-115760000D01*
X72937537Y-115760000D01*
X72969673Y-115792192D01*
X73313201Y-115934838D01*
X73685167Y-115935162D01*
X74028943Y-115793117D01*
X74292192Y-115530327D01*
X74434838Y-115186799D01*
X74435162Y-114814833D01*
X74293117Y-114471057D01*
X74030327Y-114207808D01*
X73686799Y-114065162D01*
X73314833Y-114064838D01*
X72971057Y-114206883D01*
X72937882Y-114240000D01*
X72814802Y-114240000D01*
X71895222Y-113320420D01*
X72027377Y-113124640D01*
X72077440Y-112875000D01*
X72077440Y-112225000D01*
X72050522Y-112086262D01*
X72065000Y-112051310D01*
X72065000Y-111885750D01*
X71906250Y-111727000D01*
X71826862Y-111727000D01*
X71679640Y-111627623D01*
X71543746Y-111600370D01*
X71672123Y-111575463D01*
X71828103Y-111473000D01*
X71906250Y-111473000D01*
X71969250Y-111410000D01*
X72835198Y-111410000D01*
X84565198Y-123140000D01*
G36*
X87667000Y-85127000D02*
X87647000Y-85127000D01*
X87647000Y-85147000D01*
X87393000Y-85147000D01*
X87393000Y-85127000D01*
X87373000Y-85127000D01*
X87373000Y-84873000D01*
X87393000Y-84873000D01*
X87393000Y-84853000D01*
X87647000Y-84853000D01*
X87647000Y-84873000D01*
X87667000Y-84873000D01*
X87667000Y-85127000D01*
X87667000Y-85127000D01*
G37*
X87667000Y-85127000D02*
X87647000Y-85127000D01*
X87647000Y-85147000D01*
X87393000Y-85147000D01*
X87393000Y-85127000D01*
X87373000Y-85127000D01*
X87373000Y-84873000D01*
X87393000Y-84873000D01*
X87393000Y-84853000D01*
X87647000Y-84853000D01*
X87647000Y-84873000D01*
X87667000Y-84873000D01*
X87667000Y-85127000D01*
G36*
X113017000Y-129127000D02*
X112997000Y-129127000D01*
X112997000Y-129147000D01*
X112743000Y-129147000D01*
X112743000Y-129127000D01*
X112723000Y-129127000D01*
X112723000Y-128873000D01*
X112743000Y-128873000D01*
X112743000Y-128853000D01*
X112997000Y-128853000D01*
X112997000Y-128873000D01*
X113017000Y-128873000D01*
X113017000Y-129127000D01*
X113017000Y-129127000D01*
G37*
X113017000Y-129127000D02*
X112997000Y-129127000D01*
X112997000Y-129147000D01*
X112743000Y-129147000D01*
X112743000Y-129127000D01*
X112723000Y-129127000D01*
X112723000Y-128873000D01*
X112743000Y-128873000D01*
X112743000Y-128853000D01*
X112997000Y-128853000D01*
X112997000Y-128873000D01*
X113017000Y-128873000D01*
X113017000Y-129127000D01*
G36*
X143873000Y-68447395D02*
X142373000Y-69947395D01*
X142373000Y-70729096D01*
X142367143Y-70737862D01*
X142315000Y-71000000D01*
X142315000Y-132000000D01*
X142367143Y-132262138D01*
X142373000Y-132270903D01*
X142373000Y-134873000D01*
X130447395Y-134873000D01*
X124447395Y-140873000D01*
X93500000Y-140873000D01*
X92450901Y-140873000D01*
X86950901Y-145873000D01*
X50127000Y-145873000D01*
X50127000Y-85500000D01*
X50127000Y-85000000D01*
X50127000Y-84552605D01*
X54536560Y-80143045D01*
X54536560Y-80263600D01*
X54583537Y-80505723D01*
X54723327Y-80718527D01*
X54934360Y-80860977D01*
X55184000Y-80911040D01*
X57216000Y-80911040D01*
X57458123Y-80864063D01*
X57670927Y-80724273D01*
X57813377Y-80513240D01*
X57863440Y-80263600D01*
X57863440Y-80160000D01*
X60085198Y-80160000D01*
X63462599Y-83537401D01*
X63709161Y-83702148D01*
X64000000Y-83760000D01*
X68918285Y-83760000D01*
X68533179Y-84111510D01*
X68285032Y-84640973D01*
X68405531Y-84873000D01*
X69613000Y-84873000D01*
X69613000Y-84853000D01*
X69867000Y-84853000D01*
X69867000Y-84873000D01*
X69887000Y-84873000D01*
X69887000Y-85127000D01*
X69867000Y-85127000D01*
X69867000Y-85147000D01*
X69613000Y-85147000D01*
X69613000Y-85127000D01*
X68405531Y-85127000D01*
X68285032Y-85359027D01*
X68533179Y-85888490D01*
X68951160Y-86270007D01*
X68680330Y-86450971D01*
X68355474Y-86937152D01*
X68241400Y-87510641D01*
X68241400Y-87569359D01*
X68355474Y-88142848D01*
X68680330Y-88629029D01*
X69166511Y-88953885D01*
X69740000Y-89067959D01*
X70313489Y-88953885D01*
X70799670Y-88629029D01*
X71010000Y-88314248D01*
X71220330Y-88629029D01*
X71706511Y-88953885D01*
X72280000Y-89067959D01*
X72853489Y-88953885D01*
X73339670Y-88629029D01*
X73550000Y-88314248D01*
X73760330Y-88629029D01*
X74246511Y-88953885D01*
X74820000Y-89067959D01*
X75393489Y-88953885D01*
X75879670Y-88629029D01*
X76095663Y-88305771D01*
X76153179Y-88428490D01*
X76585053Y-88822688D01*
X77000974Y-88994958D01*
X77233000Y-88873817D01*
X77233000Y-87667000D01*
X77213000Y-87667000D01*
X77213000Y-87413000D01*
X77233000Y-87413000D01*
X77233000Y-87393000D01*
X77487000Y-87393000D01*
X77487000Y-87413000D01*
X77507000Y-87413000D01*
X77507000Y-87667000D01*
X77487000Y-87667000D01*
X77487000Y-88873817D01*
X77719026Y-88994958D01*
X78134947Y-88822688D01*
X78566821Y-88428490D01*
X78624336Y-88305771D01*
X78840330Y-88629029D01*
X79326511Y-88953885D01*
X79900000Y-89067959D01*
X80473489Y-88953885D01*
X80959670Y-88629029D01*
X81175663Y-88305771D01*
X81233179Y-88428490D01*
X81665053Y-88822688D01*
X82080974Y-88994958D01*
X82313000Y-88873817D01*
X82313000Y-87667000D01*
X82293000Y-87667000D01*
X82293000Y-87413000D01*
X82313000Y-87413000D01*
X82313000Y-87393000D01*
X82567000Y-87393000D01*
X82567000Y-87413000D01*
X82587000Y-87413000D01*
X82587000Y-87667000D01*
X82567000Y-87667000D01*
X82567000Y-88873817D01*
X82799026Y-88994958D01*
X83214947Y-88822688D01*
X83646821Y-88428490D01*
X83704336Y-88305771D01*
X83920330Y-88629029D01*
X84406511Y-88953885D01*
X84980000Y-89067959D01*
X85553489Y-88953885D01*
X86039670Y-88629029D01*
X86250000Y-88314248D01*
X86460330Y-88629029D01*
X86946511Y-88953885D01*
X87520000Y-89067959D01*
X88093489Y-88953885D01*
X88579670Y-88629029D01*
X88790000Y-88314248D01*
X89000330Y-88629029D01*
X89486511Y-88953885D01*
X90060000Y-89067959D01*
X90633489Y-88953885D01*
X91119670Y-88629029D01*
X91330000Y-88314248D01*
X91540330Y-88629029D01*
X92026511Y-88953885D01*
X92600000Y-89067959D01*
X93173489Y-88953885D01*
X93659670Y-88629029D01*
X93875663Y-88305771D01*
X93933179Y-88428490D01*
X94365053Y-88822688D01*
X94780974Y-88994958D01*
X95013000Y-88873817D01*
X95013000Y-87667000D01*
X94993000Y-87667000D01*
X94993000Y-87413000D01*
X95013000Y-87413000D01*
X95013000Y-87393000D01*
X95267000Y-87393000D01*
X95267000Y-87413000D01*
X95287000Y-87413000D01*
X95287000Y-87667000D01*
X95267000Y-87667000D01*
X95267000Y-88873817D01*
X95499026Y-88994958D01*
X95914947Y-88822688D01*
X96346821Y-88428490D01*
X96404336Y-88305771D01*
X96620330Y-88629029D01*
X97106511Y-88953885D01*
X97680000Y-89067959D01*
X98253489Y-88953885D01*
X98739670Y-88629029D01*
X98950000Y-88314248D01*
X99160330Y-88629029D01*
X99646511Y-88953885D01*
X100220000Y-89067959D01*
X100793489Y-88953885D01*
X101279670Y-88629029D01*
X101495663Y-88305771D01*
X101553179Y-88428490D01*
X101985053Y-88822688D01*
X102400974Y-88994958D01*
X102633000Y-88873817D01*
X102633000Y-87667000D01*
X102613000Y-87667000D01*
X102613000Y-87413000D01*
X102633000Y-87413000D01*
X102633000Y-87393000D01*
X102887000Y-87393000D01*
X102887000Y-87413000D01*
X102907000Y-87413000D01*
X102907000Y-87667000D01*
X102887000Y-87667000D01*
X102887000Y-88873817D01*
X103119026Y-88994958D01*
X103534947Y-88822688D01*
X103966821Y-88428490D01*
X104024336Y-88305771D01*
X104240330Y-88629029D01*
X104726511Y-88953885D01*
X105300000Y-89067959D01*
X105873489Y-88953885D01*
X106168298Y-88756899D01*
X101765198Y-93160000D01*
X57444648Y-93160000D01*
X57244415Y-92860330D01*
X56929634Y-92650000D01*
X57244415Y-92439670D01*
X57569271Y-91953489D01*
X57683345Y-91380000D01*
X57569271Y-90806511D01*
X57244415Y-90320330D01*
X56929634Y-90110000D01*
X57244415Y-89899670D01*
X57569271Y-89413489D01*
X57683345Y-88840000D01*
X57569271Y-88266511D01*
X57244415Y-87780330D01*
X56934930Y-87573539D01*
X57350732Y-87202036D01*
X57604709Y-86674791D01*
X57607358Y-86659026D01*
X57607358Y-85940974D01*
X57604709Y-85925209D01*
X57350732Y-85397964D01*
X56914320Y-85008046D01*
X56361913Y-84814816D01*
X56127000Y-84959076D01*
X56127000Y-86173000D01*
X57486217Y-86173000D01*
X57607358Y-85940974D01*
X57607358Y-86659026D01*
X57486217Y-86427000D01*
X56127000Y-86427000D01*
X56127000Y-86447000D01*
X55873000Y-86447000D01*
X55873000Y-86427000D01*
X55873000Y-86173000D01*
X55873000Y-84959076D01*
X55638087Y-84814816D01*
X55085680Y-85008046D01*
X54649268Y-85397964D01*
X54395291Y-85925209D01*
X54392642Y-85940974D01*
X54513783Y-86173000D01*
X55873000Y-86173000D01*
X55873000Y-86427000D01*
X54513783Y-86427000D01*
X54392642Y-86659026D01*
X54395291Y-86674791D01*
X54649268Y-87202036D01*
X55065069Y-87573539D01*
X54755585Y-87780330D01*
X54430729Y-88266511D01*
X54316655Y-88840000D01*
X54430729Y-89413489D01*
X54755585Y-89899670D01*
X55070365Y-90110000D01*
X54755585Y-90320330D01*
X54430729Y-90806511D01*
X54316655Y-91380000D01*
X54430729Y-91953489D01*
X54755585Y-92439670D01*
X55070365Y-92650000D01*
X54755585Y-92860330D01*
X54430729Y-93346511D01*
X54316655Y-93920000D01*
X54430729Y-94493489D01*
X54755585Y-94979670D01*
X55070365Y-95190000D01*
X54755585Y-95400330D01*
X54430729Y-95886511D01*
X54316655Y-96460000D01*
X54430729Y-97033489D01*
X54755585Y-97519670D01*
X54771367Y-97530215D01*
X54741877Y-97535937D01*
X54529073Y-97675727D01*
X54386623Y-97886760D01*
X54336560Y-98136400D01*
X54336560Y-99863600D01*
X54383537Y-100105723D01*
X54523327Y-100318527D01*
X54734360Y-100460977D01*
X54984000Y-100511040D01*
X57016000Y-100511040D01*
X57258123Y-100464063D01*
X57470927Y-100324273D01*
X57613377Y-100113240D01*
X57663440Y-99863600D01*
X57663440Y-98136400D01*
X57616463Y-97894277D01*
X57476673Y-97681473D01*
X57265640Y-97539023D01*
X57227037Y-97531281D01*
X57244415Y-97519670D01*
X57444648Y-97220000D01*
X102540000Y-97220000D01*
X102830839Y-97162148D01*
X103077401Y-96997401D01*
X110917401Y-89157401D01*
X111082148Y-88910840D01*
X111082148Y-88910839D01*
X111091994Y-88861338D01*
X111439670Y-88629029D01*
X111655663Y-88305771D01*
X111713179Y-88428490D01*
X112145053Y-88822688D01*
X112560974Y-88994958D01*
X112793000Y-88873817D01*
X112793000Y-87667000D01*
X112773000Y-87667000D01*
X112773000Y-87413000D01*
X112793000Y-87413000D01*
X112793000Y-87393000D01*
X113047000Y-87393000D01*
X113047000Y-87413000D01*
X113067000Y-87413000D01*
X113067000Y-87667000D01*
X113047000Y-87667000D01*
X113047000Y-88873817D01*
X113279026Y-88994958D01*
X113694947Y-88822688D01*
X114126821Y-88428490D01*
X114184336Y-88305771D01*
X114400330Y-88629029D01*
X114886511Y-88953885D01*
X115460000Y-89067959D01*
X116033489Y-88953885D01*
X116519670Y-88629029D01*
X116730000Y-88314248D01*
X116940330Y-88629029D01*
X117426511Y-88953885D01*
X118000000Y-89067959D01*
X118377973Y-88992775D01*
X126240000Y-96854802D01*
X126240000Y-99785198D01*
X125662599Y-100362599D01*
X125497852Y-100609161D01*
X125440000Y-100900000D01*
X125440000Y-101645503D01*
X125275345Y-101713538D01*
X124815154Y-102172927D01*
X124565794Y-102773453D01*
X124565226Y-103423694D01*
X124813538Y-104024655D01*
X125272927Y-104484846D01*
X125873453Y-104734206D01*
X126523694Y-104734774D01*
X127124655Y-104486462D01*
X127584846Y-104027073D01*
X127834206Y-103426547D01*
X127834774Y-102776306D01*
X127586462Y-102175345D01*
X127127073Y-101715154D01*
X126960000Y-101645779D01*
X126960000Y-101214802D01*
X127114802Y-101060000D01*
X130659453Y-101060000D01*
X130552041Y-101600000D01*
X130659453Y-102140000D01*
X129700000Y-102140000D01*
X129409161Y-102197852D01*
X129162599Y-102362599D01*
X128062599Y-103462599D01*
X127897852Y-103709161D01*
X127840000Y-104000000D01*
X127840000Y-104985198D01*
X125485198Y-107340000D01*
X122611040Y-107340000D01*
X122611040Y-107084000D01*
X122564063Y-106841877D01*
X122424273Y-106629073D01*
X122213240Y-106486623D01*
X121963600Y-106436560D01*
X120236400Y-106436560D01*
X119994277Y-106483537D01*
X119781473Y-106623327D01*
X119639023Y-106834360D01*
X119631281Y-106872962D01*
X119619670Y-106855585D01*
X119133489Y-106530729D01*
X118560000Y-106416655D01*
X117986511Y-106530729D01*
X117500330Y-106855585D01*
X117290000Y-107170365D01*
X117079670Y-106855585D01*
X116593489Y-106530729D01*
X116020000Y-106416655D01*
X115446511Y-106530729D01*
X114960330Y-106855585D01*
X114636654Y-107340000D01*
X113314802Y-107340000D01*
X111960000Y-105985198D01*
X111960000Y-104554496D01*
X112124655Y-104486462D01*
X112584846Y-104027073D01*
X112834206Y-103426547D01*
X112834774Y-102776306D01*
X112586462Y-102175345D01*
X112127073Y-101715154D01*
X111526547Y-101465794D01*
X110876306Y-101465226D01*
X110275345Y-101713538D01*
X109815154Y-102172927D01*
X109565794Y-102773453D01*
X109565226Y-103423694D01*
X109813538Y-104024655D01*
X110272927Y-104484846D01*
X110440000Y-104554220D01*
X110440000Y-106300000D01*
X110497852Y-106590839D01*
X110662599Y-106837401D01*
X112462599Y-108637401D01*
X112709160Y-108802148D01*
X112709161Y-108802148D01*
X112757413Y-108811746D01*
X113000000Y-108860000D01*
X114636654Y-108860000D01*
X114960330Y-109344415D01*
X115446511Y-109669271D01*
X116020000Y-109783345D01*
X116593489Y-109669271D01*
X117079670Y-109344415D01*
X117290000Y-109029634D01*
X117500330Y-109344415D01*
X117800000Y-109544648D01*
X117800000Y-124796560D01*
X117086400Y-124796560D01*
X116844277Y-124843537D01*
X116631473Y-124983327D01*
X116489023Y-125194360D01*
X116481281Y-125232962D01*
X116469670Y-125215585D01*
X115983489Y-124890729D01*
X115410000Y-124776655D01*
X114836511Y-124890729D01*
X114350330Y-125215585D01*
X114140000Y-125530365D01*
X113929670Y-125215585D01*
X113630000Y-125015351D01*
X113630000Y-124870000D01*
X113572148Y-124579161D01*
X113407401Y-124332599D01*
X112537401Y-123462599D01*
X111237401Y-122162599D01*
X110990839Y-121997852D01*
X110700000Y-121940000D01*
X110235162Y-121940000D01*
X110235162Y-111614833D01*
X110235162Y-107714833D01*
X110093117Y-107371057D01*
X110060000Y-107337882D01*
X110060000Y-105300000D01*
X110002148Y-105009161D01*
X109837401Y-104762599D01*
X108537401Y-103462599D01*
X108290839Y-103297852D01*
X108000000Y-103240000D01*
X107497440Y-103240000D01*
X107497440Y-103000000D01*
X107450463Y-102757877D01*
X107310673Y-102545073D01*
X107099640Y-102402623D01*
X106850000Y-102352560D01*
X105150000Y-102352560D01*
X104907877Y-102399537D01*
X104695073Y-102539327D01*
X104552623Y-102750360D01*
X104502560Y-103000000D01*
X104502560Y-103240000D01*
X103497440Y-103240000D01*
X103497440Y-103000000D01*
X103450463Y-102757877D01*
X103310673Y-102545073D01*
X103099640Y-102402623D01*
X102850000Y-102352560D01*
X101150000Y-102352560D01*
X100907877Y-102399537D01*
X100695073Y-102539327D01*
X100552623Y-102750360D01*
X100502560Y-103000000D01*
X100502560Y-103240000D01*
X99497440Y-103240000D01*
X99497440Y-103000000D01*
X99450463Y-102757877D01*
X99310673Y-102545073D01*
X99099640Y-102402623D01*
X98850000Y-102352560D01*
X97150000Y-102352560D01*
X96907877Y-102399537D01*
X96695073Y-102539327D01*
X96662453Y-102587651D01*
X96535122Y-102460320D01*
X96535162Y-102414833D01*
X96393117Y-102071057D01*
X96130327Y-101807808D01*
X95786799Y-101665162D01*
X95414833Y-101664838D01*
X95071057Y-101806883D01*
X94807808Y-102069673D01*
X94665162Y-102413201D01*
X94664838Y-102785167D01*
X94806883Y-103128943D01*
X95069673Y-103392192D01*
X95413201Y-103534838D01*
X95460076Y-103534878D01*
X96462599Y-104537401D01*
X96502560Y-104564102D01*
X96502560Y-105000000D01*
X96549537Y-105242123D01*
X96689327Y-105454927D01*
X96900360Y-105597377D01*
X97150000Y-105647440D01*
X98850000Y-105647440D01*
X99092123Y-105600463D01*
X99304927Y-105460673D01*
X99447377Y-105249640D01*
X99497440Y-105000000D01*
X99497440Y-104760000D01*
X100502560Y-104760000D01*
X100502560Y-105000000D01*
X100549537Y-105242123D01*
X100689327Y-105454927D01*
X100900360Y-105597377D01*
X101150000Y-105647440D01*
X102850000Y-105647440D01*
X103092123Y-105600463D01*
X103304927Y-105460673D01*
X103447377Y-105249640D01*
X103497440Y-105000000D01*
X103497440Y-104760000D01*
X104502560Y-104760000D01*
X104502560Y-105000000D01*
X104549537Y-105242123D01*
X104689327Y-105454927D01*
X104900360Y-105597377D01*
X105150000Y-105647440D01*
X106850000Y-105647440D01*
X107092123Y-105600463D01*
X107304927Y-105460673D01*
X107447377Y-105249640D01*
X107497440Y-105000000D01*
X107497440Y-104760000D01*
X107685198Y-104760000D01*
X108540000Y-105614802D01*
X108540000Y-107337537D01*
X108507808Y-107369673D01*
X108365162Y-107713201D01*
X108364838Y-108085167D01*
X108506883Y-108428943D01*
X108769673Y-108692192D01*
X109113201Y-108834838D01*
X109485167Y-108835162D01*
X109828943Y-108693117D01*
X110092192Y-108430327D01*
X110234838Y-108086799D01*
X110235162Y-107714833D01*
X110235162Y-111614833D01*
X110093117Y-111271057D01*
X109830327Y-111007808D01*
X109486799Y-110865162D01*
X109114833Y-110864838D01*
X108771057Y-111006883D01*
X108632698Y-111145000D01*
X106529802Y-111145000D01*
X106537401Y-111137401D01*
X106702148Y-110890839D01*
X106760000Y-110600000D01*
X106760000Y-109647440D01*
X106850000Y-109647440D01*
X107092123Y-109600463D01*
X107304927Y-109460673D01*
X107447377Y-109249640D01*
X107497440Y-109000000D01*
X107497440Y-107000000D01*
X107450463Y-106757877D01*
X107310673Y-106545073D01*
X107099640Y-106402623D01*
X106850000Y-106352560D01*
X105150000Y-106352560D01*
X104907877Y-106399537D01*
X104695073Y-106539327D01*
X104552623Y-106750360D01*
X104502560Y-107000000D01*
X104502560Y-109000000D01*
X104549537Y-109242123D01*
X104689327Y-109454927D01*
X104900360Y-109597377D01*
X105150000Y-109647440D01*
X105240000Y-109647440D01*
X105240000Y-110285198D01*
X104380198Y-111145000D01*
X103927623Y-111145000D01*
X104034838Y-110886799D01*
X104035162Y-110514833D01*
X103893117Y-110171057D01*
X103630327Y-109907808D01*
X103286799Y-109765162D01*
X102914833Y-109764838D01*
X102753755Y-109831393D01*
X102760000Y-109800000D01*
X102760000Y-109647440D01*
X102850000Y-109647440D01*
X103092123Y-109600463D01*
X103304927Y-109460673D01*
X103447377Y-109249640D01*
X103497440Y-109000000D01*
X103497440Y-107000000D01*
X103450463Y-106757877D01*
X103310673Y-106545073D01*
X103099640Y-106402623D01*
X102850000Y-106352560D01*
X101150000Y-106352560D01*
X100907877Y-106399537D01*
X100695073Y-106539327D01*
X100552623Y-106750360D01*
X100502560Y-107000000D01*
X100502560Y-109000000D01*
X100549537Y-109242123D01*
X100689327Y-109454927D01*
X100900360Y-109597377D01*
X101089825Y-109635372D01*
X100850198Y-109875000D01*
X98499802Y-109875000D01*
X98537401Y-109837401D01*
X98664328Y-109647440D01*
X98850000Y-109647440D01*
X99092123Y-109600463D01*
X99304927Y-109460673D01*
X99447377Y-109249640D01*
X99497440Y-109000000D01*
X99497440Y-107000000D01*
X99450463Y-106757877D01*
X99310673Y-106545073D01*
X99099640Y-106402623D01*
X98850000Y-106352560D01*
X97150000Y-106352560D01*
X96907877Y-106399537D01*
X96695073Y-106539327D01*
X96552623Y-106750360D01*
X96502560Y-107000000D01*
X96502560Y-108605000D01*
X95868083Y-108605000D01*
X95872377Y-108598640D01*
X95922440Y-108349000D01*
X95922440Y-107841000D01*
X95875463Y-107598877D01*
X95735673Y-107386073D01*
X95524640Y-107243623D01*
X95275000Y-107193560D01*
X94935000Y-107193560D01*
X94935000Y-104475000D01*
X94886746Y-104232413D01*
X94877148Y-104184161D01*
X94877148Y-104184160D01*
X94712401Y-103937599D01*
X94237401Y-103462599D01*
X94060440Y-103344357D01*
X94060440Y-102984000D01*
X94013463Y-102741877D01*
X93873673Y-102529073D01*
X93662640Y-102386623D01*
X93413000Y-102336560D01*
X91889000Y-102336560D01*
X91646877Y-102383537D01*
X91434073Y-102523327D01*
X91291623Y-102734360D01*
X91241560Y-102984000D01*
X91241560Y-105016000D01*
X91288537Y-105258123D01*
X91428327Y-105470927D01*
X91639360Y-105613377D01*
X91889000Y-105663440D01*
X93413000Y-105663440D01*
X93415000Y-105663051D01*
X93415000Y-107193560D01*
X93075000Y-107193560D01*
X92832877Y-107240537D01*
X92620073Y-107380327D01*
X92477623Y-107591360D01*
X92427560Y-107841000D01*
X92427560Y-108349000D01*
X92474537Y-108591123D01*
X92566025Y-108730396D01*
X92477623Y-108861360D01*
X92427560Y-109111000D01*
X92427560Y-109619000D01*
X92474537Y-109861123D01*
X92566025Y-110000396D01*
X92477623Y-110131360D01*
X92427560Y-110381000D01*
X92427560Y-110889000D01*
X92474537Y-111131123D01*
X92566025Y-111270396D01*
X92477623Y-111401360D01*
X92427560Y-111651000D01*
X92427560Y-112159000D01*
X92474537Y-112401123D01*
X92614327Y-112613927D01*
X92825360Y-112756377D01*
X93075000Y-112806440D01*
X95275000Y-112806440D01*
X95517123Y-112759463D01*
X95660925Y-112665000D01*
X104500000Y-112665000D01*
X104505000Y-112665000D01*
X104695000Y-112665000D01*
X108945013Y-112665000D01*
X109113201Y-112734838D01*
X109485167Y-112735162D01*
X109828943Y-112593117D01*
X110092192Y-112330327D01*
X110234838Y-111986799D01*
X110235162Y-111614833D01*
X110235162Y-121940000D01*
X99000000Y-121940000D01*
X90746000Y-121940000D01*
X90746000Y-105142310D01*
X90746000Y-104889691D01*
X90746000Y-104285750D01*
X90746000Y-103714250D01*
X90746000Y-103110309D01*
X90746000Y-102857690D01*
X90649327Y-102624301D01*
X90470698Y-102445673D01*
X90237309Y-102349000D01*
X89634750Y-102349000D01*
X89476000Y-102507750D01*
X89476000Y-103873000D01*
X90587250Y-103873000D01*
X90746000Y-103714250D01*
X90746000Y-104285750D01*
X90587250Y-104127000D01*
X89476000Y-104127000D01*
X89476000Y-105492250D01*
X89634750Y-105651000D01*
X90237309Y-105651000D01*
X90470698Y-105554327D01*
X90649327Y-105375699D01*
X90746000Y-105142310D01*
X90746000Y-121940000D01*
X89572440Y-121940000D01*
X89572440Y-112159000D01*
X89572440Y-111651000D01*
X89525463Y-111408877D01*
X89433974Y-111269603D01*
X89522377Y-111138640D01*
X89572440Y-110889000D01*
X89572440Y-110381000D01*
X89525463Y-110138877D01*
X89433974Y-109999603D01*
X89522377Y-109868640D01*
X89572440Y-109619000D01*
X89572440Y-109111000D01*
X89525463Y-108868877D01*
X89437323Y-108734701D01*
X89463327Y-108708698D01*
X89560000Y-108475309D01*
X89560000Y-108380750D01*
X89560000Y-107809250D01*
X89560000Y-107714691D01*
X89463327Y-107481302D01*
X89284699Y-107302673D01*
X89222000Y-107276702D01*
X89222000Y-105492250D01*
X89222000Y-104127000D01*
X89222000Y-103873000D01*
X89222000Y-102507750D01*
X89063250Y-102349000D01*
X88460691Y-102349000D01*
X88227302Y-102445673D01*
X88048673Y-102624301D01*
X87952000Y-102857690D01*
X87952000Y-103110309D01*
X87952000Y-103714250D01*
X88110750Y-103873000D01*
X89222000Y-103873000D01*
X89222000Y-104127000D01*
X88110750Y-104127000D01*
X87952000Y-104285750D01*
X87952000Y-104889691D01*
X87952000Y-105142310D01*
X88048673Y-105375699D01*
X88227302Y-105554327D01*
X88460691Y-105651000D01*
X89063250Y-105651000D01*
X89222000Y-105492250D01*
X89222000Y-107276702D01*
X89051310Y-107206000D01*
X88798691Y-107206000D01*
X88110750Y-107206000D01*
X87952000Y-107364750D01*
X87952000Y-107968000D01*
X89401250Y-107968000D01*
X89560000Y-107809250D01*
X89560000Y-108380750D01*
X89401250Y-108222000D01*
X87952000Y-108222000D01*
X87952000Y-108242000D01*
X87698000Y-108242000D01*
X87698000Y-108222000D01*
X87678000Y-108222000D01*
X87678000Y-107968000D01*
X87698000Y-107968000D01*
X87698000Y-107364750D01*
X87539250Y-107206000D01*
X86851309Y-107206000D01*
X86598690Y-107206000D01*
X86365301Y-107302673D01*
X86186673Y-107481302D01*
X86160000Y-107545696D01*
X86160000Y-105100000D01*
X86111746Y-104857413D01*
X86102148Y-104809161D01*
X86102148Y-104809160D01*
X85937401Y-104562599D01*
X85537401Y-104162599D01*
X85290839Y-103997852D01*
X85000000Y-103940000D01*
X84485798Y-103940000D01*
X84450463Y-103757877D01*
X84310673Y-103545073D01*
X84099640Y-103402623D01*
X83850000Y-103352560D01*
X83760000Y-103352560D01*
X83760000Y-103100000D01*
X83702148Y-102809161D01*
X83702147Y-102809160D01*
X83647480Y-102727345D01*
X83537401Y-102562599D01*
X83537401Y-102562598D01*
X82837401Y-101862599D01*
X82590839Y-101697852D01*
X82300000Y-101640000D01*
X80962462Y-101640000D01*
X80930327Y-101607808D01*
X80586799Y-101465162D01*
X80214833Y-101464838D01*
X79871057Y-101606883D01*
X79737707Y-101740000D01*
X78200000Y-101740000D01*
X77909161Y-101797852D01*
X77662599Y-101962599D01*
X77162599Y-102462599D01*
X76997852Y-102709161D01*
X76940000Y-103000000D01*
X76940000Y-103393304D01*
X76907877Y-103399537D01*
X76695073Y-103539327D01*
X76552623Y-103750360D01*
X76502560Y-104000000D01*
X76502560Y-106000000D01*
X76549537Y-106242123D01*
X76689327Y-106454927D01*
X76900360Y-106597377D01*
X77150000Y-106647440D01*
X78850000Y-106647440D01*
X79092123Y-106600463D01*
X79304927Y-106460673D01*
X79447377Y-106249640D01*
X79497440Y-106000000D01*
X79497440Y-104000000D01*
X79450463Y-103757877D01*
X79310673Y-103545073D01*
X79099640Y-103402623D01*
X78850000Y-103352560D01*
X78460000Y-103352560D01*
X78460000Y-103314802D01*
X78514802Y-103260000D01*
X79640000Y-103260000D01*
X79640000Y-107600000D01*
X79697852Y-107890839D01*
X79764919Y-107991213D01*
X79764838Y-108085167D01*
X79906883Y-108428943D01*
X80169673Y-108692192D01*
X80513201Y-108834838D01*
X80885167Y-108835162D01*
X81228943Y-108693117D01*
X81492192Y-108430327D01*
X81502560Y-108405358D01*
X81502560Y-110000000D01*
X81549537Y-110242123D01*
X81689327Y-110454927D01*
X81900360Y-110597377D01*
X82150000Y-110647440D01*
X82240000Y-110647440D01*
X82240000Y-111237885D01*
X82007808Y-111469673D01*
X81865162Y-111813201D01*
X81864838Y-112185167D01*
X82006883Y-112528943D01*
X82269673Y-112792192D01*
X82613201Y-112934838D01*
X82985167Y-112935162D01*
X83328943Y-112793117D01*
X83592192Y-112530327D01*
X83734838Y-112186799D01*
X83735065Y-111925351D01*
X83760000Y-111800000D01*
X83760000Y-111395000D01*
X86131916Y-111395000D01*
X86127623Y-111401360D01*
X86077560Y-111651000D01*
X86077560Y-112159000D01*
X86124537Y-112401123D01*
X86163999Y-112461198D01*
X85485198Y-113140000D01*
X80014802Y-113140000D01*
X79835122Y-112960320D01*
X79835162Y-112914833D01*
X79693117Y-112571057D01*
X79430327Y-112307808D01*
X79348726Y-112273924D01*
X78760000Y-111685198D01*
X78760000Y-110647440D01*
X78850000Y-110647440D01*
X79092123Y-110600463D01*
X79304927Y-110460673D01*
X79447377Y-110249640D01*
X79497440Y-110000000D01*
X79497440Y-108000000D01*
X79450463Y-107757877D01*
X79310673Y-107545073D01*
X79099640Y-107402623D01*
X78850000Y-107352560D01*
X77150000Y-107352560D01*
X76907877Y-107399537D01*
X76695073Y-107539327D01*
X76552623Y-107750360D01*
X76502560Y-108000000D01*
X76502560Y-110000000D01*
X76549537Y-110242123D01*
X76689327Y-110454927D01*
X76900360Y-110597377D01*
X77150000Y-110647440D01*
X77240000Y-110647440D01*
X77240000Y-112000000D01*
X77297852Y-112290839D01*
X77462599Y-112537401D01*
X77965051Y-113039853D01*
X77964838Y-113285167D01*
X78106883Y-113628943D01*
X78369673Y-113892192D01*
X78713201Y-114034838D01*
X78760076Y-114034878D01*
X79162599Y-114437401D01*
X79409161Y-114602148D01*
X79700000Y-114660000D01*
X85800000Y-114660000D01*
X86090839Y-114602148D01*
X86337401Y-114437401D01*
X87968362Y-112806440D01*
X88925000Y-112806440D01*
X89167123Y-112759463D01*
X89379927Y-112619673D01*
X89522377Y-112408640D01*
X89572440Y-112159000D01*
X89572440Y-121940000D01*
X85514801Y-121940000D01*
X73687401Y-110112599D01*
X73440839Y-109947852D01*
X73150000Y-109890000D01*
X71903762Y-109890000D01*
X71890673Y-109870073D01*
X71679640Y-109727623D01*
X71430000Y-109677560D01*
X70370000Y-109677560D01*
X70127877Y-109724537D01*
X69915073Y-109864327D01*
X69799433Y-110035640D01*
X69690673Y-109870073D01*
X69479640Y-109727623D01*
X69230000Y-109677560D01*
X68170000Y-109677560D01*
X67927877Y-109724537D01*
X67715073Y-109864327D01*
X67697743Y-109890000D01*
X67250000Y-109890000D01*
X66959161Y-109947852D01*
X66712599Y-110112599D01*
X60886730Y-115938467D01*
X60619634Y-115760000D01*
X60934415Y-115549670D01*
X61259271Y-115063489D01*
X61373345Y-114490000D01*
X61259271Y-113916511D01*
X60934415Y-113430330D01*
X60619634Y-113220000D01*
X60934415Y-113009670D01*
X61259271Y-112523489D01*
X61373345Y-111950000D01*
X61259271Y-111376511D01*
X60934415Y-110890330D01*
X60624930Y-110683539D01*
X61040732Y-110312036D01*
X61294709Y-109784791D01*
X61297358Y-109769026D01*
X61297358Y-109050974D01*
X61294709Y-109035209D01*
X61040732Y-108507964D01*
X60604320Y-108118046D01*
X60051913Y-107924816D01*
X59817000Y-108069076D01*
X59817000Y-109283000D01*
X61176217Y-109283000D01*
X61297358Y-109050974D01*
X61297358Y-109769026D01*
X61176217Y-109537000D01*
X59817000Y-109537000D01*
X59817000Y-109557000D01*
X59563000Y-109557000D01*
X59563000Y-109537000D01*
X59563000Y-109283000D01*
X59563000Y-108069076D01*
X59328087Y-107924816D01*
X58775680Y-108118046D01*
X58339268Y-108507964D01*
X58085291Y-109035209D01*
X58082642Y-109050974D01*
X58203783Y-109283000D01*
X59563000Y-109283000D01*
X59563000Y-109537000D01*
X58203783Y-109537000D01*
X58082642Y-109769026D01*
X58085291Y-109784791D01*
X58339268Y-110312036D01*
X58755069Y-110683539D01*
X58445585Y-110890330D01*
X58120729Y-111376511D01*
X58006655Y-111950000D01*
X58120729Y-112523489D01*
X58445585Y-113009670D01*
X58760365Y-113220000D01*
X58445585Y-113430330D01*
X58120729Y-113916511D01*
X58006655Y-114490000D01*
X58120729Y-115063489D01*
X58445585Y-115549670D01*
X58760365Y-115760000D01*
X58445585Y-115970330D01*
X58120729Y-116456511D01*
X58006655Y-117030000D01*
X58120729Y-117603489D01*
X58445585Y-118089670D01*
X58760365Y-118300000D01*
X58445585Y-118510330D01*
X58120729Y-118996511D01*
X58006655Y-119570000D01*
X58120729Y-120143489D01*
X58445585Y-120629670D01*
X58461367Y-120640215D01*
X58431877Y-120645937D01*
X58219073Y-120785727D01*
X58076623Y-120996760D01*
X58026560Y-121246400D01*
X58026560Y-122973600D01*
X58073537Y-123215723D01*
X58213327Y-123428527D01*
X58424360Y-123570977D01*
X58674000Y-123621040D01*
X60706000Y-123621040D01*
X60948123Y-123574063D01*
X61160927Y-123434273D01*
X61303377Y-123223240D01*
X61353440Y-122973600D01*
X61353440Y-121246400D01*
X61306463Y-121004277D01*
X61166673Y-120791473D01*
X60955640Y-120649023D01*
X60917037Y-120641281D01*
X60934415Y-120629670D01*
X61134648Y-120330000D01*
X64830000Y-120330000D01*
X65120839Y-120272148D01*
X65367401Y-120107401D01*
X65964802Y-119510000D01*
X67522560Y-119510000D01*
X67522560Y-120025000D01*
X67552144Y-120177478D01*
X67522560Y-120325000D01*
X67522560Y-120975000D01*
X67569537Y-121217123D01*
X67709327Y-121429927D01*
X67920360Y-121572377D01*
X67940000Y-121576315D01*
X67940000Y-122285197D01*
X67685197Y-122540000D01*
X67214802Y-122540000D01*
X66935122Y-122260320D01*
X66935162Y-122214833D01*
X66793117Y-121871057D01*
X66530327Y-121607808D01*
X66186799Y-121465162D01*
X65814833Y-121464838D01*
X65471057Y-121606883D01*
X65207808Y-121869673D01*
X65065162Y-122213201D01*
X65064838Y-122585167D01*
X65206883Y-122928943D01*
X65469673Y-123192192D01*
X65813201Y-123334838D01*
X65860076Y-123334878D01*
X66362599Y-123837401D01*
X66609160Y-124002148D01*
X66609161Y-124002148D01*
X66900000Y-124060000D01*
X68000000Y-124060000D01*
X68290839Y-124002148D01*
X68537401Y-123837401D01*
X69237401Y-123137402D01*
X69237401Y-123137401D01*
X69347480Y-122972655D01*
X69402147Y-122890840D01*
X69402148Y-122890839D01*
X69459999Y-122600000D01*
X69460000Y-122600000D01*
X69460000Y-121577815D01*
X69472123Y-121575463D01*
X69684927Y-121435673D01*
X69777940Y-121297878D01*
X69857509Y-121351044D01*
X69909327Y-121429927D01*
X70120360Y-121572377D01*
X70140000Y-121576315D01*
X70140000Y-122400000D01*
X70197852Y-122690839D01*
X70362599Y-122937401D01*
X71462599Y-124037401D01*
X71709161Y-124202148D01*
X72000000Y-124260000D01*
X73500000Y-124260000D01*
X73790839Y-124202148D01*
X74037401Y-124037401D01*
X74639679Y-123435122D01*
X74685167Y-123435162D01*
X75028943Y-123293117D01*
X75292192Y-123030327D01*
X75434838Y-122686799D01*
X75435162Y-122314833D01*
X75293117Y-121971057D01*
X75030327Y-121707808D01*
X74686799Y-121565162D01*
X74314833Y-121564838D01*
X73971057Y-121706883D01*
X73707808Y-121969673D01*
X73565162Y-122313201D01*
X73565121Y-122360076D01*
X73185198Y-122740000D01*
X72314802Y-122740000D01*
X71660000Y-122085198D01*
X71660000Y-121577815D01*
X71672123Y-121575463D01*
X71884927Y-121435673D01*
X72027377Y-121224640D01*
X72077440Y-120975000D01*
X72077440Y-120325000D01*
X72050522Y-120186262D01*
X72065000Y-120151310D01*
X72065000Y-119985750D01*
X71906250Y-119827000D01*
X71826862Y-119827000D01*
X71679640Y-119727623D01*
X71543746Y-119700370D01*
X71672123Y-119675463D01*
X71828103Y-119573000D01*
X71906250Y-119573000D01*
X71969250Y-119510000D01*
X75235198Y-119510000D01*
X80162599Y-124437401D01*
X80409161Y-124602148D01*
X80700000Y-124660000D01*
X98400000Y-124660000D01*
X98500000Y-124660000D01*
X105385198Y-124660000D01*
X105564388Y-124839190D01*
X105250000Y-124776655D01*
X104676511Y-124890729D01*
X104190330Y-125215585D01*
X103980000Y-125530365D01*
X103769670Y-125215585D01*
X103283489Y-124890729D01*
X102710000Y-124776655D01*
X102136511Y-124890729D01*
X101650330Y-125215585D01*
X101440000Y-125530365D01*
X101229670Y-125215585D01*
X100743489Y-124890729D01*
X100170000Y-124776655D01*
X99596511Y-124890729D01*
X99110330Y-125215585D01*
X98900000Y-125530365D01*
X98689670Y-125215585D01*
X98203489Y-124890729D01*
X97630000Y-124776655D01*
X97056511Y-124890729D01*
X96570330Y-125215585D01*
X96360000Y-125530365D01*
X96149670Y-125215585D01*
X95663489Y-124890729D01*
X95090000Y-124776655D01*
X94516511Y-124890729D01*
X94030330Y-125215585D01*
X93820000Y-125530365D01*
X93609670Y-125215585D01*
X93123489Y-124890729D01*
X92550000Y-124776655D01*
X91976511Y-124890729D01*
X91490330Y-125215585D01*
X91280000Y-125530365D01*
X91069670Y-125215585D01*
X90583489Y-124890729D01*
X90010000Y-124776655D01*
X89436511Y-124890729D01*
X88950330Y-125215585D01*
X88740000Y-125530365D01*
X88529670Y-125215585D01*
X88043489Y-124890729D01*
X87470000Y-124776655D01*
X86896511Y-124890729D01*
X86410330Y-125215585D01*
X86200000Y-125530365D01*
X85989670Y-125215585D01*
X85503489Y-124890729D01*
X84930000Y-124776655D01*
X84356511Y-124890729D01*
X83870330Y-125215585D01*
X83545474Y-125701766D01*
X83431400Y-126275255D01*
X83431400Y-126644745D01*
X83545474Y-127218234D01*
X83870330Y-127704415D01*
X83908620Y-127730000D01*
X83870330Y-127755585D01*
X83545474Y-128241766D01*
X83431400Y-128815255D01*
X83431400Y-129184745D01*
X83545474Y-129758234D01*
X83870330Y-130244415D01*
X83908620Y-130270000D01*
X83870330Y-130295585D01*
X83545474Y-130781766D01*
X83431400Y-131355255D01*
X83431400Y-131724745D01*
X83545474Y-132298234D01*
X83870330Y-132784415D01*
X83908620Y-132810000D01*
X83870330Y-132835585D01*
X83545474Y-133321766D01*
X83431400Y-133895255D01*
X83431400Y-134264745D01*
X83545474Y-134838234D01*
X83813925Y-135240000D01*
X79714802Y-135240000D01*
X74987401Y-130512599D01*
X74740839Y-130347852D01*
X74450000Y-130290000D01*
X71103762Y-130290000D01*
X71090673Y-130270073D01*
X70879640Y-130127623D01*
X70630000Y-130077560D01*
X69570000Y-130077560D01*
X69327877Y-130124537D01*
X69115073Y-130264327D01*
X68999433Y-130435640D01*
X68890673Y-130270073D01*
X68679640Y-130127623D01*
X68430000Y-130077560D01*
X67370000Y-130077560D01*
X67127877Y-130124537D01*
X66915073Y-130264327D01*
X66897743Y-130290000D01*
X66750000Y-130290000D01*
X66459160Y-130347852D01*
X66212599Y-130512599D01*
X61405198Y-135320000D01*
X61134648Y-135320000D01*
X60934415Y-135020330D01*
X60619634Y-134810000D01*
X60934415Y-134599670D01*
X61259271Y-134113489D01*
X61373345Y-133540000D01*
X61259271Y-132966511D01*
X60934415Y-132480330D01*
X60619634Y-132270000D01*
X60934415Y-132059670D01*
X61259271Y-131573489D01*
X61373345Y-131000000D01*
X61259271Y-130426511D01*
X60934415Y-129940330D01*
X60624930Y-129733539D01*
X61040732Y-129362036D01*
X61294709Y-128834791D01*
X61297358Y-128819026D01*
X61297358Y-128100974D01*
X61294709Y-128085209D01*
X61040732Y-127557964D01*
X60604320Y-127168046D01*
X60051913Y-126974816D01*
X59817000Y-127119076D01*
X59817000Y-128333000D01*
X61176217Y-128333000D01*
X61297358Y-128100974D01*
X61297358Y-128819026D01*
X61176217Y-128587000D01*
X59817000Y-128587000D01*
X59817000Y-128607000D01*
X59563000Y-128607000D01*
X59563000Y-128587000D01*
X59563000Y-128333000D01*
X59563000Y-127119076D01*
X59328087Y-126974816D01*
X58775680Y-127168046D01*
X58339268Y-127557964D01*
X58085291Y-128085209D01*
X58082642Y-128100974D01*
X58203783Y-128333000D01*
X59563000Y-128333000D01*
X59563000Y-128587000D01*
X58203783Y-128587000D01*
X58082642Y-128819026D01*
X58085291Y-128834791D01*
X58339268Y-129362036D01*
X58755069Y-129733539D01*
X58445585Y-129940330D01*
X58120729Y-130426511D01*
X58006655Y-131000000D01*
X58120729Y-131573489D01*
X58445585Y-132059670D01*
X58760365Y-132270000D01*
X58445585Y-132480330D01*
X58120729Y-132966511D01*
X58006655Y-133540000D01*
X58120729Y-134113489D01*
X58445585Y-134599670D01*
X58760365Y-134810000D01*
X58445585Y-135020330D01*
X58120729Y-135506511D01*
X58006655Y-136080000D01*
X58120729Y-136653489D01*
X58445585Y-137139670D01*
X58760365Y-137350000D01*
X58445585Y-137560330D01*
X58120729Y-138046511D01*
X58006655Y-138620000D01*
X58120729Y-139193489D01*
X58445585Y-139679670D01*
X58461367Y-139690215D01*
X58431877Y-139695937D01*
X58219073Y-139835727D01*
X58076623Y-140046760D01*
X58026560Y-140296400D01*
X58026560Y-142023600D01*
X58073537Y-142265723D01*
X58213327Y-142478527D01*
X58424360Y-142620977D01*
X58674000Y-142671040D01*
X60706000Y-142671040D01*
X60948123Y-142624063D01*
X61160927Y-142484273D01*
X61303377Y-142273240D01*
X61353440Y-142023600D01*
X61353440Y-140296400D01*
X61306463Y-140054277D01*
X61166673Y-139841473D01*
X60955640Y-139699023D01*
X60917037Y-139691281D01*
X60934415Y-139679670D01*
X61134648Y-139380000D01*
X66723530Y-139380000D01*
X66752144Y-139527478D01*
X66722560Y-139675000D01*
X66722560Y-140325000D01*
X66752144Y-140477478D01*
X66722560Y-140625000D01*
X66722560Y-141275000D01*
X66769537Y-141517123D01*
X66909327Y-141729927D01*
X67120360Y-141872377D01*
X67140000Y-141876315D01*
X67140000Y-142385198D01*
X67050000Y-142475198D01*
X66935122Y-142360320D01*
X66935162Y-142314833D01*
X66793117Y-141971057D01*
X66530327Y-141707808D01*
X66186799Y-141565162D01*
X65814833Y-141564838D01*
X65471057Y-141706883D01*
X65207808Y-141969673D01*
X65065162Y-142313201D01*
X65064838Y-142685167D01*
X65206883Y-143028943D01*
X65469673Y-143292192D01*
X65813201Y-143434838D01*
X65860076Y-143434878D01*
X66262599Y-143837401D01*
X66509161Y-144002148D01*
X66800000Y-144060000D01*
X67300000Y-144060000D01*
X67590839Y-144002148D01*
X67837401Y-143837401D01*
X68437401Y-143237401D01*
X68602148Y-142990839D01*
X68660000Y-142700000D01*
X68660000Y-141877815D01*
X68672123Y-141875463D01*
X68884927Y-141735673D01*
X69000566Y-141564359D01*
X69109327Y-141729927D01*
X69320360Y-141872377D01*
X69397246Y-141887795D01*
X69397852Y-141890839D01*
X69562599Y-142137401D01*
X70962599Y-143537401D01*
X71209161Y-143702148D01*
X71500000Y-143760000D01*
X73500000Y-143760000D01*
X73790839Y-143702148D01*
X74037401Y-143537401D01*
X74639679Y-142935122D01*
X74685167Y-142935162D01*
X75028943Y-142793117D01*
X75292192Y-142530327D01*
X75434838Y-142186799D01*
X75435162Y-141814833D01*
X75293117Y-141471057D01*
X75030327Y-141207808D01*
X74686799Y-141065162D01*
X74314833Y-141064838D01*
X73971057Y-141206883D01*
X73707808Y-141469673D01*
X73565162Y-141813201D01*
X73565121Y-141860076D01*
X73185198Y-142240000D01*
X71814802Y-142240000D01*
X71175820Y-141601018D01*
X71227377Y-141524640D01*
X71277440Y-141275000D01*
X71277440Y-140625000D01*
X71250522Y-140486262D01*
X71265000Y-140451310D01*
X71265000Y-140285750D01*
X71106250Y-140127000D01*
X71026862Y-140127000D01*
X70879640Y-140027623D01*
X70743746Y-140000370D01*
X70872123Y-139975463D01*
X71028103Y-139873000D01*
X71106250Y-139873000D01*
X71169250Y-139810000D01*
X76750000Y-139810000D01*
X77040839Y-139752148D01*
X77287401Y-139587401D01*
X79214802Y-137660000D01*
X97600000Y-137660000D01*
X97890839Y-137602148D01*
X98137401Y-137437401D01*
X99437401Y-136137401D01*
X99602148Y-135890839D01*
X99648155Y-135659543D01*
X100170000Y-135763345D01*
X100743489Y-135649271D01*
X101229670Y-135324415D01*
X101440000Y-135009634D01*
X101650330Y-135324415D01*
X102136511Y-135649271D01*
X102710000Y-135763345D01*
X103283489Y-135649271D01*
X103769670Y-135324415D01*
X103980000Y-135009634D01*
X104190330Y-135324415D01*
X104676511Y-135649271D01*
X105250000Y-135763345D01*
X105823489Y-135649271D01*
X106309670Y-135324415D01*
X106520000Y-135009634D01*
X106730330Y-135324415D01*
X107216511Y-135649271D01*
X107790000Y-135763345D01*
X108363489Y-135649271D01*
X108849670Y-135324415D01*
X109060000Y-135009634D01*
X109270330Y-135324415D01*
X109756511Y-135649271D01*
X110330000Y-135763345D01*
X110903489Y-135649271D01*
X111389670Y-135324415D01*
X111600000Y-135009634D01*
X111810330Y-135324415D01*
X112296511Y-135649271D01*
X112870000Y-135763345D01*
X113443489Y-135649271D01*
X113929670Y-135324415D01*
X114140000Y-135009634D01*
X114350330Y-135324415D01*
X114836511Y-135649271D01*
X115410000Y-135763345D01*
X115983489Y-135649271D01*
X116469670Y-135324415D01*
X116480215Y-135308632D01*
X116485937Y-135338123D01*
X116625727Y-135550927D01*
X116836760Y-135693377D01*
X117086400Y-135743440D01*
X118813600Y-135743440D01*
X119055723Y-135696463D01*
X119268527Y-135556673D01*
X119410977Y-135345640D01*
X119461040Y-135096000D01*
X119461040Y-133064000D01*
X119414063Y-132821877D01*
X119407135Y-132811331D01*
X119410977Y-132805640D01*
X119461040Y-132556000D01*
X119461040Y-130524000D01*
X119414063Y-130281877D01*
X119407135Y-130271331D01*
X119410977Y-130265640D01*
X119461040Y-130016000D01*
X119461040Y-127984000D01*
X119414063Y-127741877D01*
X119407135Y-127731331D01*
X119410977Y-127725640D01*
X119461040Y-127476000D01*
X119461040Y-125444000D01*
X119414063Y-125201877D01*
X119320000Y-125058683D01*
X119320000Y-109544648D01*
X119619670Y-109344415D01*
X119630215Y-109328632D01*
X119635937Y-109358123D01*
X119775727Y-109570927D01*
X119986760Y-109713377D01*
X120236400Y-109763440D01*
X121963600Y-109763440D01*
X122205723Y-109716463D01*
X122418527Y-109576673D01*
X122560977Y-109365640D01*
X122611040Y-109116000D01*
X122611040Y-108860000D01*
X125800000Y-108860000D01*
X126090839Y-108802148D01*
X126337401Y-108637401D01*
X129137401Y-105837401D01*
X129302148Y-105590839D01*
X129360000Y-105300000D01*
X129360000Y-104314802D01*
X130014802Y-103660000D01*
X130647518Y-103660000D01*
X130552041Y-104140000D01*
X130666115Y-104713489D01*
X130990971Y-105199670D01*
X131305751Y-105410000D01*
X130990971Y-105620330D01*
X130666115Y-106106511D01*
X130552041Y-106680000D01*
X130666115Y-107253489D01*
X130990971Y-107739670D01*
X131305751Y-107950000D01*
X130990971Y-108160330D01*
X130666115Y-108646511D01*
X130552041Y-109220000D01*
X130666115Y-109793489D01*
X130990971Y-110279670D01*
X131305751Y-110490000D01*
X130990971Y-110700330D01*
X130666115Y-111186511D01*
X130552041Y-111760000D01*
X130666115Y-112333489D01*
X130990971Y-112819670D01*
X131305751Y-113030000D01*
X130990971Y-113240330D01*
X130666115Y-113726511D01*
X130552041Y-114300000D01*
X130666115Y-114873489D01*
X130990971Y-115359670D01*
X131305751Y-115570000D01*
X130990971Y-115780330D01*
X130666115Y-116266511D01*
X130552041Y-116840000D01*
X130666115Y-117413489D01*
X130990971Y-117899670D01*
X131305751Y-118110000D01*
X130990971Y-118320330D01*
X130666115Y-118806511D01*
X130552041Y-119380000D01*
X130666115Y-119953489D01*
X130990971Y-120439670D01*
X131305751Y-120650000D01*
X130990971Y-120860330D01*
X130666115Y-121346511D01*
X130552041Y-121920000D01*
X130666115Y-122493489D01*
X130990971Y-122979670D01*
X131305751Y-123190000D01*
X130990971Y-123400330D01*
X130666115Y-123886511D01*
X130552041Y-124460000D01*
X130666115Y-125033489D01*
X130990971Y-125519670D01*
X131305751Y-125730000D01*
X130990971Y-125940330D01*
X130666115Y-126426511D01*
X130552041Y-127000000D01*
X130666115Y-127573489D01*
X130990971Y-128059670D01*
X131305751Y-128270000D01*
X130990971Y-128480330D01*
X130666115Y-128966511D01*
X130552041Y-129540000D01*
X130666115Y-130113489D01*
X130990971Y-130599670D01*
X131305751Y-130810000D01*
X130990971Y-131020330D01*
X130666115Y-131506511D01*
X130552041Y-132080000D01*
X130666115Y-132653489D01*
X130990971Y-133139670D01*
X131477152Y-133464526D01*
X132050641Y-133578600D01*
X132109359Y-133578600D01*
X132682848Y-133464526D01*
X133169029Y-133139670D01*
X133350000Y-132868827D01*
X133530971Y-133139670D01*
X134017152Y-133464526D01*
X134590641Y-133578600D01*
X134649359Y-133578600D01*
X135222848Y-133464526D01*
X135709029Y-133139670D01*
X135890000Y-132868827D01*
X136070971Y-133139670D01*
X136557152Y-133464526D01*
X137130641Y-133578600D01*
X137189359Y-133578600D01*
X137762848Y-133464526D01*
X138249029Y-133139670D01*
X138430000Y-132868827D01*
X138610971Y-133139670D01*
X139097152Y-133464526D01*
X139670641Y-133578600D01*
X139729359Y-133578600D01*
X140302848Y-133464526D01*
X140789029Y-133139670D01*
X141113885Y-132653489D01*
X141227959Y-132080000D01*
X141113885Y-131506511D01*
X140789029Y-131020330D01*
X140474248Y-130810000D01*
X140789029Y-130599670D01*
X141113885Y-130113489D01*
X141227959Y-129540000D01*
X141113885Y-128966511D01*
X140789029Y-128480330D01*
X140474248Y-128270000D01*
X140789029Y-128059670D01*
X141113885Y-127573489D01*
X141227959Y-127000000D01*
X141113885Y-126426511D01*
X140789029Y-125940330D01*
X140474248Y-125730000D01*
X140789029Y-125519670D01*
X141113885Y-125033489D01*
X141227959Y-124460000D01*
X141113885Y-123886511D01*
X140789029Y-123400330D01*
X140474248Y-123190000D01*
X140789029Y-122979670D01*
X141113885Y-122493489D01*
X141227959Y-121920000D01*
X141113885Y-121346511D01*
X140789029Y-120860330D01*
X140474248Y-120650000D01*
X140789029Y-120439670D01*
X141113885Y-119953489D01*
X141227959Y-119380000D01*
X141113885Y-118806511D01*
X140789029Y-118320330D01*
X140474248Y-118110000D01*
X140789029Y-117899670D01*
X141113885Y-117413489D01*
X141227959Y-116840000D01*
X141113885Y-116266511D01*
X140789029Y-115780330D01*
X140474248Y-115570000D01*
X140789029Y-115359670D01*
X141113885Y-114873489D01*
X141227959Y-114300000D01*
X141113885Y-113726511D01*
X140789029Y-113240330D01*
X140474248Y-113030000D01*
X140789029Y-112819670D01*
X141113885Y-112333489D01*
X141227959Y-111760000D01*
X141113885Y-111186511D01*
X140789029Y-110700330D01*
X140474248Y-110490000D01*
X140789029Y-110279670D01*
X141113885Y-109793489D01*
X141227959Y-109220000D01*
X141113885Y-108646511D01*
X140789029Y-108160330D01*
X140465771Y-107944336D01*
X140588490Y-107886821D01*
X140982688Y-107454947D01*
X141154958Y-107039026D01*
X141154958Y-106320974D01*
X140982688Y-105905053D01*
X140588490Y-105473179D01*
X140453687Y-105410000D01*
X140588490Y-105346821D01*
X140982688Y-104914947D01*
X141154958Y-104499026D01*
X141033817Y-104267000D01*
X139827000Y-104267000D01*
X139827000Y-105345531D01*
X139827000Y-105474469D01*
X139827000Y-106553000D01*
X141033817Y-106553000D01*
X141154958Y-106320974D01*
X141154958Y-107039026D01*
X141033817Y-106807000D01*
X139827000Y-106807000D01*
X139827000Y-106827000D01*
X139573000Y-106827000D01*
X139573000Y-106807000D01*
X139553000Y-106807000D01*
X139553000Y-106553000D01*
X139573000Y-106553000D01*
X139573000Y-105474469D01*
X139573000Y-105345531D01*
X139573000Y-104267000D01*
X138493817Y-104267000D01*
X138366183Y-104267000D01*
X137287000Y-104267000D01*
X137287000Y-104287000D01*
X137033000Y-104287000D01*
X137033000Y-104267000D01*
X137013000Y-104267000D01*
X137013000Y-104013000D01*
X137033000Y-104013000D01*
X137033000Y-103993000D01*
X137287000Y-103993000D01*
X137287000Y-104013000D01*
X138366183Y-104013000D01*
X138493817Y-104013000D01*
X139573000Y-104013000D01*
X139573000Y-103993000D01*
X139827000Y-103993000D01*
X139827000Y-104013000D01*
X141033817Y-104013000D01*
X141154958Y-103780974D01*
X140982688Y-103365053D01*
X140588490Y-102933179D01*
X140465771Y-102875663D01*
X140789029Y-102659670D01*
X141113885Y-102173489D01*
X141227959Y-101600000D01*
X141113885Y-101026511D01*
X140789029Y-100540330D01*
X140474248Y-100330000D01*
X140789029Y-100119670D01*
X141113885Y-99633489D01*
X141227959Y-99060000D01*
X141113885Y-98486511D01*
X140789029Y-98000330D01*
X140474248Y-97790000D01*
X140789029Y-97579670D01*
X141113885Y-97093489D01*
X141227959Y-96520000D01*
X141113885Y-95946511D01*
X140789029Y-95460330D01*
X140474248Y-95250000D01*
X140789029Y-95039670D01*
X141113885Y-94553489D01*
X141227959Y-93980000D01*
X141113885Y-93406511D01*
X140789029Y-92920330D01*
X140474248Y-92710000D01*
X140789029Y-92499670D01*
X141113885Y-92013489D01*
X141227959Y-91440000D01*
X141113885Y-90866511D01*
X140789029Y-90380330D01*
X140474248Y-90170000D01*
X140789029Y-89959670D01*
X141113885Y-89473489D01*
X141227959Y-88900000D01*
X141113885Y-88326511D01*
X140789029Y-87840330D01*
X140474248Y-87630000D01*
X140789029Y-87419670D01*
X141113885Y-86933489D01*
X141227959Y-86360000D01*
X141113885Y-85786511D01*
X140789029Y-85300330D01*
X140474248Y-85090000D01*
X140789029Y-84879670D01*
X141113885Y-84393489D01*
X141227959Y-83820000D01*
X141113885Y-83246511D01*
X140789029Y-82760330D01*
X140474248Y-82550000D01*
X140789029Y-82339670D01*
X141113885Y-81853489D01*
X141227959Y-81280000D01*
X141113885Y-80706511D01*
X140789029Y-80220330D01*
X140474248Y-80010000D01*
X140789029Y-79799670D01*
X141113885Y-79313489D01*
X141227959Y-78740000D01*
X141113885Y-78166511D01*
X140789029Y-77680330D01*
X140474248Y-77470000D01*
X140789029Y-77259670D01*
X141113885Y-76773489D01*
X141227959Y-76200000D01*
X141113885Y-75626511D01*
X140789029Y-75140330D01*
X140474248Y-74930000D01*
X140789029Y-74719670D01*
X141113885Y-74233489D01*
X141227959Y-73660000D01*
X141113885Y-73086511D01*
X140789029Y-72600330D01*
X140474248Y-72390000D01*
X140789029Y-72179670D01*
X141113885Y-71693489D01*
X141227959Y-71120000D01*
X141113885Y-70546511D01*
X140789029Y-70060330D01*
X140474248Y-69850000D01*
X140789029Y-69639670D01*
X141113885Y-69153489D01*
X141227959Y-68580000D01*
X141113885Y-68006511D01*
X140789029Y-67520330D01*
X140302848Y-67195474D01*
X139729359Y-67081400D01*
X139670641Y-67081400D01*
X139097152Y-67195474D01*
X138630470Y-67507300D01*
X138624063Y-67474277D01*
X138484273Y-67261473D01*
X138273240Y-67119023D01*
X138023600Y-67068960D01*
X136296400Y-67068960D01*
X136054277Y-67115937D01*
X135841473Y-67255727D01*
X135699023Y-67466760D01*
X135690731Y-67508104D01*
X135222848Y-67195474D01*
X134649359Y-67081400D01*
X134590641Y-67081400D01*
X134017152Y-67195474D01*
X133550470Y-67507300D01*
X133544063Y-67474277D01*
X133404273Y-67261473D01*
X133193240Y-67119023D01*
X132943600Y-67068960D01*
X131216400Y-67068960D01*
X130974277Y-67115937D01*
X130761473Y-67255727D01*
X130619023Y-67466760D01*
X130568960Y-67716400D01*
X130568960Y-69443600D01*
X130615937Y-69685723D01*
X130755727Y-69898527D01*
X130966760Y-70040977D01*
X131007659Y-70049179D01*
X130990971Y-70060330D01*
X130666115Y-70546511D01*
X130552041Y-71120000D01*
X130666115Y-71693489D01*
X130990971Y-72179670D01*
X131305751Y-72390000D01*
X130990971Y-72600330D01*
X130666115Y-73086511D01*
X130552041Y-73660000D01*
X130666115Y-74233489D01*
X130990971Y-74719670D01*
X131305751Y-74930000D01*
X130990971Y-75140330D01*
X130666115Y-75626511D01*
X130552041Y-76200000D01*
X130666115Y-76773489D01*
X130990971Y-77259670D01*
X131305751Y-77470000D01*
X130990971Y-77680330D01*
X130666115Y-78166511D01*
X130552041Y-78740000D01*
X130666115Y-79313489D01*
X130990971Y-79799670D01*
X131305751Y-80010000D01*
X130990971Y-80220330D01*
X130666115Y-80706511D01*
X130552041Y-81280000D01*
X130666115Y-81853489D01*
X130990971Y-82339670D01*
X131305751Y-82550000D01*
X130990971Y-82760330D01*
X130666115Y-83246511D01*
X130552041Y-83820000D01*
X130666115Y-84393489D01*
X130990971Y-84879670D01*
X131305751Y-85090000D01*
X130990971Y-85300330D01*
X130666115Y-85786511D01*
X130552041Y-86360000D01*
X130666115Y-86933489D01*
X130990971Y-87419670D01*
X131305751Y-87630000D01*
X130990971Y-87840330D01*
X130666115Y-88326511D01*
X130552041Y-88900000D01*
X130666115Y-89473489D01*
X130990971Y-89959670D01*
X131305751Y-90170000D01*
X130990971Y-90380330D01*
X130666115Y-90866511D01*
X130552041Y-91440000D01*
X130666115Y-92013489D01*
X130990971Y-92499670D01*
X131305751Y-92710000D01*
X130990971Y-92920330D01*
X130666115Y-93406511D01*
X130552041Y-93980000D01*
X130666115Y-94553489D01*
X130990971Y-95039670D01*
X131305751Y-95250000D01*
X130990971Y-95460330D01*
X130666115Y-95946511D01*
X130552041Y-96520000D01*
X130666115Y-97093489D01*
X130990971Y-97579670D01*
X131305751Y-97790000D01*
X130990971Y-98000330D01*
X130666115Y-98486511D01*
X130552041Y-99060000D01*
X130647518Y-99540000D01*
X127760000Y-99540000D01*
X127760000Y-96540000D01*
X127702148Y-96249161D01*
X127537401Y-96002599D01*
X119433158Y-87898356D01*
X119498600Y-87569359D01*
X119498600Y-87510641D01*
X119384526Y-86937152D01*
X119072699Y-86470470D01*
X119105723Y-86464063D01*
X119318527Y-86324273D01*
X119460977Y-86113240D01*
X119511040Y-85863600D01*
X119511040Y-84136400D01*
X119464063Y-83894277D01*
X119324273Y-83681473D01*
X119113240Y-83539023D01*
X118863600Y-83488960D01*
X117136400Y-83488960D01*
X116894277Y-83535937D01*
X116681473Y-83675727D01*
X116539023Y-83886760D01*
X116530820Y-83927659D01*
X116519670Y-83910971D01*
X116033489Y-83586115D01*
X115460000Y-83472041D01*
X114886511Y-83586115D01*
X114400330Y-83910971D01*
X114190000Y-84225751D01*
X113979670Y-83910971D01*
X113493489Y-83586115D01*
X112920000Y-83472041D01*
X112346511Y-83586115D01*
X111860330Y-83910971D01*
X111650000Y-84225751D01*
X111439670Y-83910971D01*
X110953489Y-83586115D01*
X110380000Y-83472041D01*
X109806511Y-83586115D01*
X109320330Y-83910971D01*
X109104336Y-84234228D01*
X109046821Y-84111510D01*
X108614947Y-83717312D01*
X108199026Y-83545042D01*
X107967000Y-83666183D01*
X107967000Y-84873000D01*
X107987000Y-84873000D01*
X107987000Y-85127000D01*
X107967000Y-85127000D01*
X107967000Y-85147000D01*
X107713000Y-85147000D01*
X107713000Y-85127000D01*
X107693000Y-85127000D01*
X107693000Y-84873000D01*
X107713000Y-84873000D01*
X107713000Y-83666183D01*
X107480974Y-83545042D01*
X107065053Y-83717312D01*
X106633179Y-84111510D01*
X106575663Y-84234228D01*
X106359670Y-83910971D01*
X105873489Y-83586115D01*
X105300000Y-83472041D01*
X104726511Y-83586115D01*
X104240330Y-83910971D01*
X104030000Y-84225751D01*
X103819670Y-83910971D01*
X103333489Y-83586115D01*
X102760000Y-83472041D01*
X102186511Y-83586115D01*
X101700330Y-83910971D01*
X101490000Y-84225751D01*
X101279670Y-83910971D01*
X100793489Y-83586115D01*
X100220000Y-83472041D01*
X99646511Y-83586115D01*
X99160330Y-83910971D01*
X98950000Y-84225751D01*
X98739670Y-83910971D01*
X98253489Y-83586115D01*
X97680000Y-83472041D01*
X97106511Y-83586115D01*
X96620330Y-83910971D01*
X96410000Y-84225751D01*
X96199670Y-83910971D01*
X96010000Y-83784237D01*
X96010000Y-82500000D01*
X95952148Y-82209161D01*
X95787401Y-81962599D01*
X90287401Y-76462599D01*
X90040839Y-76297852D01*
X89750000Y-76240000D01*
X76400000Y-76240000D01*
X76000000Y-76240000D01*
X75750000Y-76240000D01*
X68514802Y-76240000D01*
X60977401Y-68702599D01*
X60730839Y-68537852D01*
X60440000Y-68480000D01*
X57644648Y-68480000D01*
X57444415Y-68180330D01*
X57134930Y-67973539D01*
X57550732Y-67602036D01*
X57804709Y-67074791D01*
X57807358Y-67059026D01*
X57807358Y-66340974D01*
X57804709Y-66325209D01*
X57550732Y-65797964D01*
X57114320Y-65408046D01*
X56561913Y-65214816D01*
X56327000Y-65359076D01*
X56327000Y-66573000D01*
X57686217Y-66573000D01*
X57807358Y-66340974D01*
X57807358Y-67059026D01*
X57686217Y-66827000D01*
X56327000Y-66827000D01*
X56327000Y-66847000D01*
X56073000Y-66847000D01*
X56073000Y-66827000D01*
X56053000Y-66827000D01*
X56053000Y-66573000D01*
X56073000Y-66573000D01*
X56073000Y-65359076D01*
X55838087Y-65214816D01*
X55285680Y-65408046D01*
X54849268Y-65797964D01*
X54728427Y-66048822D01*
X50589803Y-61910197D01*
X50127000Y-61447395D01*
X50127000Y-56127000D01*
X59447395Y-56127000D01*
X62910197Y-59589803D01*
X63447395Y-60127000D01*
X84000000Y-60127000D01*
X127000000Y-60127000D01*
X127552605Y-60127000D01*
X131552605Y-56127000D01*
X143873000Y-56127000D01*
X143873000Y-68447395D01*
X143873000Y-68447395D01*
G37*
X143873000Y-68447395D02*
X142373000Y-69947395D01*
X142373000Y-70729096D01*
X142367143Y-70737862D01*
X142315000Y-71000000D01*
X142315000Y-132000000D01*
X142367143Y-132262138D01*
X142373000Y-132270903D01*
X142373000Y-134873000D01*
X130447395Y-134873000D01*
X124447395Y-140873000D01*
X93500000Y-140873000D01*
X92450901Y-140873000D01*
X86950901Y-145873000D01*
X50127000Y-145873000D01*
X50127000Y-85500000D01*
X50127000Y-85000000D01*
X50127000Y-84552605D01*
X54536560Y-80143045D01*
X54536560Y-80263600D01*
X54583537Y-80505723D01*
X54723327Y-80718527D01*
X54934360Y-80860977D01*
X55184000Y-80911040D01*
X57216000Y-80911040D01*
X57458123Y-80864063D01*
X57670927Y-80724273D01*
X57813377Y-80513240D01*
X57863440Y-80263600D01*
X57863440Y-80160000D01*
X60085198Y-80160000D01*
X63462599Y-83537401D01*
X63709161Y-83702148D01*
X64000000Y-83760000D01*
X68918285Y-83760000D01*
X68533179Y-84111510D01*
X68285032Y-84640973D01*
X68405531Y-84873000D01*
X69613000Y-84873000D01*
X69613000Y-84853000D01*
X69867000Y-84853000D01*
X69867000Y-84873000D01*
X69887000Y-84873000D01*
X69887000Y-85127000D01*
X69867000Y-85127000D01*
X69867000Y-85147000D01*
X69613000Y-85147000D01*
X69613000Y-85127000D01*
X68405531Y-85127000D01*
X68285032Y-85359027D01*
X68533179Y-85888490D01*
X68951160Y-86270007D01*
X68680330Y-86450971D01*
X68355474Y-86937152D01*
X68241400Y-87510641D01*
X68241400Y-87569359D01*
X68355474Y-88142848D01*
X68680330Y-88629029D01*
X69166511Y-88953885D01*
X69740000Y-89067959D01*
X70313489Y-88953885D01*
X70799670Y-88629029D01*
X71010000Y-88314248D01*
X71220330Y-88629029D01*
X71706511Y-88953885D01*
X72280000Y-89067959D01*
X72853489Y-88953885D01*
X73339670Y-88629029D01*
X73550000Y-88314248D01*
X73760330Y-88629029D01*
X74246511Y-88953885D01*
X74820000Y-89067959D01*
X75393489Y-88953885D01*
X75879670Y-88629029D01*
X76095663Y-88305771D01*
X76153179Y-88428490D01*
X76585053Y-88822688D01*
X77000974Y-88994958D01*
X77233000Y-88873817D01*
X77233000Y-87667000D01*
X77213000Y-87667000D01*
X77213000Y-87413000D01*
X77233000Y-87413000D01*
X77233000Y-87393000D01*
X77487000Y-87393000D01*
X77487000Y-87413000D01*
X77507000Y-87413000D01*
X77507000Y-87667000D01*
X77487000Y-87667000D01*
X77487000Y-88873817D01*
X77719026Y-88994958D01*
X78134947Y-88822688D01*
X78566821Y-88428490D01*
X78624336Y-88305771D01*
X78840330Y-88629029D01*
X79326511Y-88953885D01*
X79900000Y-89067959D01*
X80473489Y-88953885D01*
X80959670Y-88629029D01*
X81175663Y-88305771D01*
X81233179Y-88428490D01*
X81665053Y-88822688D01*
X82080974Y-88994958D01*
X82313000Y-88873817D01*
X82313000Y-87667000D01*
X82293000Y-87667000D01*
X82293000Y-87413000D01*
X82313000Y-87413000D01*
X82313000Y-87393000D01*
X82567000Y-87393000D01*
X82567000Y-87413000D01*
X82587000Y-87413000D01*
X82587000Y-87667000D01*
X82567000Y-87667000D01*
X82567000Y-88873817D01*
X82799026Y-88994958D01*
X83214947Y-88822688D01*
X83646821Y-88428490D01*
X83704336Y-88305771D01*
X83920330Y-88629029D01*
X84406511Y-88953885D01*
X84980000Y-89067959D01*
X85553489Y-88953885D01*
X86039670Y-88629029D01*
X86250000Y-88314248D01*
X86460330Y-88629029D01*
X86946511Y-88953885D01*
X87520000Y-89067959D01*
X88093489Y-88953885D01*
X88579670Y-88629029D01*
X88790000Y-88314248D01*
X89000330Y-88629029D01*
X89486511Y-88953885D01*
X90060000Y-89067959D01*
X90633489Y-88953885D01*
X91119670Y-88629029D01*
X91330000Y-88314248D01*
X91540330Y-88629029D01*
X92026511Y-88953885D01*
X92600000Y-89067959D01*
X93173489Y-88953885D01*
X93659670Y-88629029D01*
X93875663Y-88305771D01*
X93933179Y-88428490D01*
X94365053Y-88822688D01*
X94780974Y-88994958D01*
X95013000Y-88873817D01*
X95013000Y-87667000D01*
X94993000Y-87667000D01*
X94993000Y-87413000D01*
X95013000Y-87413000D01*
X95013000Y-87393000D01*
X95267000Y-87393000D01*
X95267000Y-87413000D01*
X95287000Y-87413000D01*
X95287000Y-87667000D01*
X95267000Y-87667000D01*
X95267000Y-88873817D01*
X95499026Y-88994958D01*
X95914947Y-88822688D01*
X96346821Y-88428490D01*
X96404336Y-88305771D01*
X96620330Y-88629029D01*
X97106511Y-88953885D01*
X97680000Y-89067959D01*
X98253489Y-88953885D01*
X98739670Y-88629029D01*
X98950000Y-88314248D01*
X99160330Y-88629029D01*
X99646511Y-88953885D01*
X100220000Y-89067959D01*
X100793489Y-88953885D01*
X101279670Y-88629029D01*
X101495663Y-88305771D01*
X101553179Y-88428490D01*
X101985053Y-88822688D01*
X102400974Y-88994958D01*
X102633000Y-88873817D01*
X102633000Y-87667000D01*
X102613000Y-87667000D01*
X102613000Y-87413000D01*
X102633000Y-87413000D01*
X102633000Y-87393000D01*
X102887000Y-87393000D01*
X102887000Y-87413000D01*
X102907000Y-87413000D01*
X102907000Y-87667000D01*
X102887000Y-87667000D01*
X102887000Y-88873817D01*
X103119026Y-88994958D01*
X103534947Y-88822688D01*
X103966821Y-88428490D01*
X104024336Y-88305771D01*
X104240330Y-88629029D01*
X104726511Y-88953885D01*
X105300000Y-89067959D01*
X105873489Y-88953885D01*
X106168298Y-88756899D01*
X101765198Y-93160000D01*
X57444648Y-93160000D01*
X57244415Y-92860330D01*
X56929634Y-92650000D01*
X57244415Y-92439670D01*
X57569271Y-91953489D01*
X57683345Y-91380000D01*
X57569271Y-90806511D01*
X57244415Y-90320330D01*
X56929634Y-90110000D01*
X57244415Y-89899670D01*
X57569271Y-89413489D01*
X57683345Y-88840000D01*
X57569271Y-88266511D01*
X57244415Y-87780330D01*
X56934930Y-87573539D01*
X57350732Y-87202036D01*
X57604709Y-86674791D01*
X57607358Y-86659026D01*
X57607358Y-85940974D01*
X57604709Y-85925209D01*
X57350732Y-85397964D01*
X56914320Y-85008046D01*
X56361913Y-84814816D01*
X56127000Y-84959076D01*
X56127000Y-86173000D01*
X57486217Y-86173000D01*
X57607358Y-85940974D01*
X57607358Y-86659026D01*
X57486217Y-86427000D01*
X56127000Y-86427000D01*
X56127000Y-86447000D01*
X55873000Y-86447000D01*
X55873000Y-86427000D01*
X55873000Y-86173000D01*
X55873000Y-84959076D01*
X55638087Y-84814816D01*
X55085680Y-85008046D01*
X54649268Y-85397964D01*
X54395291Y-85925209D01*
X54392642Y-85940974D01*
X54513783Y-86173000D01*
X55873000Y-86173000D01*
X55873000Y-86427000D01*
X54513783Y-86427000D01*
X54392642Y-86659026D01*
X54395291Y-86674791D01*
X54649268Y-87202036D01*
X55065069Y-87573539D01*
X54755585Y-87780330D01*
X54430729Y-88266511D01*
X54316655Y-88840000D01*
X54430729Y-89413489D01*
X54755585Y-89899670D01*
X55070365Y-90110000D01*
X54755585Y-90320330D01*
X54430729Y-90806511D01*
X54316655Y-91380000D01*
X54430729Y-91953489D01*
X54755585Y-92439670D01*
X55070365Y-92650000D01*
X54755585Y-92860330D01*
X54430729Y-93346511D01*
X54316655Y-93920000D01*
X54430729Y-94493489D01*
X54755585Y-94979670D01*
X55070365Y-95190000D01*
X54755585Y-95400330D01*
X54430729Y-95886511D01*
X54316655Y-96460000D01*
X54430729Y-97033489D01*
X54755585Y-97519670D01*
X54771367Y-97530215D01*
X54741877Y-97535937D01*
X54529073Y-97675727D01*
X54386623Y-97886760D01*
X54336560Y-98136400D01*
X54336560Y-99863600D01*
X54383537Y-100105723D01*
X54523327Y-100318527D01*
X54734360Y-100460977D01*
X54984000Y-100511040D01*
X57016000Y-100511040D01*
X57258123Y-100464063D01*
X57470927Y-100324273D01*
X57613377Y-100113240D01*
X57663440Y-99863600D01*
X57663440Y-98136400D01*
X57616463Y-97894277D01*
X57476673Y-97681473D01*
X57265640Y-97539023D01*
X57227037Y-97531281D01*
X57244415Y-97519670D01*
X57444648Y-97220000D01*
X102540000Y-97220000D01*
X102830839Y-97162148D01*
X103077401Y-96997401D01*
X110917401Y-89157401D01*
X111082148Y-88910840D01*
X111082148Y-88910839D01*
X111091994Y-88861338D01*
X111439670Y-88629029D01*
X111655663Y-88305771D01*
X111713179Y-88428490D01*
X112145053Y-88822688D01*
X112560974Y-88994958D01*
X112793000Y-88873817D01*
X112793000Y-87667000D01*
X112773000Y-87667000D01*
X112773000Y-87413000D01*
X112793000Y-87413000D01*
X112793000Y-87393000D01*
X113047000Y-87393000D01*
X113047000Y-87413000D01*
X113067000Y-87413000D01*
X113067000Y-87667000D01*
X113047000Y-87667000D01*
X113047000Y-88873817D01*
X113279026Y-88994958D01*
X113694947Y-88822688D01*
X114126821Y-88428490D01*
X114184336Y-88305771D01*
X114400330Y-88629029D01*
X114886511Y-88953885D01*
X115460000Y-89067959D01*
X116033489Y-88953885D01*
X116519670Y-88629029D01*
X116730000Y-88314248D01*
X116940330Y-88629029D01*
X117426511Y-88953885D01*
X118000000Y-89067959D01*
X118377973Y-88992775D01*
X126240000Y-96854802D01*
X126240000Y-99785198D01*
X125662599Y-100362599D01*
X125497852Y-100609161D01*
X125440000Y-100900000D01*
X125440000Y-101645503D01*
X125275345Y-101713538D01*
X124815154Y-102172927D01*
X124565794Y-102773453D01*
X124565226Y-103423694D01*
X124813538Y-104024655D01*
X125272927Y-104484846D01*
X125873453Y-104734206D01*
X126523694Y-104734774D01*
X127124655Y-104486462D01*
X127584846Y-104027073D01*
X127834206Y-103426547D01*
X127834774Y-102776306D01*
X127586462Y-102175345D01*
X127127073Y-101715154D01*
X126960000Y-101645779D01*
X126960000Y-101214802D01*
X127114802Y-101060000D01*
X130659453Y-101060000D01*
X130552041Y-101600000D01*
X130659453Y-102140000D01*
X129700000Y-102140000D01*
X129409161Y-102197852D01*
X129162599Y-102362599D01*
X128062599Y-103462599D01*
X127897852Y-103709161D01*
X127840000Y-104000000D01*
X127840000Y-104985198D01*
X125485198Y-107340000D01*
X122611040Y-107340000D01*
X122611040Y-107084000D01*
X122564063Y-106841877D01*
X122424273Y-106629073D01*
X122213240Y-106486623D01*
X121963600Y-106436560D01*
X120236400Y-106436560D01*
X119994277Y-106483537D01*
X119781473Y-106623327D01*
X119639023Y-106834360D01*
X119631281Y-106872962D01*
X119619670Y-106855585D01*
X119133489Y-106530729D01*
X118560000Y-106416655D01*
X117986511Y-106530729D01*
X117500330Y-106855585D01*
X117290000Y-107170365D01*
X117079670Y-106855585D01*
X116593489Y-106530729D01*
X116020000Y-106416655D01*
X115446511Y-106530729D01*
X114960330Y-106855585D01*
X114636654Y-107340000D01*
X113314802Y-107340000D01*
X111960000Y-105985198D01*
X111960000Y-104554496D01*
X112124655Y-104486462D01*
X112584846Y-104027073D01*
X112834206Y-103426547D01*
X112834774Y-102776306D01*
X112586462Y-102175345D01*
X112127073Y-101715154D01*
X111526547Y-101465794D01*
X110876306Y-101465226D01*
X110275345Y-101713538D01*
X109815154Y-102172927D01*
X109565794Y-102773453D01*
X109565226Y-103423694D01*
X109813538Y-104024655D01*
X110272927Y-104484846D01*
X110440000Y-104554220D01*
X110440000Y-106300000D01*
X110497852Y-106590839D01*
X110662599Y-106837401D01*
X112462599Y-108637401D01*
X112709160Y-108802148D01*
X112709161Y-108802148D01*
X112757413Y-108811746D01*
X113000000Y-108860000D01*
X114636654Y-108860000D01*
X114960330Y-109344415D01*
X115446511Y-109669271D01*
X116020000Y-109783345D01*
X116593489Y-109669271D01*
X117079670Y-109344415D01*
X117290000Y-109029634D01*
X117500330Y-109344415D01*
X117800000Y-109544648D01*
X117800000Y-124796560D01*
X117086400Y-124796560D01*
X116844277Y-124843537D01*
X116631473Y-124983327D01*
X116489023Y-125194360D01*
X116481281Y-125232962D01*
X116469670Y-125215585D01*
X115983489Y-124890729D01*
X115410000Y-124776655D01*
X114836511Y-124890729D01*
X114350330Y-125215585D01*
X114140000Y-125530365D01*
X113929670Y-125215585D01*
X113630000Y-125015351D01*
X113630000Y-124870000D01*
X113572148Y-124579161D01*
X113407401Y-124332599D01*
X112537401Y-123462599D01*
X111237401Y-122162599D01*
X110990839Y-121997852D01*
X110700000Y-121940000D01*
X110235162Y-121940000D01*
X110235162Y-111614833D01*
X110235162Y-107714833D01*
X110093117Y-107371057D01*
X110060000Y-107337882D01*
X110060000Y-105300000D01*
X110002148Y-105009161D01*
X109837401Y-104762599D01*
X108537401Y-103462599D01*
X108290839Y-103297852D01*
X108000000Y-103240000D01*
X107497440Y-103240000D01*
X107497440Y-103000000D01*
X107450463Y-102757877D01*
X107310673Y-102545073D01*
X107099640Y-102402623D01*
X106850000Y-102352560D01*
X105150000Y-102352560D01*
X104907877Y-102399537D01*
X104695073Y-102539327D01*
X104552623Y-102750360D01*
X104502560Y-103000000D01*
X104502560Y-103240000D01*
X103497440Y-103240000D01*
X103497440Y-103000000D01*
X103450463Y-102757877D01*
X103310673Y-102545073D01*
X103099640Y-102402623D01*
X102850000Y-102352560D01*
X101150000Y-102352560D01*
X100907877Y-102399537D01*
X100695073Y-102539327D01*
X100552623Y-102750360D01*
X100502560Y-103000000D01*
X100502560Y-103240000D01*
X99497440Y-103240000D01*
X99497440Y-103000000D01*
X99450463Y-102757877D01*
X99310673Y-102545073D01*
X99099640Y-102402623D01*
X98850000Y-102352560D01*
X97150000Y-102352560D01*
X96907877Y-102399537D01*
X96695073Y-102539327D01*
X96662453Y-102587651D01*
X96535122Y-102460320D01*
X96535162Y-102414833D01*
X96393117Y-102071057D01*
X96130327Y-101807808D01*
X95786799Y-101665162D01*
X95414833Y-101664838D01*
X95071057Y-101806883D01*
X94807808Y-102069673D01*
X94665162Y-102413201D01*
X94664838Y-102785167D01*
X94806883Y-103128943D01*
X95069673Y-103392192D01*
X95413201Y-103534838D01*
X95460076Y-103534878D01*
X96462599Y-104537401D01*
X96502560Y-104564102D01*
X96502560Y-105000000D01*
X96549537Y-105242123D01*
X96689327Y-105454927D01*
X96900360Y-105597377D01*
X97150000Y-105647440D01*
X98850000Y-105647440D01*
X99092123Y-105600463D01*
X99304927Y-105460673D01*
X99447377Y-105249640D01*
X99497440Y-105000000D01*
X99497440Y-104760000D01*
X100502560Y-104760000D01*
X100502560Y-105000000D01*
X100549537Y-105242123D01*
X100689327Y-105454927D01*
X100900360Y-105597377D01*
X101150000Y-105647440D01*
X102850000Y-105647440D01*
X103092123Y-105600463D01*
X103304927Y-105460673D01*
X103447377Y-105249640D01*
X103497440Y-105000000D01*
X103497440Y-104760000D01*
X104502560Y-104760000D01*
X104502560Y-105000000D01*
X104549537Y-105242123D01*
X104689327Y-105454927D01*
X104900360Y-105597377D01*
X105150000Y-105647440D01*
X106850000Y-105647440D01*
X107092123Y-105600463D01*
X107304927Y-105460673D01*
X107447377Y-105249640D01*
X107497440Y-105000000D01*
X107497440Y-104760000D01*
X107685198Y-104760000D01*
X108540000Y-105614802D01*
X108540000Y-107337537D01*
X108507808Y-107369673D01*
X108365162Y-107713201D01*
X108364838Y-108085167D01*
X108506883Y-108428943D01*
X108769673Y-108692192D01*
X109113201Y-108834838D01*
X109485167Y-108835162D01*
X109828943Y-108693117D01*
X110092192Y-108430327D01*
X110234838Y-108086799D01*
X110235162Y-107714833D01*
X110235162Y-111614833D01*
X110093117Y-111271057D01*
X109830327Y-111007808D01*
X109486799Y-110865162D01*
X109114833Y-110864838D01*
X108771057Y-111006883D01*
X108632698Y-111145000D01*
X106529802Y-111145000D01*
X106537401Y-111137401D01*
X106702148Y-110890839D01*
X106760000Y-110600000D01*
X106760000Y-109647440D01*
X106850000Y-109647440D01*
X107092123Y-109600463D01*
X107304927Y-109460673D01*
X107447377Y-109249640D01*
X107497440Y-109000000D01*
X107497440Y-107000000D01*
X107450463Y-106757877D01*
X107310673Y-106545073D01*
X107099640Y-106402623D01*
X106850000Y-106352560D01*
X105150000Y-106352560D01*
X104907877Y-106399537D01*
X104695073Y-106539327D01*
X104552623Y-106750360D01*
X104502560Y-107000000D01*
X104502560Y-109000000D01*
X104549537Y-109242123D01*
X104689327Y-109454927D01*
X104900360Y-109597377D01*
X105150000Y-109647440D01*
X105240000Y-109647440D01*
X105240000Y-110285198D01*
X104380198Y-111145000D01*
X103927623Y-111145000D01*
X104034838Y-110886799D01*
X104035162Y-110514833D01*
X103893117Y-110171057D01*
X103630327Y-109907808D01*
X103286799Y-109765162D01*
X102914833Y-109764838D01*
X102753755Y-109831393D01*
X102760000Y-109800000D01*
X102760000Y-109647440D01*
X102850000Y-109647440D01*
X103092123Y-109600463D01*
X103304927Y-109460673D01*
X103447377Y-109249640D01*
X103497440Y-109000000D01*
X103497440Y-107000000D01*
X103450463Y-106757877D01*
X103310673Y-106545073D01*
X103099640Y-106402623D01*
X102850000Y-106352560D01*
X101150000Y-106352560D01*
X100907877Y-106399537D01*
X100695073Y-106539327D01*
X100552623Y-106750360D01*
X100502560Y-107000000D01*
X100502560Y-109000000D01*
X100549537Y-109242123D01*
X100689327Y-109454927D01*
X100900360Y-109597377D01*
X101089825Y-109635372D01*
X100850198Y-109875000D01*
X98499802Y-109875000D01*
X98537401Y-109837401D01*
X98664328Y-109647440D01*
X98850000Y-109647440D01*
X99092123Y-109600463D01*
X99304927Y-109460673D01*
X99447377Y-109249640D01*
X99497440Y-109000000D01*
X99497440Y-107000000D01*
X99450463Y-106757877D01*
X99310673Y-106545073D01*
X99099640Y-106402623D01*
X98850000Y-106352560D01*
X97150000Y-106352560D01*
X96907877Y-106399537D01*
X96695073Y-106539327D01*
X96552623Y-106750360D01*
X96502560Y-107000000D01*
X96502560Y-108605000D01*
X95868083Y-108605000D01*
X95872377Y-108598640D01*
X95922440Y-108349000D01*
X95922440Y-107841000D01*
X95875463Y-107598877D01*
X95735673Y-107386073D01*
X95524640Y-107243623D01*
X95275000Y-107193560D01*
X94935000Y-107193560D01*
X94935000Y-104475000D01*
X94886746Y-104232413D01*
X94877148Y-104184161D01*
X94877148Y-104184160D01*
X94712401Y-103937599D01*
X94237401Y-103462599D01*
X94060440Y-103344357D01*
X94060440Y-102984000D01*
X94013463Y-102741877D01*
X93873673Y-102529073D01*
X93662640Y-102386623D01*
X93413000Y-102336560D01*
X91889000Y-102336560D01*
X91646877Y-102383537D01*
X91434073Y-102523327D01*
X91291623Y-102734360D01*
X91241560Y-102984000D01*
X91241560Y-105016000D01*
X91288537Y-105258123D01*
X91428327Y-105470927D01*
X91639360Y-105613377D01*
X91889000Y-105663440D01*
X93413000Y-105663440D01*
X93415000Y-105663051D01*
X93415000Y-107193560D01*
X93075000Y-107193560D01*
X92832877Y-107240537D01*
X92620073Y-107380327D01*
X92477623Y-107591360D01*
X92427560Y-107841000D01*
X92427560Y-108349000D01*
X92474537Y-108591123D01*
X92566025Y-108730396D01*
X92477623Y-108861360D01*
X92427560Y-109111000D01*
X92427560Y-109619000D01*
X92474537Y-109861123D01*
X92566025Y-110000396D01*
X92477623Y-110131360D01*
X92427560Y-110381000D01*
X92427560Y-110889000D01*
X92474537Y-111131123D01*
X92566025Y-111270396D01*
X92477623Y-111401360D01*
X92427560Y-111651000D01*
X92427560Y-112159000D01*
X92474537Y-112401123D01*
X92614327Y-112613927D01*
X92825360Y-112756377D01*
X93075000Y-112806440D01*
X95275000Y-112806440D01*
X95517123Y-112759463D01*
X95660925Y-112665000D01*
X104500000Y-112665000D01*
X104505000Y-112665000D01*
X104695000Y-112665000D01*
X108945013Y-112665000D01*
X109113201Y-112734838D01*
X109485167Y-112735162D01*
X109828943Y-112593117D01*
X110092192Y-112330327D01*
X110234838Y-111986799D01*
X110235162Y-111614833D01*
X110235162Y-121940000D01*
X99000000Y-121940000D01*
X90746000Y-121940000D01*
X90746000Y-105142310D01*
X90746000Y-104889691D01*
X90746000Y-104285750D01*
X90746000Y-103714250D01*
X90746000Y-103110309D01*
X90746000Y-102857690D01*
X90649327Y-102624301D01*
X90470698Y-102445673D01*
X90237309Y-102349000D01*
X89634750Y-102349000D01*
X89476000Y-102507750D01*
X89476000Y-103873000D01*
X90587250Y-103873000D01*
X90746000Y-103714250D01*
X90746000Y-104285750D01*
X90587250Y-104127000D01*
X89476000Y-104127000D01*
X89476000Y-105492250D01*
X89634750Y-105651000D01*
X90237309Y-105651000D01*
X90470698Y-105554327D01*
X90649327Y-105375699D01*
X90746000Y-105142310D01*
X90746000Y-121940000D01*
X89572440Y-121940000D01*
X89572440Y-112159000D01*
X89572440Y-111651000D01*
X89525463Y-111408877D01*
X89433974Y-111269603D01*
X89522377Y-111138640D01*
X89572440Y-110889000D01*
X89572440Y-110381000D01*
X89525463Y-110138877D01*
X89433974Y-109999603D01*
X89522377Y-109868640D01*
X89572440Y-109619000D01*
X89572440Y-109111000D01*
X89525463Y-108868877D01*
X89437323Y-108734701D01*
X89463327Y-108708698D01*
X89560000Y-108475309D01*
X89560000Y-108380750D01*
X89560000Y-107809250D01*
X89560000Y-107714691D01*
X89463327Y-107481302D01*
X89284699Y-107302673D01*
X89222000Y-107276702D01*
X89222000Y-105492250D01*
X89222000Y-104127000D01*
X89222000Y-103873000D01*
X89222000Y-102507750D01*
X89063250Y-102349000D01*
X88460691Y-102349000D01*
X88227302Y-102445673D01*
X88048673Y-102624301D01*
X87952000Y-102857690D01*
X87952000Y-103110309D01*
X87952000Y-103714250D01*
X88110750Y-103873000D01*
X89222000Y-103873000D01*
X89222000Y-104127000D01*
X88110750Y-104127000D01*
X87952000Y-104285750D01*
X87952000Y-104889691D01*
X87952000Y-105142310D01*
X88048673Y-105375699D01*
X88227302Y-105554327D01*
X88460691Y-105651000D01*
X89063250Y-105651000D01*
X89222000Y-105492250D01*
X89222000Y-107276702D01*
X89051310Y-107206000D01*
X88798691Y-107206000D01*
X88110750Y-107206000D01*
X87952000Y-107364750D01*
X87952000Y-107968000D01*
X89401250Y-107968000D01*
X89560000Y-107809250D01*
X89560000Y-108380750D01*
X89401250Y-108222000D01*
X87952000Y-108222000D01*
X87952000Y-108242000D01*
X87698000Y-108242000D01*
X87698000Y-108222000D01*
X87678000Y-108222000D01*
X87678000Y-107968000D01*
X87698000Y-107968000D01*
X87698000Y-107364750D01*
X87539250Y-107206000D01*
X86851309Y-107206000D01*
X86598690Y-107206000D01*
X86365301Y-107302673D01*
X86186673Y-107481302D01*
X86160000Y-107545696D01*
X86160000Y-105100000D01*
X86111746Y-104857413D01*
X86102148Y-104809161D01*
X86102148Y-104809160D01*
X85937401Y-104562599D01*
X85537401Y-104162599D01*
X85290839Y-103997852D01*
X85000000Y-103940000D01*
X84485798Y-103940000D01*
X84450463Y-103757877D01*
X84310673Y-103545073D01*
X84099640Y-103402623D01*
X83850000Y-103352560D01*
X83760000Y-103352560D01*
X83760000Y-103100000D01*
X83702148Y-102809161D01*
X83702147Y-102809160D01*
X83647480Y-102727345D01*
X83537401Y-102562599D01*
X83537401Y-102562598D01*
X82837401Y-101862599D01*
X82590839Y-101697852D01*
X82300000Y-101640000D01*
X80962462Y-101640000D01*
X80930327Y-101607808D01*
X80586799Y-101465162D01*
X80214833Y-101464838D01*
X79871057Y-101606883D01*
X79737707Y-101740000D01*
X78200000Y-101740000D01*
X77909161Y-101797852D01*
X77662599Y-101962599D01*
X77162599Y-102462599D01*
X76997852Y-102709161D01*
X76940000Y-103000000D01*
X76940000Y-103393304D01*
X76907877Y-103399537D01*
X76695073Y-103539327D01*
X76552623Y-103750360D01*
X76502560Y-104000000D01*
X76502560Y-106000000D01*
X76549537Y-106242123D01*
X76689327Y-106454927D01*
X76900360Y-106597377D01*
X77150000Y-106647440D01*
X78850000Y-106647440D01*
X79092123Y-106600463D01*
X79304927Y-106460673D01*
X79447377Y-106249640D01*
X79497440Y-106000000D01*
X79497440Y-104000000D01*
X79450463Y-103757877D01*
X79310673Y-103545073D01*
X79099640Y-103402623D01*
X78850000Y-103352560D01*
X78460000Y-103352560D01*
X78460000Y-103314802D01*
X78514802Y-103260000D01*
X79640000Y-103260000D01*
X79640000Y-107600000D01*
X79697852Y-107890839D01*
X79764919Y-107991213D01*
X79764838Y-108085167D01*
X79906883Y-108428943D01*
X80169673Y-108692192D01*
X80513201Y-108834838D01*
X80885167Y-108835162D01*
X81228943Y-108693117D01*
X81492192Y-108430327D01*
X81502560Y-108405358D01*
X81502560Y-110000000D01*
X81549537Y-110242123D01*
X81689327Y-110454927D01*
X81900360Y-110597377D01*
X82150000Y-110647440D01*
X82240000Y-110647440D01*
X82240000Y-111237885D01*
X82007808Y-111469673D01*
X81865162Y-111813201D01*
X81864838Y-112185167D01*
X82006883Y-112528943D01*
X82269673Y-112792192D01*
X82613201Y-112934838D01*
X82985167Y-112935162D01*
X83328943Y-112793117D01*
X83592192Y-112530327D01*
X83734838Y-112186799D01*
X83735065Y-111925351D01*
X83760000Y-111800000D01*
X83760000Y-111395000D01*
X86131916Y-111395000D01*
X86127623Y-111401360D01*
X86077560Y-111651000D01*
X86077560Y-112159000D01*
X86124537Y-112401123D01*
X86163999Y-112461198D01*
X85485198Y-113140000D01*
X80014802Y-113140000D01*
X79835122Y-112960320D01*
X79835162Y-112914833D01*
X79693117Y-112571057D01*
X79430327Y-112307808D01*
X79348726Y-112273924D01*
X78760000Y-111685198D01*
X78760000Y-110647440D01*
X78850000Y-110647440D01*
X79092123Y-110600463D01*
X79304927Y-110460673D01*
X79447377Y-110249640D01*
X79497440Y-110000000D01*
X79497440Y-108000000D01*
X79450463Y-107757877D01*
X79310673Y-107545073D01*
X79099640Y-107402623D01*
X78850000Y-107352560D01*
X77150000Y-107352560D01*
X76907877Y-107399537D01*
X76695073Y-107539327D01*
X76552623Y-107750360D01*
X76502560Y-108000000D01*
X76502560Y-110000000D01*
X76549537Y-110242123D01*
X76689327Y-110454927D01*
X76900360Y-110597377D01*
X77150000Y-110647440D01*
X77240000Y-110647440D01*
X77240000Y-112000000D01*
X77297852Y-112290839D01*
X77462599Y-112537401D01*
X77965051Y-113039853D01*
X77964838Y-113285167D01*
X78106883Y-113628943D01*
X78369673Y-113892192D01*
X78713201Y-114034838D01*
X78760076Y-114034878D01*
X79162599Y-114437401D01*
X79409161Y-114602148D01*
X79700000Y-114660000D01*
X85800000Y-114660000D01*
X86090839Y-114602148D01*
X86337401Y-114437401D01*
X87968362Y-112806440D01*
X88925000Y-112806440D01*
X89167123Y-112759463D01*
X89379927Y-112619673D01*
X89522377Y-112408640D01*
X89572440Y-112159000D01*
X89572440Y-121940000D01*
X85514801Y-121940000D01*
X73687401Y-110112599D01*
X73440839Y-109947852D01*
X73150000Y-109890000D01*
X71903762Y-109890000D01*
X71890673Y-109870073D01*
X71679640Y-109727623D01*
X71430000Y-109677560D01*
X70370000Y-109677560D01*
X70127877Y-109724537D01*
X69915073Y-109864327D01*
X69799433Y-110035640D01*
X69690673Y-109870073D01*
X69479640Y-109727623D01*
X69230000Y-109677560D01*
X68170000Y-109677560D01*
X67927877Y-109724537D01*
X67715073Y-109864327D01*
X67697743Y-109890000D01*
X67250000Y-109890000D01*
X66959161Y-109947852D01*
X66712599Y-110112599D01*
X60886730Y-115938467D01*
X60619634Y-115760000D01*
X60934415Y-115549670D01*
X61259271Y-115063489D01*
X61373345Y-114490000D01*
X61259271Y-113916511D01*
X60934415Y-113430330D01*
X60619634Y-113220000D01*
X60934415Y-113009670D01*
X61259271Y-112523489D01*
X61373345Y-111950000D01*
X61259271Y-111376511D01*
X60934415Y-110890330D01*
X60624930Y-110683539D01*
X61040732Y-110312036D01*
X61294709Y-109784791D01*
X61297358Y-109769026D01*
X61297358Y-109050974D01*
X61294709Y-109035209D01*
X61040732Y-108507964D01*
X60604320Y-108118046D01*
X60051913Y-107924816D01*
X59817000Y-108069076D01*
X59817000Y-109283000D01*
X61176217Y-109283000D01*
X61297358Y-109050974D01*
X61297358Y-109769026D01*
X61176217Y-109537000D01*
X59817000Y-109537000D01*
X59817000Y-109557000D01*
X59563000Y-109557000D01*
X59563000Y-109537000D01*
X59563000Y-109283000D01*
X59563000Y-108069076D01*
X59328087Y-107924816D01*
X58775680Y-108118046D01*
X58339268Y-108507964D01*
X58085291Y-109035209D01*
X58082642Y-109050974D01*
X58203783Y-109283000D01*
X59563000Y-109283000D01*
X59563000Y-109537000D01*
X58203783Y-109537000D01*
X58082642Y-109769026D01*
X58085291Y-109784791D01*
X58339268Y-110312036D01*
X58755069Y-110683539D01*
X58445585Y-110890330D01*
X58120729Y-111376511D01*
X58006655Y-111950000D01*
X58120729Y-112523489D01*
X58445585Y-113009670D01*
X58760365Y-113220000D01*
X58445585Y-113430330D01*
X58120729Y-113916511D01*
X58006655Y-114490000D01*
X58120729Y-115063489D01*
X58445585Y-115549670D01*
X58760365Y-115760000D01*
X58445585Y-115970330D01*
X58120729Y-116456511D01*
X58006655Y-117030000D01*
X58120729Y-117603489D01*
X58445585Y-118089670D01*
X58760365Y-118300000D01*
X58445585Y-118510330D01*
X58120729Y-118996511D01*
X58006655Y-119570000D01*
X58120729Y-120143489D01*
X58445585Y-120629670D01*
X58461367Y-120640215D01*
X58431877Y-120645937D01*
X58219073Y-120785727D01*
X58076623Y-120996760D01*
X58026560Y-121246400D01*
X58026560Y-122973600D01*
X58073537Y-123215723D01*
X58213327Y-123428527D01*
X58424360Y-123570977D01*
X58674000Y-123621040D01*
X60706000Y-123621040D01*
X60948123Y-123574063D01*
X61160927Y-123434273D01*
X61303377Y-123223240D01*
X61353440Y-122973600D01*
X61353440Y-121246400D01*
X61306463Y-121004277D01*
X61166673Y-120791473D01*
X60955640Y-120649023D01*
X60917037Y-120641281D01*
X60934415Y-120629670D01*
X61134648Y-120330000D01*
X64830000Y-120330000D01*
X65120839Y-120272148D01*
X65367401Y-120107401D01*
X65964802Y-119510000D01*
X67522560Y-119510000D01*
X67522560Y-120025000D01*
X67552144Y-120177478D01*
X67522560Y-120325000D01*
X67522560Y-120975000D01*
X67569537Y-121217123D01*
X67709327Y-121429927D01*
X67920360Y-121572377D01*
X67940000Y-121576315D01*
X67940000Y-122285197D01*
X67685197Y-122540000D01*
X67214802Y-122540000D01*
X66935122Y-122260320D01*
X66935162Y-122214833D01*
X66793117Y-121871057D01*
X66530327Y-121607808D01*
X66186799Y-121465162D01*
X65814833Y-121464838D01*
X65471057Y-121606883D01*
X65207808Y-121869673D01*
X65065162Y-122213201D01*
X65064838Y-122585167D01*
X65206883Y-122928943D01*
X65469673Y-123192192D01*
X65813201Y-123334838D01*
X65860076Y-123334878D01*
X66362599Y-123837401D01*
X66609160Y-124002148D01*
X66609161Y-124002148D01*
X66900000Y-124060000D01*
X68000000Y-124060000D01*
X68290839Y-124002148D01*
X68537401Y-123837401D01*
X69237401Y-123137402D01*
X69237401Y-123137401D01*
X69347480Y-122972655D01*
X69402147Y-122890840D01*
X69402148Y-122890839D01*
X69459999Y-122600000D01*
X69460000Y-122600000D01*
X69460000Y-121577815D01*
X69472123Y-121575463D01*
X69684927Y-121435673D01*
X69777940Y-121297878D01*
X69857509Y-121351044D01*
X69909327Y-121429927D01*
X70120360Y-121572377D01*
X70140000Y-121576315D01*
X70140000Y-122400000D01*
X70197852Y-122690839D01*
X70362599Y-122937401D01*
X71462599Y-124037401D01*
X71709161Y-124202148D01*
X72000000Y-124260000D01*
X73500000Y-124260000D01*
X73790839Y-124202148D01*
X74037401Y-124037401D01*
X74639679Y-123435122D01*
X74685167Y-123435162D01*
X75028943Y-123293117D01*
X75292192Y-123030327D01*
X75434838Y-122686799D01*
X75435162Y-122314833D01*
X75293117Y-121971057D01*
X75030327Y-121707808D01*
X74686799Y-121565162D01*
X74314833Y-121564838D01*
X73971057Y-121706883D01*
X73707808Y-121969673D01*
X73565162Y-122313201D01*
X73565121Y-122360076D01*
X73185198Y-122740000D01*
X72314802Y-122740000D01*
X71660000Y-122085198D01*
X71660000Y-121577815D01*
X71672123Y-121575463D01*
X71884927Y-121435673D01*
X72027377Y-121224640D01*
X72077440Y-120975000D01*
X72077440Y-120325000D01*
X72050522Y-120186262D01*
X72065000Y-120151310D01*
X72065000Y-119985750D01*
X71906250Y-119827000D01*
X71826862Y-119827000D01*
X71679640Y-119727623D01*
X71543746Y-119700370D01*
X71672123Y-119675463D01*
X71828103Y-119573000D01*
X71906250Y-119573000D01*
X71969250Y-119510000D01*
X75235198Y-119510000D01*
X80162599Y-124437401D01*
X80409161Y-124602148D01*
X80700000Y-124660000D01*
X98400000Y-124660000D01*
X98500000Y-124660000D01*
X105385198Y-124660000D01*
X105564388Y-124839190D01*
X105250000Y-124776655D01*
X104676511Y-124890729D01*
X104190330Y-125215585D01*
X103980000Y-125530365D01*
X103769670Y-125215585D01*
X103283489Y-124890729D01*
X102710000Y-124776655D01*
X102136511Y-124890729D01*
X101650330Y-125215585D01*
X101440000Y-125530365D01*
X101229670Y-125215585D01*
X100743489Y-124890729D01*
X100170000Y-124776655D01*
X99596511Y-124890729D01*
X99110330Y-125215585D01*
X98900000Y-125530365D01*
X98689670Y-125215585D01*
X98203489Y-124890729D01*
X97630000Y-124776655D01*
X97056511Y-124890729D01*
X96570330Y-125215585D01*
X96360000Y-125530365D01*
X96149670Y-125215585D01*
X95663489Y-124890729D01*
X95090000Y-124776655D01*
X94516511Y-124890729D01*
X94030330Y-125215585D01*
X93820000Y-125530365D01*
X93609670Y-125215585D01*
X93123489Y-124890729D01*
X92550000Y-124776655D01*
X91976511Y-124890729D01*
X91490330Y-125215585D01*
X91280000Y-125530365D01*
X91069670Y-125215585D01*
X90583489Y-124890729D01*
X90010000Y-124776655D01*
X89436511Y-124890729D01*
X88950330Y-125215585D01*
X88740000Y-125530365D01*
X88529670Y-125215585D01*
X88043489Y-124890729D01*
X87470000Y-124776655D01*
X86896511Y-124890729D01*
X86410330Y-125215585D01*
X86200000Y-125530365D01*
X85989670Y-125215585D01*
X85503489Y-124890729D01*
X84930000Y-124776655D01*
X84356511Y-124890729D01*
X83870330Y-125215585D01*
X83545474Y-125701766D01*
X83431400Y-126275255D01*
X83431400Y-126644745D01*
X83545474Y-127218234D01*
X83870330Y-127704415D01*
X83908620Y-127730000D01*
X83870330Y-127755585D01*
X83545474Y-128241766D01*
X83431400Y-128815255D01*
X83431400Y-129184745D01*
X83545474Y-129758234D01*
X83870330Y-130244415D01*
X83908620Y-130270000D01*
X83870330Y-130295585D01*
X83545474Y-130781766D01*
X83431400Y-131355255D01*
X83431400Y-131724745D01*
X83545474Y-132298234D01*
X83870330Y-132784415D01*
X83908620Y-132810000D01*
X83870330Y-132835585D01*
X83545474Y-133321766D01*
X83431400Y-133895255D01*
X83431400Y-134264745D01*
X83545474Y-134838234D01*
X83813925Y-135240000D01*
X79714802Y-135240000D01*
X74987401Y-130512599D01*
X74740839Y-130347852D01*
X74450000Y-130290000D01*
X71103762Y-130290000D01*
X71090673Y-130270073D01*
X70879640Y-130127623D01*
X70630000Y-130077560D01*
X69570000Y-130077560D01*
X69327877Y-130124537D01*
X69115073Y-130264327D01*
X68999433Y-130435640D01*
X68890673Y-130270073D01*
X68679640Y-130127623D01*
X68430000Y-130077560D01*
X67370000Y-130077560D01*
X67127877Y-130124537D01*
X66915073Y-130264327D01*
X66897743Y-130290000D01*
X66750000Y-130290000D01*
X66459160Y-130347852D01*
X66212599Y-130512599D01*
X61405198Y-135320000D01*
X61134648Y-135320000D01*
X60934415Y-135020330D01*
X60619634Y-134810000D01*
X60934415Y-134599670D01*
X61259271Y-134113489D01*
X61373345Y-133540000D01*
X61259271Y-132966511D01*
X60934415Y-132480330D01*
X60619634Y-132270000D01*
X60934415Y-132059670D01*
X61259271Y-131573489D01*
X61373345Y-131000000D01*
X61259271Y-130426511D01*
X60934415Y-129940330D01*
X60624930Y-129733539D01*
X61040732Y-129362036D01*
X61294709Y-128834791D01*
X61297358Y-128819026D01*
X61297358Y-128100974D01*
X61294709Y-128085209D01*
X61040732Y-127557964D01*
X60604320Y-127168046D01*
X60051913Y-126974816D01*
X59817000Y-127119076D01*
X59817000Y-128333000D01*
X61176217Y-128333000D01*
X61297358Y-128100974D01*
X61297358Y-128819026D01*
X61176217Y-128587000D01*
X59817000Y-128587000D01*
X59817000Y-128607000D01*
X59563000Y-128607000D01*
X59563000Y-128587000D01*
X59563000Y-128333000D01*
X59563000Y-127119076D01*
X59328087Y-126974816D01*
X58775680Y-127168046D01*
X58339268Y-127557964D01*
X58085291Y-128085209D01*
X58082642Y-128100974D01*
X58203783Y-128333000D01*
X59563000Y-128333000D01*
X59563000Y-128587000D01*
X58203783Y-128587000D01*
X58082642Y-128819026D01*
X58085291Y-128834791D01*
X58339268Y-129362036D01*
X58755069Y-129733539D01*
X58445585Y-129940330D01*
X58120729Y-130426511D01*
X58006655Y-131000000D01*
X58120729Y-131573489D01*
X58445585Y-132059670D01*
X58760365Y-132270000D01*
X58445585Y-132480330D01*
X58120729Y-132966511D01*
X58006655Y-133540000D01*
X58120729Y-134113489D01*
X58445585Y-134599670D01*
X58760365Y-134810000D01*
X58445585Y-135020330D01*
X58120729Y-135506511D01*
X58006655Y-136080000D01*
X58120729Y-136653489D01*
X58445585Y-137139670D01*
X58760365Y-137350000D01*
X58445585Y-137560330D01*
X58120729Y-138046511D01*
X58006655Y-138620000D01*
X58120729Y-139193489D01*
X58445585Y-139679670D01*
X58461367Y-139690215D01*
X58431877Y-139695937D01*
X58219073Y-139835727D01*
X58076623Y-140046760D01*
X58026560Y-140296400D01*
X58026560Y-142023600D01*
X58073537Y-142265723D01*
X58213327Y-142478527D01*
X58424360Y-142620977D01*
X58674000Y-142671040D01*
X60706000Y-142671040D01*
X60948123Y-142624063D01*
X61160927Y-142484273D01*
X61303377Y-142273240D01*
X61353440Y-142023600D01*
X61353440Y-140296400D01*
X61306463Y-140054277D01*
X61166673Y-139841473D01*
X60955640Y-139699023D01*
X60917037Y-139691281D01*
X60934415Y-139679670D01*
X61134648Y-139380000D01*
X66723530Y-139380000D01*
X66752144Y-139527478D01*
X66722560Y-139675000D01*
X66722560Y-140325000D01*
X66752144Y-140477478D01*
X66722560Y-140625000D01*
X66722560Y-141275000D01*
X66769537Y-141517123D01*
X66909327Y-141729927D01*
X67120360Y-141872377D01*
X67140000Y-141876315D01*
X67140000Y-142385198D01*
X67050000Y-142475198D01*
X66935122Y-142360320D01*
X66935162Y-142314833D01*
X66793117Y-141971057D01*
X66530327Y-141707808D01*
X66186799Y-141565162D01*
X65814833Y-141564838D01*
X65471057Y-141706883D01*
X65207808Y-141969673D01*
X65065162Y-142313201D01*
X65064838Y-142685167D01*
X65206883Y-143028943D01*
X65469673Y-143292192D01*
X65813201Y-143434838D01*
X65860076Y-143434878D01*
X66262599Y-143837401D01*
X66509161Y-144002148D01*
X66800000Y-144060000D01*
X67300000Y-144060000D01*
X67590839Y-144002148D01*
X67837401Y-143837401D01*
X68437401Y-143237401D01*
X68602148Y-142990839D01*
X68660000Y-142700000D01*
X68660000Y-141877815D01*
X68672123Y-141875463D01*
X68884927Y-141735673D01*
X69000566Y-141564359D01*
X69109327Y-141729927D01*
X69320360Y-141872377D01*
X69397246Y-141887795D01*
X69397852Y-141890839D01*
X69562599Y-142137401D01*
X70962599Y-143537401D01*
X71209161Y-143702148D01*
X71500000Y-143760000D01*
X73500000Y-143760000D01*
X73790839Y-143702148D01*
X74037401Y-143537401D01*
X74639679Y-142935122D01*
X74685167Y-142935162D01*
X75028943Y-142793117D01*
X75292192Y-142530327D01*
X75434838Y-142186799D01*
X75435162Y-141814833D01*
X75293117Y-141471057D01*
X75030327Y-141207808D01*
X74686799Y-141065162D01*
X74314833Y-141064838D01*
X73971057Y-141206883D01*
X73707808Y-141469673D01*
X73565162Y-141813201D01*
X73565121Y-141860076D01*
X73185198Y-142240000D01*
X71814802Y-142240000D01*
X71175820Y-141601018D01*
X71227377Y-141524640D01*
X71277440Y-141275000D01*
X71277440Y-140625000D01*
X71250522Y-140486262D01*
X71265000Y-140451310D01*
X71265000Y-140285750D01*
X71106250Y-140127000D01*
X71026862Y-140127000D01*
X70879640Y-140027623D01*
X70743746Y-140000370D01*
X70872123Y-139975463D01*
X71028103Y-139873000D01*
X71106250Y-139873000D01*
X71169250Y-139810000D01*
X76750000Y-139810000D01*
X77040839Y-139752148D01*
X77287401Y-139587401D01*
X79214802Y-137660000D01*
X97600000Y-137660000D01*
X97890839Y-137602148D01*
X98137401Y-137437401D01*
X99437401Y-136137401D01*
X99602148Y-135890839D01*
X99648155Y-135659543D01*
X100170000Y-135763345D01*
X100743489Y-135649271D01*
X101229670Y-135324415D01*
X101440000Y-135009634D01*
X101650330Y-135324415D01*
X102136511Y-135649271D01*
X102710000Y-135763345D01*
X103283489Y-135649271D01*
X103769670Y-135324415D01*
X103980000Y-135009634D01*
X104190330Y-135324415D01*
X104676511Y-135649271D01*
X105250000Y-135763345D01*
X105823489Y-135649271D01*
X106309670Y-135324415D01*
X106520000Y-135009634D01*
X106730330Y-135324415D01*
X107216511Y-135649271D01*
X107790000Y-135763345D01*
X108363489Y-135649271D01*
X108849670Y-135324415D01*
X109060000Y-135009634D01*
X109270330Y-135324415D01*
X109756511Y-135649271D01*
X110330000Y-135763345D01*
X110903489Y-135649271D01*
X111389670Y-135324415D01*
X111600000Y-135009634D01*
X111810330Y-135324415D01*
X112296511Y-135649271D01*
X112870000Y-135763345D01*
X113443489Y-135649271D01*
X113929670Y-135324415D01*
X114140000Y-135009634D01*
X114350330Y-135324415D01*
X114836511Y-135649271D01*
X115410000Y-135763345D01*
X115983489Y-135649271D01*
X116469670Y-135324415D01*
X116480215Y-135308632D01*
X116485937Y-135338123D01*
X116625727Y-135550927D01*
X116836760Y-135693377D01*
X117086400Y-135743440D01*
X118813600Y-135743440D01*
X119055723Y-135696463D01*
X119268527Y-135556673D01*
X119410977Y-135345640D01*
X119461040Y-135096000D01*
X119461040Y-133064000D01*
X119414063Y-132821877D01*
X119407135Y-132811331D01*
X119410977Y-132805640D01*
X119461040Y-132556000D01*
X119461040Y-130524000D01*
X119414063Y-130281877D01*
X119407135Y-130271331D01*
X119410977Y-130265640D01*
X119461040Y-130016000D01*
X119461040Y-127984000D01*
X119414063Y-127741877D01*
X119407135Y-127731331D01*
X119410977Y-127725640D01*
X119461040Y-127476000D01*
X119461040Y-125444000D01*
X119414063Y-125201877D01*
X119320000Y-125058683D01*
X119320000Y-109544648D01*
X119619670Y-109344415D01*
X119630215Y-109328632D01*
X119635937Y-109358123D01*
X119775727Y-109570927D01*
X119986760Y-109713377D01*
X120236400Y-109763440D01*
X121963600Y-109763440D01*
X122205723Y-109716463D01*
X122418527Y-109576673D01*
X122560977Y-109365640D01*
X122611040Y-109116000D01*
X122611040Y-108860000D01*
X125800000Y-108860000D01*
X126090839Y-108802148D01*
X126337401Y-108637401D01*
X129137401Y-105837401D01*
X129302148Y-105590839D01*
X129360000Y-105300000D01*
X129360000Y-104314802D01*
X130014802Y-103660000D01*
X130647518Y-103660000D01*
X130552041Y-104140000D01*
X130666115Y-104713489D01*
X130990971Y-105199670D01*
X131305751Y-105410000D01*
X130990971Y-105620330D01*
X130666115Y-106106511D01*
X130552041Y-106680000D01*
X130666115Y-107253489D01*
X130990971Y-107739670D01*
X131305751Y-107950000D01*
X130990971Y-108160330D01*
X130666115Y-108646511D01*
X130552041Y-109220000D01*
X130666115Y-109793489D01*
X130990971Y-110279670D01*
X131305751Y-110490000D01*
X130990971Y-110700330D01*
X130666115Y-111186511D01*
X130552041Y-111760000D01*
X130666115Y-112333489D01*
X130990971Y-112819670D01*
X131305751Y-113030000D01*
X130990971Y-113240330D01*
X130666115Y-113726511D01*
X130552041Y-114300000D01*
X130666115Y-114873489D01*
X130990971Y-115359670D01*
X131305751Y-115570000D01*
X130990971Y-115780330D01*
X130666115Y-116266511D01*
X130552041Y-116840000D01*
X130666115Y-117413489D01*
X130990971Y-117899670D01*
X131305751Y-118110000D01*
X130990971Y-118320330D01*
X130666115Y-118806511D01*
X130552041Y-119380000D01*
X130666115Y-119953489D01*
X130990971Y-120439670D01*
X131305751Y-120650000D01*
X130990971Y-120860330D01*
X130666115Y-121346511D01*
X130552041Y-121920000D01*
X130666115Y-122493489D01*
X130990971Y-122979670D01*
X131305751Y-123190000D01*
X130990971Y-123400330D01*
X130666115Y-123886511D01*
X130552041Y-124460000D01*
X130666115Y-125033489D01*
X130990971Y-125519670D01*
X131305751Y-125730000D01*
X130990971Y-125940330D01*
X130666115Y-126426511D01*
X130552041Y-127000000D01*
X130666115Y-127573489D01*
X130990971Y-128059670D01*
X131305751Y-128270000D01*
X130990971Y-128480330D01*
X130666115Y-128966511D01*
X130552041Y-129540000D01*
X130666115Y-130113489D01*
X130990971Y-130599670D01*
X131305751Y-130810000D01*
X130990971Y-131020330D01*
X130666115Y-131506511D01*
X130552041Y-132080000D01*
X130666115Y-132653489D01*
X130990971Y-133139670D01*
X131477152Y-133464526D01*
X132050641Y-133578600D01*
X132109359Y-133578600D01*
X132682848Y-133464526D01*
X133169029Y-133139670D01*
X133350000Y-132868827D01*
X133530971Y-133139670D01*
X134017152Y-133464526D01*
X134590641Y-133578600D01*
X134649359Y-133578600D01*
X135222848Y-133464526D01*
X135709029Y-133139670D01*
X135890000Y-132868827D01*
X136070971Y-133139670D01*
X136557152Y-133464526D01*
X137130641Y-133578600D01*
X137189359Y-133578600D01*
X137762848Y-133464526D01*
X138249029Y-133139670D01*
X138430000Y-132868827D01*
X138610971Y-133139670D01*
X139097152Y-133464526D01*
X139670641Y-133578600D01*
X139729359Y-133578600D01*
X140302848Y-133464526D01*
X140789029Y-133139670D01*
X141113885Y-132653489D01*
X141227959Y-132080000D01*
X141113885Y-131506511D01*
X140789029Y-131020330D01*
X140474248Y-130810000D01*
X140789029Y-130599670D01*
X141113885Y-130113489D01*
X141227959Y-129540000D01*
X141113885Y-128966511D01*
X140789029Y-128480330D01*
X140474248Y-128270000D01*
X140789029Y-128059670D01*
X141113885Y-127573489D01*
X141227959Y-127000000D01*
X141113885Y-126426511D01*
X140789029Y-125940330D01*
X140474248Y-125730000D01*
X140789029Y-125519670D01*
X141113885Y-125033489D01*
X141227959Y-124460000D01*
X141113885Y-123886511D01*
X140789029Y-123400330D01*
X140474248Y-123190000D01*
X140789029Y-122979670D01*
X141113885Y-122493489D01*
X141227959Y-121920000D01*
X141113885Y-121346511D01*
X140789029Y-120860330D01*
X140474248Y-120650000D01*
X140789029Y-120439670D01*
X141113885Y-119953489D01*
X141227959Y-119380000D01*
X141113885Y-118806511D01*
X140789029Y-118320330D01*
X140474248Y-118110000D01*
X140789029Y-117899670D01*
X141113885Y-117413489D01*
X141227959Y-116840000D01*
X141113885Y-116266511D01*
X140789029Y-115780330D01*
X140474248Y-115570000D01*
X140789029Y-115359670D01*
X141113885Y-114873489D01*
X141227959Y-114300000D01*
X141113885Y-113726511D01*
X140789029Y-113240330D01*
X140474248Y-113030000D01*
X140789029Y-112819670D01*
X141113885Y-112333489D01*
X141227959Y-111760000D01*
X141113885Y-111186511D01*
X140789029Y-110700330D01*
X140474248Y-110490000D01*
X140789029Y-110279670D01*
X141113885Y-109793489D01*
X141227959Y-109220000D01*
X141113885Y-108646511D01*
X140789029Y-108160330D01*
X140465771Y-107944336D01*
X140588490Y-107886821D01*
X140982688Y-107454947D01*
X141154958Y-107039026D01*
X141154958Y-106320974D01*
X140982688Y-105905053D01*
X140588490Y-105473179D01*
X140453687Y-105410000D01*
X140588490Y-105346821D01*
X140982688Y-104914947D01*
X141154958Y-104499026D01*
X141033817Y-104267000D01*
X139827000Y-104267000D01*
X139827000Y-105345531D01*
X139827000Y-105474469D01*
X139827000Y-106553000D01*
X141033817Y-106553000D01*
X141154958Y-106320974D01*
X141154958Y-107039026D01*
X141033817Y-106807000D01*
X139827000Y-106807000D01*
X139827000Y-106827000D01*
X139573000Y-106827000D01*
X139573000Y-106807000D01*
X139553000Y-106807000D01*
X139553000Y-106553000D01*
X139573000Y-106553000D01*
X139573000Y-105474469D01*
X139573000Y-105345531D01*
X139573000Y-104267000D01*
X138493817Y-104267000D01*
X138366183Y-104267000D01*
X137287000Y-104267000D01*
X137287000Y-104287000D01*
X137033000Y-104287000D01*
X137033000Y-104267000D01*
X137013000Y-104267000D01*
X137013000Y-104013000D01*
X137033000Y-104013000D01*
X137033000Y-103993000D01*
X137287000Y-103993000D01*
X137287000Y-104013000D01*
X138366183Y-104013000D01*
X138493817Y-104013000D01*
X139573000Y-104013000D01*
X139573000Y-103993000D01*
X139827000Y-103993000D01*
X139827000Y-104013000D01*
X141033817Y-104013000D01*
X141154958Y-103780974D01*
X140982688Y-103365053D01*
X140588490Y-102933179D01*
X140465771Y-102875663D01*
X140789029Y-102659670D01*
X141113885Y-102173489D01*
X141227959Y-101600000D01*
X141113885Y-101026511D01*
X140789029Y-100540330D01*
X140474248Y-100330000D01*
X140789029Y-100119670D01*
X141113885Y-99633489D01*
X141227959Y-99060000D01*
X141113885Y-98486511D01*
X140789029Y-98000330D01*
X140474248Y-97790000D01*
X140789029Y-97579670D01*
X141113885Y-97093489D01*
X141227959Y-96520000D01*
X141113885Y-95946511D01*
X140789029Y-95460330D01*
X140474248Y-95250000D01*
X140789029Y-95039670D01*
X141113885Y-94553489D01*
X141227959Y-93980000D01*
X141113885Y-93406511D01*
X140789029Y-92920330D01*
X140474248Y-92710000D01*
X140789029Y-92499670D01*
X141113885Y-92013489D01*
X141227959Y-91440000D01*
X141113885Y-90866511D01*
X140789029Y-90380330D01*
X140474248Y-90170000D01*
X140789029Y-89959670D01*
X141113885Y-89473489D01*
X141227959Y-88900000D01*
X141113885Y-88326511D01*
X140789029Y-87840330D01*
X140474248Y-87630000D01*
X140789029Y-87419670D01*
X141113885Y-86933489D01*
X141227959Y-86360000D01*
X141113885Y-85786511D01*
X140789029Y-85300330D01*
X140474248Y-85090000D01*
X140789029Y-84879670D01*
X141113885Y-84393489D01*
X141227959Y-83820000D01*
X141113885Y-83246511D01*
X140789029Y-82760330D01*
X140474248Y-82550000D01*
X140789029Y-82339670D01*
X141113885Y-81853489D01*
X141227959Y-81280000D01*
X141113885Y-80706511D01*
X140789029Y-80220330D01*
X140474248Y-80010000D01*
X140789029Y-79799670D01*
X141113885Y-79313489D01*
X141227959Y-78740000D01*
X141113885Y-78166511D01*
X140789029Y-77680330D01*
X140474248Y-77470000D01*
X140789029Y-77259670D01*
X141113885Y-76773489D01*
X141227959Y-76200000D01*
X141113885Y-75626511D01*
X140789029Y-75140330D01*
X140474248Y-74930000D01*
X140789029Y-74719670D01*
X141113885Y-74233489D01*
X141227959Y-73660000D01*
X141113885Y-73086511D01*
X140789029Y-72600330D01*
X140474248Y-72390000D01*
X140789029Y-72179670D01*
X141113885Y-71693489D01*
X141227959Y-71120000D01*
X141113885Y-70546511D01*
X140789029Y-70060330D01*
X140474248Y-69850000D01*
X140789029Y-69639670D01*
X141113885Y-69153489D01*
X141227959Y-68580000D01*
X141113885Y-68006511D01*
X140789029Y-67520330D01*
X140302848Y-67195474D01*
X139729359Y-67081400D01*
X139670641Y-67081400D01*
X139097152Y-67195474D01*
X138630470Y-67507300D01*
X138624063Y-67474277D01*
X138484273Y-67261473D01*
X138273240Y-67119023D01*
X138023600Y-67068960D01*
X136296400Y-67068960D01*
X136054277Y-67115937D01*
X135841473Y-67255727D01*
X135699023Y-67466760D01*
X135690731Y-67508104D01*
X135222848Y-67195474D01*
X134649359Y-67081400D01*
X134590641Y-67081400D01*
X134017152Y-67195474D01*
X133550470Y-67507300D01*
X133544063Y-67474277D01*
X133404273Y-67261473D01*
X133193240Y-67119023D01*
X132943600Y-67068960D01*
X131216400Y-67068960D01*
X130974277Y-67115937D01*
X130761473Y-67255727D01*
X130619023Y-67466760D01*
X130568960Y-67716400D01*
X130568960Y-69443600D01*
X130615937Y-69685723D01*
X130755727Y-69898527D01*
X130966760Y-70040977D01*
X131007659Y-70049179D01*
X130990971Y-70060330D01*
X130666115Y-70546511D01*
X130552041Y-71120000D01*
X130666115Y-71693489D01*
X130990971Y-72179670D01*
X131305751Y-72390000D01*
X130990971Y-72600330D01*
X130666115Y-73086511D01*
X130552041Y-73660000D01*
X130666115Y-74233489D01*
X130990971Y-74719670D01*
X131305751Y-74930000D01*
X130990971Y-75140330D01*
X130666115Y-75626511D01*
X130552041Y-76200000D01*
X130666115Y-76773489D01*
X130990971Y-77259670D01*
X131305751Y-77470000D01*
X130990971Y-77680330D01*
X130666115Y-78166511D01*
X130552041Y-78740000D01*
X130666115Y-79313489D01*
X130990971Y-79799670D01*
X131305751Y-80010000D01*
X130990971Y-80220330D01*
X130666115Y-80706511D01*
X130552041Y-81280000D01*
X130666115Y-81853489D01*
X130990971Y-82339670D01*
X131305751Y-82550000D01*
X130990971Y-82760330D01*
X130666115Y-83246511D01*
X130552041Y-83820000D01*
X130666115Y-84393489D01*
X130990971Y-84879670D01*
X131305751Y-85090000D01*
X130990971Y-85300330D01*
X130666115Y-85786511D01*
X130552041Y-86360000D01*
X130666115Y-86933489D01*
X130990971Y-87419670D01*
X131305751Y-87630000D01*
X130990971Y-87840330D01*
X130666115Y-88326511D01*
X130552041Y-88900000D01*
X130666115Y-89473489D01*
X130990971Y-89959670D01*
X131305751Y-90170000D01*
X130990971Y-90380330D01*
X130666115Y-90866511D01*
X130552041Y-91440000D01*
X130666115Y-92013489D01*
X130990971Y-92499670D01*
X131305751Y-92710000D01*
X130990971Y-92920330D01*
X130666115Y-93406511D01*
X130552041Y-93980000D01*
X130666115Y-94553489D01*
X130990971Y-95039670D01*
X131305751Y-95250000D01*
X130990971Y-95460330D01*
X130666115Y-95946511D01*
X130552041Y-96520000D01*
X130666115Y-97093489D01*
X130990971Y-97579670D01*
X131305751Y-97790000D01*
X130990971Y-98000330D01*
X130666115Y-98486511D01*
X130552041Y-99060000D01*
X130647518Y-99540000D01*
X127760000Y-99540000D01*
X127760000Y-96540000D01*
X127702148Y-96249161D01*
X127537401Y-96002599D01*
X119433158Y-87898356D01*
X119498600Y-87569359D01*
X119498600Y-87510641D01*
X119384526Y-86937152D01*
X119072699Y-86470470D01*
X119105723Y-86464063D01*
X119318527Y-86324273D01*
X119460977Y-86113240D01*
X119511040Y-85863600D01*
X119511040Y-84136400D01*
X119464063Y-83894277D01*
X119324273Y-83681473D01*
X119113240Y-83539023D01*
X118863600Y-83488960D01*
X117136400Y-83488960D01*
X116894277Y-83535937D01*
X116681473Y-83675727D01*
X116539023Y-83886760D01*
X116530820Y-83927659D01*
X116519670Y-83910971D01*
X116033489Y-83586115D01*
X115460000Y-83472041D01*
X114886511Y-83586115D01*
X114400330Y-83910971D01*
X114190000Y-84225751D01*
X113979670Y-83910971D01*
X113493489Y-83586115D01*
X112920000Y-83472041D01*
X112346511Y-83586115D01*
X111860330Y-83910971D01*
X111650000Y-84225751D01*
X111439670Y-83910971D01*
X110953489Y-83586115D01*
X110380000Y-83472041D01*
X109806511Y-83586115D01*
X109320330Y-83910971D01*
X109104336Y-84234228D01*
X109046821Y-84111510D01*
X108614947Y-83717312D01*
X108199026Y-83545042D01*
X107967000Y-83666183D01*
X107967000Y-84873000D01*
X107987000Y-84873000D01*
X107987000Y-85127000D01*
X107967000Y-85127000D01*
X107967000Y-85147000D01*
X107713000Y-85147000D01*
X107713000Y-85127000D01*
X107693000Y-85127000D01*
X107693000Y-84873000D01*
X107713000Y-84873000D01*
X107713000Y-83666183D01*
X107480974Y-83545042D01*
X107065053Y-83717312D01*
X106633179Y-84111510D01*
X106575663Y-84234228D01*
X106359670Y-83910971D01*
X105873489Y-83586115D01*
X105300000Y-83472041D01*
X104726511Y-83586115D01*
X104240330Y-83910971D01*
X104030000Y-84225751D01*
X103819670Y-83910971D01*
X103333489Y-83586115D01*
X102760000Y-83472041D01*
X102186511Y-83586115D01*
X101700330Y-83910971D01*
X101490000Y-84225751D01*
X101279670Y-83910971D01*
X100793489Y-83586115D01*
X100220000Y-83472041D01*
X99646511Y-83586115D01*
X99160330Y-83910971D01*
X98950000Y-84225751D01*
X98739670Y-83910971D01*
X98253489Y-83586115D01*
X97680000Y-83472041D01*
X97106511Y-83586115D01*
X96620330Y-83910971D01*
X96410000Y-84225751D01*
X96199670Y-83910971D01*
X96010000Y-83784237D01*
X96010000Y-82500000D01*
X95952148Y-82209161D01*
X95787401Y-81962599D01*
X90287401Y-76462599D01*
X90040839Y-76297852D01*
X89750000Y-76240000D01*
X76400000Y-76240000D01*
X76000000Y-76240000D01*
X75750000Y-76240000D01*
X68514802Y-76240000D01*
X60977401Y-68702599D01*
X60730839Y-68537852D01*
X60440000Y-68480000D01*
X57644648Y-68480000D01*
X57444415Y-68180330D01*
X57134930Y-67973539D01*
X57550732Y-67602036D01*
X57804709Y-67074791D01*
X57807358Y-67059026D01*
X57807358Y-66340974D01*
X57804709Y-66325209D01*
X57550732Y-65797964D01*
X57114320Y-65408046D01*
X56561913Y-65214816D01*
X56327000Y-65359076D01*
X56327000Y-66573000D01*
X57686217Y-66573000D01*
X57807358Y-66340974D01*
X57807358Y-67059026D01*
X57686217Y-66827000D01*
X56327000Y-66827000D01*
X56327000Y-66847000D01*
X56073000Y-66847000D01*
X56073000Y-66827000D01*
X56053000Y-66827000D01*
X56053000Y-66573000D01*
X56073000Y-66573000D01*
X56073000Y-65359076D01*
X55838087Y-65214816D01*
X55285680Y-65408046D01*
X54849268Y-65797964D01*
X54728427Y-66048822D01*
X50589803Y-61910197D01*
X50127000Y-61447395D01*
X50127000Y-56127000D01*
X59447395Y-56127000D01*
X62910197Y-59589803D01*
X63447395Y-60127000D01*
X84000000Y-60127000D01*
X127000000Y-60127000D01*
X127552605Y-60127000D01*
X131552605Y-56127000D01*
X143873000Y-56127000D01*
X143873000Y-68447395D01*
M02*
