G04 #@! TF.FileFunction,Legend,Top*
%FSLAX46Y46*%
G04 Gerber Fmt 4.6, Leading zero omitted, Abs format (unit mm)*
G04 Created by KiCad (PCBNEW (2015-04-08 BZR 5585)-product) date Thu 09 Apr 2015 06:27:39 PM CLST*
%MOMM*%
G01*
G04 APERTURE LIST*
%ADD10C,0.100000*%
%ADD11C,0.300000*%
%ADD12C,0.200000*%
%ADD13C,0.150000*%
G04 APERTURE END LIST*
D10*
D11*
X71321429Y-68492857D02*
X71821429Y-68492857D01*
X72035715Y-69278571D02*
X71321429Y-69278571D01*
X71321429Y-67778571D01*
X72035715Y-67778571D01*
X73321429Y-69278571D02*
X73321429Y-67778571D01*
X73321429Y-69207143D02*
X73178572Y-69278571D01*
X72892858Y-69278571D01*
X72750000Y-69207143D01*
X72678572Y-69135714D01*
X72607143Y-68992857D01*
X72607143Y-68564286D01*
X72678572Y-68421429D01*
X72750000Y-68350000D01*
X72892858Y-68278571D01*
X73178572Y-68278571D01*
X73321429Y-68350000D01*
X74035715Y-69278571D02*
X74035715Y-68278571D01*
X74035715Y-67778571D02*
X73964286Y-67850000D01*
X74035715Y-67921429D01*
X74107143Y-67850000D01*
X74035715Y-67778571D01*
X74035715Y-67921429D01*
X74678572Y-69207143D02*
X74821429Y-69278571D01*
X75107144Y-69278571D01*
X75250001Y-69207143D01*
X75321429Y-69064286D01*
X75321429Y-68992857D01*
X75250001Y-68850000D01*
X75107144Y-68778571D01*
X74892858Y-68778571D01*
X74750001Y-68707143D01*
X74678572Y-68564286D01*
X74678572Y-68492857D01*
X74750001Y-68350000D01*
X74892858Y-68278571D01*
X75107144Y-68278571D01*
X75250001Y-68350000D01*
X76178573Y-69278571D02*
X76035715Y-69207143D01*
X75964287Y-69135714D01*
X75892858Y-68992857D01*
X75892858Y-68564286D01*
X75964287Y-68421429D01*
X76035715Y-68350000D01*
X76178573Y-68278571D01*
X76392858Y-68278571D01*
X76535715Y-68350000D01*
X76607144Y-68421429D01*
X76678573Y-68564286D01*
X76678573Y-68992857D01*
X76607144Y-69135714D01*
X76535715Y-69207143D01*
X76392858Y-69278571D01*
X76178573Y-69278571D01*
X77321430Y-68278571D02*
X77321430Y-69278571D01*
X77321430Y-68421429D02*
X77392858Y-68350000D01*
X77535716Y-68278571D01*
X77750001Y-68278571D01*
X77892858Y-68350000D01*
X77964287Y-68492857D01*
X77964287Y-69278571D01*
X79178573Y-68492857D02*
X79392859Y-68564286D01*
X79464287Y-68635714D01*
X79535716Y-68778571D01*
X79535716Y-68992857D01*
X79464287Y-69135714D01*
X79392859Y-69207143D01*
X79250001Y-69278571D01*
X78678573Y-69278571D01*
X78678573Y-67778571D01*
X79178573Y-67778571D01*
X79321430Y-67850000D01*
X79392859Y-67921429D01*
X79464287Y-68064286D01*
X79464287Y-68207143D01*
X79392859Y-68350000D01*
X79321430Y-68421429D01*
X79178573Y-68492857D01*
X78678573Y-68492857D01*
X80178573Y-69278571D02*
X80178573Y-68278571D01*
X80178573Y-68564286D02*
X80250001Y-68421429D01*
X80321430Y-68350000D01*
X80464287Y-68278571D01*
X80607144Y-68278571D01*
X81107144Y-69278571D02*
X81107144Y-67778571D01*
X81250001Y-68707143D02*
X81678572Y-69278571D01*
X81678572Y-68278571D02*
X81107144Y-68850000D01*
X82107144Y-68278571D02*
X82678573Y-68278571D01*
X82321430Y-67778571D02*
X82321430Y-69064286D01*
X82392858Y-69207143D01*
X82535716Y-69278571D01*
X82678573Y-69278571D01*
X83678573Y-68492857D02*
X83892859Y-68564286D01*
X83964287Y-68635714D01*
X84035716Y-68778571D01*
X84035716Y-68992857D01*
X83964287Y-69135714D01*
X83892859Y-69207143D01*
X83750001Y-69278571D01*
X83178573Y-69278571D01*
X83178573Y-67778571D01*
X83678573Y-67778571D01*
X83821430Y-67850000D01*
X83892859Y-67921429D01*
X83964287Y-68064286D01*
X83964287Y-68207143D01*
X83892859Y-68350000D01*
X83821430Y-68421429D01*
X83678573Y-68492857D01*
X83178573Y-68492857D01*
X84678573Y-69278571D02*
X84678573Y-68278571D01*
X84678573Y-68564286D02*
X84750001Y-68421429D01*
X84821430Y-68350000D01*
X84964287Y-68278571D01*
X85107144Y-68278571D01*
X86250001Y-69278571D02*
X86250001Y-67778571D01*
X86250001Y-69207143D02*
X86107144Y-69278571D01*
X85821430Y-69278571D01*
X85678572Y-69207143D01*
X85607144Y-69135714D01*
X85535715Y-68992857D01*
X85535715Y-68564286D01*
X85607144Y-68421429D01*
X85678572Y-68350000D01*
X85821430Y-68278571D01*
X86107144Y-68278571D01*
X86250001Y-68350000D01*
X86607144Y-69421429D02*
X87750001Y-69421429D01*
X88107144Y-69278571D02*
X88107144Y-67778571D01*
X88678572Y-67778571D01*
X88821430Y-67850000D01*
X88892858Y-67921429D01*
X88964287Y-68064286D01*
X88964287Y-68278571D01*
X88892858Y-68421429D01*
X88821430Y-68492857D01*
X88678572Y-68564286D01*
X88107144Y-68564286D01*
X90464287Y-69135714D02*
X90392858Y-69207143D01*
X90178572Y-69278571D01*
X90035715Y-69278571D01*
X89821430Y-69207143D01*
X89678572Y-69064286D01*
X89607144Y-68921429D01*
X89535715Y-68635714D01*
X89535715Y-68421429D01*
X89607144Y-68135714D01*
X89678572Y-67992857D01*
X89821430Y-67850000D01*
X90035715Y-67778571D01*
X90178572Y-67778571D01*
X90392858Y-67850000D01*
X90464287Y-67921429D01*
X91892858Y-69278571D02*
X91035715Y-69278571D01*
X91464287Y-69278571D02*
X91464287Y-67778571D01*
X91321430Y-67992857D01*
X91178572Y-68135714D01*
X91035715Y-68207143D01*
X92821429Y-67778571D02*
X92964286Y-67778571D01*
X93107143Y-67850000D01*
X93178572Y-67921429D01*
X93250001Y-68064286D01*
X93321429Y-68350000D01*
X93321429Y-68707143D01*
X93250001Y-68992857D01*
X93178572Y-69135714D01*
X93107143Y-69207143D01*
X92964286Y-69278571D01*
X92821429Y-69278571D01*
X92678572Y-69207143D01*
X92607143Y-69135714D01*
X92535715Y-68992857D01*
X92464286Y-68707143D01*
X92464286Y-68350000D01*
X92535715Y-68064286D01*
X92607143Y-67921429D01*
X92678572Y-67850000D01*
X92821429Y-67778571D01*
X94607143Y-68278571D02*
X94607143Y-69278571D01*
X94250000Y-67707143D02*
X93892857Y-68778571D01*
X94821429Y-68778571D01*
X77321430Y-71250000D02*
X78035716Y-71250000D01*
X77178573Y-71678571D02*
X77678573Y-70178571D01*
X78178573Y-71678571D01*
X78678573Y-71678571D02*
X78678573Y-70178571D01*
X78678573Y-70750000D02*
X78821430Y-70678571D01*
X79107144Y-70678571D01*
X79250001Y-70750000D01*
X79321430Y-70821429D01*
X79392859Y-70964286D01*
X79392859Y-71392857D01*
X79321430Y-71535714D01*
X79250001Y-71607143D01*
X79107144Y-71678571D01*
X78821430Y-71678571D01*
X78678573Y-71607143D01*
X80035716Y-71678571D02*
X80035716Y-70678571D01*
X80035716Y-70964286D02*
X80107144Y-70821429D01*
X80178573Y-70750000D01*
X80321430Y-70678571D01*
X80464287Y-70678571D01*
X80964287Y-71678571D02*
X80964287Y-70678571D01*
X80964287Y-70178571D02*
X80892858Y-70250000D01*
X80964287Y-70321429D01*
X81035715Y-70250000D01*
X80964287Y-70178571D01*
X80964287Y-70321429D01*
X81892859Y-71678571D02*
X81750001Y-71607143D01*
X81678573Y-71464286D01*
X81678573Y-70178571D01*
X83535715Y-70321429D02*
X83607144Y-70250000D01*
X83750001Y-70178571D01*
X84107144Y-70178571D01*
X84250001Y-70250000D01*
X84321430Y-70321429D01*
X84392858Y-70464286D01*
X84392858Y-70607143D01*
X84321430Y-70821429D01*
X83464287Y-71678571D01*
X84392858Y-71678571D01*
X85321429Y-70178571D02*
X85464286Y-70178571D01*
X85607143Y-70250000D01*
X85678572Y-70321429D01*
X85750001Y-70464286D01*
X85821429Y-70750000D01*
X85821429Y-71107143D01*
X85750001Y-71392857D01*
X85678572Y-71535714D01*
X85607143Y-71607143D01*
X85464286Y-71678571D01*
X85321429Y-71678571D01*
X85178572Y-71607143D01*
X85107143Y-71535714D01*
X85035715Y-71392857D01*
X84964286Y-71107143D01*
X84964286Y-70750000D01*
X85035715Y-70464286D01*
X85107143Y-70321429D01*
X85178572Y-70250000D01*
X85321429Y-70178571D01*
X87250000Y-71678571D02*
X86392857Y-71678571D01*
X86821429Y-71678571D02*
X86821429Y-70178571D01*
X86678572Y-70392857D01*
X86535714Y-70535714D01*
X86392857Y-70607143D01*
X88607143Y-70178571D02*
X87892857Y-70178571D01*
X87821428Y-70892857D01*
X87892857Y-70821429D01*
X88035714Y-70750000D01*
X88392857Y-70750000D01*
X88535714Y-70821429D01*
X88607143Y-70892857D01*
X88678571Y-71035714D01*
X88678571Y-71392857D01*
X88607143Y-71535714D01*
X88535714Y-71607143D01*
X88392857Y-71678571D01*
X88035714Y-71678571D01*
X87892857Y-71607143D01*
X87821428Y-71535714D01*
X68535713Y-73078571D02*
X69107142Y-73078571D01*
X68749999Y-72578571D02*
X68749999Y-73864286D01*
X68821427Y-74007143D01*
X68964285Y-74078571D01*
X69107142Y-74078571D01*
X69821428Y-74078571D02*
X69678570Y-74007143D01*
X69607142Y-73935714D01*
X69535713Y-73792857D01*
X69535713Y-73364286D01*
X69607142Y-73221429D01*
X69678570Y-73150000D01*
X69821428Y-73078571D01*
X70035713Y-73078571D01*
X70178570Y-73150000D01*
X70249999Y-73221429D01*
X70321428Y-73364286D01*
X70321428Y-73792857D01*
X70249999Y-73935714D01*
X70178570Y-74007143D01*
X70035713Y-74078571D01*
X69821428Y-74078571D01*
X70964285Y-74078571D02*
X70964285Y-73078571D01*
X70964285Y-73221429D02*
X71035713Y-73150000D01*
X71178571Y-73078571D01*
X71392856Y-73078571D01*
X71535713Y-73150000D01*
X71607142Y-73292857D01*
X71607142Y-74078571D01*
X71607142Y-73292857D02*
X71678571Y-73150000D01*
X71821428Y-73078571D01*
X72035713Y-73078571D01*
X72178571Y-73150000D01*
X72249999Y-73292857D01*
X72249999Y-74078571D01*
X73607142Y-74078571D02*
X73607142Y-73292857D01*
X73535713Y-73150000D01*
X73392856Y-73078571D01*
X73107142Y-73078571D01*
X72964285Y-73150000D01*
X73607142Y-74007143D02*
X73464285Y-74078571D01*
X73107142Y-74078571D01*
X72964285Y-74007143D01*
X72892856Y-73864286D01*
X72892856Y-73721429D01*
X72964285Y-73578571D01*
X73107142Y-73507143D01*
X73464285Y-73507143D01*
X73607142Y-73435714D01*
X74249999Y-74007143D02*
X74392856Y-74078571D01*
X74678571Y-74078571D01*
X74821428Y-74007143D01*
X74892856Y-73864286D01*
X74892856Y-73792857D01*
X74821428Y-73650000D01*
X74678571Y-73578571D01*
X74464285Y-73578571D01*
X74321428Y-73507143D01*
X74249999Y-73364286D01*
X74249999Y-73292857D01*
X74321428Y-73150000D01*
X74464285Y-73078571D01*
X74678571Y-73078571D01*
X74821428Y-73150000D01*
X75535714Y-73935714D02*
X75607142Y-74007143D01*
X75535714Y-74078571D01*
X75464285Y-74007143D01*
X75535714Y-73935714D01*
X75535714Y-74078571D01*
X76464286Y-74078571D02*
X76321428Y-74007143D01*
X76250000Y-73935714D01*
X76178571Y-73792857D01*
X76178571Y-73364286D01*
X76250000Y-73221429D01*
X76321428Y-73150000D01*
X76464286Y-73078571D01*
X76678571Y-73078571D01*
X76821428Y-73150000D01*
X76892857Y-73221429D01*
X76964286Y-73364286D01*
X76964286Y-73792857D01*
X76892857Y-73935714D01*
X76821428Y-74007143D01*
X76678571Y-74078571D01*
X76464286Y-74078571D01*
X77607143Y-73078571D02*
X77607143Y-74578571D01*
X77607143Y-73150000D02*
X77750000Y-73078571D01*
X78035714Y-73078571D01*
X78178571Y-73150000D01*
X78250000Y-73221429D01*
X78321429Y-73364286D01*
X78321429Y-73792857D01*
X78250000Y-73935714D01*
X78178571Y-74007143D01*
X78035714Y-74078571D01*
X77750000Y-74078571D01*
X77607143Y-74007143D01*
X79607143Y-74078571D02*
X79607143Y-73292857D01*
X79535714Y-73150000D01*
X79392857Y-73078571D01*
X79107143Y-73078571D01*
X78964286Y-73150000D01*
X79607143Y-74007143D02*
X79464286Y-74078571D01*
X79107143Y-74078571D01*
X78964286Y-74007143D01*
X78892857Y-73864286D01*
X78892857Y-73721429D01*
X78964286Y-73578571D01*
X79107143Y-73507143D01*
X79464286Y-73507143D01*
X79607143Y-73435714D01*
X80178572Y-73078571D02*
X80964286Y-73078571D01*
X80178572Y-74078571D01*
X80964286Y-74078571D01*
X81750001Y-74078571D02*
X81607143Y-74007143D01*
X81535715Y-73935714D01*
X81464286Y-73792857D01*
X81464286Y-73364286D01*
X81535715Y-73221429D01*
X81607143Y-73150000D01*
X81750001Y-73078571D01*
X81964286Y-73078571D01*
X82107143Y-73150000D01*
X82178572Y-73221429D01*
X82250001Y-73364286D01*
X82250001Y-73792857D01*
X82178572Y-73935714D01*
X82107143Y-74007143D01*
X81964286Y-74078571D01*
X81750001Y-74078571D01*
X82892858Y-73935714D02*
X82964286Y-74007143D01*
X82892858Y-74078571D01*
X82821429Y-74007143D01*
X82892858Y-73935714D01*
X82892858Y-74078571D01*
X83392858Y-73078571D02*
X83964287Y-73078571D01*
X83607144Y-72578571D02*
X83607144Y-73864286D01*
X83678572Y-74007143D01*
X83821430Y-74078571D01*
X83964287Y-74078571D01*
X85392858Y-73364286D02*
X85321430Y-73292857D01*
X85178573Y-73221429D01*
X85035715Y-73221429D01*
X84892858Y-73292857D01*
X84821430Y-73364286D01*
X84750001Y-73507143D01*
X84750001Y-73650000D01*
X84821430Y-73792857D01*
X84892858Y-73864286D01*
X85035715Y-73935714D01*
X85178573Y-73935714D01*
X85321430Y-73864286D01*
X85392858Y-73792857D01*
X85392858Y-73221429D02*
X85392858Y-73792857D01*
X85464287Y-73864286D01*
X85535715Y-73864286D01*
X85678573Y-73792857D01*
X85750001Y-73650000D01*
X85750001Y-73292857D01*
X85607144Y-73078571D01*
X85392858Y-72935714D01*
X85107144Y-72864286D01*
X84821430Y-72935714D01*
X84607144Y-73078571D01*
X84464287Y-73292857D01*
X84392858Y-73578571D01*
X84464287Y-73864286D01*
X84607144Y-74078571D01*
X84821430Y-74221429D01*
X85107144Y-74292857D01*
X85392858Y-74221429D01*
X85607144Y-74078571D01*
X87035715Y-73078571D02*
X87035715Y-74292857D01*
X86964286Y-74435714D01*
X86892858Y-74507143D01*
X86750001Y-74578571D01*
X86535715Y-74578571D01*
X86392858Y-74507143D01*
X87035715Y-74007143D02*
X86892858Y-74078571D01*
X86607144Y-74078571D01*
X86464286Y-74007143D01*
X86392858Y-73935714D01*
X86321429Y-73792857D01*
X86321429Y-73364286D01*
X86392858Y-73221429D01*
X86464286Y-73150000D01*
X86607144Y-73078571D01*
X86892858Y-73078571D01*
X87035715Y-73150000D01*
X87750001Y-74078571D02*
X87750001Y-73078571D01*
X87750001Y-73221429D02*
X87821429Y-73150000D01*
X87964287Y-73078571D01*
X88178572Y-73078571D01*
X88321429Y-73150000D01*
X88392858Y-73292857D01*
X88392858Y-74078571D01*
X88392858Y-73292857D02*
X88464287Y-73150000D01*
X88607144Y-73078571D01*
X88821429Y-73078571D01*
X88964287Y-73150000D01*
X89035715Y-73292857D01*
X89035715Y-74078571D01*
X90392858Y-74078571D02*
X90392858Y-73292857D01*
X90321429Y-73150000D01*
X90178572Y-73078571D01*
X89892858Y-73078571D01*
X89750001Y-73150000D01*
X90392858Y-74007143D02*
X90250001Y-74078571D01*
X89892858Y-74078571D01*
X89750001Y-74007143D01*
X89678572Y-73864286D01*
X89678572Y-73721429D01*
X89750001Y-73578571D01*
X89892858Y-73507143D01*
X90250001Y-73507143D01*
X90392858Y-73435714D01*
X91107144Y-74078571D02*
X91107144Y-73078571D01*
X91107144Y-72578571D02*
X91035715Y-72650000D01*
X91107144Y-72721429D01*
X91178572Y-72650000D01*
X91107144Y-72578571D01*
X91107144Y-72721429D01*
X92035716Y-74078571D02*
X91892858Y-74007143D01*
X91821430Y-73864286D01*
X91821430Y-72578571D01*
X92607144Y-73935714D02*
X92678572Y-74007143D01*
X92607144Y-74078571D01*
X92535715Y-74007143D01*
X92607144Y-73935714D01*
X92607144Y-74078571D01*
X93964287Y-74007143D02*
X93821430Y-74078571D01*
X93535716Y-74078571D01*
X93392858Y-74007143D01*
X93321430Y-73935714D01*
X93250001Y-73792857D01*
X93250001Y-73364286D01*
X93321430Y-73221429D01*
X93392858Y-73150000D01*
X93535716Y-73078571D01*
X93821430Y-73078571D01*
X93964287Y-73150000D01*
X94821430Y-74078571D02*
X94678572Y-74007143D01*
X94607144Y-73935714D01*
X94535715Y-73792857D01*
X94535715Y-73364286D01*
X94607144Y-73221429D01*
X94678572Y-73150000D01*
X94821430Y-73078571D01*
X95035715Y-73078571D01*
X95178572Y-73150000D01*
X95250001Y-73221429D01*
X95321430Y-73364286D01*
X95321430Y-73792857D01*
X95250001Y-73935714D01*
X95178572Y-74007143D01*
X95035715Y-74078571D01*
X94821430Y-74078571D01*
X95964287Y-74078571D02*
X95964287Y-73078571D01*
X95964287Y-73221429D02*
X96035715Y-73150000D01*
X96178573Y-73078571D01*
X96392858Y-73078571D01*
X96535715Y-73150000D01*
X96607144Y-73292857D01*
X96607144Y-74078571D01*
X96607144Y-73292857D02*
X96678573Y-73150000D01*
X96821430Y-73078571D01*
X97035715Y-73078571D01*
X97178573Y-73150000D01*
X97250001Y-73292857D01*
X97250001Y-74078571D01*
D12*
X145000000Y-134000000D02*
X145000000Y-147000000D01*
X143000000Y-132000000D02*
X145000000Y-134000000D01*
X143000000Y-71000000D02*
X143000000Y-132000000D01*
X145000000Y-69000000D02*
X143000000Y-71000000D01*
X145000000Y-55000000D02*
X145000000Y-69000000D01*
X131000000Y-55000000D02*
X145000000Y-55000000D01*
X127000000Y-59000000D02*
X131000000Y-55000000D01*
X64000000Y-59000000D02*
X127000000Y-59000000D01*
X60000000Y-55000000D02*
X64000000Y-59000000D01*
X49000000Y-55000000D02*
X60000000Y-55000000D01*
X49000000Y-62000000D02*
X49000000Y-55000000D01*
X54000000Y-67000000D02*
X49000000Y-62000000D01*
X54000000Y-79000000D02*
X54000000Y-67000000D01*
X49000000Y-84000000D02*
X54000000Y-79000000D01*
X49000000Y-147000000D02*
X49000000Y-84000000D01*
X88000000Y-147000000D02*
X49000000Y-147000000D01*
X93000000Y-142000000D02*
X88000000Y-147000000D01*
X124000000Y-142000000D02*
X93000000Y-142000000D01*
X129000000Y-147000000D02*
X124000000Y-142000000D01*
X145000000Y-147000000D02*
X129000000Y-147000000D01*
D13*
X135890000Y-67310000D02*
X135890000Y-133350000D01*
X130810000Y-133350000D02*
X130810000Y-69850000D01*
X135890000Y-133350000D02*
X130810000Y-133350000D01*
X135890000Y-67310000D02*
X133350000Y-67310000D01*
X132080000Y-67030000D02*
X130530000Y-67030000D01*
X133350000Y-67310000D02*
X133350000Y-69850000D01*
X133350000Y-69850000D02*
X130810000Y-69850000D01*
X130530000Y-67030000D02*
X130530000Y-68580000D01*
X140970000Y-67310000D02*
X140970000Y-133350000D01*
X135890000Y-133350000D02*
X135890000Y-69850000D01*
X140970000Y-133350000D02*
X135890000Y-133350000D01*
X140970000Y-67310000D02*
X138430000Y-67310000D01*
X137160000Y-67030000D02*
X135610000Y-67030000D01*
X138430000Y-67310000D02*
X138430000Y-69850000D01*
X138430000Y-69850000D02*
X135890000Y-69850000D01*
X135610000Y-67030000D02*
X135610000Y-68580000D01*
X69850000Y-95250000D02*
X69850000Y-128270000D01*
X69850000Y-128270000D02*
X72390000Y-128270000D01*
X72390000Y-128270000D02*
X72390000Y-95250000D01*
X72670000Y-92430000D02*
X72670000Y-93980000D01*
X72390000Y-95250000D02*
X69850000Y-95250000D01*
X69570000Y-93980000D02*
X69570000Y-92430000D01*
X69570000Y-92430000D02*
X72670000Y-92430000D01*
X67310000Y-95250000D02*
X67310000Y-128270000D01*
X67310000Y-128270000D02*
X69850000Y-128270000D01*
X69850000Y-128270000D02*
X69850000Y-95250000D01*
X70130000Y-92430000D02*
X70130000Y-93980000D01*
X69850000Y-95250000D02*
X67310000Y-95250000D01*
X67030000Y-93980000D02*
X67030000Y-92430000D01*
X67030000Y-92430000D02*
X70130000Y-92430000D01*
X64770000Y-95250000D02*
X64770000Y-128270000D01*
X64770000Y-128270000D02*
X67310000Y-128270000D01*
X67310000Y-128270000D02*
X67310000Y-95250000D01*
X67590000Y-92430000D02*
X67590000Y-93980000D01*
X67310000Y-95250000D02*
X64770000Y-95250000D01*
X64490000Y-93980000D02*
X64490000Y-92430000D01*
X64490000Y-92430000D02*
X67590000Y-92430000D01*
X62230000Y-95250000D02*
X62230000Y-128270000D01*
X62230000Y-128270000D02*
X64770000Y-128270000D01*
X64770000Y-128270000D02*
X64770000Y-95250000D01*
X65050000Y-92430000D02*
X65050000Y-93980000D01*
X64770000Y-95250000D02*
X62230000Y-95250000D01*
X61950000Y-93980000D02*
X61950000Y-92430000D01*
X61950000Y-92430000D02*
X65050000Y-92430000D01*
X99060000Y-96520000D02*
X93980000Y-96520000D01*
X93980000Y-96520000D02*
X93980000Y-99060000D01*
X93980000Y-99060000D02*
X99060000Y-99060000D01*
X101880000Y-99340000D02*
X100330000Y-99340000D01*
X99060000Y-99060000D02*
X99060000Y-96520000D01*
X100330000Y-96240000D02*
X101880000Y-96240000D01*
X101880000Y-96240000D02*
X101880000Y-99340000D01*
X100330000Y-119380000D02*
X95250000Y-119380000D01*
X95250000Y-119380000D02*
X95250000Y-121920000D01*
X95250000Y-121920000D02*
X100330000Y-121920000D01*
X103150000Y-122200000D02*
X101600000Y-122200000D01*
X100330000Y-121920000D02*
X100330000Y-119380000D01*
X101600000Y-119100000D02*
X103150000Y-119100000D01*
X103150000Y-119100000D02*
X103150000Y-122200000D01*
X95825000Y-91785000D02*
X100275000Y-91785000D01*
X94300000Y-85035000D02*
X100275000Y-85035000D01*
X96825000Y-115635000D02*
X101275000Y-115635000D01*
X95300000Y-108885000D02*
X101275000Y-108885000D01*
X131318095Y-63932381D02*
X131318095Y-62932381D01*
X131318095Y-63408571D02*
X131889524Y-63408571D01*
X131889524Y-63932381D02*
X131889524Y-62932381D01*
X132889524Y-63932381D02*
X132318095Y-63932381D01*
X132603809Y-63932381D02*
X132603809Y-62932381D01*
X132508571Y-63075238D01*
X132413333Y-63170476D01*
X132318095Y-63218095D01*
X136398095Y-63932381D02*
X136398095Y-62932381D01*
X136398095Y-63408571D02*
X136969524Y-63408571D01*
X136969524Y-63932381D02*
X136969524Y-62932381D01*
X137398095Y-63027619D02*
X137445714Y-62980000D01*
X137540952Y-62932381D01*
X137779048Y-62932381D01*
X137874286Y-62980000D01*
X137921905Y-63027619D01*
X137969524Y-63122857D01*
X137969524Y-63218095D01*
X137921905Y-63360952D01*
X137350476Y-63932381D01*
X137969524Y-63932381D01*
X70310477Y-88332381D02*
X70310477Y-89046667D01*
X70262857Y-89189524D01*
X70167619Y-89284762D01*
X70024762Y-89332381D01*
X69929524Y-89332381D01*
X71310477Y-89332381D02*
X70739048Y-89332381D01*
X71024762Y-89332381D02*
X71024762Y-88332381D01*
X70929524Y-88475238D01*
X70834286Y-88570476D01*
X70739048Y-88618095D01*
X71643810Y-88332381D02*
X72310477Y-88332381D01*
X71881905Y-89332381D01*
X67770477Y-88332381D02*
X67770477Y-89046667D01*
X67722857Y-89189524D01*
X67627619Y-89284762D01*
X67484762Y-89332381D01*
X67389524Y-89332381D01*
X68770477Y-89332381D02*
X68199048Y-89332381D01*
X68484762Y-89332381D02*
X68484762Y-88332381D01*
X68389524Y-88475238D01*
X68294286Y-88570476D01*
X68199048Y-88618095D01*
X69341905Y-88760952D02*
X69246667Y-88713333D01*
X69199048Y-88665714D01*
X69151429Y-88570476D01*
X69151429Y-88522857D01*
X69199048Y-88427619D01*
X69246667Y-88380000D01*
X69341905Y-88332381D01*
X69532382Y-88332381D01*
X69627620Y-88380000D01*
X69675239Y-88427619D01*
X69722858Y-88522857D01*
X69722858Y-88570476D01*
X69675239Y-88665714D01*
X69627620Y-88713333D01*
X69532382Y-88760952D01*
X69341905Y-88760952D01*
X69246667Y-88808571D01*
X69199048Y-88856190D01*
X69151429Y-88951429D01*
X69151429Y-89141905D01*
X69199048Y-89237143D01*
X69246667Y-89284762D01*
X69341905Y-89332381D01*
X69532382Y-89332381D01*
X69627620Y-89284762D01*
X69675239Y-89237143D01*
X69722858Y-89141905D01*
X69722858Y-88951429D01*
X69675239Y-88856190D01*
X69627620Y-88808571D01*
X69532382Y-88760952D01*
X65230477Y-88332381D02*
X65230477Y-89046667D01*
X65182857Y-89189524D01*
X65087619Y-89284762D01*
X64944762Y-89332381D01*
X64849524Y-89332381D01*
X66230477Y-89332381D02*
X65659048Y-89332381D01*
X65944762Y-89332381D02*
X65944762Y-88332381D01*
X65849524Y-88475238D01*
X65754286Y-88570476D01*
X65659048Y-88618095D01*
X66706667Y-89332381D02*
X66897143Y-89332381D01*
X66992382Y-89284762D01*
X67040001Y-89237143D01*
X67135239Y-89094286D01*
X67182858Y-88903810D01*
X67182858Y-88522857D01*
X67135239Y-88427619D01*
X67087620Y-88380000D01*
X66992382Y-88332381D01*
X66801905Y-88332381D01*
X66706667Y-88380000D01*
X66659048Y-88427619D01*
X66611429Y-88522857D01*
X66611429Y-88760952D01*
X66659048Y-88856190D01*
X66706667Y-88903810D01*
X66801905Y-88951429D01*
X66992382Y-88951429D01*
X67087620Y-88903810D01*
X67135239Y-88856190D01*
X67182858Y-88760952D01*
X62690477Y-88332381D02*
X62690477Y-89046667D01*
X62642857Y-89189524D01*
X62547619Y-89284762D01*
X62404762Y-89332381D01*
X62309524Y-89332381D01*
X63119048Y-88427619D02*
X63166667Y-88380000D01*
X63261905Y-88332381D01*
X63500001Y-88332381D01*
X63595239Y-88380000D01*
X63642858Y-88427619D01*
X63690477Y-88522857D01*
X63690477Y-88618095D01*
X63642858Y-88760952D01*
X63071429Y-89332381D01*
X63690477Y-89332381D01*
X64309524Y-88332381D02*
X64404763Y-88332381D01*
X64500001Y-88380000D01*
X64547620Y-88427619D01*
X64595239Y-88522857D01*
X64642858Y-88713333D01*
X64642858Y-88951429D01*
X64595239Y-89141905D01*
X64547620Y-89237143D01*
X64500001Y-89284762D01*
X64404763Y-89332381D01*
X64309524Y-89332381D01*
X64214286Y-89284762D01*
X64166667Y-89237143D01*
X64119048Y-89141905D01*
X64071429Y-88951429D01*
X64071429Y-88713333D01*
X64119048Y-88522857D01*
X64166667Y-88427619D01*
X64214286Y-88380000D01*
X64309524Y-88332381D01*
X105882381Y-98528095D02*
X104882381Y-98528095D01*
X105882381Y-97956666D02*
X105310952Y-98385238D01*
X104882381Y-97956666D02*
X105453810Y-98528095D01*
X105882381Y-97004285D02*
X105882381Y-97575714D01*
X105882381Y-97290000D02*
X104882381Y-97290000D01*
X105025238Y-97385238D01*
X105120476Y-97480476D01*
X105168095Y-97575714D01*
X107152381Y-121388095D02*
X106152381Y-121388095D01*
X107152381Y-120816666D02*
X106580952Y-121245238D01*
X106152381Y-120816666D02*
X106723810Y-121388095D01*
X106247619Y-120435714D02*
X106200000Y-120388095D01*
X106152381Y-120292857D01*
X106152381Y-120054761D01*
X106200000Y-119959523D01*
X106247619Y-119911904D01*
X106342857Y-119864285D01*
X106438095Y-119864285D01*
X106580952Y-119911904D01*
X107152381Y-120483333D01*
X107152381Y-119864285D01*
X97288095Y-83562381D02*
X97288095Y-84371905D01*
X97335714Y-84467143D01*
X97383333Y-84514762D01*
X97478571Y-84562381D01*
X97669048Y-84562381D01*
X97764286Y-84514762D01*
X97811905Y-84467143D01*
X97859524Y-84371905D01*
X97859524Y-83562381D01*
X98859524Y-84562381D02*
X98288095Y-84562381D01*
X98573809Y-84562381D02*
X98573809Y-83562381D01*
X98478571Y-83705238D01*
X98383333Y-83800476D01*
X98288095Y-83848095D01*
X98288095Y-107412381D02*
X98288095Y-108221905D01*
X98335714Y-108317143D01*
X98383333Y-108364762D01*
X98478571Y-108412381D01*
X98669048Y-108412381D01*
X98764286Y-108364762D01*
X98811905Y-108317143D01*
X98859524Y-108221905D01*
X98859524Y-107412381D01*
X99288095Y-107507619D02*
X99335714Y-107460000D01*
X99430952Y-107412381D01*
X99669048Y-107412381D01*
X99764286Y-107460000D01*
X99811905Y-107507619D01*
X99859524Y-107602857D01*
X99859524Y-107698095D01*
X99811905Y-107840952D01*
X99240476Y-108412381D01*
X99859524Y-108412381D01*
M02*
