G04 #@! TF.FileFunction,Copper,L2,Bot,Signal*
%FSLAX46Y46*%
G04 Gerber Fmt 4.6, Leading zero omitted, Abs format (unit mm)*
G04 Created by KiCad (PCBNEW (2015-04-08 BZR 5585)-product) date Tue 26 Apr 2016 05:59:57 PM CLT*
%MOMM*%
G01*
G04 APERTURE LIST*
%ADD10C,0.100000*%
%ADD11R,1.727200X1.727200*%
%ADD12O,1.727200X1.727200*%
%ADD13R,1.727200X2.032000*%
%ADD14O,1.727200X2.032000*%
%ADD15C,1.998980*%
%ADD16R,2.032000X1.727200*%
%ADD17O,2.032000X1.727200*%
%ADD18C,0.600000*%
%ADD19C,0.250000*%
%ADD20C,0.254000*%
G04 APERTURE END LIST*
D10*
D11*
X132080000Y-68580000D03*
D12*
X134620000Y-68580000D03*
X132080000Y-71120000D03*
X134620000Y-71120000D03*
X132080000Y-73660000D03*
X134620000Y-73660000D03*
X132080000Y-76200000D03*
X134620000Y-76200000D03*
X132080000Y-78740000D03*
X134620000Y-78740000D03*
X132080000Y-81280000D03*
X134620000Y-81280000D03*
X132080000Y-83820000D03*
X134620000Y-83820000D03*
X132080000Y-86360000D03*
X134620000Y-86360000D03*
X132080000Y-88900000D03*
X134620000Y-88900000D03*
X132080000Y-91440000D03*
X134620000Y-91440000D03*
X132080000Y-93980000D03*
X134620000Y-93980000D03*
X132080000Y-96520000D03*
X134620000Y-96520000D03*
X132080000Y-99060000D03*
X134620000Y-99060000D03*
X132080000Y-101600000D03*
X134620000Y-101600000D03*
X132080000Y-104140000D03*
X134620000Y-104140000D03*
X132080000Y-106680000D03*
X134620000Y-106680000D03*
X132080000Y-109220000D03*
X134620000Y-109220000D03*
X132080000Y-111760000D03*
X134620000Y-111760000D03*
X132080000Y-114300000D03*
X134620000Y-114300000D03*
X132080000Y-116840000D03*
X134620000Y-116840000D03*
X132080000Y-119380000D03*
X134620000Y-119380000D03*
X132080000Y-121920000D03*
X134620000Y-121920000D03*
X132080000Y-124460000D03*
X134620000Y-124460000D03*
X132080000Y-127000000D03*
X134620000Y-127000000D03*
X132080000Y-129540000D03*
X134620000Y-129540000D03*
X132080000Y-132080000D03*
X134620000Y-132080000D03*
D11*
X137160000Y-68580000D03*
D12*
X139700000Y-68580000D03*
X137160000Y-71120000D03*
X139700000Y-71120000D03*
X137160000Y-73660000D03*
X139700000Y-73660000D03*
X137160000Y-76200000D03*
X139700000Y-76200000D03*
X137160000Y-78740000D03*
X139700000Y-78740000D03*
X137160000Y-81280000D03*
X139700000Y-81280000D03*
X137160000Y-83820000D03*
X139700000Y-83820000D03*
X137160000Y-86360000D03*
X139700000Y-86360000D03*
X137160000Y-88900000D03*
X139700000Y-88900000D03*
X137160000Y-91440000D03*
X139700000Y-91440000D03*
X137160000Y-93980000D03*
X139700000Y-93980000D03*
X137160000Y-96520000D03*
X139700000Y-96520000D03*
X137160000Y-99060000D03*
X139700000Y-99060000D03*
X137160000Y-101600000D03*
X139700000Y-101600000D03*
X137160000Y-104140000D03*
X139700000Y-104140000D03*
X137160000Y-106680000D03*
X139700000Y-106680000D03*
X137160000Y-109220000D03*
X139700000Y-109220000D03*
X137160000Y-111760000D03*
X139700000Y-111760000D03*
X137160000Y-114300000D03*
X139700000Y-114300000D03*
X137160000Y-116840000D03*
X139700000Y-116840000D03*
X137160000Y-119380000D03*
X139700000Y-119380000D03*
X137160000Y-121920000D03*
X139700000Y-121920000D03*
X137160000Y-124460000D03*
X139700000Y-124460000D03*
X137160000Y-127000000D03*
X139700000Y-127000000D03*
X137160000Y-129540000D03*
X139700000Y-129540000D03*
X137160000Y-132080000D03*
X139700000Y-132080000D03*
D13*
X117950000Y-134080000D03*
D14*
X115410000Y-134080000D03*
X112870000Y-134080000D03*
X110330000Y-134080000D03*
X107790000Y-134080000D03*
X105250000Y-134080000D03*
X102710000Y-134080000D03*
X100170000Y-134080000D03*
X97630000Y-134080000D03*
X95090000Y-134080000D03*
X92550000Y-134080000D03*
X90010000Y-134080000D03*
X87470000Y-134080000D03*
X84930000Y-134080000D03*
D13*
X117950000Y-131540000D03*
D14*
X115410000Y-131540000D03*
X112870000Y-131540000D03*
X110330000Y-131540000D03*
X107790000Y-131540000D03*
X105250000Y-131540000D03*
X102710000Y-131540000D03*
X100170000Y-131540000D03*
X97630000Y-131540000D03*
X95090000Y-131540000D03*
X92550000Y-131540000D03*
X90010000Y-131540000D03*
X87470000Y-131540000D03*
X84930000Y-131540000D03*
D13*
X117950000Y-129000000D03*
D14*
X115410000Y-129000000D03*
X112870000Y-129000000D03*
X110330000Y-129000000D03*
X107790000Y-129000000D03*
X105250000Y-129000000D03*
X102710000Y-129000000D03*
X100170000Y-129000000D03*
X97630000Y-129000000D03*
X95090000Y-129000000D03*
X92550000Y-129000000D03*
X90010000Y-129000000D03*
X87470000Y-129000000D03*
X84930000Y-129000000D03*
D13*
X117950000Y-126460000D03*
D14*
X115410000Y-126460000D03*
X112870000Y-126460000D03*
X110330000Y-126460000D03*
X107790000Y-126460000D03*
X105250000Y-126460000D03*
X102710000Y-126460000D03*
X100170000Y-126460000D03*
X97630000Y-126460000D03*
X95090000Y-126460000D03*
X92550000Y-126460000D03*
X90010000Y-126460000D03*
X87470000Y-126460000D03*
X84930000Y-126460000D03*
D13*
X121100000Y-108100000D03*
D14*
X118560000Y-108100000D03*
X116020000Y-108100000D03*
D15*
X126200000Y-103100000D03*
X111200000Y-103100000D03*
D16*
X59690000Y-141160000D03*
D17*
X59690000Y-138620000D03*
X59690000Y-136080000D03*
X59690000Y-133540000D03*
X59690000Y-131000000D03*
X59690000Y-128460000D03*
D16*
X59690000Y-122110000D03*
D17*
X59690000Y-119570000D03*
X59690000Y-117030000D03*
X59690000Y-114490000D03*
X59690000Y-111950000D03*
X59690000Y-109410000D03*
D16*
X56000000Y-99000000D03*
D17*
X56000000Y-96460000D03*
X56000000Y-93920000D03*
X56000000Y-91380000D03*
X56000000Y-88840000D03*
X56000000Y-86300000D03*
D16*
X56200000Y-79400000D03*
D17*
X56200000Y-76860000D03*
X56200000Y-74320000D03*
X56200000Y-71780000D03*
X56200000Y-69240000D03*
X56200000Y-66700000D03*
D11*
X118000000Y-85000000D03*
D12*
X118000000Y-87540000D03*
X115460000Y-85000000D03*
X115460000Y-87540000D03*
X112920000Y-85000000D03*
X112920000Y-87540000D03*
X110380000Y-85000000D03*
X110380000Y-87540000D03*
X107840000Y-85000000D03*
X107840000Y-87540000D03*
X105300000Y-85000000D03*
X105300000Y-87540000D03*
X102760000Y-85000000D03*
X102760000Y-87540000D03*
X100220000Y-85000000D03*
X100220000Y-87540000D03*
X97680000Y-85000000D03*
X97680000Y-87540000D03*
X95140000Y-85000000D03*
X95140000Y-87540000D03*
X92600000Y-85000000D03*
X92600000Y-87540000D03*
X90060000Y-85000000D03*
X90060000Y-87540000D03*
X87520000Y-85000000D03*
X87520000Y-87540000D03*
X84980000Y-85000000D03*
X84980000Y-87540000D03*
X82440000Y-85000000D03*
X82440000Y-87540000D03*
X79900000Y-85000000D03*
X79900000Y-87540000D03*
X77360000Y-85000000D03*
X77360000Y-87540000D03*
X74820000Y-85000000D03*
X74820000Y-87540000D03*
X72280000Y-85000000D03*
X72280000Y-87540000D03*
X69740000Y-85000000D03*
X69740000Y-87540000D03*
D18*
X73500000Y-115000000D03*
X80400000Y-102400000D03*
X74500000Y-122500000D03*
X74500000Y-135000000D03*
X74500000Y-142000000D03*
X80700000Y-107900000D03*
X73000000Y-112200000D03*
X72900000Y-120000000D03*
X72400000Y-132200000D03*
X72400000Y-140200000D03*
X78900000Y-113100000D03*
X109300000Y-111800000D03*
X82800000Y-112000000D03*
X103100000Y-110700000D03*
X109300000Y-107900000D03*
X95600000Y-102600000D03*
X66000000Y-114500000D03*
X66000000Y-122400000D03*
X66000000Y-134900000D03*
X66000000Y-142500000D03*
X85500000Y-81750000D03*
D19*
X115410000Y-129000000D02*
X115400000Y-129000000D01*
X73500000Y-115000000D02*
X74500000Y-114000000D01*
X74500000Y-104500000D02*
X76600000Y-102400000D01*
X74500000Y-114000000D02*
X74500000Y-104500000D01*
X76600000Y-102400000D02*
X80400000Y-102400000D01*
X74500000Y-114000000D02*
X74500000Y-122500000D01*
X74500000Y-122500000D02*
X74500000Y-135000000D01*
X74500000Y-135000000D02*
X74500000Y-142000000D01*
X91000000Y-118200000D02*
X80700000Y-107900000D01*
X115400000Y-129000000D02*
X114100000Y-127700000D01*
X114100000Y-127700000D02*
X114100000Y-124900000D01*
X114100000Y-124900000D02*
X112400000Y-123200000D01*
X112400000Y-123200000D02*
X101700000Y-123200000D01*
X101700000Y-123200000D02*
X96700000Y-118200000D01*
X96700000Y-118200000D02*
X92300000Y-118200000D01*
X92300000Y-118200000D02*
X91000000Y-118200000D01*
X73000000Y-112200000D02*
X73100000Y-112300000D01*
X73100000Y-112300000D02*
X73100000Y-113200000D01*
X72900000Y-120000000D02*
X73000000Y-120100000D01*
X73000000Y-120100000D02*
X73000000Y-121200000D01*
X72400000Y-132200000D02*
X72500000Y-132300000D01*
X72500000Y-132300000D02*
X72500000Y-133100000D01*
X72400000Y-140200000D02*
X72500000Y-140300000D01*
X72500000Y-140300000D02*
X72500000Y-141400000D01*
X111600000Y-136300000D02*
X111700000Y-136400000D01*
X111600000Y-130000000D02*
X111600000Y-136300000D01*
X112600000Y-129000000D02*
X111600000Y-130000000D01*
X112870000Y-129000000D02*
X112600000Y-129000000D01*
X79000000Y-113200000D02*
X78900000Y-113100000D01*
X87400000Y-121600000D02*
X79000000Y-113200000D01*
X95700000Y-121600000D02*
X87400000Y-121600000D01*
X98900000Y-124800000D02*
X95700000Y-121600000D01*
X98900000Y-132900000D02*
X98900000Y-124800000D01*
X100080000Y-134080000D02*
X98900000Y-132900000D01*
X100170000Y-134080000D02*
X100080000Y-134080000D01*
X115460000Y-85000000D02*
X115460000Y-85040000D01*
X115460000Y-85040000D02*
X114250000Y-86250000D01*
X109300000Y-110050000D02*
X109300000Y-111800000D01*
X108000000Y-108750000D02*
X109300000Y-110050000D01*
X108000000Y-102000000D02*
X108000000Y-108750000D01*
X114250000Y-95750000D02*
X108000000Y-102000000D01*
X114250000Y-86250000D02*
X114250000Y-95750000D01*
X125480000Y-119380000D02*
X117900000Y-111800000D01*
X117900000Y-111800000D02*
X109300000Y-111800000D01*
X132080000Y-119380000D02*
X125480000Y-119380000D01*
X105140000Y-131540000D02*
X105250000Y-131540000D01*
X104000000Y-130400000D02*
X105140000Y-131540000D01*
X104000000Y-125300000D02*
X104000000Y-130400000D01*
X102700000Y-124000000D02*
X104000000Y-125300000D01*
X100900000Y-124000000D02*
X102700000Y-124000000D01*
X96800000Y-119900000D02*
X100900000Y-124000000D01*
X90700000Y-119900000D02*
X96800000Y-119900000D01*
X82800000Y-112000000D02*
X90700000Y-119900000D01*
X112920000Y-85000000D02*
X112800000Y-85000000D01*
X112800000Y-85000000D02*
X111600000Y-86200000D01*
X111600000Y-86200000D02*
X111600000Y-90100000D01*
X111600000Y-90100000D02*
X111750000Y-90250000D01*
X103100000Y-110700000D02*
X103100000Y-102900000D01*
X111750000Y-94250000D02*
X111750000Y-90250000D01*
X103100000Y-102900000D02*
X111750000Y-94250000D01*
X103100000Y-110700000D02*
X105900000Y-113500000D01*
X105900000Y-113500000D02*
X116600000Y-113500000D01*
X116600000Y-113500000D02*
X125020000Y-121920000D01*
X125020000Y-121920000D02*
X132080000Y-121920000D01*
X109300000Y-107900000D02*
X110000000Y-108600000D01*
X110000000Y-108600000D02*
X112100000Y-108600000D01*
X112100000Y-108600000D02*
X112800000Y-107900000D01*
X112800000Y-107900000D02*
X112800000Y-106600000D01*
X112800000Y-106600000D02*
X113800000Y-105600000D01*
X113800000Y-105600000D02*
X120500000Y-105600000D01*
X120500000Y-105600000D02*
X121100000Y-106200000D01*
X121100000Y-106200000D02*
X121100000Y-108100000D01*
X95600000Y-102600000D02*
X94600000Y-101600000D01*
X94600000Y-101600000D02*
X76000000Y-101600000D01*
X76000000Y-101600000D02*
X66000000Y-111600000D01*
X66000000Y-111600000D02*
X66000000Y-114500000D01*
X66000000Y-114500000D02*
X66000000Y-122400000D01*
X66000000Y-122400000D02*
X66000000Y-134900000D01*
X66000000Y-134900000D02*
X66000000Y-142500000D01*
X134620000Y-96520000D02*
X134520000Y-96520000D01*
X86250000Y-86500000D02*
X87290000Y-87540000D01*
X86250000Y-82500000D02*
X86250000Y-86500000D01*
X85500000Y-81750000D02*
X86250000Y-82500000D01*
X87290000Y-87540000D02*
X87520000Y-87540000D01*
D20*
G36*
X111878183Y-130250246D02*
X111810330Y-130295585D01*
X111600000Y-130610365D01*
X111389670Y-130295585D01*
X111351379Y-130270000D01*
X111389670Y-130244415D01*
X111596460Y-129934930D01*
X111878183Y-130250246D01*
X111878183Y-130250246D01*
G37*
X111878183Y-130250246D02*
X111810330Y-130295585D01*
X111600000Y-130610365D01*
X111389670Y-130295585D01*
X111351379Y-130270000D01*
X111389670Y-130244415D01*
X111596460Y-129934930D01*
X111878183Y-130250246D01*
G36*
X113017000Y-129127000D02*
X112997000Y-129127000D01*
X112997000Y-129147000D01*
X112743000Y-129147000D01*
X112743000Y-129127000D01*
X112723000Y-129127000D01*
X112723000Y-128873000D01*
X112743000Y-128873000D01*
X112743000Y-128853000D01*
X112997000Y-128853000D01*
X112997000Y-128873000D01*
X113017000Y-128873000D01*
X113017000Y-129127000D01*
X113017000Y-129127000D01*
G37*
X113017000Y-129127000D02*
X112997000Y-129127000D01*
X112997000Y-129147000D01*
X112743000Y-129147000D01*
X112743000Y-129127000D01*
X112723000Y-129127000D01*
X112723000Y-128873000D01*
X112743000Y-128873000D01*
X112743000Y-128853000D01*
X112997000Y-128853000D01*
X112997000Y-128873000D01*
X113017000Y-128873000D01*
X113017000Y-129127000D01*
G36*
X131305751Y-120650000D02*
X130990971Y-120860330D01*
X130790737Y-121160000D01*
X125334802Y-121160000D01*
X117137401Y-112962599D01*
X116890839Y-112797852D01*
X116600000Y-112740000D01*
X106214802Y-112740000D01*
X104035122Y-110560320D01*
X104035162Y-110514833D01*
X103893117Y-110171057D01*
X103860000Y-110137882D01*
X103860000Y-103214802D01*
X112287401Y-94787401D01*
X112452148Y-94540840D01*
X112452148Y-94540839D01*
X112510000Y-94250000D01*
X112510000Y-90250000D01*
X112452148Y-89959161D01*
X112360000Y-89821251D01*
X112360000Y-88911716D01*
X112560974Y-88994958D01*
X112793000Y-88873817D01*
X112793000Y-87667000D01*
X112773000Y-87667000D01*
X112773000Y-87413000D01*
X112793000Y-87413000D01*
X112793000Y-87393000D01*
X113047000Y-87393000D01*
X113047000Y-87413000D01*
X113067000Y-87413000D01*
X113067000Y-87667000D01*
X113047000Y-87667000D01*
X113047000Y-88873817D01*
X113279026Y-88994958D01*
X113490000Y-88907574D01*
X113490000Y-95435198D01*
X107462599Y-101462599D01*
X107297852Y-101709161D01*
X107240000Y-102000000D01*
X107240000Y-108750000D01*
X107297852Y-109040839D01*
X107462599Y-109287401D01*
X108540000Y-110364802D01*
X108540000Y-111237537D01*
X108507808Y-111269673D01*
X108365162Y-111613201D01*
X108364838Y-111985167D01*
X108506883Y-112328943D01*
X108769673Y-112592192D01*
X109113201Y-112734838D01*
X109485167Y-112735162D01*
X109828943Y-112593117D01*
X109862117Y-112560000D01*
X117585198Y-112560000D01*
X124942599Y-119917401D01*
X125189161Y-120082148D01*
X125480000Y-120140000D01*
X130790737Y-120140000D01*
X130990971Y-120439670D01*
X131305751Y-120650000D01*
X131305751Y-120650000D01*
G37*
X131305751Y-120650000D02*
X130990971Y-120860330D01*
X130790737Y-121160000D01*
X125334802Y-121160000D01*
X117137401Y-112962599D01*
X116890839Y-112797852D01*
X116600000Y-112740000D01*
X106214802Y-112740000D01*
X104035122Y-110560320D01*
X104035162Y-110514833D01*
X103893117Y-110171057D01*
X103860000Y-110137882D01*
X103860000Y-103214802D01*
X112287401Y-94787401D01*
X112452148Y-94540840D01*
X112452148Y-94540839D01*
X112510000Y-94250000D01*
X112510000Y-90250000D01*
X112452148Y-89959161D01*
X112360000Y-89821251D01*
X112360000Y-88911716D01*
X112560974Y-88994958D01*
X112793000Y-88873817D01*
X112793000Y-87667000D01*
X112773000Y-87667000D01*
X112773000Y-87413000D01*
X112793000Y-87413000D01*
X112793000Y-87393000D01*
X113047000Y-87393000D01*
X113047000Y-87413000D01*
X113067000Y-87413000D01*
X113067000Y-87667000D01*
X113047000Y-87667000D01*
X113047000Y-88873817D01*
X113279026Y-88994958D01*
X113490000Y-88907574D01*
X113490000Y-95435198D01*
X107462599Y-101462599D01*
X107297852Y-101709161D01*
X107240000Y-102000000D01*
X107240000Y-108750000D01*
X107297852Y-109040839D01*
X107462599Y-109287401D01*
X108540000Y-110364802D01*
X108540000Y-111237537D01*
X108507808Y-111269673D01*
X108365162Y-111613201D01*
X108364838Y-111985167D01*
X108506883Y-112328943D01*
X108769673Y-112592192D01*
X109113201Y-112734838D01*
X109485167Y-112735162D01*
X109828943Y-112593117D01*
X109862117Y-112560000D01*
X117585198Y-112560000D01*
X124942599Y-119917401D01*
X125189161Y-120082148D01*
X125480000Y-120140000D01*
X130790737Y-120140000D01*
X130990971Y-120439670D01*
X131305751Y-120650000D01*
G36*
X143873000Y-68447395D02*
X142373000Y-69947395D01*
X142373000Y-70729096D01*
X142367143Y-70737862D01*
X142315000Y-71000000D01*
X142315000Y-132000000D01*
X142367143Y-132262138D01*
X142373000Y-132270903D01*
X142373000Y-134873000D01*
X141227959Y-134873000D01*
X141227959Y-132080000D01*
X141113885Y-131506511D01*
X140789029Y-131020330D01*
X140474248Y-130810000D01*
X140789029Y-130599670D01*
X141113885Y-130113489D01*
X141227959Y-129540000D01*
X141113885Y-128966511D01*
X140789029Y-128480330D01*
X140474248Y-128270000D01*
X140789029Y-128059670D01*
X141113885Y-127573489D01*
X141227959Y-127000000D01*
X141113885Y-126426511D01*
X140789029Y-125940330D01*
X140474248Y-125730000D01*
X140789029Y-125519670D01*
X141113885Y-125033489D01*
X141227959Y-124460000D01*
X141113885Y-123886511D01*
X140789029Y-123400330D01*
X140474248Y-123190000D01*
X140789029Y-122979670D01*
X141113885Y-122493489D01*
X141227959Y-121920000D01*
X141113885Y-121346511D01*
X140789029Y-120860330D01*
X140474248Y-120650000D01*
X140789029Y-120439670D01*
X141113885Y-119953489D01*
X141227959Y-119380000D01*
X141113885Y-118806511D01*
X140789029Y-118320330D01*
X140474248Y-118110000D01*
X140789029Y-117899670D01*
X141113885Y-117413489D01*
X141227959Y-116840000D01*
X141113885Y-116266511D01*
X140789029Y-115780330D01*
X140474248Y-115570000D01*
X140789029Y-115359670D01*
X141113885Y-114873489D01*
X141227959Y-114300000D01*
X141113885Y-113726511D01*
X140789029Y-113240330D01*
X140474248Y-113030000D01*
X140789029Y-112819670D01*
X141113885Y-112333489D01*
X141227959Y-111760000D01*
X141113885Y-111186511D01*
X140789029Y-110700330D01*
X140474248Y-110490000D01*
X140789029Y-110279670D01*
X141113885Y-109793489D01*
X141227959Y-109220000D01*
X141113885Y-108646511D01*
X140789029Y-108160330D01*
X140465771Y-107944336D01*
X140588490Y-107886821D01*
X140982688Y-107454947D01*
X141154958Y-107039026D01*
X141154958Y-106320974D01*
X140982688Y-105905053D01*
X140588490Y-105473179D01*
X140453687Y-105410000D01*
X140588490Y-105346821D01*
X140982688Y-104914947D01*
X141154958Y-104499026D01*
X141033817Y-104267000D01*
X139827000Y-104267000D01*
X139827000Y-105345531D01*
X139827000Y-105474469D01*
X139827000Y-106553000D01*
X141033817Y-106553000D01*
X141154958Y-106320974D01*
X141154958Y-107039026D01*
X141033817Y-106807000D01*
X139827000Y-106807000D01*
X139827000Y-106827000D01*
X139573000Y-106827000D01*
X139573000Y-106807000D01*
X139553000Y-106807000D01*
X139553000Y-106553000D01*
X139573000Y-106553000D01*
X139573000Y-105474469D01*
X139573000Y-105345531D01*
X139573000Y-104267000D01*
X138493817Y-104267000D01*
X138366183Y-104267000D01*
X137287000Y-104267000D01*
X137287000Y-104287000D01*
X137033000Y-104287000D01*
X137033000Y-104267000D01*
X137013000Y-104267000D01*
X137013000Y-104013000D01*
X137033000Y-104013000D01*
X137033000Y-103993000D01*
X137287000Y-103993000D01*
X137287000Y-104013000D01*
X138366183Y-104013000D01*
X138493817Y-104013000D01*
X139573000Y-104013000D01*
X139573000Y-103993000D01*
X139827000Y-103993000D01*
X139827000Y-104013000D01*
X141033817Y-104013000D01*
X141154958Y-103780974D01*
X140982688Y-103365053D01*
X140588490Y-102933179D01*
X140465771Y-102875663D01*
X140789029Y-102659670D01*
X141113885Y-102173489D01*
X141227959Y-101600000D01*
X141113885Y-101026511D01*
X140789029Y-100540330D01*
X140474248Y-100330000D01*
X140789029Y-100119670D01*
X141113885Y-99633489D01*
X141227959Y-99060000D01*
X141113885Y-98486511D01*
X140789029Y-98000330D01*
X140474248Y-97790000D01*
X140789029Y-97579670D01*
X141113885Y-97093489D01*
X141227959Y-96520000D01*
X141113885Y-95946511D01*
X140789029Y-95460330D01*
X140474248Y-95250000D01*
X140789029Y-95039670D01*
X141113885Y-94553489D01*
X141227959Y-93980000D01*
X141113885Y-93406511D01*
X140789029Y-92920330D01*
X140474248Y-92710000D01*
X140789029Y-92499670D01*
X141113885Y-92013489D01*
X141227959Y-91440000D01*
X141113885Y-90866511D01*
X140789029Y-90380330D01*
X140474248Y-90170000D01*
X140789029Y-89959670D01*
X141113885Y-89473489D01*
X141227959Y-88900000D01*
X141113885Y-88326511D01*
X140789029Y-87840330D01*
X140474248Y-87630000D01*
X140789029Y-87419670D01*
X141113885Y-86933489D01*
X141227959Y-86360000D01*
X141113885Y-85786511D01*
X140789029Y-85300330D01*
X140474248Y-85090000D01*
X140789029Y-84879670D01*
X141113885Y-84393489D01*
X141227959Y-83820000D01*
X141113885Y-83246511D01*
X140789029Y-82760330D01*
X140474248Y-82550000D01*
X140789029Y-82339670D01*
X141113885Y-81853489D01*
X141227959Y-81280000D01*
X141113885Y-80706511D01*
X140789029Y-80220330D01*
X140474248Y-80010000D01*
X140789029Y-79799670D01*
X141113885Y-79313489D01*
X141227959Y-78740000D01*
X141113885Y-78166511D01*
X140789029Y-77680330D01*
X140474248Y-77470000D01*
X140789029Y-77259670D01*
X141113885Y-76773489D01*
X141227959Y-76200000D01*
X141113885Y-75626511D01*
X140789029Y-75140330D01*
X140474248Y-74930000D01*
X140789029Y-74719670D01*
X141113885Y-74233489D01*
X141227959Y-73660000D01*
X141113885Y-73086511D01*
X140789029Y-72600330D01*
X140474248Y-72390000D01*
X140789029Y-72179670D01*
X141113885Y-71693489D01*
X141227959Y-71120000D01*
X141113885Y-70546511D01*
X140789029Y-70060330D01*
X140474248Y-69850000D01*
X140789029Y-69639670D01*
X141113885Y-69153489D01*
X141227959Y-68580000D01*
X141113885Y-68006511D01*
X140789029Y-67520330D01*
X140302848Y-67195474D01*
X139729359Y-67081400D01*
X139670641Y-67081400D01*
X139097152Y-67195474D01*
X138630470Y-67507300D01*
X138624063Y-67474277D01*
X138484273Y-67261473D01*
X138273240Y-67119023D01*
X138023600Y-67068960D01*
X136296400Y-67068960D01*
X136054277Y-67115937D01*
X135841473Y-67255727D01*
X135699023Y-67466760D01*
X135690731Y-67508104D01*
X135222848Y-67195474D01*
X134649359Y-67081400D01*
X134590641Y-67081400D01*
X134017152Y-67195474D01*
X133550470Y-67507300D01*
X133544063Y-67474277D01*
X133404273Y-67261473D01*
X133193240Y-67119023D01*
X132943600Y-67068960D01*
X131216400Y-67068960D01*
X130974277Y-67115937D01*
X130761473Y-67255727D01*
X130619023Y-67466760D01*
X130568960Y-67716400D01*
X130568960Y-69443600D01*
X130615937Y-69685723D01*
X130755727Y-69898527D01*
X130966760Y-70040977D01*
X131007659Y-70049179D01*
X130990971Y-70060330D01*
X130666115Y-70546511D01*
X130552041Y-71120000D01*
X130666115Y-71693489D01*
X130990971Y-72179670D01*
X131305751Y-72390000D01*
X130990971Y-72600330D01*
X130666115Y-73086511D01*
X130552041Y-73660000D01*
X130666115Y-74233489D01*
X130990971Y-74719670D01*
X131305751Y-74930000D01*
X130990971Y-75140330D01*
X130666115Y-75626511D01*
X130552041Y-76200000D01*
X130666115Y-76773489D01*
X130990971Y-77259670D01*
X131305751Y-77470000D01*
X130990971Y-77680330D01*
X130666115Y-78166511D01*
X130552041Y-78740000D01*
X130666115Y-79313489D01*
X130990971Y-79799670D01*
X131305751Y-80010000D01*
X130990971Y-80220330D01*
X130666115Y-80706511D01*
X130552041Y-81280000D01*
X130666115Y-81853489D01*
X130990971Y-82339670D01*
X131305751Y-82550000D01*
X130990971Y-82760330D01*
X130666115Y-83246511D01*
X130552041Y-83820000D01*
X130666115Y-84393489D01*
X130990971Y-84879670D01*
X131305751Y-85090000D01*
X130990971Y-85300330D01*
X130666115Y-85786511D01*
X130552041Y-86360000D01*
X130666115Y-86933489D01*
X130990971Y-87419670D01*
X131305751Y-87630000D01*
X130990971Y-87840330D01*
X130666115Y-88326511D01*
X130552041Y-88900000D01*
X130666115Y-89473489D01*
X130990971Y-89959670D01*
X131305751Y-90170000D01*
X130990971Y-90380330D01*
X130666115Y-90866511D01*
X130552041Y-91440000D01*
X130666115Y-92013489D01*
X130990971Y-92499670D01*
X131305751Y-92710000D01*
X130990971Y-92920330D01*
X130666115Y-93406511D01*
X130552041Y-93980000D01*
X130666115Y-94553489D01*
X130990971Y-95039670D01*
X131305751Y-95250000D01*
X130990971Y-95460330D01*
X130666115Y-95946511D01*
X130552041Y-96520000D01*
X130666115Y-97093489D01*
X130990971Y-97579670D01*
X131305751Y-97790000D01*
X130990971Y-98000330D01*
X130666115Y-98486511D01*
X130552041Y-99060000D01*
X130666115Y-99633489D01*
X130990971Y-100119670D01*
X131305751Y-100330000D01*
X130990971Y-100540330D01*
X130666115Y-101026511D01*
X130552041Y-101600000D01*
X130666115Y-102173489D01*
X130990971Y-102659670D01*
X131305751Y-102870000D01*
X130990971Y-103080330D01*
X130666115Y-103566511D01*
X130552041Y-104140000D01*
X130666115Y-104713489D01*
X130990971Y-105199670D01*
X131305751Y-105410000D01*
X130990971Y-105620330D01*
X130666115Y-106106511D01*
X130552041Y-106680000D01*
X130666115Y-107253489D01*
X130990971Y-107739670D01*
X131305751Y-107950000D01*
X130990971Y-108160330D01*
X130666115Y-108646511D01*
X130552041Y-109220000D01*
X130666115Y-109793489D01*
X130990971Y-110279670D01*
X131305751Y-110490000D01*
X130990971Y-110700330D01*
X130666115Y-111186511D01*
X130552041Y-111760000D01*
X130666115Y-112333489D01*
X130990971Y-112819670D01*
X131305751Y-113030000D01*
X130990971Y-113240330D01*
X130666115Y-113726511D01*
X130552041Y-114300000D01*
X130666115Y-114873489D01*
X130990971Y-115359670D01*
X131305751Y-115570000D01*
X130990971Y-115780330D01*
X130666115Y-116266511D01*
X130552041Y-116840000D01*
X130666115Y-117413489D01*
X130990971Y-117899670D01*
X131305751Y-118110000D01*
X130990971Y-118320330D01*
X130790737Y-118620000D01*
X127834774Y-118620000D01*
X127834774Y-102776306D01*
X127586462Y-102175345D01*
X127127073Y-101715154D01*
X126526547Y-101465794D01*
X125876306Y-101465226D01*
X125275345Y-101713538D01*
X124815154Y-102172927D01*
X124565794Y-102773453D01*
X124565226Y-103423694D01*
X124813538Y-104024655D01*
X125272927Y-104484846D01*
X125873453Y-104734206D01*
X126523694Y-104734774D01*
X127124655Y-104486462D01*
X127584846Y-104027073D01*
X127834206Y-103426547D01*
X127834774Y-102776306D01*
X127834774Y-118620000D01*
X125794802Y-118620000D01*
X118437401Y-111262599D01*
X118190839Y-111097852D01*
X117900000Y-111040000D01*
X110060000Y-111040000D01*
X110060000Y-110050000D01*
X110002148Y-109759161D01*
X109837401Y-109512599D01*
X109159680Y-108834878D01*
X109160076Y-108834878D01*
X109462598Y-109137401D01*
X109462599Y-109137401D01*
X109627345Y-109247480D01*
X109709160Y-109302147D01*
X109709161Y-109302148D01*
X110000000Y-109360000D01*
X112100000Y-109360000D01*
X112390839Y-109302148D01*
X112637401Y-109137401D01*
X113337401Y-108437402D01*
X113337401Y-108437401D01*
X113447480Y-108272655D01*
X113502147Y-108190840D01*
X113502148Y-108190839D01*
X113559999Y-107900000D01*
X113560000Y-107900000D01*
X113560000Y-106914802D01*
X114114802Y-106360000D01*
X120185198Y-106360000D01*
X120261758Y-106436560D01*
X120236400Y-106436560D01*
X119994277Y-106483537D01*
X119781473Y-106623327D01*
X119639023Y-106834360D01*
X119631281Y-106872962D01*
X119619670Y-106855585D01*
X119133489Y-106530729D01*
X118560000Y-106416655D01*
X117986511Y-106530729D01*
X117500330Y-106855585D01*
X117290000Y-107170365D01*
X117079670Y-106855585D01*
X116593489Y-106530729D01*
X116020000Y-106416655D01*
X115446511Y-106530729D01*
X114960330Y-106855585D01*
X114635474Y-107341766D01*
X114521400Y-107915255D01*
X114521400Y-108284745D01*
X114635474Y-108858234D01*
X114960330Y-109344415D01*
X115446511Y-109669271D01*
X116020000Y-109783345D01*
X116593489Y-109669271D01*
X117079670Y-109344415D01*
X117290000Y-109029634D01*
X117500330Y-109344415D01*
X117986511Y-109669271D01*
X118560000Y-109783345D01*
X119133489Y-109669271D01*
X119619670Y-109344415D01*
X119630215Y-109328632D01*
X119635937Y-109358123D01*
X119775727Y-109570927D01*
X119986760Y-109713377D01*
X120236400Y-109763440D01*
X121963600Y-109763440D01*
X122205723Y-109716463D01*
X122418527Y-109576673D01*
X122560977Y-109365640D01*
X122611040Y-109116000D01*
X122611040Y-107084000D01*
X122564063Y-106841877D01*
X122424273Y-106629073D01*
X122213240Y-106486623D01*
X121963600Y-106436560D01*
X121860000Y-106436560D01*
X121860000Y-106200000D01*
X121802148Y-105909161D01*
X121637401Y-105662599D01*
X121037401Y-105062599D01*
X120790839Y-104897852D01*
X120500000Y-104840000D01*
X113800000Y-104840000D01*
X113509161Y-104897852D01*
X113262599Y-105062599D01*
X112834774Y-105490424D01*
X112834774Y-102776306D01*
X112586462Y-102175345D01*
X112127073Y-101715154D01*
X111526547Y-101465794D01*
X110876306Y-101465226D01*
X110275345Y-101713538D01*
X109815154Y-102172927D01*
X109565794Y-102773453D01*
X109565226Y-103423694D01*
X109813538Y-104024655D01*
X110272927Y-104484846D01*
X110873453Y-104734206D01*
X111523694Y-104734774D01*
X112124655Y-104486462D01*
X112584846Y-104027073D01*
X112834206Y-103426547D01*
X112834774Y-102776306D01*
X112834774Y-105490424D01*
X112262599Y-106062599D01*
X112097852Y-106309161D01*
X112040000Y-106600000D01*
X112040000Y-107585197D01*
X111785197Y-107840000D01*
X110314802Y-107840000D01*
X110235122Y-107760319D01*
X110235162Y-107714833D01*
X110093117Y-107371057D01*
X109830327Y-107107808D01*
X109486799Y-106965162D01*
X109114833Y-106964838D01*
X108771057Y-107106883D01*
X108760000Y-107117920D01*
X108760000Y-102314802D01*
X114787401Y-96287401D01*
X114952148Y-96040839D01*
X115010000Y-95750000D01*
X115010000Y-88978448D01*
X115460000Y-89067959D01*
X116033489Y-88953885D01*
X116519670Y-88629029D01*
X116730000Y-88314248D01*
X116940330Y-88629029D01*
X117426511Y-88953885D01*
X118000000Y-89067959D01*
X118573489Y-88953885D01*
X119059670Y-88629029D01*
X119384526Y-88142848D01*
X119498600Y-87569359D01*
X119498600Y-87510641D01*
X119384526Y-86937152D01*
X119072699Y-86470470D01*
X119105723Y-86464063D01*
X119318527Y-86324273D01*
X119460977Y-86113240D01*
X119511040Y-85863600D01*
X119511040Y-84136400D01*
X119464063Y-83894277D01*
X119324273Y-83681473D01*
X119113240Y-83539023D01*
X118863600Y-83488960D01*
X117136400Y-83488960D01*
X116894277Y-83535937D01*
X116681473Y-83675727D01*
X116539023Y-83886760D01*
X116530820Y-83927659D01*
X116519670Y-83910971D01*
X116033489Y-83586115D01*
X115460000Y-83472041D01*
X114886511Y-83586115D01*
X114400330Y-83910971D01*
X114190000Y-84225751D01*
X113979670Y-83910971D01*
X113493489Y-83586115D01*
X112920000Y-83472041D01*
X112346511Y-83586115D01*
X111860330Y-83910971D01*
X111650000Y-84225751D01*
X111439670Y-83910971D01*
X110953489Y-83586115D01*
X110380000Y-83472041D01*
X109806511Y-83586115D01*
X109320330Y-83910971D01*
X109104336Y-84234228D01*
X109046821Y-84111510D01*
X108614947Y-83717312D01*
X108199026Y-83545042D01*
X107967000Y-83666183D01*
X107967000Y-84873000D01*
X107987000Y-84873000D01*
X107987000Y-85127000D01*
X107967000Y-85127000D01*
X107967000Y-85147000D01*
X107713000Y-85147000D01*
X107713000Y-85127000D01*
X107693000Y-85127000D01*
X107693000Y-84873000D01*
X107713000Y-84873000D01*
X107713000Y-83666183D01*
X107480974Y-83545042D01*
X107065053Y-83717312D01*
X106633179Y-84111510D01*
X106575663Y-84234228D01*
X106359670Y-83910971D01*
X105873489Y-83586115D01*
X105300000Y-83472041D01*
X104726511Y-83586115D01*
X104240330Y-83910971D01*
X104030000Y-84225751D01*
X103819670Y-83910971D01*
X103333489Y-83586115D01*
X102760000Y-83472041D01*
X102186511Y-83586115D01*
X101700330Y-83910971D01*
X101490000Y-84225751D01*
X101279670Y-83910971D01*
X100793489Y-83586115D01*
X100220000Y-83472041D01*
X99646511Y-83586115D01*
X99160330Y-83910971D01*
X98950000Y-84225751D01*
X98739670Y-83910971D01*
X98253489Y-83586115D01*
X97680000Y-83472041D01*
X97106511Y-83586115D01*
X96620330Y-83910971D01*
X96410000Y-84225751D01*
X96199670Y-83910971D01*
X95713489Y-83586115D01*
X95140000Y-83472041D01*
X94566511Y-83586115D01*
X94080330Y-83910971D01*
X93870000Y-84225751D01*
X93659670Y-83910971D01*
X93173489Y-83586115D01*
X92600000Y-83472041D01*
X92026511Y-83586115D01*
X91540330Y-83910971D01*
X91330000Y-84225751D01*
X91119670Y-83910971D01*
X90633489Y-83586115D01*
X90060000Y-83472041D01*
X89486511Y-83586115D01*
X89000330Y-83910971D01*
X88784336Y-84234228D01*
X88726821Y-84111510D01*
X88294947Y-83717312D01*
X87879026Y-83545042D01*
X87647000Y-83666183D01*
X87647000Y-84873000D01*
X87667000Y-84873000D01*
X87667000Y-85127000D01*
X87647000Y-85127000D01*
X87647000Y-85147000D01*
X87393000Y-85147000D01*
X87393000Y-85127000D01*
X87373000Y-85127000D01*
X87373000Y-84873000D01*
X87393000Y-84873000D01*
X87393000Y-83666183D01*
X87160974Y-83545042D01*
X87010000Y-83607573D01*
X87010000Y-82500000D01*
X86952148Y-82209161D01*
X86952148Y-82209160D01*
X86787401Y-81962599D01*
X86435122Y-81610320D01*
X86435162Y-81564833D01*
X86293117Y-81221057D01*
X86030327Y-80957808D01*
X85686799Y-80815162D01*
X85314833Y-80814838D01*
X84971057Y-80956883D01*
X84707808Y-81219673D01*
X84565162Y-81563201D01*
X84564838Y-81935167D01*
X84706883Y-82278943D01*
X84969673Y-82542192D01*
X85313201Y-82684838D01*
X85360076Y-82684878D01*
X85490000Y-82814802D01*
X85490000Y-83573486D01*
X84980000Y-83472041D01*
X84406511Y-83586115D01*
X83920330Y-83910971D01*
X83710000Y-84225751D01*
X83499670Y-83910971D01*
X83013489Y-83586115D01*
X82440000Y-83472041D01*
X81866511Y-83586115D01*
X81380330Y-83910971D01*
X81170000Y-84225751D01*
X80959670Y-83910971D01*
X80473489Y-83586115D01*
X79900000Y-83472041D01*
X79326511Y-83586115D01*
X78840330Y-83910971D01*
X78630000Y-84225751D01*
X78419670Y-83910971D01*
X77933489Y-83586115D01*
X77360000Y-83472041D01*
X76786511Y-83586115D01*
X76300330Y-83910971D01*
X76090000Y-84225751D01*
X75879670Y-83910971D01*
X75393489Y-83586115D01*
X74820000Y-83472041D01*
X74246511Y-83586115D01*
X73760330Y-83910971D01*
X73550000Y-84225751D01*
X73339670Y-83910971D01*
X72853489Y-83586115D01*
X72280000Y-83472041D01*
X71706511Y-83586115D01*
X71220330Y-83910971D01*
X71004336Y-84234228D01*
X70946821Y-84111510D01*
X70514947Y-83717312D01*
X70099026Y-83545042D01*
X69867000Y-83666183D01*
X69867000Y-84873000D01*
X69887000Y-84873000D01*
X69887000Y-85127000D01*
X69867000Y-85127000D01*
X69867000Y-85147000D01*
X69613000Y-85147000D01*
X69613000Y-85127000D01*
X69613000Y-84873000D01*
X69613000Y-83666183D01*
X69380974Y-83545042D01*
X68965053Y-83717312D01*
X68533179Y-84111510D01*
X68285032Y-84640973D01*
X68405531Y-84873000D01*
X69613000Y-84873000D01*
X69613000Y-85127000D01*
X68405531Y-85127000D01*
X68285032Y-85359027D01*
X68533179Y-85888490D01*
X68951160Y-86270007D01*
X68680330Y-86450971D01*
X68355474Y-86937152D01*
X68241400Y-87510641D01*
X68241400Y-87569359D01*
X68355474Y-88142848D01*
X68680330Y-88629029D01*
X69166511Y-88953885D01*
X69740000Y-89067959D01*
X70313489Y-88953885D01*
X70799670Y-88629029D01*
X71010000Y-88314248D01*
X71220330Y-88629029D01*
X71706511Y-88953885D01*
X72280000Y-89067959D01*
X72853489Y-88953885D01*
X73339670Y-88629029D01*
X73550000Y-88314248D01*
X73760330Y-88629029D01*
X74246511Y-88953885D01*
X74820000Y-89067959D01*
X75393489Y-88953885D01*
X75879670Y-88629029D01*
X76095663Y-88305771D01*
X76153179Y-88428490D01*
X76585053Y-88822688D01*
X77000974Y-88994958D01*
X77233000Y-88873817D01*
X77233000Y-87667000D01*
X77213000Y-87667000D01*
X77213000Y-87413000D01*
X77233000Y-87413000D01*
X77233000Y-87393000D01*
X77487000Y-87393000D01*
X77487000Y-87413000D01*
X77507000Y-87413000D01*
X77507000Y-87667000D01*
X77487000Y-87667000D01*
X77487000Y-88873817D01*
X77719026Y-88994958D01*
X78134947Y-88822688D01*
X78566821Y-88428490D01*
X78624336Y-88305771D01*
X78840330Y-88629029D01*
X79326511Y-88953885D01*
X79900000Y-89067959D01*
X80473489Y-88953885D01*
X80959670Y-88629029D01*
X81175663Y-88305771D01*
X81233179Y-88428490D01*
X81665053Y-88822688D01*
X82080974Y-88994958D01*
X82313000Y-88873817D01*
X82313000Y-87667000D01*
X82293000Y-87667000D01*
X82293000Y-87413000D01*
X82313000Y-87413000D01*
X82313000Y-87393000D01*
X82567000Y-87393000D01*
X82567000Y-87413000D01*
X82587000Y-87413000D01*
X82587000Y-87667000D01*
X82567000Y-87667000D01*
X82567000Y-88873817D01*
X82799026Y-88994958D01*
X83214947Y-88822688D01*
X83646821Y-88428490D01*
X83704336Y-88305771D01*
X83920330Y-88629029D01*
X84406511Y-88953885D01*
X84980000Y-89067959D01*
X85553489Y-88953885D01*
X86039670Y-88629029D01*
X86250000Y-88314248D01*
X86460330Y-88629029D01*
X86946511Y-88953885D01*
X87520000Y-89067959D01*
X88093489Y-88953885D01*
X88579670Y-88629029D01*
X88790000Y-88314248D01*
X89000330Y-88629029D01*
X89486511Y-88953885D01*
X90060000Y-89067959D01*
X90633489Y-88953885D01*
X91119670Y-88629029D01*
X91330000Y-88314248D01*
X91540330Y-88629029D01*
X92026511Y-88953885D01*
X92600000Y-89067959D01*
X93173489Y-88953885D01*
X93659670Y-88629029D01*
X93875663Y-88305771D01*
X93933179Y-88428490D01*
X94365053Y-88822688D01*
X94780974Y-88994958D01*
X95013000Y-88873817D01*
X95013000Y-87667000D01*
X94993000Y-87667000D01*
X94993000Y-87413000D01*
X95013000Y-87413000D01*
X95013000Y-87393000D01*
X95267000Y-87393000D01*
X95267000Y-87413000D01*
X95287000Y-87413000D01*
X95287000Y-87667000D01*
X95267000Y-87667000D01*
X95267000Y-88873817D01*
X95499026Y-88994958D01*
X95914947Y-88822688D01*
X96346821Y-88428490D01*
X96404336Y-88305771D01*
X96620330Y-88629029D01*
X97106511Y-88953885D01*
X97680000Y-89067959D01*
X98253489Y-88953885D01*
X98739670Y-88629029D01*
X98950000Y-88314248D01*
X99160330Y-88629029D01*
X99646511Y-88953885D01*
X100220000Y-89067959D01*
X100793489Y-88953885D01*
X101279670Y-88629029D01*
X101495663Y-88305771D01*
X101553179Y-88428490D01*
X101985053Y-88822688D01*
X102400974Y-88994958D01*
X102633000Y-88873817D01*
X102633000Y-87667000D01*
X102613000Y-87667000D01*
X102613000Y-87413000D01*
X102633000Y-87413000D01*
X102633000Y-87393000D01*
X102887000Y-87393000D01*
X102887000Y-87413000D01*
X102907000Y-87413000D01*
X102907000Y-87667000D01*
X102887000Y-87667000D01*
X102887000Y-88873817D01*
X103119026Y-88994958D01*
X103534947Y-88822688D01*
X103966821Y-88428490D01*
X104024336Y-88305771D01*
X104240330Y-88629029D01*
X104726511Y-88953885D01*
X105300000Y-89067959D01*
X105873489Y-88953885D01*
X106359670Y-88629029D01*
X106570000Y-88314248D01*
X106780330Y-88629029D01*
X107266511Y-88953885D01*
X107840000Y-89067959D01*
X108413489Y-88953885D01*
X108899670Y-88629029D01*
X109110000Y-88314248D01*
X109320330Y-88629029D01*
X109806511Y-88953885D01*
X110380000Y-89067959D01*
X110840000Y-88976459D01*
X110840000Y-90100000D01*
X110897852Y-90390839D01*
X110990000Y-90528748D01*
X110990000Y-93935198D01*
X102562599Y-102362599D01*
X102397852Y-102609161D01*
X102340000Y-102900000D01*
X102340000Y-110137537D01*
X102307808Y-110169673D01*
X102165162Y-110513201D01*
X102164838Y-110885167D01*
X102306883Y-111228943D01*
X102569673Y-111492192D01*
X102913201Y-111634838D01*
X102960076Y-111634878D01*
X105362599Y-114037401D01*
X105609161Y-114202148D01*
X105900000Y-114260000D01*
X116285198Y-114260000D01*
X124482599Y-122457401D01*
X124729160Y-122622148D01*
X124729161Y-122622148D01*
X125020000Y-122680000D01*
X130790737Y-122680000D01*
X130990971Y-122979670D01*
X131305751Y-123190000D01*
X130990971Y-123400330D01*
X130666115Y-123886511D01*
X130552041Y-124460000D01*
X130666115Y-125033489D01*
X130990971Y-125519670D01*
X131305751Y-125730000D01*
X130990971Y-125940330D01*
X130666115Y-126426511D01*
X130552041Y-127000000D01*
X130666115Y-127573489D01*
X130990971Y-128059670D01*
X131305751Y-128270000D01*
X130990971Y-128480330D01*
X130666115Y-128966511D01*
X130552041Y-129540000D01*
X130666115Y-130113489D01*
X130990971Y-130599670D01*
X131305751Y-130810000D01*
X130990971Y-131020330D01*
X130666115Y-131506511D01*
X130552041Y-132080000D01*
X130666115Y-132653489D01*
X130990971Y-133139670D01*
X131477152Y-133464526D01*
X132050641Y-133578600D01*
X132109359Y-133578600D01*
X132682848Y-133464526D01*
X133169029Y-133139670D01*
X133350000Y-132868827D01*
X133530971Y-133139670D01*
X134017152Y-133464526D01*
X134590641Y-133578600D01*
X134649359Y-133578600D01*
X135222848Y-133464526D01*
X135709029Y-133139670D01*
X135890000Y-132868827D01*
X136070971Y-133139670D01*
X136557152Y-133464526D01*
X137130641Y-133578600D01*
X137189359Y-133578600D01*
X137762848Y-133464526D01*
X138249029Y-133139670D01*
X138430000Y-132868827D01*
X138610971Y-133139670D01*
X139097152Y-133464526D01*
X139670641Y-133578600D01*
X139729359Y-133578600D01*
X140302848Y-133464526D01*
X140789029Y-133139670D01*
X141113885Y-132653489D01*
X141227959Y-132080000D01*
X141227959Y-134873000D01*
X130447395Y-134873000D01*
X124447395Y-140873000D01*
X119461040Y-140873000D01*
X119461040Y-135096000D01*
X119461040Y-133064000D01*
X119414063Y-132821877D01*
X119407135Y-132811331D01*
X119410977Y-132805640D01*
X119461040Y-132556000D01*
X119461040Y-130524000D01*
X119414063Y-130281877D01*
X119407135Y-130271331D01*
X119410977Y-130265640D01*
X119461040Y-130016000D01*
X119461040Y-127984000D01*
X119414063Y-127741877D01*
X119407135Y-127731331D01*
X119410977Y-127725640D01*
X119461040Y-127476000D01*
X119461040Y-125444000D01*
X119414063Y-125201877D01*
X119274273Y-124989073D01*
X119063240Y-124846623D01*
X118813600Y-124796560D01*
X117086400Y-124796560D01*
X116844277Y-124843537D01*
X116631473Y-124983327D01*
X116489023Y-125194360D01*
X116481281Y-125232962D01*
X116469670Y-125215585D01*
X115983489Y-124890729D01*
X115410000Y-124776655D01*
X114857332Y-124886587D01*
X114802148Y-124609161D01*
X114637401Y-124362599D01*
X112937401Y-122662599D01*
X112690839Y-122497852D01*
X112400000Y-122440000D01*
X102014802Y-122440000D01*
X97237401Y-117662599D01*
X96990839Y-117497852D01*
X96700000Y-117440000D01*
X96535162Y-117440000D01*
X96535162Y-102414833D01*
X96393117Y-102071057D01*
X96130327Y-101807808D01*
X95786799Y-101665162D01*
X95739923Y-101665121D01*
X95137401Y-101062599D01*
X94890839Y-100897852D01*
X94600000Y-100840000D01*
X76000000Y-100840000D01*
X75709161Y-100897852D01*
X75462599Y-101062599D01*
X65462599Y-111062599D01*
X65297852Y-111309161D01*
X65240000Y-111600000D01*
X65240000Y-113937537D01*
X65207808Y-113969673D01*
X65065162Y-114313201D01*
X65064838Y-114685167D01*
X65206883Y-115028943D01*
X65240000Y-115062117D01*
X65240000Y-121837537D01*
X65207808Y-121869673D01*
X65065162Y-122213201D01*
X65064838Y-122585167D01*
X65206883Y-122928943D01*
X65240000Y-122962117D01*
X65240000Y-134337537D01*
X65207808Y-134369673D01*
X65065162Y-134713201D01*
X65064838Y-135085167D01*
X65206883Y-135428943D01*
X65240000Y-135462117D01*
X65240000Y-141937537D01*
X65207808Y-141969673D01*
X65065162Y-142313201D01*
X65064838Y-142685167D01*
X65206883Y-143028943D01*
X65469673Y-143292192D01*
X65813201Y-143434838D01*
X66185167Y-143435162D01*
X66528943Y-143293117D01*
X66792192Y-143030327D01*
X66934838Y-142686799D01*
X66935162Y-142314833D01*
X66793117Y-141971057D01*
X66760000Y-141937882D01*
X66760000Y-135462462D01*
X66792192Y-135430327D01*
X66934838Y-135086799D01*
X66935162Y-134714833D01*
X66793117Y-134371057D01*
X66760000Y-134337882D01*
X66760000Y-122962462D01*
X66792192Y-122930327D01*
X66934838Y-122586799D01*
X66935162Y-122214833D01*
X66793117Y-121871057D01*
X66760000Y-121837882D01*
X66760000Y-115062462D01*
X66792192Y-115030327D01*
X66934838Y-114686799D01*
X66935162Y-114314833D01*
X66793117Y-113971057D01*
X66760000Y-113937882D01*
X66760000Y-111914802D01*
X73740000Y-104934802D01*
X73740000Y-113685198D01*
X73360320Y-114064877D01*
X73314833Y-114064838D01*
X72971057Y-114206883D01*
X72707808Y-114469673D01*
X72565162Y-114813201D01*
X72564838Y-115185167D01*
X72706883Y-115528943D01*
X72969673Y-115792192D01*
X73313201Y-115934838D01*
X73685167Y-115935162D01*
X73740000Y-115912505D01*
X73740000Y-121937537D01*
X73707808Y-121969673D01*
X73565162Y-122313201D01*
X73564838Y-122685167D01*
X73706883Y-123028943D01*
X73740000Y-123062117D01*
X73740000Y-134437537D01*
X73707808Y-134469673D01*
X73565162Y-134813201D01*
X73564838Y-135185167D01*
X73706883Y-135528943D01*
X73740000Y-135562117D01*
X73740000Y-141437537D01*
X73707808Y-141469673D01*
X73565162Y-141813201D01*
X73564838Y-142185167D01*
X73706883Y-142528943D01*
X73969673Y-142792192D01*
X74313201Y-142934838D01*
X74685167Y-142935162D01*
X75028943Y-142793117D01*
X75292192Y-142530327D01*
X75434838Y-142186799D01*
X75435162Y-141814833D01*
X75293117Y-141471057D01*
X75260000Y-141437882D01*
X75260000Y-135562462D01*
X75292192Y-135530327D01*
X75434838Y-135186799D01*
X75435162Y-134814833D01*
X75293117Y-134471057D01*
X75260000Y-134437882D01*
X75260000Y-123062462D01*
X75292192Y-123030327D01*
X75434838Y-122686799D01*
X75435162Y-122314833D01*
X75293117Y-121971057D01*
X75260000Y-121937882D01*
X75260000Y-114000000D01*
X75260000Y-104814802D01*
X76914802Y-103160000D01*
X79837537Y-103160000D01*
X79869673Y-103192192D01*
X80213201Y-103334838D01*
X80585167Y-103335162D01*
X80928943Y-103193117D01*
X81192192Y-102930327D01*
X81334838Y-102586799D01*
X81335035Y-102360000D01*
X94285198Y-102360000D01*
X94664877Y-102739679D01*
X94664838Y-102785167D01*
X94806883Y-103128943D01*
X95069673Y-103392192D01*
X95413201Y-103534838D01*
X95785167Y-103535162D01*
X96128943Y-103393117D01*
X96392192Y-103130327D01*
X96534838Y-102786799D01*
X96535162Y-102414833D01*
X96535162Y-117440000D01*
X92300000Y-117440000D01*
X91314802Y-117440000D01*
X81635122Y-107760320D01*
X81635162Y-107714833D01*
X81493117Y-107371057D01*
X81230327Y-107107808D01*
X80886799Y-106965162D01*
X80514833Y-106964838D01*
X80171057Y-107106883D01*
X79907808Y-107369673D01*
X79765162Y-107713201D01*
X79764838Y-108085167D01*
X79906883Y-108428943D01*
X80169673Y-108692192D01*
X80513201Y-108834838D01*
X80560076Y-108834878D01*
X82790188Y-111064990D01*
X82614833Y-111064838D01*
X82271057Y-111206883D01*
X82007808Y-111469673D01*
X81865162Y-111813201D01*
X81864838Y-112185167D01*
X82006883Y-112528943D01*
X82269673Y-112792192D01*
X82613201Y-112934838D01*
X82660076Y-112934878D01*
X90162599Y-120437401D01*
X90409161Y-120602148D01*
X90700000Y-120660000D01*
X96485198Y-120660000D01*
X100362599Y-124537401D01*
X100609161Y-124702148D01*
X100900000Y-124760000D01*
X102385198Y-124760000D01*
X102452977Y-124827779D01*
X102136511Y-124890729D01*
X101650330Y-125215585D01*
X101440000Y-125530365D01*
X101229670Y-125215585D01*
X100743489Y-124890729D01*
X100170000Y-124776655D01*
X99660000Y-124878100D01*
X99660000Y-124800000D01*
X99602148Y-124509161D01*
X99602148Y-124509160D01*
X99437401Y-124262599D01*
X96237401Y-121062599D01*
X95990839Y-120897852D01*
X95700000Y-120840000D01*
X87714802Y-120840000D01*
X79835122Y-112960320D01*
X79835162Y-112914833D01*
X79693117Y-112571057D01*
X79430327Y-112307808D01*
X79086799Y-112165162D01*
X78714833Y-112164838D01*
X78371057Y-112306883D01*
X78107808Y-112569673D01*
X77965162Y-112913201D01*
X77964838Y-113285167D01*
X78106883Y-113628943D01*
X78369673Y-113892192D01*
X78713201Y-114034838D01*
X78760076Y-114034878D01*
X86862599Y-122137401D01*
X87109161Y-122302148D01*
X87400000Y-122360000D01*
X95385198Y-122360000D01*
X97844524Y-124819326D01*
X97630000Y-124776655D01*
X97056511Y-124890729D01*
X96570330Y-125215585D01*
X96360000Y-125530365D01*
X96149670Y-125215585D01*
X95663489Y-124890729D01*
X95090000Y-124776655D01*
X94516511Y-124890729D01*
X94030330Y-125215585D01*
X93820000Y-125530365D01*
X93609670Y-125215585D01*
X93123489Y-124890729D01*
X92550000Y-124776655D01*
X91976511Y-124890729D01*
X91490330Y-125215585D01*
X91280000Y-125530365D01*
X91069670Y-125215585D01*
X90583489Y-124890729D01*
X90010000Y-124776655D01*
X89436511Y-124890729D01*
X88950330Y-125215585D01*
X88740000Y-125530365D01*
X88529670Y-125215585D01*
X88043489Y-124890729D01*
X87470000Y-124776655D01*
X86896511Y-124890729D01*
X86410330Y-125215585D01*
X86200000Y-125530365D01*
X85989670Y-125215585D01*
X85503489Y-124890729D01*
X84930000Y-124776655D01*
X84356511Y-124890729D01*
X83870330Y-125215585D01*
X83545474Y-125701766D01*
X83431400Y-126275255D01*
X83431400Y-126644745D01*
X83545474Y-127218234D01*
X83870330Y-127704415D01*
X83908620Y-127730000D01*
X83870330Y-127755585D01*
X83545474Y-128241766D01*
X83431400Y-128815255D01*
X83431400Y-129184745D01*
X83545474Y-129758234D01*
X83870330Y-130244415D01*
X83908620Y-130270000D01*
X83870330Y-130295585D01*
X83545474Y-130781766D01*
X83431400Y-131355255D01*
X83431400Y-131724745D01*
X83545474Y-132298234D01*
X83870330Y-132784415D01*
X83908620Y-132810000D01*
X83870330Y-132835585D01*
X83545474Y-133321766D01*
X83431400Y-133895255D01*
X83431400Y-134264745D01*
X83545474Y-134838234D01*
X83870330Y-135324415D01*
X84356511Y-135649271D01*
X84930000Y-135763345D01*
X85503489Y-135649271D01*
X85989670Y-135324415D01*
X86200000Y-135009634D01*
X86410330Y-135324415D01*
X86896511Y-135649271D01*
X87470000Y-135763345D01*
X88043489Y-135649271D01*
X88529670Y-135324415D01*
X88740000Y-135009634D01*
X88950330Y-135324415D01*
X89436511Y-135649271D01*
X90010000Y-135763345D01*
X90583489Y-135649271D01*
X91069670Y-135324415D01*
X91280000Y-135009634D01*
X91490330Y-135324415D01*
X91976511Y-135649271D01*
X92550000Y-135763345D01*
X93123489Y-135649271D01*
X93609670Y-135324415D01*
X93820000Y-135009634D01*
X94030330Y-135324415D01*
X94516511Y-135649271D01*
X95090000Y-135763345D01*
X95663489Y-135649271D01*
X96149670Y-135324415D01*
X96360000Y-135009634D01*
X96570330Y-135324415D01*
X97056511Y-135649271D01*
X97630000Y-135763345D01*
X98203489Y-135649271D01*
X98689670Y-135324415D01*
X98900000Y-135009634D01*
X99110330Y-135324415D01*
X99596511Y-135649271D01*
X100170000Y-135763345D01*
X100743489Y-135649271D01*
X101229670Y-135324415D01*
X101440000Y-135009634D01*
X101650330Y-135324415D01*
X102136511Y-135649271D01*
X102710000Y-135763345D01*
X103283489Y-135649271D01*
X103769670Y-135324415D01*
X103980000Y-135009634D01*
X104190330Y-135324415D01*
X104676511Y-135649271D01*
X105250000Y-135763345D01*
X105823489Y-135649271D01*
X106309670Y-135324415D01*
X106520000Y-135009634D01*
X106730330Y-135324415D01*
X107216511Y-135649271D01*
X107790000Y-135763345D01*
X108363489Y-135649271D01*
X108849670Y-135324415D01*
X109060000Y-135009634D01*
X109270330Y-135324415D01*
X109756511Y-135649271D01*
X110330000Y-135763345D01*
X110903489Y-135649271D01*
X111389670Y-135324415D01*
X111600000Y-135009634D01*
X111810330Y-135324415D01*
X112296511Y-135649271D01*
X112870000Y-135763345D01*
X113443489Y-135649271D01*
X113929670Y-135324415D01*
X114140000Y-135009634D01*
X114350330Y-135324415D01*
X114836511Y-135649271D01*
X115410000Y-135763345D01*
X115983489Y-135649271D01*
X116469670Y-135324415D01*
X116480215Y-135308632D01*
X116485937Y-135338123D01*
X116625727Y-135550927D01*
X116836760Y-135693377D01*
X117086400Y-135743440D01*
X118813600Y-135743440D01*
X119055723Y-135696463D01*
X119268527Y-135556673D01*
X119410977Y-135345640D01*
X119461040Y-135096000D01*
X119461040Y-140873000D01*
X92450901Y-140873000D01*
X86950901Y-145873000D01*
X61373345Y-145873000D01*
X61373345Y-138620000D01*
X61259271Y-138046511D01*
X60934415Y-137560330D01*
X60619634Y-137350000D01*
X60934415Y-137139670D01*
X61259271Y-136653489D01*
X61373345Y-136080000D01*
X61259271Y-135506511D01*
X60934415Y-135020330D01*
X60619634Y-134810000D01*
X60934415Y-134599670D01*
X61259271Y-134113489D01*
X61373345Y-133540000D01*
X61259271Y-132966511D01*
X60934415Y-132480330D01*
X60619634Y-132270000D01*
X60934415Y-132059670D01*
X61259271Y-131573489D01*
X61373345Y-131000000D01*
X61373345Y-119570000D01*
X61259271Y-118996511D01*
X60934415Y-118510330D01*
X60619634Y-118300000D01*
X60934415Y-118089670D01*
X61259271Y-117603489D01*
X61373345Y-117030000D01*
X61259271Y-116456511D01*
X60934415Y-115970330D01*
X60619634Y-115760000D01*
X60934415Y-115549670D01*
X61259271Y-115063489D01*
X61373345Y-114490000D01*
X61259271Y-113916511D01*
X60934415Y-113430330D01*
X60619634Y-113220000D01*
X60934415Y-113009670D01*
X61259271Y-112523489D01*
X61373345Y-111950000D01*
X61259271Y-111376511D01*
X60934415Y-110890330D01*
X60624930Y-110683539D01*
X61040732Y-110312036D01*
X61294709Y-109784791D01*
X61297358Y-109769026D01*
X61297358Y-109050974D01*
X61294709Y-109035209D01*
X61040732Y-108507964D01*
X60604320Y-108118046D01*
X60051913Y-107924816D01*
X59817000Y-108069076D01*
X59817000Y-109283000D01*
X61176217Y-109283000D01*
X61297358Y-109050974D01*
X61297358Y-109769026D01*
X61176217Y-109537000D01*
X59817000Y-109537000D01*
X59817000Y-109557000D01*
X59563000Y-109557000D01*
X59563000Y-109537000D01*
X59563000Y-109283000D01*
X59563000Y-108069076D01*
X59328087Y-107924816D01*
X58775680Y-108118046D01*
X58339268Y-108507964D01*
X58085291Y-109035209D01*
X58082642Y-109050974D01*
X58203783Y-109283000D01*
X59563000Y-109283000D01*
X59563000Y-109537000D01*
X58203783Y-109537000D01*
X58082642Y-109769026D01*
X58085291Y-109784791D01*
X58339268Y-110312036D01*
X58755069Y-110683539D01*
X58445585Y-110890330D01*
X58120729Y-111376511D01*
X58006655Y-111950000D01*
X58120729Y-112523489D01*
X58445585Y-113009670D01*
X58760365Y-113220000D01*
X58445585Y-113430330D01*
X58120729Y-113916511D01*
X58006655Y-114490000D01*
X58120729Y-115063489D01*
X58445585Y-115549670D01*
X58760365Y-115760000D01*
X58445585Y-115970330D01*
X58120729Y-116456511D01*
X58006655Y-117030000D01*
X58120729Y-117603489D01*
X58445585Y-118089670D01*
X58760365Y-118300000D01*
X58445585Y-118510330D01*
X58120729Y-118996511D01*
X58006655Y-119570000D01*
X58120729Y-120143489D01*
X58445585Y-120629670D01*
X58461367Y-120640215D01*
X58431877Y-120645937D01*
X58219073Y-120785727D01*
X58076623Y-120996760D01*
X58026560Y-121246400D01*
X58026560Y-122973600D01*
X58073537Y-123215723D01*
X58213327Y-123428527D01*
X58424360Y-123570977D01*
X58674000Y-123621040D01*
X60706000Y-123621040D01*
X60948123Y-123574063D01*
X61160927Y-123434273D01*
X61303377Y-123223240D01*
X61353440Y-122973600D01*
X61353440Y-121246400D01*
X61306463Y-121004277D01*
X61166673Y-120791473D01*
X60955640Y-120649023D01*
X60917037Y-120641281D01*
X60934415Y-120629670D01*
X61259271Y-120143489D01*
X61373345Y-119570000D01*
X61373345Y-131000000D01*
X61259271Y-130426511D01*
X60934415Y-129940330D01*
X60624930Y-129733539D01*
X61040732Y-129362036D01*
X61294709Y-128834791D01*
X61297358Y-128819026D01*
X61297358Y-128100974D01*
X61294709Y-128085209D01*
X61040732Y-127557964D01*
X60604320Y-127168046D01*
X60051913Y-126974816D01*
X59817000Y-127119076D01*
X59817000Y-128333000D01*
X61176217Y-128333000D01*
X61297358Y-128100974D01*
X61297358Y-128819026D01*
X61176217Y-128587000D01*
X59817000Y-128587000D01*
X59817000Y-128607000D01*
X59563000Y-128607000D01*
X59563000Y-128587000D01*
X59563000Y-128333000D01*
X59563000Y-127119076D01*
X59328087Y-126974816D01*
X58775680Y-127168046D01*
X58339268Y-127557964D01*
X58085291Y-128085209D01*
X58082642Y-128100974D01*
X58203783Y-128333000D01*
X59563000Y-128333000D01*
X59563000Y-128587000D01*
X58203783Y-128587000D01*
X58082642Y-128819026D01*
X58085291Y-128834791D01*
X58339268Y-129362036D01*
X58755069Y-129733539D01*
X58445585Y-129940330D01*
X58120729Y-130426511D01*
X58006655Y-131000000D01*
X58120729Y-131573489D01*
X58445585Y-132059670D01*
X58760365Y-132270000D01*
X58445585Y-132480330D01*
X58120729Y-132966511D01*
X58006655Y-133540000D01*
X58120729Y-134113489D01*
X58445585Y-134599670D01*
X58760365Y-134810000D01*
X58445585Y-135020330D01*
X58120729Y-135506511D01*
X58006655Y-136080000D01*
X58120729Y-136653489D01*
X58445585Y-137139670D01*
X58760365Y-137350000D01*
X58445585Y-137560330D01*
X58120729Y-138046511D01*
X58006655Y-138620000D01*
X58120729Y-139193489D01*
X58445585Y-139679670D01*
X58461367Y-139690215D01*
X58431877Y-139695937D01*
X58219073Y-139835727D01*
X58076623Y-140046760D01*
X58026560Y-140296400D01*
X58026560Y-142023600D01*
X58073537Y-142265723D01*
X58213327Y-142478527D01*
X58424360Y-142620977D01*
X58674000Y-142671040D01*
X60706000Y-142671040D01*
X60948123Y-142624063D01*
X61160927Y-142484273D01*
X61303377Y-142273240D01*
X61353440Y-142023600D01*
X61353440Y-140296400D01*
X61306463Y-140054277D01*
X61166673Y-139841473D01*
X60955640Y-139699023D01*
X60917037Y-139691281D01*
X60934415Y-139679670D01*
X61259271Y-139193489D01*
X61373345Y-138620000D01*
X61373345Y-145873000D01*
X57683345Y-145873000D01*
X57683345Y-96460000D01*
X57569271Y-95886511D01*
X57244415Y-95400330D01*
X56929634Y-95190000D01*
X57244415Y-94979670D01*
X57569271Y-94493489D01*
X57683345Y-93920000D01*
X57569271Y-93346511D01*
X57244415Y-92860330D01*
X56929634Y-92650000D01*
X57244415Y-92439670D01*
X57569271Y-91953489D01*
X57683345Y-91380000D01*
X57569271Y-90806511D01*
X57244415Y-90320330D01*
X56929634Y-90110000D01*
X57244415Y-89899670D01*
X57569271Y-89413489D01*
X57683345Y-88840000D01*
X57569271Y-88266511D01*
X57244415Y-87780330D01*
X56934930Y-87573539D01*
X57350732Y-87202036D01*
X57604709Y-86674791D01*
X57607358Y-86659026D01*
X57607358Y-85940974D01*
X57604709Y-85925209D01*
X57350732Y-85397964D01*
X56914320Y-85008046D01*
X56361913Y-84814816D01*
X56127000Y-84959076D01*
X56127000Y-86173000D01*
X57486217Y-86173000D01*
X57607358Y-85940974D01*
X57607358Y-86659026D01*
X57486217Y-86427000D01*
X56127000Y-86427000D01*
X56127000Y-86447000D01*
X55873000Y-86447000D01*
X55873000Y-86427000D01*
X55873000Y-86173000D01*
X55873000Y-84959076D01*
X55638087Y-84814816D01*
X55085680Y-85008046D01*
X54649268Y-85397964D01*
X54395291Y-85925209D01*
X54392642Y-85940974D01*
X54513783Y-86173000D01*
X55873000Y-86173000D01*
X55873000Y-86427000D01*
X54513783Y-86427000D01*
X54392642Y-86659026D01*
X54395291Y-86674791D01*
X54649268Y-87202036D01*
X55065069Y-87573539D01*
X54755585Y-87780330D01*
X54430729Y-88266511D01*
X54316655Y-88840000D01*
X54430729Y-89413489D01*
X54755585Y-89899670D01*
X55070365Y-90110000D01*
X54755585Y-90320330D01*
X54430729Y-90806511D01*
X54316655Y-91380000D01*
X54430729Y-91953489D01*
X54755585Y-92439670D01*
X55070365Y-92650000D01*
X54755585Y-92860330D01*
X54430729Y-93346511D01*
X54316655Y-93920000D01*
X54430729Y-94493489D01*
X54755585Y-94979670D01*
X55070365Y-95190000D01*
X54755585Y-95400330D01*
X54430729Y-95886511D01*
X54316655Y-96460000D01*
X54430729Y-97033489D01*
X54755585Y-97519670D01*
X54771367Y-97530215D01*
X54741877Y-97535937D01*
X54529073Y-97675727D01*
X54386623Y-97886760D01*
X54336560Y-98136400D01*
X54336560Y-99863600D01*
X54383537Y-100105723D01*
X54523327Y-100318527D01*
X54734360Y-100460977D01*
X54984000Y-100511040D01*
X57016000Y-100511040D01*
X57258123Y-100464063D01*
X57470927Y-100324273D01*
X57613377Y-100113240D01*
X57663440Y-99863600D01*
X57663440Y-98136400D01*
X57616463Y-97894277D01*
X57476673Y-97681473D01*
X57265640Y-97539023D01*
X57227037Y-97531281D01*
X57244415Y-97519670D01*
X57569271Y-97033489D01*
X57683345Y-96460000D01*
X57683345Y-145873000D01*
X50127000Y-145873000D01*
X50127000Y-84552605D01*
X54536560Y-80143045D01*
X54536560Y-80263600D01*
X54583537Y-80505723D01*
X54723327Y-80718527D01*
X54934360Y-80860977D01*
X55184000Y-80911040D01*
X57216000Y-80911040D01*
X57458123Y-80864063D01*
X57670927Y-80724273D01*
X57813377Y-80513240D01*
X57863440Y-80263600D01*
X57863440Y-78536400D01*
X57816463Y-78294277D01*
X57676673Y-78081473D01*
X57465640Y-77939023D01*
X57427037Y-77931281D01*
X57444415Y-77919670D01*
X57769271Y-77433489D01*
X57883345Y-76860000D01*
X57769271Y-76286511D01*
X57444415Y-75800330D01*
X57129634Y-75590000D01*
X57444415Y-75379670D01*
X57769271Y-74893489D01*
X57883345Y-74320000D01*
X57769271Y-73746511D01*
X57444415Y-73260330D01*
X57129634Y-73050000D01*
X57444415Y-72839670D01*
X57769271Y-72353489D01*
X57883345Y-71780000D01*
X57769271Y-71206511D01*
X57444415Y-70720330D01*
X57129634Y-70510000D01*
X57444415Y-70299670D01*
X57769271Y-69813489D01*
X57883345Y-69240000D01*
X57769271Y-68666511D01*
X57444415Y-68180330D01*
X57134930Y-67973539D01*
X57550732Y-67602036D01*
X57804709Y-67074791D01*
X57807358Y-67059026D01*
X57807358Y-66340974D01*
X57804709Y-66325209D01*
X57550732Y-65797964D01*
X57114320Y-65408046D01*
X56561913Y-65214816D01*
X56327000Y-65359076D01*
X56327000Y-66573000D01*
X57686217Y-66573000D01*
X57807358Y-66340974D01*
X57807358Y-67059026D01*
X57686217Y-66827000D01*
X56327000Y-66827000D01*
X56327000Y-66847000D01*
X56073000Y-66847000D01*
X56073000Y-66827000D01*
X56053000Y-66827000D01*
X56053000Y-66573000D01*
X56073000Y-66573000D01*
X56073000Y-65359076D01*
X55838087Y-65214816D01*
X55285680Y-65408046D01*
X54849268Y-65797964D01*
X54728427Y-66048822D01*
X50127000Y-61447395D01*
X50127000Y-56127000D01*
X59447395Y-56127000D01*
X63447395Y-60127000D01*
X127552605Y-60127000D01*
X131552605Y-56127000D01*
X143873000Y-56127000D01*
X143873000Y-68447395D01*
X143873000Y-68447395D01*
G37*
X143873000Y-68447395D02*
X142373000Y-69947395D01*
X142373000Y-70729096D01*
X142367143Y-70737862D01*
X142315000Y-71000000D01*
X142315000Y-132000000D01*
X142367143Y-132262138D01*
X142373000Y-132270903D01*
X142373000Y-134873000D01*
X141227959Y-134873000D01*
X141227959Y-132080000D01*
X141113885Y-131506511D01*
X140789029Y-131020330D01*
X140474248Y-130810000D01*
X140789029Y-130599670D01*
X141113885Y-130113489D01*
X141227959Y-129540000D01*
X141113885Y-128966511D01*
X140789029Y-128480330D01*
X140474248Y-128270000D01*
X140789029Y-128059670D01*
X141113885Y-127573489D01*
X141227959Y-127000000D01*
X141113885Y-126426511D01*
X140789029Y-125940330D01*
X140474248Y-125730000D01*
X140789029Y-125519670D01*
X141113885Y-125033489D01*
X141227959Y-124460000D01*
X141113885Y-123886511D01*
X140789029Y-123400330D01*
X140474248Y-123190000D01*
X140789029Y-122979670D01*
X141113885Y-122493489D01*
X141227959Y-121920000D01*
X141113885Y-121346511D01*
X140789029Y-120860330D01*
X140474248Y-120650000D01*
X140789029Y-120439670D01*
X141113885Y-119953489D01*
X141227959Y-119380000D01*
X141113885Y-118806511D01*
X140789029Y-118320330D01*
X140474248Y-118110000D01*
X140789029Y-117899670D01*
X141113885Y-117413489D01*
X141227959Y-116840000D01*
X141113885Y-116266511D01*
X140789029Y-115780330D01*
X140474248Y-115570000D01*
X140789029Y-115359670D01*
X141113885Y-114873489D01*
X141227959Y-114300000D01*
X141113885Y-113726511D01*
X140789029Y-113240330D01*
X140474248Y-113030000D01*
X140789029Y-112819670D01*
X141113885Y-112333489D01*
X141227959Y-111760000D01*
X141113885Y-111186511D01*
X140789029Y-110700330D01*
X140474248Y-110490000D01*
X140789029Y-110279670D01*
X141113885Y-109793489D01*
X141227959Y-109220000D01*
X141113885Y-108646511D01*
X140789029Y-108160330D01*
X140465771Y-107944336D01*
X140588490Y-107886821D01*
X140982688Y-107454947D01*
X141154958Y-107039026D01*
X141154958Y-106320974D01*
X140982688Y-105905053D01*
X140588490Y-105473179D01*
X140453687Y-105410000D01*
X140588490Y-105346821D01*
X140982688Y-104914947D01*
X141154958Y-104499026D01*
X141033817Y-104267000D01*
X139827000Y-104267000D01*
X139827000Y-105345531D01*
X139827000Y-105474469D01*
X139827000Y-106553000D01*
X141033817Y-106553000D01*
X141154958Y-106320974D01*
X141154958Y-107039026D01*
X141033817Y-106807000D01*
X139827000Y-106807000D01*
X139827000Y-106827000D01*
X139573000Y-106827000D01*
X139573000Y-106807000D01*
X139553000Y-106807000D01*
X139553000Y-106553000D01*
X139573000Y-106553000D01*
X139573000Y-105474469D01*
X139573000Y-105345531D01*
X139573000Y-104267000D01*
X138493817Y-104267000D01*
X138366183Y-104267000D01*
X137287000Y-104267000D01*
X137287000Y-104287000D01*
X137033000Y-104287000D01*
X137033000Y-104267000D01*
X137013000Y-104267000D01*
X137013000Y-104013000D01*
X137033000Y-104013000D01*
X137033000Y-103993000D01*
X137287000Y-103993000D01*
X137287000Y-104013000D01*
X138366183Y-104013000D01*
X138493817Y-104013000D01*
X139573000Y-104013000D01*
X139573000Y-103993000D01*
X139827000Y-103993000D01*
X139827000Y-104013000D01*
X141033817Y-104013000D01*
X141154958Y-103780974D01*
X140982688Y-103365053D01*
X140588490Y-102933179D01*
X140465771Y-102875663D01*
X140789029Y-102659670D01*
X141113885Y-102173489D01*
X141227959Y-101600000D01*
X141113885Y-101026511D01*
X140789029Y-100540330D01*
X140474248Y-100330000D01*
X140789029Y-100119670D01*
X141113885Y-99633489D01*
X141227959Y-99060000D01*
X141113885Y-98486511D01*
X140789029Y-98000330D01*
X140474248Y-97790000D01*
X140789029Y-97579670D01*
X141113885Y-97093489D01*
X141227959Y-96520000D01*
X141113885Y-95946511D01*
X140789029Y-95460330D01*
X140474248Y-95250000D01*
X140789029Y-95039670D01*
X141113885Y-94553489D01*
X141227959Y-93980000D01*
X141113885Y-93406511D01*
X140789029Y-92920330D01*
X140474248Y-92710000D01*
X140789029Y-92499670D01*
X141113885Y-92013489D01*
X141227959Y-91440000D01*
X141113885Y-90866511D01*
X140789029Y-90380330D01*
X140474248Y-90170000D01*
X140789029Y-89959670D01*
X141113885Y-89473489D01*
X141227959Y-88900000D01*
X141113885Y-88326511D01*
X140789029Y-87840330D01*
X140474248Y-87630000D01*
X140789029Y-87419670D01*
X141113885Y-86933489D01*
X141227959Y-86360000D01*
X141113885Y-85786511D01*
X140789029Y-85300330D01*
X140474248Y-85090000D01*
X140789029Y-84879670D01*
X141113885Y-84393489D01*
X141227959Y-83820000D01*
X141113885Y-83246511D01*
X140789029Y-82760330D01*
X140474248Y-82550000D01*
X140789029Y-82339670D01*
X141113885Y-81853489D01*
X141227959Y-81280000D01*
X141113885Y-80706511D01*
X140789029Y-80220330D01*
X140474248Y-80010000D01*
X140789029Y-79799670D01*
X141113885Y-79313489D01*
X141227959Y-78740000D01*
X141113885Y-78166511D01*
X140789029Y-77680330D01*
X140474248Y-77470000D01*
X140789029Y-77259670D01*
X141113885Y-76773489D01*
X141227959Y-76200000D01*
X141113885Y-75626511D01*
X140789029Y-75140330D01*
X140474248Y-74930000D01*
X140789029Y-74719670D01*
X141113885Y-74233489D01*
X141227959Y-73660000D01*
X141113885Y-73086511D01*
X140789029Y-72600330D01*
X140474248Y-72390000D01*
X140789029Y-72179670D01*
X141113885Y-71693489D01*
X141227959Y-71120000D01*
X141113885Y-70546511D01*
X140789029Y-70060330D01*
X140474248Y-69850000D01*
X140789029Y-69639670D01*
X141113885Y-69153489D01*
X141227959Y-68580000D01*
X141113885Y-68006511D01*
X140789029Y-67520330D01*
X140302848Y-67195474D01*
X139729359Y-67081400D01*
X139670641Y-67081400D01*
X139097152Y-67195474D01*
X138630470Y-67507300D01*
X138624063Y-67474277D01*
X138484273Y-67261473D01*
X138273240Y-67119023D01*
X138023600Y-67068960D01*
X136296400Y-67068960D01*
X136054277Y-67115937D01*
X135841473Y-67255727D01*
X135699023Y-67466760D01*
X135690731Y-67508104D01*
X135222848Y-67195474D01*
X134649359Y-67081400D01*
X134590641Y-67081400D01*
X134017152Y-67195474D01*
X133550470Y-67507300D01*
X133544063Y-67474277D01*
X133404273Y-67261473D01*
X133193240Y-67119023D01*
X132943600Y-67068960D01*
X131216400Y-67068960D01*
X130974277Y-67115937D01*
X130761473Y-67255727D01*
X130619023Y-67466760D01*
X130568960Y-67716400D01*
X130568960Y-69443600D01*
X130615937Y-69685723D01*
X130755727Y-69898527D01*
X130966760Y-70040977D01*
X131007659Y-70049179D01*
X130990971Y-70060330D01*
X130666115Y-70546511D01*
X130552041Y-71120000D01*
X130666115Y-71693489D01*
X130990971Y-72179670D01*
X131305751Y-72390000D01*
X130990971Y-72600330D01*
X130666115Y-73086511D01*
X130552041Y-73660000D01*
X130666115Y-74233489D01*
X130990971Y-74719670D01*
X131305751Y-74930000D01*
X130990971Y-75140330D01*
X130666115Y-75626511D01*
X130552041Y-76200000D01*
X130666115Y-76773489D01*
X130990971Y-77259670D01*
X131305751Y-77470000D01*
X130990971Y-77680330D01*
X130666115Y-78166511D01*
X130552041Y-78740000D01*
X130666115Y-79313489D01*
X130990971Y-79799670D01*
X131305751Y-80010000D01*
X130990971Y-80220330D01*
X130666115Y-80706511D01*
X130552041Y-81280000D01*
X130666115Y-81853489D01*
X130990971Y-82339670D01*
X131305751Y-82550000D01*
X130990971Y-82760330D01*
X130666115Y-83246511D01*
X130552041Y-83820000D01*
X130666115Y-84393489D01*
X130990971Y-84879670D01*
X131305751Y-85090000D01*
X130990971Y-85300330D01*
X130666115Y-85786511D01*
X130552041Y-86360000D01*
X130666115Y-86933489D01*
X130990971Y-87419670D01*
X131305751Y-87630000D01*
X130990971Y-87840330D01*
X130666115Y-88326511D01*
X130552041Y-88900000D01*
X130666115Y-89473489D01*
X130990971Y-89959670D01*
X131305751Y-90170000D01*
X130990971Y-90380330D01*
X130666115Y-90866511D01*
X130552041Y-91440000D01*
X130666115Y-92013489D01*
X130990971Y-92499670D01*
X131305751Y-92710000D01*
X130990971Y-92920330D01*
X130666115Y-93406511D01*
X130552041Y-93980000D01*
X130666115Y-94553489D01*
X130990971Y-95039670D01*
X131305751Y-95250000D01*
X130990971Y-95460330D01*
X130666115Y-95946511D01*
X130552041Y-96520000D01*
X130666115Y-97093489D01*
X130990971Y-97579670D01*
X131305751Y-97790000D01*
X130990971Y-98000330D01*
X130666115Y-98486511D01*
X130552041Y-99060000D01*
X130666115Y-99633489D01*
X130990971Y-100119670D01*
X131305751Y-100330000D01*
X130990971Y-100540330D01*
X130666115Y-101026511D01*
X130552041Y-101600000D01*
X130666115Y-102173489D01*
X130990971Y-102659670D01*
X131305751Y-102870000D01*
X130990971Y-103080330D01*
X130666115Y-103566511D01*
X130552041Y-104140000D01*
X130666115Y-104713489D01*
X130990971Y-105199670D01*
X131305751Y-105410000D01*
X130990971Y-105620330D01*
X130666115Y-106106511D01*
X130552041Y-106680000D01*
X130666115Y-107253489D01*
X130990971Y-107739670D01*
X131305751Y-107950000D01*
X130990971Y-108160330D01*
X130666115Y-108646511D01*
X130552041Y-109220000D01*
X130666115Y-109793489D01*
X130990971Y-110279670D01*
X131305751Y-110490000D01*
X130990971Y-110700330D01*
X130666115Y-111186511D01*
X130552041Y-111760000D01*
X130666115Y-112333489D01*
X130990971Y-112819670D01*
X131305751Y-113030000D01*
X130990971Y-113240330D01*
X130666115Y-113726511D01*
X130552041Y-114300000D01*
X130666115Y-114873489D01*
X130990971Y-115359670D01*
X131305751Y-115570000D01*
X130990971Y-115780330D01*
X130666115Y-116266511D01*
X130552041Y-116840000D01*
X130666115Y-117413489D01*
X130990971Y-117899670D01*
X131305751Y-118110000D01*
X130990971Y-118320330D01*
X130790737Y-118620000D01*
X127834774Y-118620000D01*
X127834774Y-102776306D01*
X127586462Y-102175345D01*
X127127073Y-101715154D01*
X126526547Y-101465794D01*
X125876306Y-101465226D01*
X125275345Y-101713538D01*
X124815154Y-102172927D01*
X124565794Y-102773453D01*
X124565226Y-103423694D01*
X124813538Y-104024655D01*
X125272927Y-104484846D01*
X125873453Y-104734206D01*
X126523694Y-104734774D01*
X127124655Y-104486462D01*
X127584846Y-104027073D01*
X127834206Y-103426547D01*
X127834774Y-102776306D01*
X127834774Y-118620000D01*
X125794802Y-118620000D01*
X118437401Y-111262599D01*
X118190839Y-111097852D01*
X117900000Y-111040000D01*
X110060000Y-111040000D01*
X110060000Y-110050000D01*
X110002148Y-109759161D01*
X109837401Y-109512599D01*
X109159680Y-108834878D01*
X109160076Y-108834878D01*
X109462598Y-109137401D01*
X109462599Y-109137401D01*
X109627345Y-109247480D01*
X109709160Y-109302147D01*
X109709161Y-109302148D01*
X110000000Y-109360000D01*
X112100000Y-109360000D01*
X112390839Y-109302148D01*
X112637401Y-109137401D01*
X113337401Y-108437402D01*
X113337401Y-108437401D01*
X113447480Y-108272655D01*
X113502147Y-108190840D01*
X113502148Y-108190839D01*
X113559999Y-107900000D01*
X113560000Y-107900000D01*
X113560000Y-106914802D01*
X114114802Y-106360000D01*
X120185198Y-106360000D01*
X120261758Y-106436560D01*
X120236400Y-106436560D01*
X119994277Y-106483537D01*
X119781473Y-106623327D01*
X119639023Y-106834360D01*
X119631281Y-106872962D01*
X119619670Y-106855585D01*
X119133489Y-106530729D01*
X118560000Y-106416655D01*
X117986511Y-106530729D01*
X117500330Y-106855585D01*
X117290000Y-107170365D01*
X117079670Y-106855585D01*
X116593489Y-106530729D01*
X116020000Y-106416655D01*
X115446511Y-106530729D01*
X114960330Y-106855585D01*
X114635474Y-107341766D01*
X114521400Y-107915255D01*
X114521400Y-108284745D01*
X114635474Y-108858234D01*
X114960330Y-109344415D01*
X115446511Y-109669271D01*
X116020000Y-109783345D01*
X116593489Y-109669271D01*
X117079670Y-109344415D01*
X117290000Y-109029634D01*
X117500330Y-109344415D01*
X117986511Y-109669271D01*
X118560000Y-109783345D01*
X119133489Y-109669271D01*
X119619670Y-109344415D01*
X119630215Y-109328632D01*
X119635937Y-109358123D01*
X119775727Y-109570927D01*
X119986760Y-109713377D01*
X120236400Y-109763440D01*
X121963600Y-109763440D01*
X122205723Y-109716463D01*
X122418527Y-109576673D01*
X122560977Y-109365640D01*
X122611040Y-109116000D01*
X122611040Y-107084000D01*
X122564063Y-106841877D01*
X122424273Y-106629073D01*
X122213240Y-106486623D01*
X121963600Y-106436560D01*
X121860000Y-106436560D01*
X121860000Y-106200000D01*
X121802148Y-105909161D01*
X121637401Y-105662599D01*
X121037401Y-105062599D01*
X120790839Y-104897852D01*
X120500000Y-104840000D01*
X113800000Y-104840000D01*
X113509161Y-104897852D01*
X113262599Y-105062599D01*
X112834774Y-105490424D01*
X112834774Y-102776306D01*
X112586462Y-102175345D01*
X112127073Y-101715154D01*
X111526547Y-101465794D01*
X110876306Y-101465226D01*
X110275345Y-101713538D01*
X109815154Y-102172927D01*
X109565794Y-102773453D01*
X109565226Y-103423694D01*
X109813538Y-104024655D01*
X110272927Y-104484846D01*
X110873453Y-104734206D01*
X111523694Y-104734774D01*
X112124655Y-104486462D01*
X112584846Y-104027073D01*
X112834206Y-103426547D01*
X112834774Y-102776306D01*
X112834774Y-105490424D01*
X112262599Y-106062599D01*
X112097852Y-106309161D01*
X112040000Y-106600000D01*
X112040000Y-107585197D01*
X111785197Y-107840000D01*
X110314802Y-107840000D01*
X110235122Y-107760319D01*
X110235162Y-107714833D01*
X110093117Y-107371057D01*
X109830327Y-107107808D01*
X109486799Y-106965162D01*
X109114833Y-106964838D01*
X108771057Y-107106883D01*
X108760000Y-107117920D01*
X108760000Y-102314802D01*
X114787401Y-96287401D01*
X114952148Y-96040839D01*
X115010000Y-95750000D01*
X115010000Y-88978448D01*
X115460000Y-89067959D01*
X116033489Y-88953885D01*
X116519670Y-88629029D01*
X116730000Y-88314248D01*
X116940330Y-88629029D01*
X117426511Y-88953885D01*
X118000000Y-89067959D01*
X118573489Y-88953885D01*
X119059670Y-88629029D01*
X119384526Y-88142848D01*
X119498600Y-87569359D01*
X119498600Y-87510641D01*
X119384526Y-86937152D01*
X119072699Y-86470470D01*
X119105723Y-86464063D01*
X119318527Y-86324273D01*
X119460977Y-86113240D01*
X119511040Y-85863600D01*
X119511040Y-84136400D01*
X119464063Y-83894277D01*
X119324273Y-83681473D01*
X119113240Y-83539023D01*
X118863600Y-83488960D01*
X117136400Y-83488960D01*
X116894277Y-83535937D01*
X116681473Y-83675727D01*
X116539023Y-83886760D01*
X116530820Y-83927659D01*
X116519670Y-83910971D01*
X116033489Y-83586115D01*
X115460000Y-83472041D01*
X114886511Y-83586115D01*
X114400330Y-83910971D01*
X114190000Y-84225751D01*
X113979670Y-83910971D01*
X113493489Y-83586115D01*
X112920000Y-83472041D01*
X112346511Y-83586115D01*
X111860330Y-83910971D01*
X111650000Y-84225751D01*
X111439670Y-83910971D01*
X110953489Y-83586115D01*
X110380000Y-83472041D01*
X109806511Y-83586115D01*
X109320330Y-83910971D01*
X109104336Y-84234228D01*
X109046821Y-84111510D01*
X108614947Y-83717312D01*
X108199026Y-83545042D01*
X107967000Y-83666183D01*
X107967000Y-84873000D01*
X107987000Y-84873000D01*
X107987000Y-85127000D01*
X107967000Y-85127000D01*
X107967000Y-85147000D01*
X107713000Y-85147000D01*
X107713000Y-85127000D01*
X107693000Y-85127000D01*
X107693000Y-84873000D01*
X107713000Y-84873000D01*
X107713000Y-83666183D01*
X107480974Y-83545042D01*
X107065053Y-83717312D01*
X106633179Y-84111510D01*
X106575663Y-84234228D01*
X106359670Y-83910971D01*
X105873489Y-83586115D01*
X105300000Y-83472041D01*
X104726511Y-83586115D01*
X104240330Y-83910971D01*
X104030000Y-84225751D01*
X103819670Y-83910971D01*
X103333489Y-83586115D01*
X102760000Y-83472041D01*
X102186511Y-83586115D01*
X101700330Y-83910971D01*
X101490000Y-84225751D01*
X101279670Y-83910971D01*
X100793489Y-83586115D01*
X100220000Y-83472041D01*
X99646511Y-83586115D01*
X99160330Y-83910971D01*
X98950000Y-84225751D01*
X98739670Y-83910971D01*
X98253489Y-83586115D01*
X97680000Y-83472041D01*
X97106511Y-83586115D01*
X96620330Y-83910971D01*
X96410000Y-84225751D01*
X96199670Y-83910971D01*
X95713489Y-83586115D01*
X95140000Y-83472041D01*
X94566511Y-83586115D01*
X94080330Y-83910971D01*
X93870000Y-84225751D01*
X93659670Y-83910971D01*
X93173489Y-83586115D01*
X92600000Y-83472041D01*
X92026511Y-83586115D01*
X91540330Y-83910971D01*
X91330000Y-84225751D01*
X91119670Y-83910971D01*
X90633489Y-83586115D01*
X90060000Y-83472041D01*
X89486511Y-83586115D01*
X89000330Y-83910971D01*
X88784336Y-84234228D01*
X88726821Y-84111510D01*
X88294947Y-83717312D01*
X87879026Y-83545042D01*
X87647000Y-83666183D01*
X87647000Y-84873000D01*
X87667000Y-84873000D01*
X87667000Y-85127000D01*
X87647000Y-85127000D01*
X87647000Y-85147000D01*
X87393000Y-85147000D01*
X87393000Y-85127000D01*
X87373000Y-85127000D01*
X87373000Y-84873000D01*
X87393000Y-84873000D01*
X87393000Y-83666183D01*
X87160974Y-83545042D01*
X87010000Y-83607573D01*
X87010000Y-82500000D01*
X86952148Y-82209161D01*
X86952148Y-82209160D01*
X86787401Y-81962599D01*
X86435122Y-81610320D01*
X86435162Y-81564833D01*
X86293117Y-81221057D01*
X86030327Y-80957808D01*
X85686799Y-80815162D01*
X85314833Y-80814838D01*
X84971057Y-80956883D01*
X84707808Y-81219673D01*
X84565162Y-81563201D01*
X84564838Y-81935167D01*
X84706883Y-82278943D01*
X84969673Y-82542192D01*
X85313201Y-82684838D01*
X85360076Y-82684878D01*
X85490000Y-82814802D01*
X85490000Y-83573486D01*
X84980000Y-83472041D01*
X84406511Y-83586115D01*
X83920330Y-83910971D01*
X83710000Y-84225751D01*
X83499670Y-83910971D01*
X83013489Y-83586115D01*
X82440000Y-83472041D01*
X81866511Y-83586115D01*
X81380330Y-83910971D01*
X81170000Y-84225751D01*
X80959670Y-83910971D01*
X80473489Y-83586115D01*
X79900000Y-83472041D01*
X79326511Y-83586115D01*
X78840330Y-83910971D01*
X78630000Y-84225751D01*
X78419670Y-83910971D01*
X77933489Y-83586115D01*
X77360000Y-83472041D01*
X76786511Y-83586115D01*
X76300330Y-83910971D01*
X76090000Y-84225751D01*
X75879670Y-83910971D01*
X75393489Y-83586115D01*
X74820000Y-83472041D01*
X74246511Y-83586115D01*
X73760330Y-83910971D01*
X73550000Y-84225751D01*
X73339670Y-83910971D01*
X72853489Y-83586115D01*
X72280000Y-83472041D01*
X71706511Y-83586115D01*
X71220330Y-83910971D01*
X71004336Y-84234228D01*
X70946821Y-84111510D01*
X70514947Y-83717312D01*
X70099026Y-83545042D01*
X69867000Y-83666183D01*
X69867000Y-84873000D01*
X69887000Y-84873000D01*
X69887000Y-85127000D01*
X69867000Y-85127000D01*
X69867000Y-85147000D01*
X69613000Y-85147000D01*
X69613000Y-85127000D01*
X69613000Y-84873000D01*
X69613000Y-83666183D01*
X69380974Y-83545042D01*
X68965053Y-83717312D01*
X68533179Y-84111510D01*
X68285032Y-84640973D01*
X68405531Y-84873000D01*
X69613000Y-84873000D01*
X69613000Y-85127000D01*
X68405531Y-85127000D01*
X68285032Y-85359027D01*
X68533179Y-85888490D01*
X68951160Y-86270007D01*
X68680330Y-86450971D01*
X68355474Y-86937152D01*
X68241400Y-87510641D01*
X68241400Y-87569359D01*
X68355474Y-88142848D01*
X68680330Y-88629029D01*
X69166511Y-88953885D01*
X69740000Y-89067959D01*
X70313489Y-88953885D01*
X70799670Y-88629029D01*
X71010000Y-88314248D01*
X71220330Y-88629029D01*
X71706511Y-88953885D01*
X72280000Y-89067959D01*
X72853489Y-88953885D01*
X73339670Y-88629029D01*
X73550000Y-88314248D01*
X73760330Y-88629029D01*
X74246511Y-88953885D01*
X74820000Y-89067959D01*
X75393489Y-88953885D01*
X75879670Y-88629029D01*
X76095663Y-88305771D01*
X76153179Y-88428490D01*
X76585053Y-88822688D01*
X77000974Y-88994958D01*
X77233000Y-88873817D01*
X77233000Y-87667000D01*
X77213000Y-87667000D01*
X77213000Y-87413000D01*
X77233000Y-87413000D01*
X77233000Y-87393000D01*
X77487000Y-87393000D01*
X77487000Y-87413000D01*
X77507000Y-87413000D01*
X77507000Y-87667000D01*
X77487000Y-87667000D01*
X77487000Y-88873817D01*
X77719026Y-88994958D01*
X78134947Y-88822688D01*
X78566821Y-88428490D01*
X78624336Y-88305771D01*
X78840330Y-88629029D01*
X79326511Y-88953885D01*
X79900000Y-89067959D01*
X80473489Y-88953885D01*
X80959670Y-88629029D01*
X81175663Y-88305771D01*
X81233179Y-88428490D01*
X81665053Y-88822688D01*
X82080974Y-88994958D01*
X82313000Y-88873817D01*
X82313000Y-87667000D01*
X82293000Y-87667000D01*
X82293000Y-87413000D01*
X82313000Y-87413000D01*
X82313000Y-87393000D01*
X82567000Y-87393000D01*
X82567000Y-87413000D01*
X82587000Y-87413000D01*
X82587000Y-87667000D01*
X82567000Y-87667000D01*
X82567000Y-88873817D01*
X82799026Y-88994958D01*
X83214947Y-88822688D01*
X83646821Y-88428490D01*
X83704336Y-88305771D01*
X83920330Y-88629029D01*
X84406511Y-88953885D01*
X84980000Y-89067959D01*
X85553489Y-88953885D01*
X86039670Y-88629029D01*
X86250000Y-88314248D01*
X86460330Y-88629029D01*
X86946511Y-88953885D01*
X87520000Y-89067959D01*
X88093489Y-88953885D01*
X88579670Y-88629029D01*
X88790000Y-88314248D01*
X89000330Y-88629029D01*
X89486511Y-88953885D01*
X90060000Y-89067959D01*
X90633489Y-88953885D01*
X91119670Y-88629029D01*
X91330000Y-88314248D01*
X91540330Y-88629029D01*
X92026511Y-88953885D01*
X92600000Y-89067959D01*
X93173489Y-88953885D01*
X93659670Y-88629029D01*
X93875663Y-88305771D01*
X93933179Y-88428490D01*
X94365053Y-88822688D01*
X94780974Y-88994958D01*
X95013000Y-88873817D01*
X95013000Y-87667000D01*
X94993000Y-87667000D01*
X94993000Y-87413000D01*
X95013000Y-87413000D01*
X95013000Y-87393000D01*
X95267000Y-87393000D01*
X95267000Y-87413000D01*
X95287000Y-87413000D01*
X95287000Y-87667000D01*
X95267000Y-87667000D01*
X95267000Y-88873817D01*
X95499026Y-88994958D01*
X95914947Y-88822688D01*
X96346821Y-88428490D01*
X96404336Y-88305771D01*
X96620330Y-88629029D01*
X97106511Y-88953885D01*
X97680000Y-89067959D01*
X98253489Y-88953885D01*
X98739670Y-88629029D01*
X98950000Y-88314248D01*
X99160330Y-88629029D01*
X99646511Y-88953885D01*
X100220000Y-89067959D01*
X100793489Y-88953885D01*
X101279670Y-88629029D01*
X101495663Y-88305771D01*
X101553179Y-88428490D01*
X101985053Y-88822688D01*
X102400974Y-88994958D01*
X102633000Y-88873817D01*
X102633000Y-87667000D01*
X102613000Y-87667000D01*
X102613000Y-87413000D01*
X102633000Y-87413000D01*
X102633000Y-87393000D01*
X102887000Y-87393000D01*
X102887000Y-87413000D01*
X102907000Y-87413000D01*
X102907000Y-87667000D01*
X102887000Y-87667000D01*
X102887000Y-88873817D01*
X103119026Y-88994958D01*
X103534947Y-88822688D01*
X103966821Y-88428490D01*
X104024336Y-88305771D01*
X104240330Y-88629029D01*
X104726511Y-88953885D01*
X105300000Y-89067959D01*
X105873489Y-88953885D01*
X106359670Y-88629029D01*
X106570000Y-88314248D01*
X106780330Y-88629029D01*
X107266511Y-88953885D01*
X107840000Y-89067959D01*
X108413489Y-88953885D01*
X108899670Y-88629029D01*
X109110000Y-88314248D01*
X109320330Y-88629029D01*
X109806511Y-88953885D01*
X110380000Y-89067959D01*
X110840000Y-88976459D01*
X110840000Y-90100000D01*
X110897852Y-90390839D01*
X110990000Y-90528748D01*
X110990000Y-93935198D01*
X102562599Y-102362599D01*
X102397852Y-102609161D01*
X102340000Y-102900000D01*
X102340000Y-110137537D01*
X102307808Y-110169673D01*
X102165162Y-110513201D01*
X102164838Y-110885167D01*
X102306883Y-111228943D01*
X102569673Y-111492192D01*
X102913201Y-111634838D01*
X102960076Y-111634878D01*
X105362599Y-114037401D01*
X105609161Y-114202148D01*
X105900000Y-114260000D01*
X116285198Y-114260000D01*
X124482599Y-122457401D01*
X124729160Y-122622148D01*
X124729161Y-122622148D01*
X125020000Y-122680000D01*
X130790737Y-122680000D01*
X130990971Y-122979670D01*
X131305751Y-123190000D01*
X130990971Y-123400330D01*
X130666115Y-123886511D01*
X130552041Y-124460000D01*
X130666115Y-125033489D01*
X130990971Y-125519670D01*
X131305751Y-125730000D01*
X130990971Y-125940330D01*
X130666115Y-126426511D01*
X130552041Y-127000000D01*
X130666115Y-127573489D01*
X130990971Y-128059670D01*
X131305751Y-128270000D01*
X130990971Y-128480330D01*
X130666115Y-128966511D01*
X130552041Y-129540000D01*
X130666115Y-130113489D01*
X130990971Y-130599670D01*
X131305751Y-130810000D01*
X130990971Y-131020330D01*
X130666115Y-131506511D01*
X130552041Y-132080000D01*
X130666115Y-132653489D01*
X130990971Y-133139670D01*
X131477152Y-133464526D01*
X132050641Y-133578600D01*
X132109359Y-133578600D01*
X132682848Y-133464526D01*
X133169029Y-133139670D01*
X133350000Y-132868827D01*
X133530971Y-133139670D01*
X134017152Y-133464526D01*
X134590641Y-133578600D01*
X134649359Y-133578600D01*
X135222848Y-133464526D01*
X135709029Y-133139670D01*
X135890000Y-132868827D01*
X136070971Y-133139670D01*
X136557152Y-133464526D01*
X137130641Y-133578600D01*
X137189359Y-133578600D01*
X137762848Y-133464526D01*
X138249029Y-133139670D01*
X138430000Y-132868827D01*
X138610971Y-133139670D01*
X139097152Y-133464526D01*
X139670641Y-133578600D01*
X139729359Y-133578600D01*
X140302848Y-133464526D01*
X140789029Y-133139670D01*
X141113885Y-132653489D01*
X141227959Y-132080000D01*
X141227959Y-134873000D01*
X130447395Y-134873000D01*
X124447395Y-140873000D01*
X119461040Y-140873000D01*
X119461040Y-135096000D01*
X119461040Y-133064000D01*
X119414063Y-132821877D01*
X119407135Y-132811331D01*
X119410977Y-132805640D01*
X119461040Y-132556000D01*
X119461040Y-130524000D01*
X119414063Y-130281877D01*
X119407135Y-130271331D01*
X119410977Y-130265640D01*
X119461040Y-130016000D01*
X119461040Y-127984000D01*
X119414063Y-127741877D01*
X119407135Y-127731331D01*
X119410977Y-127725640D01*
X119461040Y-127476000D01*
X119461040Y-125444000D01*
X119414063Y-125201877D01*
X119274273Y-124989073D01*
X119063240Y-124846623D01*
X118813600Y-124796560D01*
X117086400Y-124796560D01*
X116844277Y-124843537D01*
X116631473Y-124983327D01*
X116489023Y-125194360D01*
X116481281Y-125232962D01*
X116469670Y-125215585D01*
X115983489Y-124890729D01*
X115410000Y-124776655D01*
X114857332Y-124886587D01*
X114802148Y-124609161D01*
X114637401Y-124362599D01*
X112937401Y-122662599D01*
X112690839Y-122497852D01*
X112400000Y-122440000D01*
X102014802Y-122440000D01*
X97237401Y-117662599D01*
X96990839Y-117497852D01*
X96700000Y-117440000D01*
X96535162Y-117440000D01*
X96535162Y-102414833D01*
X96393117Y-102071057D01*
X96130327Y-101807808D01*
X95786799Y-101665162D01*
X95739923Y-101665121D01*
X95137401Y-101062599D01*
X94890839Y-100897852D01*
X94600000Y-100840000D01*
X76000000Y-100840000D01*
X75709161Y-100897852D01*
X75462599Y-101062599D01*
X65462599Y-111062599D01*
X65297852Y-111309161D01*
X65240000Y-111600000D01*
X65240000Y-113937537D01*
X65207808Y-113969673D01*
X65065162Y-114313201D01*
X65064838Y-114685167D01*
X65206883Y-115028943D01*
X65240000Y-115062117D01*
X65240000Y-121837537D01*
X65207808Y-121869673D01*
X65065162Y-122213201D01*
X65064838Y-122585167D01*
X65206883Y-122928943D01*
X65240000Y-122962117D01*
X65240000Y-134337537D01*
X65207808Y-134369673D01*
X65065162Y-134713201D01*
X65064838Y-135085167D01*
X65206883Y-135428943D01*
X65240000Y-135462117D01*
X65240000Y-141937537D01*
X65207808Y-141969673D01*
X65065162Y-142313201D01*
X65064838Y-142685167D01*
X65206883Y-143028943D01*
X65469673Y-143292192D01*
X65813201Y-143434838D01*
X66185167Y-143435162D01*
X66528943Y-143293117D01*
X66792192Y-143030327D01*
X66934838Y-142686799D01*
X66935162Y-142314833D01*
X66793117Y-141971057D01*
X66760000Y-141937882D01*
X66760000Y-135462462D01*
X66792192Y-135430327D01*
X66934838Y-135086799D01*
X66935162Y-134714833D01*
X66793117Y-134371057D01*
X66760000Y-134337882D01*
X66760000Y-122962462D01*
X66792192Y-122930327D01*
X66934838Y-122586799D01*
X66935162Y-122214833D01*
X66793117Y-121871057D01*
X66760000Y-121837882D01*
X66760000Y-115062462D01*
X66792192Y-115030327D01*
X66934838Y-114686799D01*
X66935162Y-114314833D01*
X66793117Y-113971057D01*
X66760000Y-113937882D01*
X66760000Y-111914802D01*
X73740000Y-104934802D01*
X73740000Y-113685198D01*
X73360320Y-114064877D01*
X73314833Y-114064838D01*
X72971057Y-114206883D01*
X72707808Y-114469673D01*
X72565162Y-114813201D01*
X72564838Y-115185167D01*
X72706883Y-115528943D01*
X72969673Y-115792192D01*
X73313201Y-115934838D01*
X73685167Y-115935162D01*
X73740000Y-115912505D01*
X73740000Y-121937537D01*
X73707808Y-121969673D01*
X73565162Y-122313201D01*
X73564838Y-122685167D01*
X73706883Y-123028943D01*
X73740000Y-123062117D01*
X73740000Y-134437537D01*
X73707808Y-134469673D01*
X73565162Y-134813201D01*
X73564838Y-135185167D01*
X73706883Y-135528943D01*
X73740000Y-135562117D01*
X73740000Y-141437537D01*
X73707808Y-141469673D01*
X73565162Y-141813201D01*
X73564838Y-142185167D01*
X73706883Y-142528943D01*
X73969673Y-142792192D01*
X74313201Y-142934838D01*
X74685167Y-142935162D01*
X75028943Y-142793117D01*
X75292192Y-142530327D01*
X75434838Y-142186799D01*
X75435162Y-141814833D01*
X75293117Y-141471057D01*
X75260000Y-141437882D01*
X75260000Y-135562462D01*
X75292192Y-135530327D01*
X75434838Y-135186799D01*
X75435162Y-134814833D01*
X75293117Y-134471057D01*
X75260000Y-134437882D01*
X75260000Y-123062462D01*
X75292192Y-123030327D01*
X75434838Y-122686799D01*
X75435162Y-122314833D01*
X75293117Y-121971057D01*
X75260000Y-121937882D01*
X75260000Y-114000000D01*
X75260000Y-104814802D01*
X76914802Y-103160000D01*
X79837537Y-103160000D01*
X79869673Y-103192192D01*
X80213201Y-103334838D01*
X80585167Y-103335162D01*
X80928943Y-103193117D01*
X81192192Y-102930327D01*
X81334838Y-102586799D01*
X81335035Y-102360000D01*
X94285198Y-102360000D01*
X94664877Y-102739679D01*
X94664838Y-102785167D01*
X94806883Y-103128943D01*
X95069673Y-103392192D01*
X95413201Y-103534838D01*
X95785167Y-103535162D01*
X96128943Y-103393117D01*
X96392192Y-103130327D01*
X96534838Y-102786799D01*
X96535162Y-102414833D01*
X96535162Y-117440000D01*
X92300000Y-117440000D01*
X91314802Y-117440000D01*
X81635122Y-107760320D01*
X81635162Y-107714833D01*
X81493117Y-107371057D01*
X81230327Y-107107808D01*
X80886799Y-106965162D01*
X80514833Y-106964838D01*
X80171057Y-107106883D01*
X79907808Y-107369673D01*
X79765162Y-107713201D01*
X79764838Y-108085167D01*
X79906883Y-108428943D01*
X80169673Y-108692192D01*
X80513201Y-108834838D01*
X80560076Y-108834878D01*
X82790188Y-111064990D01*
X82614833Y-111064838D01*
X82271057Y-111206883D01*
X82007808Y-111469673D01*
X81865162Y-111813201D01*
X81864838Y-112185167D01*
X82006883Y-112528943D01*
X82269673Y-112792192D01*
X82613201Y-112934838D01*
X82660076Y-112934878D01*
X90162599Y-120437401D01*
X90409161Y-120602148D01*
X90700000Y-120660000D01*
X96485198Y-120660000D01*
X100362599Y-124537401D01*
X100609161Y-124702148D01*
X100900000Y-124760000D01*
X102385198Y-124760000D01*
X102452977Y-124827779D01*
X102136511Y-124890729D01*
X101650330Y-125215585D01*
X101440000Y-125530365D01*
X101229670Y-125215585D01*
X100743489Y-124890729D01*
X100170000Y-124776655D01*
X99660000Y-124878100D01*
X99660000Y-124800000D01*
X99602148Y-124509161D01*
X99602148Y-124509160D01*
X99437401Y-124262599D01*
X96237401Y-121062599D01*
X95990839Y-120897852D01*
X95700000Y-120840000D01*
X87714802Y-120840000D01*
X79835122Y-112960320D01*
X79835162Y-112914833D01*
X79693117Y-112571057D01*
X79430327Y-112307808D01*
X79086799Y-112165162D01*
X78714833Y-112164838D01*
X78371057Y-112306883D01*
X78107808Y-112569673D01*
X77965162Y-112913201D01*
X77964838Y-113285167D01*
X78106883Y-113628943D01*
X78369673Y-113892192D01*
X78713201Y-114034838D01*
X78760076Y-114034878D01*
X86862599Y-122137401D01*
X87109161Y-122302148D01*
X87400000Y-122360000D01*
X95385198Y-122360000D01*
X97844524Y-124819326D01*
X97630000Y-124776655D01*
X97056511Y-124890729D01*
X96570330Y-125215585D01*
X96360000Y-125530365D01*
X96149670Y-125215585D01*
X95663489Y-124890729D01*
X95090000Y-124776655D01*
X94516511Y-124890729D01*
X94030330Y-125215585D01*
X93820000Y-125530365D01*
X93609670Y-125215585D01*
X93123489Y-124890729D01*
X92550000Y-124776655D01*
X91976511Y-124890729D01*
X91490330Y-125215585D01*
X91280000Y-125530365D01*
X91069670Y-125215585D01*
X90583489Y-124890729D01*
X90010000Y-124776655D01*
X89436511Y-124890729D01*
X88950330Y-125215585D01*
X88740000Y-125530365D01*
X88529670Y-125215585D01*
X88043489Y-124890729D01*
X87470000Y-124776655D01*
X86896511Y-124890729D01*
X86410330Y-125215585D01*
X86200000Y-125530365D01*
X85989670Y-125215585D01*
X85503489Y-124890729D01*
X84930000Y-124776655D01*
X84356511Y-124890729D01*
X83870330Y-125215585D01*
X83545474Y-125701766D01*
X83431400Y-126275255D01*
X83431400Y-126644745D01*
X83545474Y-127218234D01*
X83870330Y-127704415D01*
X83908620Y-127730000D01*
X83870330Y-127755585D01*
X83545474Y-128241766D01*
X83431400Y-128815255D01*
X83431400Y-129184745D01*
X83545474Y-129758234D01*
X83870330Y-130244415D01*
X83908620Y-130270000D01*
X83870330Y-130295585D01*
X83545474Y-130781766D01*
X83431400Y-131355255D01*
X83431400Y-131724745D01*
X83545474Y-132298234D01*
X83870330Y-132784415D01*
X83908620Y-132810000D01*
X83870330Y-132835585D01*
X83545474Y-133321766D01*
X83431400Y-133895255D01*
X83431400Y-134264745D01*
X83545474Y-134838234D01*
X83870330Y-135324415D01*
X84356511Y-135649271D01*
X84930000Y-135763345D01*
X85503489Y-135649271D01*
X85989670Y-135324415D01*
X86200000Y-135009634D01*
X86410330Y-135324415D01*
X86896511Y-135649271D01*
X87470000Y-135763345D01*
X88043489Y-135649271D01*
X88529670Y-135324415D01*
X88740000Y-135009634D01*
X88950330Y-135324415D01*
X89436511Y-135649271D01*
X90010000Y-135763345D01*
X90583489Y-135649271D01*
X91069670Y-135324415D01*
X91280000Y-135009634D01*
X91490330Y-135324415D01*
X91976511Y-135649271D01*
X92550000Y-135763345D01*
X93123489Y-135649271D01*
X93609670Y-135324415D01*
X93820000Y-135009634D01*
X94030330Y-135324415D01*
X94516511Y-135649271D01*
X95090000Y-135763345D01*
X95663489Y-135649271D01*
X96149670Y-135324415D01*
X96360000Y-135009634D01*
X96570330Y-135324415D01*
X97056511Y-135649271D01*
X97630000Y-135763345D01*
X98203489Y-135649271D01*
X98689670Y-135324415D01*
X98900000Y-135009634D01*
X99110330Y-135324415D01*
X99596511Y-135649271D01*
X100170000Y-135763345D01*
X100743489Y-135649271D01*
X101229670Y-135324415D01*
X101440000Y-135009634D01*
X101650330Y-135324415D01*
X102136511Y-135649271D01*
X102710000Y-135763345D01*
X103283489Y-135649271D01*
X103769670Y-135324415D01*
X103980000Y-135009634D01*
X104190330Y-135324415D01*
X104676511Y-135649271D01*
X105250000Y-135763345D01*
X105823489Y-135649271D01*
X106309670Y-135324415D01*
X106520000Y-135009634D01*
X106730330Y-135324415D01*
X107216511Y-135649271D01*
X107790000Y-135763345D01*
X108363489Y-135649271D01*
X108849670Y-135324415D01*
X109060000Y-135009634D01*
X109270330Y-135324415D01*
X109756511Y-135649271D01*
X110330000Y-135763345D01*
X110903489Y-135649271D01*
X111389670Y-135324415D01*
X111600000Y-135009634D01*
X111810330Y-135324415D01*
X112296511Y-135649271D01*
X112870000Y-135763345D01*
X113443489Y-135649271D01*
X113929670Y-135324415D01*
X114140000Y-135009634D01*
X114350330Y-135324415D01*
X114836511Y-135649271D01*
X115410000Y-135763345D01*
X115983489Y-135649271D01*
X116469670Y-135324415D01*
X116480215Y-135308632D01*
X116485937Y-135338123D01*
X116625727Y-135550927D01*
X116836760Y-135693377D01*
X117086400Y-135743440D01*
X118813600Y-135743440D01*
X119055723Y-135696463D01*
X119268527Y-135556673D01*
X119410977Y-135345640D01*
X119461040Y-135096000D01*
X119461040Y-140873000D01*
X92450901Y-140873000D01*
X86950901Y-145873000D01*
X61373345Y-145873000D01*
X61373345Y-138620000D01*
X61259271Y-138046511D01*
X60934415Y-137560330D01*
X60619634Y-137350000D01*
X60934415Y-137139670D01*
X61259271Y-136653489D01*
X61373345Y-136080000D01*
X61259271Y-135506511D01*
X60934415Y-135020330D01*
X60619634Y-134810000D01*
X60934415Y-134599670D01*
X61259271Y-134113489D01*
X61373345Y-133540000D01*
X61259271Y-132966511D01*
X60934415Y-132480330D01*
X60619634Y-132270000D01*
X60934415Y-132059670D01*
X61259271Y-131573489D01*
X61373345Y-131000000D01*
X61373345Y-119570000D01*
X61259271Y-118996511D01*
X60934415Y-118510330D01*
X60619634Y-118300000D01*
X60934415Y-118089670D01*
X61259271Y-117603489D01*
X61373345Y-117030000D01*
X61259271Y-116456511D01*
X60934415Y-115970330D01*
X60619634Y-115760000D01*
X60934415Y-115549670D01*
X61259271Y-115063489D01*
X61373345Y-114490000D01*
X61259271Y-113916511D01*
X60934415Y-113430330D01*
X60619634Y-113220000D01*
X60934415Y-113009670D01*
X61259271Y-112523489D01*
X61373345Y-111950000D01*
X61259271Y-111376511D01*
X60934415Y-110890330D01*
X60624930Y-110683539D01*
X61040732Y-110312036D01*
X61294709Y-109784791D01*
X61297358Y-109769026D01*
X61297358Y-109050974D01*
X61294709Y-109035209D01*
X61040732Y-108507964D01*
X60604320Y-108118046D01*
X60051913Y-107924816D01*
X59817000Y-108069076D01*
X59817000Y-109283000D01*
X61176217Y-109283000D01*
X61297358Y-109050974D01*
X61297358Y-109769026D01*
X61176217Y-109537000D01*
X59817000Y-109537000D01*
X59817000Y-109557000D01*
X59563000Y-109557000D01*
X59563000Y-109537000D01*
X59563000Y-109283000D01*
X59563000Y-108069076D01*
X59328087Y-107924816D01*
X58775680Y-108118046D01*
X58339268Y-108507964D01*
X58085291Y-109035209D01*
X58082642Y-109050974D01*
X58203783Y-109283000D01*
X59563000Y-109283000D01*
X59563000Y-109537000D01*
X58203783Y-109537000D01*
X58082642Y-109769026D01*
X58085291Y-109784791D01*
X58339268Y-110312036D01*
X58755069Y-110683539D01*
X58445585Y-110890330D01*
X58120729Y-111376511D01*
X58006655Y-111950000D01*
X58120729Y-112523489D01*
X58445585Y-113009670D01*
X58760365Y-113220000D01*
X58445585Y-113430330D01*
X58120729Y-113916511D01*
X58006655Y-114490000D01*
X58120729Y-115063489D01*
X58445585Y-115549670D01*
X58760365Y-115760000D01*
X58445585Y-115970330D01*
X58120729Y-116456511D01*
X58006655Y-117030000D01*
X58120729Y-117603489D01*
X58445585Y-118089670D01*
X58760365Y-118300000D01*
X58445585Y-118510330D01*
X58120729Y-118996511D01*
X58006655Y-119570000D01*
X58120729Y-120143489D01*
X58445585Y-120629670D01*
X58461367Y-120640215D01*
X58431877Y-120645937D01*
X58219073Y-120785727D01*
X58076623Y-120996760D01*
X58026560Y-121246400D01*
X58026560Y-122973600D01*
X58073537Y-123215723D01*
X58213327Y-123428527D01*
X58424360Y-123570977D01*
X58674000Y-123621040D01*
X60706000Y-123621040D01*
X60948123Y-123574063D01*
X61160927Y-123434273D01*
X61303377Y-123223240D01*
X61353440Y-122973600D01*
X61353440Y-121246400D01*
X61306463Y-121004277D01*
X61166673Y-120791473D01*
X60955640Y-120649023D01*
X60917037Y-120641281D01*
X60934415Y-120629670D01*
X61259271Y-120143489D01*
X61373345Y-119570000D01*
X61373345Y-131000000D01*
X61259271Y-130426511D01*
X60934415Y-129940330D01*
X60624930Y-129733539D01*
X61040732Y-129362036D01*
X61294709Y-128834791D01*
X61297358Y-128819026D01*
X61297358Y-128100974D01*
X61294709Y-128085209D01*
X61040732Y-127557964D01*
X60604320Y-127168046D01*
X60051913Y-126974816D01*
X59817000Y-127119076D01*
X59817000Y-128333000D01*
X61176217Y-128333000D01*
X61297358Y-128100974D01*
X61297358Y-128819026D01*
X61176217Y-128587000D01*
X59817000Y-128587000D01*
X59817000Y-128607000D01*
X59563000Y-128607000D01*
X59563000Y-128587000D01*
X59563000Y-128333000D01*
X59563000Y-127119076D01*
X59328087Y-126974816D01*
X58775680Y-127168046D01*
X58339268Y-127557964D01*
X58085291Y-128085209D01*
X58082642Y-128100974D01*
X58203783Y-128333000D01*
X59563000Y-128333000D01*
X59563000Y-128587000D01*
X58203783Y-128587000D01*
X58082642Y-128819026D01*
X58085291Y-128834791D01*
X58339268Y-129362036D01*
X58755069Y-129733539D01*
X58445585Y-129940330D01*
X58120729Y-130426511D01*
X58006655Y-131000000D01*
X58120729Y-131573489D01*
X58445585Y-132059670D01*
X58760365Y-132270000D01*
X58445585Y-132480330D01*
X58120729Y-132966511D01*
X58006655Y-133540000D01*
X58120729Y-134113489D01*
X58445585Y-134599670D01*
X58760365Y-134810000D01*
X58445585Y-135020330D01*
X58120729Y-135506511D01*
X58006655Y-136080000D01*
X58120729Y-136653489D01*
X58445585Y-137139670D01*
X58760365Y-137350000D01*
X58445585Y-137560330D01*
X58120729Y-138046511D01*
X58006655Y-138620000D01*
X58120729Y-139193489D01*
X58445585Y-139679670D01*
X58461367Y-139690215D01*
X58431877Y-139695937D01*
X58219073Y-139835727D01*
X58076623Y-140046760D01*
X58026560Y-140296400D01*
X58026560Y-142023600D01*
X58073537Y-142265723D01*
X58213327Y-142478527D01*
X58424360Y-142620977D01*
X58674000Y-142671040D01*
X60706000Y-142671040D01*
X60948123Y-142624063D01*
X61160927Y-142484273D01*
X61303377Y-142273240D01*
X61353440Y-142023600D01*
X61353440Y-140296400D01*
X61306463Y-140054277D01*
X61166673Y-139841473D01*
X60955640Y-139699023D01*
X60917037Y-139691281D01*
X60934415Y-139679670D01*
X61259271Y-139193489D01*
X61373345Y-138620000D01*
X61373345Y-145873000D01*
X57683345Y-145873000D01*
X57683345Y-96460000D01*
X57569271Y-95886511D01*
X57244415Y-95400330D01*
X56929634Y-95190000D01*
X57244415Y-94979670D01*
X57569271Y-94493489D01*
X57683345Y-93920000D01*
X57569271Y-93346511D01*
X57244415Y-92860330D01*
X56929634Y-92650000D01*
X57244415Y-92439670D01*
X57569271Y-91953489D01*
X57683345Y-91380000D01*
X57569271Y-90806511D01*
X57244415Y-90320330D01*
X56929634Y-90110000D01*
X57244415Y-89899670D01*
X57569271Y-89413489D01*
X57683345Y-88840000D01*
X57569271Y-88266511D01*
X57244415Y-87780330D01*
X56934930Y-87573539D01*
X57350732Y-87202036D01*
X57604709Y-86674791D01*
X57607358Y-86659026D01*
X57607358Y-85940974D01*
X57604709Y-85925209D01*
X57350732Y-85397964D01*
X56914320Y-85008046D01*
X56361913Y-84814816D01*
X56127000Y-84959076D01*
X56127000Y-86173000D01*
X57486217Y-86173000D01*
X57607358Y-85940974D01*
X57607358Y-86659026D01*
X57486217Y-86427000D01*
X56127000Y-86427000D01*
X56127000Y-86447000D01*
X55873000Y-86447000D01*
X55873000Y-86427000D01*
X55873000Y-86173000D01*
X55873000Y-84959076D01*
X55638087Y-84814816D01*
X55085680Y-85008046D01*
X54649268Y-85397964D01*
X54395291Y-85925209D01*
X54392642Y-85940974D01*
X54513783Y-86173000D01*
X55873000Y-86173000D01*
X55873000Y-86427000D01*
X54513783Y-86427000D01*
X54392642Y-86659026D01*
X54395291Y-86674791D01*
X54649268Y-87202036D01*
X55065069Y-87573539D01*
X54755585Y-87780330D01*
X54430729Y-88266511D01*
X54316655Y-88840000D01*
X54430729Y-89413489D01*
X54755585Y-89899670D01*
X55070365Y-90110000D01*
X54755585Y-90320330D01*
X54430729Y-90806511D01*
X54316655Y-91380000D01*
X54430729Y-91953489D01*
X54755585Y-92439670D01*
X55070365Y-92650000D01*
X54755585Y-92860330D01*
X54430729Y-93346511D01*
X54316655Y-93920000D01*
X54430729Y-94493489D01*
X54755585Y-94979670D01*
X55070365Y-95190000D01*
X54755585Y-95400330D01*
X54430729Y-95886511D01*
X54316655Y-96460000D01*
X54430729Y-97033489D01*
X54755585Y-97519670D01*
X54771367Y-97530215D01*
X54741877Y-97535937D01*
X54529073Y-97675727D01*
X54386623Y-97886760D01*
X54336560Y-98136400D01*
X54336560Y-99863600D01*
X54383537Y-100105723D01*
X54523327Y-100318527D01*
X54734360Y-100460977D01*
X54984000Y-100511040D01*
X57016000Y-100511040D01*
X57258123Y-100464063D01*
X57470927Y-100324273D01*
X57613377Y-100113240D01*
X57663440Y-99863600D01*
X57663440Y-98136400D01*
X57616463Y-97894277D01*
X57476673Y-97681473D01*
X57265640Y-97539023D01*
X57227037Y-97531281D01*
X57244415Y-97519670D01*
X57569271Y-97033489D01*
X57683345Y-96460000D01*
X57683345Y-145873000D01*
X50127000Y-145873000D01*
X50127000Y-84552605D01*
X54536560Y-80143045D01*
X54536560Y-80263600D01*
X54583537Y-80505723D01*
X54723327Y-80718527D01*
X54934360Y-80860977D01*
X55184000Y-80911040D01*
X57216000Y-80911040D01*
X57458123Y-80864063D01*
X57670927Y-80724273D01*
X57813377Y-80513240D01*
X57863440Y-80263600D01*
X57863440Y-78536400D01*
X57816463Y-78294277D01*
X57676673Y-78081473D01*
X57465640Y-77939023D01*
X57427037Y-77931281D01*
X57444415Y-77919670D01*
X57769271Y-77433489D01*
X57883345Y-76860000D01*
X57769271Y-76286511D01*
X57444415Y-75800330D01*
X57129634Y-75590000D01*
X57444415Y-75379670D01*
X57769271Y-74893489D01*
X57883345Y-74320000D01*
X57769271Y-73746511D01*
X57444415Y-73260330D01*
X57129634Y-73050000D01*
X57444415Y-72839670D01*
X57769271Y-72353489D01*
X57883345Y-71780000D01*
X57769271Y-71206511D01*
X57444415Y-70720330D01*
X57129634Y-70510000D01*
X57444415Y-70299670D01*
X57769271Y-69813489D01*
X57883345Y-69240000D01*
X57769271Y-68666511D01*
X57444415Y-68180330D01*
X57134930Y-67973539D01*
X57550732Y-67602036D01*
X57804709Y-67074791D01*
X57807358Y-67059026D01*
X57807358Y-66340974D01*
X57804709Y-66325209D01*
X57550732Y-65797964D01*
X57114320Y-65408046D01*
X56561913Y-65214816D01*
X56327000Y-65359076D01*
X56327000Y-66573000D01*
X57686217Y-66573000D01*
X57807358Y-66340974D01*
X57807358Y-67059026D01*
X57686217Y-66827000D01*
X56327000Y-66827000D01*
X56327000Y-66847000D01*
X56073000Y-66847000D01*
X56073000Y-66827000D01*
X56053000Y-66827000D01*
X56053000Y-66573000D01*
X56073000Y-66573000D01*
X56073000Y-65359076D01*
X55838087Y-65214816D01*
X55285680Y-65408046D01*
X54849268Y-65797964D01*
X54728427Y-66048822D01*
X50127000Y-61447395D01*
X50127000Y-56127000D01*
X59447395Y-56127000D01*
X63447395Y-60127000D01*
X127552605Y-60127000D01*
X131552605Y-56127000D01*
X143873000Y-56127000D01*
X143873000Y-68447395D01*
M02*
