G04 #@! TF.FileFunction,Copper,L2,Bot,Signal*
%FSLAX46Y46*%
G04 Gerber Fmt 4.6, Leading zero omitted, Abs format (unit mm)*
G04 Created by KiCad (PCBNEW (2015-04-08 BZR 5585)-product) date Thu 09 Apr 2015 06:27:39 PM CLST*
%MOMM*%
G01*
G04 APERTURE LIST*
%ADD10C,0.100000*%
%ADD11R,1.727200X1.727200*%
%ADD12O,1.727200X1.727200*%
%ADD13R,2.032000X1.727200*%
%ADD14O,2.032000X1.727200*%
%ADD15R,1.727200X2.032000*%
%ADD16O,1.727200X2.032000*%
%ADD17C,0.600000*%
%ADD18C,0.250000*%
%ADD19C,0.254000*%
G04 APERTURE END LIST*
D10*
D11*
X132080000Y-68580000D03*
D12*
X134620000Y-68580000D03*
X132080000Y-71120000D03*
X134620000Y-71120000D03*
X132080000Y-73660000D03*
X134620000Y-73660000D03*
X132080000Y-76200000D03*
X134620000Y-76200000D03*
X132080000Y-78740000D03*
X134620000Y-78740000D03*
X132080000Y-81280000D03*
X134620000Y-81280000D03*
X132080000Y-83820000D03*
X134620000Y-83820000D03*
X132080000Y-86360000D03*
X134620000Y-86360000D03*
X132080000Y-88900000D03*
X134620000Y-88900000D03*
X132080000Y-91440000D03*
X134620000Y-91440000D03*
X132080000Y-93980000D03*
X134620000Y-93980000D03*
X132080000Y-96520000D03*
X134620000Y-96520000D03*
X132080000Y-99060000D03*
X134620000Y-99060000D03*
X132080000Y-101600000D03*
X134620000Y-101600000D03*
X132080000Y-104140000D03*
X134620000Y-104140000D03*
X132080000Y-106680000D03*
X134620000Y-106680000D03*
X132080000Y-109220000D03*
X134620000Y-109220000D03*
X132080000Y-111760000D03*
X134620000Y-111760000D03*
X132080000Y-114300000D03*
X134620000Y-114300000D03*
X132080000Y-116840000D03*
X134620000Y-116840000D03*
X132080000Y-119380000D03*
X134620000Y-119380000D03*
X132080000Y-121920000D03*
X134620000Y-121920000D03*
X132080000Y-124460000D03*
X134620000Y-124460000D03*
X132080000Y-127000000D03*
X134620000Y-127000000D03*
X132080000Y-129540000D03*
X134620000Y-129540000D03*
X132080000Y-132080000D03*
X134620000Y-132080000D03*
D11*
X137160000Y-68580000D03*
D12*
X139700000Y-68580000D03*
X137160000Y-71120000D03*
X139700000Y-71120000D03*
X137160000Y-73660000D03*
X139700000Y-73660000D03*
X137160000Y-76200000D03*
X139700000Y-76200000D03*
X137160000Y-78740000D03*
X139700000Y-78740000D03*
X137160000Y-81280000D03*
X139700000Y-81280000D03*
X137160000Y-83820000D03*
X139700000Y-83820000D03*
X137160000Y-86360000D03*
X139700000Y-86360000D03*
X137160000Y-88900000D03*
X139700000Y-88900000D03*
X137160000Y-91440000D03*
X139700000Y-91440000D03*
X137160000Y-93980000D03*
X139700000Y-93980000D03*
X137160000Y-96520000D03*
X139700000Y-96520000D03*
X137160000Y-99060000D03*
X139700000Y-99060000D03*
X137160000Y-101600000D03*
X139700000Y-101600000D03*
X137160000Y-104140000D03*
X139700000Y-104140000D03*
X137160000Y-106680000D03*
X139700000Y-106680000D03*
X137160000Y-109220000D03*
X139700000Y-109220000D03*
X137160000Y-111760000D03*
X139700000Y-111760000D03*
X137160000Y-114300000D03*
X139700000Y-114300000D03*
X137160000Y-116840000D03*
X139700000Y-116840000D03*
X137160000Y-119380000D03*
X139700000Y-119380000D03*
X137160000Y-121920000D03*
X139700000Y-121920000D03*
X137160000Y-124460000D03*
X139700000Y-124460000D03*
X137160000Y-127000000D03*
X139700000Y-127000000D03*
X137160000Y-129540000D03*
X139700000Y-129540000D03*
X137160000Y-132080000D03*
X139700000Y-132080000D03*
D13*
X71120000Y-93980000D03*
D14*
X71120000Y-96520000D03*
X71120000Y-99060000D03*
X71120000Y-101600000D03*
X71120000Y-104140000D03*
X71120000Y-106680000D03*
X71120000Y-109220000D03*
X71120000Y-111760000D03*
X71120000Y-114300000D03*
X71120000Y-116840000D03*
X71120000Y-119380000D03*
X71120000Y-121920000D03*
X71120000Y-124460000D03*
X71120000Y-127000000D03*
D13*
X68580000Y-93980000D03*
D14*
X68580000Y-96520000D03*
X68580000Y-99060000D03*
X68580000Y-101600000D03*
X68580000Y-104140000D03*
X68580000Y-106680000D03*
X68580000Y-109220000D03*
X68580000Y-111760000D03*
X68580000Y-114300000D03*
X68580000Y-116840000D03*
X68580000Y-119380000D03*
X68580000Y-121920000D03*
X68580000Y-124460000D03*
X68580000Y-127000000D03*
D13*
X66040000Y-93980000D03*
D14*
X66040000Y-96520000D03*
X66040000Y-99060000D03*
X66040000Y-101600000D03*
X66040000Y-104140000D03*
X66040000Y-106680000D03*
X66040000Y-109220000D03*
X66040000Y-111760000D03*
X66040000Y-114300000D03*
X66040000Y-116840000D03*
X66040000Y-119380000D03*
X66040000Y-121920000D03*
X66040000Y-124460000D03*
X66040000Y-127000000D03*
D13*
X63500000Y-93980000D03*
D14*
X63500000Y-96520000D03*
X63500000Y-99060000D03*
X63500000Y-101600000D03*
X63500000Y-104140000D03*
X63500000Y-106680000D03*
X63500000Y-109220000D03*
X63500000Y-111760000D03*
X63500000Y-114300000D03*
X63500000Y-116840000D03*
X63500000Y-119380000D03*
X63500000Y-121920000D03*
X63500000Y-124460000D03*
X63500000Y-127000000D03*
D15*
X100330000Y-97790000D03*
D16*
X97790000Y-97790000D03*
X95250000Y-97790000D03*
D15*
X101600000Y-120650000D03*
D16*
X99060000Y-120650000D03*
X96520000Y-120650000D03*
D17*
X88000000Y-86500000D03*
X88000000Y-108000000D03*
X123190000Y-93980000D03*
X127000000Y-95250000D03*
X83820000Y-113030000D03*
X74930000Y-119380000D03*
X85090000Y-114300000D03*
X74930000Y-121920000D03*
X90170000Y-101600000D03*
X91440000Y-119380000D03*
X74960000Y-97760000D03*
X74550000Y-113000000D03*
X109220000Y-86360000D03*
X125730000Y-92710000D03*
X86360000Y-90170000D03*
X76200000Y-125730000D03*
X111760000Y-87630000D03*
X125730000Y-90170000D03*
X116840000Y-87630000D03*
X125730000Y-87630000D03*
X77470000Y-99060000D03*
X82550000Y-97790000D03*
X118110000Y-88900000D03*
X125730000Y-88900000D03*
X76200000Y-111760000D03*
X76200000Y-105410000D03*
X111760000Y-91440000D03*
X110490000Y-92710000D03*
X123190000Y-100330000D03*
X105410000Y-97790000D03*
X104140000Y-85090000D03*
D18*
X88000000Y-108000000D02*
X88000000Y-86500000D01*
X126950000Y-95200000D02*
X125730000Y-93980000D01*
X125730000Y-93980000D02*
X123190000Y-93980000D01*
X127000000Y-95250000D02*
X126950000Y-95200000D01*
X134620000Y-96520000D02*
X134520000Y-96520000D01*
X76200000Y-119380000D02*
X77470000Y-119380000D01*
X77470000Y-119380000D02*
X83820000Y-113030000D01*
X74930000Y-119380000D02*
X76200000Y-119380000D01*
X85090000Y-114300000D02*
X77470000Y-121920000D01*
X74930000Y-121920000D02*
X77470000Y-121920000D01*
X90170000Y-118110000D02*
X90170000Y-101600000D01*
X91440000Y-119380000D02*
X90170000Y-118110000D01*
X66040000Y-99060000D02*
X64770000Y-100330000D01*
X64770000Y-100330000D02*
X60960000Y-100330000D01*
X74550000Y-98170000D02*
X74550000Y-113000000D01*
X74550000Y-98170000D02*
X74960000Y-97760000D01*
X116840000Y-92710000D02*
X115570000Y-92710000D01*
X115570000Y-92710000D02*
X109220000Y-86360000D01*
X125730000Y-92710000D02*
X116840000Y-92710000D01*
X76200000Y-125730000D02*
X86360000Y-115570000D01*
X86360000Y-115570000D02*
X86360000Y-90170000D01*
X114300000Y-87630000D02*
X111760000Y-87630000D01*
X116840000Y-90170000D02*
X114300000Y-87630000D01*
X125730000Y-90170000D02*
X116840000Y-90170000D01*
X125730000Y-87630000D02*
X116840000Y-87630000D01*
X81280000Y-99060000D02*
X77470000Y-99060000D01*
X82550000Y-97790000D02*
X81280000Y-99060000D01*
X118110000Y-88900000D02*
X125730000Y-88900000D01*
X76200000Y-105410000D02*
X76200000Y-111760000D01*
X130810000Y-119380000D02*
X132080000Y-119380000D01*
X128270000Y-116840000D02*
X130810000Y-119380000D01*
X128270000Y-100330000D02*
X128270000Y-116840000D01*
X123190000Y-95250000D02*
X128270000Y-100330000D01*
X115570000Y-95250000D02*
X123190000Y-95250000D01*
X111760000Y-91440000D02*
X115570000Y-95250000D01*
X132080000Y-121920000D02*
X130810000Y-121920000D01*
X115570000Y-97790000D02*
X110490000Y-92710000D01*
X121920000Y-97790000D02*
X115570000Y-97790000D01*
X125730000Y-101600000D02*
X121920000Y-97790000D01*
X125730000Y-116840000D02*
X125730000Y-101600000D01*
X130810000Y-121920000D02*
X125730000Y-116840000D01*
X123190000Y-100330000D02*
X121920000Y-99060000D01*
X121920000Y-99060000D02*
X114300000Y-99060000D01*
X114300000Y-99060000D02*
X113030000Y-97790000D01*
X113030000Y-97790000D02*
X105410000Y-97790000D01*
X105410000Y-86360000D02*
X105410000Y-97790000D01*
X104140000Y-85090000D02*
X105410000Y-86360000D01*
D19*
G36*
X65105069Y-100333539D02*
X64795585Y-100540330D01*
X64770000Y-100578620D01*
X64744415Y-100540330D01*
X64429634Y-100330000D01*
X64744415Y-100119670D01*
X64789753Y-100051816D01*
X65105069Y-100333539D01*
X65105069Y-100333539D01*
G37*
X65105069Y-100333539D02*
X64795585Y-100540330D01*
X64770000Y-100578620D01*
X64744415Y-100540330D01*
X64429634Y-100330000D01*
X64744415Y-100119670D01*
X64789753Y-100051816D01*
X65105069Y-100333539D01*
G36*
X66187000Y-99187000D02*
X66167000Y-99187000D01*
X66167000Y-99207000D01*
X65913000Y-99207000D01*
X65913000Y-99187000D01*
X65893000Y-99187000D01*
X65893000Y-98933000D01*
X65913000Y-98933000D01*
X65913000Y-98913000D01*
X66167000Y-98913000D01*
X66167000Y-98933000D01*
X66187000Y-98933000D01*
X66187000Y-99187000D01*
X66187000Y-99187000D01*
G37*
X66187000Y-99187000D02*
X66167000Y-99187000D01*
X66167000Y-99207000D01*
X65913000Y-99207000D01*
X65913000Y-99187000D01*
X65893000Y-99187000D01*
X65893000Y-98933000D01*
X65913000Y-98933000D01*
X65913000Y-98913000D01*
X66167000Y-98913000D01*
X66167000Y-98933000D01*
X66187000Y-98933000D01*
X66187000Y-99187000D01*
G36*
X142873000Y-134947395D02*
X141947395Y-135873000D01*
X141227959Y-135873000D01*
X141227959Y-132080000D01*
X141113885Y-131506511D01*
X140789029Y-131020330D01*
X140474248Y-130810000D01*
X140789029Y-130599670D01*
X141113885Y-130113489D01*
X141227959Y-129540000D01*
X141113885Y-128966511D01*
X140789029Y-128480330D01*
X140474248Y-128270000D01*
X140789029Y-128059670D01*
X141113885Y-127573489D01*
X141227959Y-127000000D01*
X141113885Y-126426511D01*
X140789029Y-125940330D01*
X140474248Y-125730000D01*
X140789029Y-125519670D01*
X141113885Y-125033489D01*
X141227959Y-124460000D01*
X141113885Y-123886511D01*
X140789029Y-123400330D01*
X140474248Y-123190000D01*
X140789029Y-122979670D01*
X141113885Y-122493489D01*
X141227959Y-121920000D01*
X141113885Y-121346511D01*
X140789029Y-120860330D01*
X140474248Y-120650000D01*
X140789029Y-120439670D01*
X141113885Y-119953489D01*
X141227959Y-119380000D01*
X141113885Y-118806511D01*
X140789029Y-118320330D01*
X140474248Y-118110000D01*
X140789029Y-117899670D01*
X141113885Y-117413489D01*
X141227959Y-116840000D01*
X141113885Y-116266511D01*
X140789029Y-115780330D01*
X140474248Y-115570000D01*
X140789029Y-115359670D01*
X141113885Y-114873489D01*
X141227959Y-114300000D01*
X141113885Y-113726511D01*
X140789029Y-113240330D01*
X140474248Y-113030000D01*
X140789029Y-112819670D01*
X141113885Y-112333489D01*
X141227959Y-111760000D01*
X141113885Y-111186511D01*
X140789029Y-110700330D01*
X140474248Y-110490000D01*
X140789029Y-110279670D01*
X141113885Y-109793489D01*
X141227959Y-109220000D01*
X141113885Y-108646511D01*
X140789029Y-108160330D01*
X140465771Y-107944336D01*
X140588490Y-107886821D01*
X140982688Y-107454947D01*
X141154958Y-107039026D01*
X141154958Y-106320974D01*
X140982688Y-105905053D01*
X140588490Y-105473179D01*
X140453687Y-105410000D01*
X140588490Y-105346821D01*
X140982688Y-104914947D01*
X141154958Y-104499026D01*
X141033817Y-104267000D01*
X139827000Y-104267000D01*
X139827000Y-105345531D01*
X139827000Y-105474469D01*
X139827000Y-106553000D01*
X141033817Y-106553000D01*
X141154958Y-106320974D01*
X141154958Y-107039026D01*
X141033817Y-106807000D01*
X139827000Y-106807000D01*
X139827000Y-106827000D01*
X139573000Y-106827000D01*
X139573000Y-106807000D01*
X139553000Y-106807000D01*
X139553000Y-106553000D01*
X139573000Y-106553000D01*
X139573000Y-105474469D01*
X139573000Y-105345531D01*
X139573000Y-104267000D01*
X138493817Y-104267000D01*
X138366183Y-104267000D01*
X137287000Y-104267000D01*
X137287000Y-104287000D01*
X137033000Y-104287000D01*
X137033000Y-104267000D01*
X137013000Y-104267000D01*
X137013000Y-104013000D01*
X137033000Y-104013000D01*
X137033000Y-103993000D01*
X137287000Y-103993000D01*
X137287000Y-104013000D01*
X138366183Y-104013000D01*
X138493817Y-104013000D01*
X139573000Y-104013000D01*
X139573000Y-103993000D01*
X139827000Y-103993000D01*
X139827000Y-104013000D01*
X141033817Y-104013000D01*
X141154958Y-103780974D01*
X140982688Y-103365053D01*
X140588490Y-102933179D01*
X140465771Y-102875663D01*
X140789029Y-102659670D01*
X141113885Y-102173489D01*
X141227959Y-101600000D01*
X141113885Y-101026511D01*
X140789029Y-100540330D01*
X140474248Y-100330000D01*
X140789029Y-100119670D01*
X141113885Y-99633489D01*
X141227959Y-99060000D01*
X141113885Y-98486511D01*
X140789029Y-98000330D01*
X140474248Y-97790000D01*
X140789029Y-97579670D01*
X141113885Y-97093489D01*
X141227959Y-96520000D01*
X141113885Y-95946511D01*
X140789029Y-95460330D01*
X140474248Y-95250000D01*
X140789029Y-95039670D01*
X141113885Y-94553489D01*
X141227959Y-93980000D01*
X141113885Y-93406511D01*
X140789029Y-92920330D01*
X140474248Y-92710000D01*
X140789029Y-92499670D01*
X141113885Y-92013489D01*
X141227959Y-91440000D01*
X141113885Y-90866511D01*
X140789029Y-90380330D01*
X140474248Y-90170000D01*
X140789029Y-89959670D01*
X141113885Y-89473489D01*
X141227959Y-88900000D01*
X141113885Y-88326511D01*
X140789029Y-87840330D01*
X140474248Y-87630000D01*
X140789029Y-87419670D01*
X141113885Y-86933489D01*
X141227959Y-86360000D01*
X141113885Y-85786511D01*
X140789029Y-85300330D01*
X140474248Y-85090000D01*
X140789029Y-84879670D01*
X141113885Y-84393489D01*
X141227959Y-83820000D01*
X141113885Y-83246511D01*
X140789029Y-82760330D01*
X140474248Y-82550000D01*
X140789029Y-82339670D01*
X141113885Y-81853489D01*
X141227959Y-81280000D01*
X141113885Y-80706511D01*
X140789029Y-80220330D01*
X140474248Y-80010000D01*
X140789029Y-79799670D01*
X141113885Y-79313489D01*
X141227959Y-78740000D01*
X141113885Y-78166511D01*
X140789029Y-77680330D01*
X140474248Y-77470000D01*
X140789029Y-77259670D01*
X141113885Y-76773489D01*
X141227959Y-76200000D01*
X141113885Y-75626511D01*
X140789029Y-75140330D01*
X140474248Y-74930000D01*
X140789029Y-74719670D01*
X141113885Y-74233489D01*
X141227959Y-73660000D01*
X141113885Y-73086511D01*
X140789029Y-72600330D01*
X140474248Y-72390000D01*
X140789029Y-72179670D01*
X141113885Y-71693489D01*
X141227959Y-71120000D01*
X141113885Y-70546511D01*
X140789029Y-70060330D01*
X140474248Y-69850000D01*
X140789029Y-69639670D01*
X141113885Y-69153489D01*
X141227959Y-68580000D01*
X141113885Y-68006511D01*
X140789029Y-67520330D01*
X140302848Y-67195474D01*
X139729359Y-67081400D01*
X139670641Y-67081400D01*
X139097152Y-67195474D01*
X138630470Y-67507300D01*
X138624063Y-67474277D01*
X138484273Y-67261473D01*
X138273240Y-67119023D01*
X138023600Y-67068960D01*
X136296400Y-67068960D01*
X136054277Y-67115937D01*
X135841473Y-67255727D01*
X135699023Y-67466760D01*
X135690731Y-67508104D01*
X135222848Y-67195474D01*
X134649359Y-67081400D01*
X134590641Y-67081400D01*
X134017152Y-67195474D01*
X133550470Y-67507300D01*
X133544063Y-67474277D01*
X133404273Y-67261473D01*
X133193240Y-67119023D01*
X132943600Y-67068960D01*
X131216400Y-67068960D01*
X130974277Y-67115937D01*
X130761473Y-67255727D01*
X130619023Y-67466760D01*
X130568960Y-67716400D01*
X130568960Y-69443600D01*
X130615937Y-69685723D01*
X130755727Y-69898527D01*
X130966760Y-70040977D01*
X131007659Y-70049179D01*
X130990971Y-70060330D01*
X130666115Y-70546511D01*
X130552041Y-71120000D01*
X130666115Y-71693489D01*
X130990971Y-72179670D01*
X131305751Y-72390000D01*
X130990971Y-72600330D01*
X130666115Y-73086511D01*
X130552041Y-73660000D01*
X130666115Y-74233489D01*
X130990971Y-74719670D01*
X131305751Y-74930000D01*
X130990971Y-75140330D01*
X130666115Y-75626511D01*
X130552041Y-76200000D01*
X130666115Y-76773489D01*
X130990971Y-77259670D01*
X131305751Y-77470000D01*
X130990971Y-77680330D01*
X130666115Y-78166511D01*
X130552041Y-78740000D01*
X130666115Y-79313489D01*
X130990971Y-79799670D01*
X131305751Y-80010000D01*
X130990971Y-80220330D01*
X130666115Y-80706511D01*
X130552041Y-81280000D01*
X130666115Y-81853489D01*
X130990971Y-82339670D01*
X131305751Y-82550000D01*
X130990971Y-82760330D01*
X130666115Y-83246511D01*
X130552041Y-83820000D01*
X130666115Y-84393489D01*
X130990971Y-84879670D01*
X131305751Y-85090000D01*
X130990971Y-85300330D01*
X130666115Y-85786511D01*
X130552041Y-86360000D01*
X130666115Y-86933489D01*
X130990971Y-87419670D01*
X131305751Y-87630000D01*
X130990971Y-87840330D01*
X130666115Y-88326511D01*
X130552041Y-88900000D01*
X130666115Y-89473489D01*
X130990971Y-89959670D01*
X131305751Y-90170000D01*
X130990971Y-90380330D01*
X130666115Y-90866511D01*
X130552041Y-91440000D01*
X130666115Y-92013489D01*
X130990971Y-92499670D01*
X131305751Y-92710000D01*
X130990971Y-92920330D01*
X130666115Y-93406511D01*
X130552041Y-93980000D01*
X130666115Y-94553489D01*
X130990971Y-95039670D01*
X131305751Y-95250000D01*
X130990971Y-95460330D01*
X130666115Y-95946511D01*
X130552041Y-96520000D01*
X130666115Y-97093489D01*
X130990971Y-97579670D01*
X131305751Y-97790000D01*
X130990971Y-98000330D01*
X130666115Y-98486511D01*
X130552041Y-99060000D01*
X130666115Y-99633489D01*
X130990971Y-100119670D01*
X131305751Y-100330000D01*
X130990971Y-100540330D01*
X130666115Y-101026511D01*
X130552041Y-101600000D01*
X130666115Y-102173489D01*
X130990971Y-102659670D01*
X131305751Y-102870000D01*
X130990971Y-103080330D01*
X130666115Y-103566511D01*
X130552041Y-104140000D01*
X130666115Y-104713489D01*
X130990971Y-105199670D01*
X131305751Y-105410000D01*
X130990971Y-105620330D01*
X130666115Y-106106511D01*
X130552041Y-106680000D01*
X130666115Y-107253489D01*
X130990971Y-107739670D01*
X131305751Y-107950000D01*
X130990971Y-108160330D01*
X130666115Y-108646511D01*
X130552041Y-109220000D01*
X130666115Y-109793489D01*
X130990971Y-110279670D01*
X131305751Y-110490000D01*
X130990971Y-110700330D01*
X130666115Y-111186511D01*
X130552041Y-111760000D01*
X130666115Y-112333489D01*
X130990971Y-112819670D01*
X131305751Y-113030000D01*
X130990971Y-113240330D01*
X130666115Y-113726511D01*
X130552041Y-114300000D01*
X130666115Y-114873489D01*
X130990971Y-115359670D01*
X131305751Y-115570000D01*
X130990971Y-115780330D01*
X130666115Y-116266511D01*
X130552041Y-116840000D01*
X130666115Y-117413489D01*
X130990971Y-117899670D01*
X131305751Y-118110000D01*
X130990971Y-118320330D01*
X130924545Y-118419743D01*
X129030000Y-116525198D01*
X129030000Y-100330000D01*
X128972148Y-100039161D01*
X128807401Y-99792599D01*
X123754802Y-94740000D01*
X125415198Y-94740000D01*
X126064877Y-95389679D01*
X126064838Y-95435167D01*
X126206883Y-95778943D01*
X126469673Y-96042192D01*
X126813201Y-96184838D01*
X127185167Y-96185162D01*
X127528943Y-96043117D01*
X127792192Y-95780327D01*
X127934838Y-95436799D01*
X127935162Y-95064833D01*
X127793117Y-94721057D01*
X127530327Y-94457808D01*
X127186799Y-94315162D01*
X127139923Y-94315121D01*
X126293461Y-93468659D01*
X126522192Y-93240327D01*
X126664838Y-92896799D01*
X126665162Y-92524833D01*
X126523117Y-92181057D01*
X126260327Y-91917808D01*
X125916799Y-91775162D01*
X125544833Y-91774838D01*
X125201057Y-91916883D01*
X125167882Y-91950000D01*
X116840000Y-91950000D01*
X115884802Y-91950000D01*
X112324802Y-88390000D01*
X113985198Y-88390000D01*
X116302599Y-90707401D01*
X116549160Y-90872148D01*
X116549161Y-90872148D01*
X116597413Y-90881746D01*
X116840000Y-90930000D01*
X125167537Y-90930000D01*
X125199673Y-90962192D01*
X125543201Y-91104838D01*
X125915167Y-91105162D01*
X126258943Y-90963117D01*
X126522192Y-90700327D01*
X126664838Y-90356799D01*
X126665162Y-89984833D01*
X126523117Y-89641057D01*
X126417290Y-89535045D01*
X126522192Y-89430327D01*
X126664838Y-89086799D01*
X126665162Y-88714833D01*
X126523117Y-88371057D01*
X126417290Y-88265045D01*
X126522192Y-88160327D01*
X126664838Y-87816799D01*
X126665162Y-87444833D01*
X126523117Y-87101057D01*
X126260327Y-86837808D01*
X125916799Y-86695162D01*
X125544833Y-86694838D01*
X125201057Y-86836883D01*
X125167882Y-86870000D01*
X117402462Y-86870000D01*
X117370327Y-86837808D01*
X117026799Y-86695162D01*
X116654833Y-86694838D01*
X116311057Y-86836883D01*
X116047808Y-87099673D01*
X115905162Y-87443201D01*
X115904838Y-87815167D01*
X116046883Y-88158943D01*
X116309673Y-88422192D01*
X116653201Y-88564838D01*
X117025167Y-88565162D01*
X117280429Y-88459689D01*
X117175162Y-88713201D01*
X117174838Y-89085167D01*
X117309055Y-89410000D01*
X117154802Y-89410000D01*
X114837401Y-87092599D01*
X114590839Y-86927852D01*
X114300000Y-86870000D01*
X112322462Y-86870000D01*
X112290327Y-86837808D01*
X111946799Y-86695162D01*
X111574833Y-86694838D01*
X111231057Y-86836883D01*
X111001170Y-87066368D01*
X110155122Y-86220320D01*
X110155162Y-86174833D01*
X110013117Y-85831057D01*
X109750327Y-85567808D01*
X109406799Y-85425162D01*
X109034833Y-85424838D01*
X108691057Y-85566883D01*
X108427808Y-85829673D01*
X108285162Y-86173201D01*
X108284838Y-86545167D01*
X108426883Y-86888943D01*
X108689673Y-87152192D01*
X109033201Y-87294838D01*
X109080076Y-87294878D01*
X115032599Y-93247401D01*
X115279161Y-93412148D01*
X115570000Y-93470000D01*
X116840000Y-93470000D01*
X122389367Y-93470000D01*
X122255162Y-93793201D01*
X122254838Y-94165167D01*
X122389055Y-94490000D01*
X115884802Y-94490000D01*
X112695122Y-91300320D01*
X112695162Y-91254833D01*
X112553117Y-90911057D01*
X112290327Y-90647808D01*
X111946799Y-90505162D01*
X111574833Y-90504838D01*
X111231057Y-90646883D01*
X110967808Y-90909673D01*
X110825162Y-91253201D01*
X110824838Y-91625167D01*
X110930310Y-91880429D01*
X110676799Y-91775162D01*
X110304833Y-91774838D01*
X109961057Y-91916883D01*
X109697808Y-92179673D01*
X109555162Y-92523201D01*
X109554838Y-92895167D01*
X109696883Y-93238943D01*
X109959673Y-93502192D01*
X110303201Y-93644838D01*
X110350076Y-93644878D01*
X115005198Y-98300000D01*
X114614802Y-98300000D01*
X113567401Y-97252599D01*
X113320839Y-97087852D01*
X113030000Y-97030000D01*
X106170000Y-97030000D01*
X106170000Y-86360000D01*
X106112148Y-86069161D01*
X106112148Y-86069160D01*
X105947401Y-85822599D01*
X105075122Y-84950320D01*
X105075162Y-84904833D01*
X104933117Y-84561057D01*
X104670327Y-84297808D01*
X104326799Y-84155162D01*
X103954833Y-84154838D01*
X103611057Y-84296883D01*
X103347808Y-84559673D01*
X103205162Y-84903201D01*
X103204838Y-85275167D01*
X103346883Y-85618943D01*
X103609673Y-85882192D01*
X103953201Y-86024838D01*
X104000076Y-86024878D01*
X104650000Y-86674802D01*
X104650000Y-97227537D01*
X104617808Y-97259673D01*
X104475162Y-97603201D01*
X104474838Y-97975167D01*
X104616883Y-98318943D01*
X104879673Y-98582192D01*
X105223201Y-98724838D01*
X105595167Y-98725162D01*
X105938943Y-98583117D01*
X105972117Y-98550000D01*
X112715198Y-98550000D01*
X113762599Y-99597401D01*
X114009160Y-99762148D01*
X114009161Y-99762148D01*
X114300000Y-99820000D01*
X121605198Y-99820000D01*
X122254877Y-100469679D01*
X122254838Y-100515167D01*
X122396883Y-100858943D01*
X122659673Y-101122192D01*
X123003201Y-101264838D01*
X123375167Y-101265162D01*
X123718943Y-101123117D01*
X123948829Y-100893631D01*
X124970000Y-101914802D01*
X124970000Y-116840000D01*
X125027852Y-117130839D01*
X125192599Y-117377401D01*
X130272599Y-122457401D01*
X130519161Y-122622148D01*
X130787785Y-122675581D01*
X130990971Y-122979670D01*
X131305751Y-123190000D01*
X130990971Y-123400330D01*
X130666115Y-123886511D01*
X130552041Y-124460000D01*
X130666115Y-125033489D01*
X130990971Y-125519670D01*
X131305751Y-125730000D01*
X130990971Y-125940330D01*
X130666115Y-126426511D01*
X130552041Y-127000000D01*
X130666115Y-127573489D01*
X130990971Y-128059670D01*
X131305751Y-128270000D01*
X130990971Y-128480330D01*
X130666115Y-128966511D01*
X130552041Y-129540000D01*
X130666115Y-130113489D01*
X130990971Y-130599670D01*
X131305751Y-130810000D01*
X130990971Y-131020330D01*
X130666115Y-131506511D01*
X130552041Y-132080000D01*
X130666115Y-132653489D01*
X130990971Y-133139670D01*
X131477152Y-133464526D01*
X132050641Y-133578600D01*
X132109359Y-133578600D01*
X132682848Y-133464526D01*
X133169029Y-133139670D01*
X133350000Y-132868827D01*
X133530971Y-133139670D01*
X134017152Y-133464526D01*
X134590641Y-133578600D01*
X134649359Y-133578600D01*
X135222848Y-133464526D01*
X135709029Y-133139670D01*
X135890000Y-132868827D01*
X136070971Y-133139670D01*
X136557152Y-133464526D01*
X137130641Y-133578600D01*
X137189359Y-133578600D01*
X137762848Y-133464526D01*
X138249029Y-133139670D01*
X138430000Y-132868827D01*
X138610971Y-133139670D01*
X139097152Y-133464526D01*
X139670641Y-133578600D01*
X139729359Y-133578600D01*
X140302848Y-133464526D01*
X140789029Y-133139670D01*
X141113885Y-132653489D01*
X141227959Y-132080000D01*
X141227959Y-135873000D01*
X103111040Y-135873000D01*
X103111040Y-121666000D01*
X103111040Y-119634000D01*
X103064063Y-119391877D01*
X102924273Y-119179073D01*
X102713240Y-119036623D01*
X102463600Y-118986560D01*
X101841040Y-118986560D01*
X101841040Y-98806000D01*
X101841040Y-96774000D01*
X101794063Y-96531877D01*
X101654273Y-96319073D01*
X101443240Y-96176623D01*
X101193600Y-96126560D01*
X99466400Y-96126560D01*
X99224277Y-96173537D01*
X99011473Y-96313327D01*
X98869023Y-96524360D01*
X98861281Y-96562962D01*
X98849670Y-96545585D01*
X98363489Y-96220729D01*
X97790000Y-96106655D01*
X97216511Y-96220729D01*
X96730330Y-96545585D01*
X96523539Y-96855069D01*
X96152036Y-96439268D01*
X95624791Y-96185291D01*
X95609026Y-96182642D01*
X95377000Y-96303783D01*
X95377000Y-97663000D01*
X95397000Y-97663000D01*
X95397000Y-97917000D01*
X95377000Y-97917000D01*
X95377000Y-99276217D01*
X95609026Y-99397358D01*
X95624791Y-99394709D01*
X96152036Y-99140732D01*
X96523539Y-98724930D01*
X96730330Y-99034415D01*
X97216511Y-99359271D01*
X97790000Y-99473345D01*
X98363489Y-99359271D01*
X98849670Y-99034415D01*
X98860215Y-99018632D01*
X98865937Y-99048123D01*
X99005727Y-99260927D01*
X99216760Y-99403377D01*
X99466400Y-99453440D01*
X101193600Y-99453440D01*
X101435723Y-99406463D01*
X101648527Y-99266673D01*
X101790977Y-99055640D01*
X101841040Y-98806000D01*
X101841040Y-118986560D01*
X100736400Y-118986560D01*
X100494277Y-119033537D01*
X100281473Y-119173327D01*
X100139023Y-119384360D01*
X100131281Y-119422962D01*
X100119670Y-119405585D01*
X99633489Y-119080729D01*
X99060000Y-118966655D01*
X98486511Y-119080729D01*
X98000330Y-119405585D01*
X97793539Y-119715069D01*
X97422036Y-119299268D01*
X96894791Y-119045291D01*
X96879026Y-119042642D01*
X96647000Y-119163783D01*
X96647000Y-120523000D01*
X96667000Y-120523000D01*
X96667000Y-120777000D01*
X96647000Y-120777000D01*
X96647000Y-122136217D01*
X96879026Y-122257358D01*
X96894791Y-122254709D01*
X97422036Y-122000732D01*
X97793539Y-121584930D01*
X98000330Y-121894415D01*
X98486511Y-122219271D01*
X99060000Y-122333345D01*
X99633489Y-122219271D01*
X100119670Y-121894415D01*
X100130215Y-121878632D01*
X100135937Y-121908123D01*
X100275727Y-122120927D01*
X100486760Y-122263377D01*
X100736400Y-122313440D01*
X102463600Y-122313440D01*
X102705723Y-122266463D01*
X102918527Y-122126673D01*
X103060977Y-121915640D01*
X103111040Y-121666000D01*
X103111040Y-135873000D01*
X96393000Y-135873000D01*
X96393000Y-122136217D01*
X96393000Y-120777000D01*
X96393000Y-120523000D01*
X96393000Y-119163783D01*
X96160974Y-119042642D01*
X96145209Y-119045291D01*
X95617964Y-119299268D01*
X95228046Y-119735680D01*
X95123000Y-120035986D01*
X95123000Y-99276217D01*
X95123000Y-97917000D01*
X95123000Y-97663000D01*
X95123000Y-96303783D01*
X94890974Y-96182642D01*
X94875209Y-96185291D01*
X94347964Y-96439268D01*
X93958046Y-96875680D01*
X93764816Y-97428087D01*
X93909076Y-97663000D01*
X95123000Y-97663000D01*
X95123000Y-97917000D01*
X93909076Y-97917000D01*
X93764816Y-98151913D01*
X93958046Y-98704320D01*
X94347964Y-99140732D01*
X94875209Y-99394709D01*
X94890974Y-99397358D01*
X95123000Y-99276217D01*
X95123000Y-120035986D01*
X95034816Y-120288087D01*
X95179076Y-120523000D01*
X96393000Y-120523000D01*
X96393000Y-120777000D01*
X95179076Y-120777000D01*
X95034816Y-121011913D01*
X95228046Y-121564320D01*
X95617964Y-122000732D01*
X96145209Y-122254709D01*
X96160974Y-122257358D01*
X96393000Y-122136217D01*
X96393000Y-135873000D01*
X88935162Y-135873000D01*
X88935162Y-107814833D01*
X88793117Y-107471057D01*
X88760000Y-107437882D01*
X88760000Y-87062462D01*
X88792192Y-87030327D01*
X88934838Y-86686799D01*
X88935162Y-86314833D01*
X88793117Y-85971057D01*
X88530327Y-85707808D01*
X88186799Y-85565162D01*
X87814833Y-85564838D01*
X87471057Y-85706883D01*
X87207808Y-85969673D01*
X87065162Y-86313201D01*
X87064838Y-86685167D01*
X87206883Y-87028943D01*
X87240000Y-87062117D01*
X87240000Y-89851330D01*
X87153117Y-89641057D01*
X86890327Y-89377808D01*
X86546799Y-89235162D01*
X86174833Y-89234838D01*
X85831057Y-89376883D01*
X85567808Y-89639673D01*
X85425162Y-89983201D01*
X85424838Y-90355167D01*
X85566883Y-90698943D01*
X85600000Y-90732117D01*
X85600000Y-113499367D01*
X85276799Y-113365162D01*
X84904833Y-113364838D01*
X84649570Y-113470310D01*
X84754838Y-113216799D01*
X84755162Y-112844833D01*
X84613117Y-112501057D01*
X84350327Y-112237808D01*
X84006799Y-112095162D01*
X83634833Y-112094838D01*
X83485162Y-112156680D01*
X83485162Y-97604833D01*
X83343117Y-97261057D01*
X83080327Y-96997808D01*
X82736799Y-96855162D01*
X82364833Y-96854838D01*
X82021057Y-96996883D01*
X81757808Y-97259673D01*
X81615162Y-97603201D01*
X81615121Y-97650076D01*
X80965198Y-98300000D01*
X78032462Y-98300000D01*
X78000327Y-98267808D01*
X77656799Y-98125162D01*
X77284833Y-98124838D01*
X76941057Y-98266883D01*
X76677808Y-98529673D01*
X76535162Y-98873201D01*
X76534838Y-99245167D01*
X76676883Y-99588943D01*
X76939673Y-99852192D01*
X77283201Y-99994838D01*
X77655167Y-99995162D01*
X77998943Y-99853117D01*
X78032117Y-99820000D01*
X81280000Y-99820000D01*
X81570839Y-99762148D01*
X81817401Y-99597401D01*
X82689679Y-98725122D01*
X82735167Y-98725162D01*
X83078943Y-98583117D01*
X83342192Y-98320327D01*
X83484838Y-97976799D01*
X83485162Y-97604833D01*
X83485162Y-112156680D01*
X83291057Y-112236883D01*
X83027808Y-112499673D01*
X82885162Y-112843201D01*
X82885121Y-112890076D01*
X77155198Y-118620000D01*
X77135162Y-118620000D01*
X77135162Y-111574833D01*
X76993117Y-111231057D01*
X76960000Y-111197882D01*
X76960000Y-105972462D01*
X76992192Y-105940327D01*
X77134838Y-105596799D01*
X77135162Y-105224833D01*
X76993117Y-104881057D01*
X76730327Y-104617808D01*
X76386799Y-104475162D01*
X76014833Y-104474838D01*
X75671057Y-104616883D01*
X75407808Y-104879673D01*
X75310000Y-105115219D01*
X75310000Y-98627054D01*
X75488943Y-98553117D01*
X75752192Y-98290327D01*
X75894838Y-97946799D01*
X75895162Y-97574833D01*
X75753117Y-97231057D01*
X75490327Y-96967808D01*
X75146799Y-96825162D01*
X74774833Y-96824838D01*
X74431057Y-96966883D01*
X74167808Y-97229673D01*
X74025162Y-97573201D01*
X74025121Y-97620076D01*
X74012599Y-97632599D01*
X73847852Y-97879161D01*
X73790000Y-98170000D01*
X73790000Y-112437537D01*
X73757808Y-112469673D01*
X73615162Y-112813201D01*
X73614838Y-113185167D01*
X73756883Y-113528943D01*
X74019673Y-113792192D01*
X74363201Y-113934838D01*
X74735167Y-113935162D01*
X75078943Y-113793117D01*
X75342192Y-113530327D01*
X75484838Y-113186799D01*
X75485162Y-112814833D01*
X75343117Y-112471057D01*
X75310000Y-112437882D01*
X75310000Y-112054467D01*
X75406883Y-112288943D01*
X75669673Y-112552192D01*
X76013201Y-112694838D01*
X76385167Y-112695162D01*
X76728943Y-112553117D01*
X76992192Y-112290327D01*
X77134838Y-111946799D01*
X77135162Y-111574833D01*
X77135162Y-118620000D01*
X76200000Y-118620000D01*
X75492462Y-118620000D01*
X75460327Y-118587808D01*
X75116799Y-118445162D01*
X74744833Y-118444838D01*
X74401057Y-118586883D01*
X74137808Y-118849673D01*
X73995162Y-119193201D01*
X73994838Y-119565167D01*
X74136883Y-119908943D01*
X74399673Y-120172192D01*
X74743201Y-120314838D01*
X75115167Y-120315162D01*
X75458943Y-120173117D01*
X75492117Y-120140000D01*
X76200000Y-120140000D01*
X77470000Y-120140000D01*
X77760839Y-120082148D01*
X78007401Y-119917401D01*
X83959679Y-113965122D01*
X84005167Y-113965162D01*
X84260429Y-113859689D01*
X84155162Y-114113201D01*
X84155121Y-114160076D01*
X77155198Y-121160000D01*
X75492462Y-121160000D01*
X75460327Y-121127808D01*
X75116799Y-120985162D01*
X74744833Y-120984838D01*
X74401057Y-121126883D01*
X74137808Y-121389673D01*
X73995162Y-121733201D01*
X73994838Y-122105167D01*
X74136883Y-122448943D01*
X74399673Y-122712192D01*
X74743201Y-122854838D01*
X75115167Y-122855162D01*
X75458943Y-122713117D01*
X75492117Y-122680000D01*
X77470000Y-122680000D01*
X77760839Y-122622148D01*
X78007401Y-122457401D01*
X85229679Y-115235122D01*
X85275167Y-115235162D01*
X85600000Y-115100944D01*
X85600000Y-115255198D01*
X76060320Y-124794877D01*
X76014833Y-124794838D01*
X75671057Y-124936883D01*
X75407808Y-125199673D01*
X75265162Y-125543201D01*
X75264838Y-125915167D01*
X75406883Y-126258943D01*
X75669673Y-126522192D01*
X76013201Y-126664838D01*
X76385167Y-126665162D01*
X76728943Y-126523117D01*
X76992192Y-126260327D01*
X77134838Y-125916799D01*
X77134878Y-125869923D01*
X86897401Y-116107401D01*
X87062148Y-115860839D01*
X87120000Y-115570000D01*
X87120000Y-108318669D01*
X87206883Y-108528943D01*
X87469673Y-108792192D01*
X87813201Y-108934838D01*
X88185167Y-108935162D01*
X88528943Y-108793117D01*
X88792192Y-108530327D01*
X88934838Y-108186799D01*
X88935162Y-107814833D01*
X88935162Y-135873000D01*
X72803345Y-135873000D01*
X72803345Y-127000000D01*
X72689271Y-126426511D01*
X72364415Y-125940330D01*
X72049634Y-125730000D01*
X72364415Y-125519670D01*
X72689271Y-125033489D01*
X72803345Y-124460000D01*
X72689271Y-123886511D01*
X72364415Y-123400330D01*
X72049634Y-123190000D01*
X72364415Y-122979670D01*
X72689271Y-122493489D01*
X72803345Y-121920000D01*
X72689271Y-121346511D01*
X72364415Y-120860330D01*
X72049634Y-120650000D01*
X72364415Y-120439670D01*
X72689271Y-119953489D01*
X72803345Y-119380000D01*
X72689271Y-118806511D01*
X72364415Y-118320330D01*
X72049634Y-118110000D01*
X72364415Y-117899670D01*
X72689271Y-117413489D01*
X72803345Y-116840000D01*
X72689271Y-116266511D01*
X72364415Y-115780330D01*
X72049634Y-115570000D01*
X72364415Y-115359670D01*
X72689271Y-114873489D01*
X72803345Y-114300000D01*
X72689271Y-113726511D01*
X72364415Y-113240330D01*
X72049634Y-113030000D01*
X72364415Y-112819670D01*
X72689271Y-112333489D01*
X72803345Y-111760000D01*
X72689271Y-111186511D01*
X72364415Y-110700330D01*
X72049634Y-110490000D01*
X72364415Y-110279670D01*
X72689271Y-109793489D01*
X72803345Y-109220000D01*
X72689271Y-108646511D01*
X72364415Y-108160330D01*
X72049634Y-107950000D01*
X72364415Y-107739670D01*
X72689271Y-107253489D01*
X72803345Y-106680000D01*
X72689271Y-106106511D01*
X72364415Y-105620330D01*
X72049634Y-105410000D01*
X72364415Y-105199670D01*
X72689271Y-104713489D01*
X72803345Y-104140000D01*
X72689271Y-103566511D01*
X72364415Y-103080330D01*
X72049634Y-102870000D01*
X72364415Y-102659670D01*
X72689271Y-102173489D01*
X72803345Y-101600000D01*
X72689271Y-101026511D01*
X72364415Y-100540330D01*
X72049634Y-100330000D01*
X72364415Y-100119670D01*
X72689271Y-99633489D01*
X72803345Y-99060000D01*
X72689271Y-98486511D01*
X72364415Y-98000330D01*
X72049634Y-97790000D01*
X72364415Y-97579670D01*
X72689271Y-97093489D01*
X72803345Y-96520000D01*
X72689271Y-95946511D01*
X72364415Y-95460330D01*
X72348632Y-95449784D01*
X72378123Y-95444063D01*
X72590927Y-95304273D01*
X72733377Y-95093240D01*
X72783440Y-94843600D01*
X72783440Y-93116400D01*
X72736463Y-92874277D01*
X72596673Y-92661473D01*
X72385640Y-92519023D01*
X72136000Y-92468960D01*
X70104000Y-92468960D01*
X69861877Y-92515937D01*
X69851331Y-92522864D01*
X69845640Y-92519023D01*
X69596000Y-92468960D01*
X67564000Y-92468960D01*
X67321877Y-92515937D01*
X67311331Y-92522864D01*
X67305640Y-92519023D01*
X67056000Y-92468960D01*
X65024000Y-92468960D01*
X64781877Y-92515937D01*
X64771331Y-92522864D01*
X64765640Y-92519023D01*
X64516000Y-92468960D01*
X62484000Y-92468960D01*
X62241877Y-92515937D01*
X62029073Y-92655727D01*
X61886623Y-92866760D01*
X61836560Y-93116400D01*
X61836560Y-94843600D01*
X61883537Y-95085723D01*
X62023327Y-95298527D01*
X62234360Y-95440977D01*
X62272962Y-95448718D01*
X62255585Y-95460330D01*
X61930729Y-95946511D01*
X61816655Y-96520000D01*
X61930729Y-97093489D01*
X62255585Y-97579670D01*
X62570365Y-97790000D01*
X62255585Y-98000330D01*
X61930729Y-98486511D01*
X61816655Y-99060000D01*
X61930729Y-99633489D01*
X62255585Y-100119670D01*
X62570365Y-100330000D01*
X62255585Y-100540330D01*
X61930729Y-101026511D01*
X61816655Y-101600000D01*
X61930729Y-102173489D01*
X62255585Y-102659670D01*
X62570365Y-102870000D01*
X62255585Y-103080330D01*
X61930729Y-103566511D01*
X61816655Y-104140000D01*
X61930729Y-104713489D01*
X62255585Y-105199670D01*
X62570365Y-105410000D01*
X62255585Y-105620330D01*
X61930729Y-106106511D01*
X61816655Y-106680000D01*
X61930729Y-107253489D01*
X62255585Y-107739670D01*
X62570365Y-107950000D01*
X62255585Y-108160330D01*
X61930729Y-108646511D01*
X61816655Y-109220000D01*
X61930729Y-109793489D01*
X62255585Y-110279670D01*
X62570365Y-110490000D01*
X62255585Y-110700330D01*
X61930729Y-111186511D01*
X61816655Y-111760000D01*
X61930729Y-112333489D01*
X62255585Y-112819670D01*
X62570365Y-113030000D01*
X62255585Y-113240330D01*
X61930729Y-113726511D01*
X61816655Y-114300000D01*
X61930729Y-114873489D01*
X62255585Y-115359670D01*
X62570365Y-115570000D01*
X62255585Y-115780330D01*
X61930729Y-116266511D01*
X61816655Y-116840000D01*
X61930729Y-117413489D01*
X62255585Y-117899670D01*
X62570365Y-118110000D01*
X62255585Y-118320330D01*
X61930729Y-118806511D01*
X61816655Y-119380000D01*
X61930729Y-119953489D01*
X62255585Y-120439670D01*
X62570365Y-120650000D01*
X62255585Y-120860330D01*
X61930729Y-121346511D01*
X61816655Y-121920000D01*
X61930729Y-122493489D01*
X62255585Y-122979670D01*
X62570365Y-123190000D01*
X62255585Y-123400330D01*
X61930729Y-123886511D01*
X61816655Y-124460000D01*
X61930729Y-125033489D01*
X62255585Y-125519670D01*
X62570365Y-125730000D01*
X62255585Y-125940330D01*
X61930729Y-126426511D01*
X61816655Y-127000000D01*
X61930729Y-127573489D01*
X62255585Y-128059670D01*
X62741766Y-128384526D01*
X63315255Y-128498600D01*
X63684745Y-128498600D01*
X64258234Y-128384526D01*
X64744415Y-128059670D01*
X64770000Y-128021379D01*
X64795585Y-128059670D01*
X65281766Y-128384526D01*
X65855255Y-128498600D01*
X66224745Y-128498600D01*
X66798234Y-128384526D01*
X67284415Y-128059670D01*
X67310000Y-128021379D01*
X67335585Y-128059670D01*
X67821766Y-128384526D01*
X68395255Y-128498600D01*
X68764745Y-128498600D01*
X69338234Y-128384526D01*
X69824415Y-128059670D01*
X69850000Y-128021379D01*
X69875585Y-128059670D01*
X70361766Y-128384526D01*
X70935255Y-128498600D01*
X71304745Y-128498600D01*
X71878234Y-128384526D01*
X72364415Y-128059670D01*
X72689271Y-127573489D01*
X72803345Y-127000000D01*
X72803345Y-135873000D01*
X63044549Y-135873000D01*
X58127000Y-131938961D01*
X58127000Y-86052605D01*
X63127000Y-81052605D01*
X63127000Y-70044549D01*
X67061039Y-65127000D01*
X141947395Y-65127000D01*
X142873000Y-66052605D01*
X142873000Y-70158264D01*
X142515632Y-70515632D01*
X142367143Y-70737862D01*
X142315000Y-71000000D01*
X142315000Y-132000000D01*
X142367143Y-132262138D01*
X142515632Y-132484368D01*
X142873000Y-132841736D01*
X142873000Y-134947395D01*
X142873000Y-134947395D01*
G37*
X142873000Y-134947395D02*
X141947395Y-135873000D01*
X141227959Y-135873000D01*
X141227959Y-132080000D01*
X141113885Y-131506511D01*
X140789029Y-131020330D01*
X140474248Y-130810000D01*
X140789029Y-130599670D01*
X141113885Y-130113489D01*
X141227959Y-129540000D01*
X141113885Y-128966511D01*
X140789029Y-128480330D01*
X140474248Y-128270000D01*
X140789029Y-128059670D01*
X141113885Y-127573489D01*
X141227959Y-127000000D01*
X141113885Y-126426511D01*
X140789029Y-125940330D01*
X140474248Y-125730000D01*
X140789029Y-125519670D01*
X141113885Y-125033489D01*
X141227959Y-124460000D01*
X141113885Y-123886511D01*
X140789029Y-123400330D01*
X140474248Y-123190000D01*
X140789029Y-122979670D01*
X141113885Y-122493489D01*
X141227959Y-121920000D01*
X141113885Y-121346511D01*
X140789029Y-120860330D01*
X140474248Y-120650000D01*
X140789029Y-120439670D01*
X141113885Y-119953489D01*
X141227959Y-119380000D01*
X141113885Y-118806511D01*
X140789029Y-118320330D01*
X140474248Y-118110000D01*
X140789029Y-117899670D01*
X141113885Y-117413489D01*
X141227959Y-116840000D01*
X141113885Y-116266511D01*
X140789029Y-115780330D01*
X140474248Y-115570000D01*
X140789029Y-115359670D01*
X141113885Y-114873489D01*
X141227959Y-114300000D01*
X141113885Y-113726511D01*
X140789029Y-113240330D01*
X140474248Y-113030000D01*
X140789029Y-112819670D01*
X141113885Y-112333489D01*
X141227959Y-111760000D01*
X141113885Y-111186511D01*
X140789029Y-110700330D01*
X140474248Y-110490000D01*
X140789029Y-110279670D01*
X141113885Y-109793489D01*
X141227959Y-109220000D01*
X141113885Y-108646511D01*
X140789029Y-108160330D01*
X140465771Y-107944336D01*
X140588490Y-107886821D01*
X140982688Y-107454947D01*
X141154958Y-107039026D01*
X141154958Y-106320974D01*
X140982688Y-105905053D01*
X140588490Y-105473179D01*
X140453687Y-105410000D01*
X140588490Y-105346821D01*
X140982688Y-104914947D01*
X141154958Y-104499026D01*
X141033817Y-104267000D01*
X139827000Y-104267000D01*
X139827000Y-105345531D01*
X139827000Y-105474469D01*
X139827000Y-106553000D01*
X141033817Y-106553000D01*
X141154958Y-106320974D01*
X141154958Y-107039026D01*
X141033817Y-106807000D01*
X139827000Y-106807000D01*
X139827000Y-106827000D01*
X139573000Y-106827000D01*
X139573000Y-106807000D01*
X139553000Y-106807000D01*
X139553000Y-106553000D01*
X139573000Y-106553000D01*
X139573000Y-105474469D01*
X139573000Y-105345531D01*
X139573000Y-104267000D01*
X138493817Y-104267000D01*
X138366183Y-104267000D01*
X137287000Y-104267000D01*
X137287000Y-104287000D01*
X137033000Y-104287000D01*
X137033000Y-104267000D01*
X137013000Y-104267000D01*
X137013000Y-104013000D01*
X137033000Y-104013000D01*
X137033000Y-103993000D01*
X137287000Y-103993000D01*
X137287000Y-104013000D01*
X138366183Y-104013000D01*
X138493817Y-104013000D01*
X139573000Y-104013000D01*
X139573000Y-103993000D01*
X139827000Y-103993000D01*
X139827000Y-104013000D01*
X141033817Y-104013000D01*
X141154958Y-103780974D01*
X140982688Y-103365053D01*
X140588490Y-102933179D01*
X140465771Y-102875663D01*
X140789029Y-102659670D01*
X141113885Y-102173489D01*
X141227959Y-101600000D01*
X141113885Y-101026511D01*
X140789029Y-100540330D01*
X140474248Y-100330000D01*
X140789029Y-100119670D01*
X141113885Y-99633489D01*
X141227959Y-99060000D01*
X141113885Y-98486511D01*
X140789029Y-98000330D01*
X140474248Y-97790000D01*
X140789029Y-97579670D01*
X141113885Y-97093489D01*
X141227959Y-96520000D01*
X141113885Y-95946511D01*
X140789029Y-95460330D01*
X140474248Y-95250000D01*
X140789029Y-95039670D01*
X141113885Y-94553489D01*
X141227959Y-93980000D01*
X141113885Y-93406511D01*
X140789029Y-92920330D01*
X140474248Y-92710000D01*
X140789029Y-92499670D01*
X141113885Y-92013489D01*
X141227959Y-91440000D01*
X141113885Y-90866511D01*
X140789029Y-90380330D01*
X140474248Y-90170000D01*
X140789029Y-89959670D01*
X141113885Y-89473489D01*
X141227959Y-88900000D01*
X141113885Y-88326511D01*
X140789029Y-87840330D01*
X140474248Y-87630000D01*
X140789029Y-87419670D01*
X141113885Y-86933489D01*
X141227959Y-86360000D01*
X141113885Y-85786511D01*
X140789029Y-85300330D01*
X140474248Y-85090000D01*
X140789029Y-84879670D01*
X141113885Y-84393489D01*
X141227959Y-83820000D01*
X141113885Y-83246511D01*
X140789029Y-82760330D01*
X140474248Y-82550000D01*
X140789029Y-82339670D01*
X141113885Y-81853489D01*
X141227959Y-81280000D01*
X141113885Y-80706511D01*
X140789029Y-80220330D01*
X140474248Y-80010000D01*
X140789029Y-79799670D01*
X141113885Y-79313489D01*
X141227959Y-78740000D01*
X141113885Y-78166511D01*
X140789029Y-77680330D01*
X140474248Y-77470000D01*
X140789029Y-77259670D01*
X141113885Y-76773489D01*
X141227959Y-76200000D01*
X141113885Y-75626511D01*
X140789029Y-75140330D01*
X140474248Y-74930000D01*
X140789029Y-74719670D01*
X141113885Y-74233489D01*
X141227959Y-73660000D01*
X141113885Y-73086511D01*
X140789029Y-72600330D01*
X140474248Y-72390000D01*
X140789029Y-72179670D01*
X141113885Y-71693489D01*
X141227959Y-71120000D01*
X141113885Y-70546511D01*
X140789029Y-70060330D01*
X140474248Y-69850000D01*
X140789029Y-69639670D01*
X141113885Y-69153489D01*
X141227959Y-68580000D01*
X141113885Y-68006511D01*
X140789029Y-67520330D01*
X140302848Y-67195474D01*
X139729359Y-67081400D01*
X139670641Y-67081400D01*
X139097152Y-67195474D01*
X138630470Y-67507300D01*
X138624063Y-67474277D01*
X138484273Y-67261473D01*
X138273240Y-67119023D01*
X138023600Y-67068960D01*
X136296400Y-67068960D01*
X136054277Y-67115937D01*
X135841473Y-67255727D01*
X135699023Y-67466760D01*
X135690731Y-67508104D01*
X135222848Y-67195474D01*
X134649359Y-67081400D01*
X134590641Y-67081400D01*
X134017152Y-67195474D01*
X133550470Y-67507300D01*
X133544063Y-67474277D01*
X133404273Y-67261473D01*
X133193240Y-67119023D01*
X132943600Y-67068960D01*
X131216400Y-67068960D01*
X130974277Y-67115937D01*
X130761473Y-67255727D01*
X130619023Y-67466760D01*
X130568960Y-67716400D01*
X130568960Y-69443600D01*
X130615937Y-69685723D01*
X130755727Y-69898527D01*
X130966760Y-70040977D01*
X131007659Y-70049179D01*
X130990971Y-70060330D01*
X130666115Y-70546511D01*
X130552041Y-71120000D01*
X130666115Y-71693489D01*
X130990971Y-72179670D01*
X131305751Y-72390000D01*
X130990971Y-72600330D01*
X130666115Y-73086511D01*
X130552041Y-73660000D01*
X130666115Y-74233489D01*
X130990971Y-74719670D01*
X131305751Y-74930000D01*
X130990971Y-75140330D01*
X130666115Y-75626511D01*
X130552041Y-76200000D01*
X130666115Y-76773489D01*
X130990971Y-77259670D01*
X131305751Y-77470000D01*
X130990971Y-77680330D01*
X130666115Y-78166511D01*
X130552041Y-78740000D01*
X130666115Y-79313489D01*
X130990971Y-79799670D01*
X131305751Y-80010000D01*
X130990971Y-80220330D01*
X130666115Y-80706511D01*
X130552041Y-81280000D01*
X130666115Y-81853489D01*
X130990971Y-82339670D01*
X131305751Y-82550000D01*
X130990971Y-82760330D01*
X130666115Y-83246511D01*
X130552041Y-83820000D01*
X130666115Y-84393489D01*
X130990971Y-84879670D01*
X131305751Y-85090000D01*
X130990971Y-85300330D01*
X130666115Y-85786511D01*
X130552041Y-86360000D01*
X130666115Y-86933489D01*
X130990971Y-87419670D01*
X131305751Y-87630000D01*
X130990971Y-87840330D01*
X130666115Y-88326511D01*
X130552041Y-88900000D01*
X130666115Y-89473489D01*
X130990971Y-89959670D01*
X131305751Y-90170000D01*
X130990971Y-90380330D01*
X130666115Y-90866511D01*
X130552041Y-91440000D01*
X130666115Y-92013489D01*
X130990971Y-92499670D01*
X131305751Y-92710000D01*
X130990971Y-92920330D01*
X130666115Y-93406511D01*
X130552041Y-93980000D01*
X130666115Y-94553489D01*
X130990971Y-95039670D01*
X131305751Y-95250000D01*
X130990971Y-95460330D01*
X130666115Y-95946511D01*
X130552041Y-96520000D01*
X130666115Y-97093489D01*
X130990971Y-97579670D01*
X131305751Y-97790000D01*
X130990971Y-98000330D01*
X130666115Y-98486511D01*
X130552041Y-99060000D01*
X130666115Y-99633489D01*
X130990971Y-100119670D01*
X131305751Y-100330000D01*
X130990971Y-100540330D01*
X130666115Y-101026511D01*
X130552041Y-101600000D01*
X130666115Y-102173489D01*
X130990971Y-102659670D01*
X131305751Y-102870000D01*
X130990971Y-103080330D01*
X130666115Y-103566511D01*
X130552041Y-104140000D01*
X130666115Y-104713489D01*
X130990971Y-105199670D01*
X131305751Y-105410000D01*
X130990971Y-105620330D01*
X130666115Y-106106511D01*
X130552041Y-106680000D01*
X130666115Y-107253489D01*
X130990971Y-107739670D01*
X131305751Y-107950000D01*
X130990971Y-108160330D01*
X130666115Y-108646511D01*
X130552041Y-109220000D01*
X130666115Y-109793489D01*
X130990971Y-110279670D01*
X131305751Y-110490000D01*
X130990971Y-110700330D01*
X130666115Y-111186511D01*
X130552041Y-111760000D01*
X130666115Y-112333489D01*
X130990971Y-112819670D01*
X131305751Y-113030000D01*
X130990971Y-113240330D01*
X130666115Y-113726511D01*
X130552041Y-114300000D01*
X130666115Y-114873489D01*
X130990971Y-115359670D01*
X131305751Y-115570000D01*
X130990971Y-115780330D01*
X130666115Y-116266511D01*
X130552041Y-116840000D01*
X130666115Y-117413489D01*
X130990971Y-117899670D01*
X131305751Y-118110000D01*
X130990971Y-118320330D01*
X130924545Y-118419743D01*
X129030000Y-116525198D01*
X129030000Y-100330000D01*
X128972148Y-100039161D01*
X128807401Y-99792599D01*
X123754802Y-94740000D01*
X125415198Y-94740000D01*
X126064877Y-95389679D01*
X126064838Y-95435167D01*
X126206883Y-95778943D01*
X126469673Y-96042192D01*
X126813201Y-96184838D01*
X127185167Y-96185162D01*
X127528943Y-96043117D01*
X127792192Y-95780327D01*
X127934838Y-95436799D01*
X127935162Y-95064833D01*
X127793117Y-94721057D01*
X127530327Y-94457808D01*
X127186799Y-94315162D01*
X127139923Y-94315121D01*
X126293461Y-93468659D01*
X126522192Y-93240327D01*
X126664838Y-92896799D01*
X126665162Y-92524833D01*
X126523117Y-92181057D01*
X126260327Y-91917808D01*
X125916799Y-91775162D01*
X125544833Y-91774838D01*
X125201057Y-91916883D01*
X125167882Y-91950000D01*
X116840000Y-91950000D01*
X115884802Y-91950000D01*
X112324802Y-88390000D01*
X113985198Y-88390000D01*
X116302599Y-90707401D01*
X116549160Y-90872148D01*
X116549161Y-90872148D01*
X116597413Y-90881746D01*
X116840000Y-90930000D01*
X125167537Y-90930000D01*
X125199673Y-90962192D01*
X125543201Y-91104838D01*
X125915167Y-91105162D01*
X126258943Y-90963117D01*
X126522192Y-90700327D01*
X126664838Y-90356799D01*
X126665162Y-89984833D01*
X126523117Y-89641057D01*
X126417290Y-89535045D01*
X126522192Y-89430327D01*
X126664838Y-89086799D01*
X126665162Y-88714833D01*
X126523117Y-88371057D01*
X126417290Y-88265045D01*
X126522192Y-88160327D01*
X126664838Y-87816799D01*
X126665162Y-87444833D01*
X126523117Y-87101057D01*
X126260327Y-86837808D01*
X125916799Y-86695162D01*
X125544833Y-86694838D01*
X125201057Y-86836883D01*
X125167882Y-86870000D01*
X117402462Y-86870000D01*
X117370327Y-86837808D01*
X117026799Y-86695162D01*
X116654833Y-86694838D01*
X116311057Y-86836883D01*
X116047808Y-87099673D01*
X115905162Y-87443201D01*
X115904838Y-87815167D01*
X116046883Y-88158943D01*
X116309673Y-88422192D01*
X116653201Y-88564838D01*
X117025167Y-88565162D01*
X117280429Y-88459689D01*
X117175162Y-88713201D01*
X117174838Y-89085167D01*
X117309055Y-89410000D01*
X117154802Y-89410000D01*
X114837401Y-87092599D01*
X114590839Y-86927852D01*
X114300000Y-86870000D01*
X112322462Y-86870000D01*
X112290327Y-86837808D01*
X111946799Y-86695162D01*
X111574833Y-86694838D01*
X111231057Y-86836883D01*
X111001170Y-87066368D01*
X110155122Y-86220320D01*
X110155162Y-86174833D01*
X110013117Y-85831057D01*
X109750327Y-85567808D01*
X109406799Y-85425162D01*
X109034833Y-85424838D01*
X108691057Y-85566883D01*
X108427808Y-85829673D01*
X108285162Y-86173201D01*
X108284838Y-86545167D01*
X108426883Y-86888943D01*
X108689673Y-87152192D01*
X109033201Y-87294838D01*
X109080076Y-87294878D01*
X115032599Y-93247401D01*
X115279161Y-93412148D01*
X115570000Y-93470000D01*
X116840000Y-93470000D01*
X122389367Y-93470000D01*
X122255162Y-93793201D01*
X122254838Y-94165167D01*
X122389055Y-94490000D01*
X115884802Y-94490000D01*
X112695122Y-91300320D01*
X112695162Y-91254833D01*
X112553117Y-90911057D01*
X112290327Y-90647808D01*
X111946799Y-90505162D01*
X111574833Y-90504838D01*
X111231057Y-90646883D01*
X110967808Y-90909673D01*
X110825162Y-91253201D01*
X110824838Y-91625167D01*
X110930310Y-91880429D01*
X110676799Y-91775162D01*
X110304833Y-91774838D01*
X109961057Y-91916883D01*
X109697808Y-92179673D01*
X109555162Y-92523201D01*
X109554838Y-92895167D01*
X109696883Y-93238943D01*
X109959673Y-93502192D01*
X110303201Y-93644838D01*
X110350076Y-93644878D01*
X115005198Y-98300000D01*
X114614802Y-98300000D01*
X113567401Y-97252599D01*
X113320839Y-97087852D01*
X113030000Y-97030000D01*
X106170000Y-97030000D01*
X106170000Y-86360000D01*
X106112148Y-86069161D01*
X106112148Y-86069160D01*
X105947401Y-85822599D01*
X105075122Y-84950320D01*
X105075162Y-84904833D01*
X104933117Y-84561057D01*
X104670327Y-84297808D01*
X104326799Y-84155162D01*
X103954833Y-84154838D01*
X103611057Y-84296883D01*
X103347808Y-84559673D01*
X103205162Y-84903201D01*
X103204838Y-85275167D01*
X103346883Y-85618943D01*
X103609673Y-85882192D01*
X103953201Y-86024838D01*
X104000076Y-86024878D01*
X104650000Y-86674802D01*
X104650000Y-97227537D01*
X104617808Y-97259673D01*
X104475162Y-97603201D01*
X104474838Y-97975167D01*
X104616883Y-98318943D01*
X104879673Y-98582192D01*
X105223201Y-98724838D01*
X105595167Y-98725162D01*
X105938943Y-98583117D01*
X105972117Y-98550000D01*
X112715198Y-98550000D01*
X113762599Y-99597401D01*
X114009160Y-99762148D01*
X114009161Y-99762148D01*
X114300000Y-99820000D01*
X121605198Y-99820000D01*
X122254877Y-100469679D01*
X122254838Y-100515167D01*
X122396883Y-100858943D01*
X122659673Y-101122192D01*
X123003201Y-101264838D01*
X123375167Y-101265162D01*
X123718943Y-101123117D01*
X123948829Y-100893631D01*
X124970000Y-101914802D01*
X124970000Y-116840000D01*
X125027852Y-117130839D01*
X125192599Y-117377401D01*
X130272599Y-122457401D01*
X130519161Y-122622148D01*
X130787785Y-122675581D01*
X130990971Y-122979670D01*
X131305751Y-123190000D01*
X130990971Y-123400330D01*
X130666115Y-123886511D01*
X130552041Y-124460000D01*
X130666115Y-125033489D01*
X130990971Y-125519670D01*
X131305751Y-125730000D01*
X130990971Y-125940330D01*
X130666115Y-126426511D01*
X130552041Y-127000000D01*
X130666115Y-127573489D01*
X130990971Y-128059670D01*
X131305751Y-128270000D01*
X130990971Y-128480330D01*
X130666115Y-128966511D01*
X130552041Y-129540000D01*
X130666115Y-130113489D01*
X130990971Y-130599670D01*
X131305751Y-130810000D01*
X130990971Y-131020330D01*
X130666115Y-131506511D01*
X130552041Y-132080000D01*
X130666115Y-132653489D01*
X130990971Y-133139670D01*
X131477152Y-133464526D01*
X132050641Y-133578600D01*
X132109359Y-133578600D01*
X132682848Y-133464526D01*
X133169029Y-133139670D01*
X133350000Y-132868827D01*
X133530971Y-133139670D01*
X134017152Y-133464526D01*
X134590641Y-133578600D01*
X134649359Y-133578600D01*
X135222848Y-133464526D01*
X135709029Y-133139670D01*
X135890000Y-132868827D01*
X136070971Y-133139670D01*
X136557152Y-133464526D01*
X137130641Y-133578600D01*
X137189359Y-133578600D01*
X137762848Y-133464526D01*
X138249029Y-133139670D01*
X138430000Y-132868827D01*
X138610971Y-133139670D01*
X139097152Y-133464526D01*
X139670641Y-133578600D01*
X139729359Y-133578600D01*
X140302848Y-133464526D01*
X140789029Y-133139670D01*
X141113885Y-132653489D01*
X141227959Y-132080000D01*
X141227959Y-135873000D01*
X103111040Y-135873000D01*
X103111040Y-121666000D01*
X103111040Y-119634000D01*
X103064063Y-119391877D01*
X102924273Y-119179073D01*
X102713240Y-119036623D01*
X102463600Y-118986560D01*
X101841040Y-118986560D01*
X101841040Y-98806000D01*
X101841040Y-96774000D01*
X101794063Y-96531877D01*
X101654273Y-96319073D01*
X101443240Y-96176623D01*
X101193600Y-96126560D01*
X99466400Y-96126560D01*
X99224277Y-96173537D01*
X99011473Y-96313327D01*
X98869023Y-96524360D01*
X98861281Y-96562962D01*
X98849670Y-96545585D01*
X98363489Y-96220729D01*
X97790000Y-96106655D01*
X97216511Y-96220729D01*
X96730330Y-96545585D01*
X96523539Y-96855069D01*
X96152036Y-96439268D01*
X95624791Y-96185291D01*
X95609026Y-96182642D01*
X95377000Y-96303783D01*
X95377000Y-97663000D01*
X95397000Y-97663000D01*
X95397000Y-97917000D01*
X95377000Y-97917000D01*
X95377000Y-99276217D01*
X95609026Y-99397358D01*
X95624791Y-99394709D01*
X96152036Y-99140732D01*
X96523539Y-98724930D01*
X96730330Y-99034415D01*
X97216511Y-99359271D01*
X97790000Y-99473345D01*
X98363489Y-99359271D01*
X98849670Y-99034415D01*
X98860215Y-99018632D01*
X98865937Y-99048123D01*
X99005727Y-99260927D01*
X99216760Y-99403377D01*
X99466400Y-99453440D01*
X101193600Y-99453440D01*
X101435723Y-99406463D01*
X101648527Y-99266673D01*
X101790977Y-99055640D01*
X101841040Y-98806000D01*
X101841040Y-118986560D01*
X100736400Y-118986560D01*
X100494277Y-119033537D01*
X100281473Y-119173327D01*
X100139023Y-119384360D01*
X100131281Y-119422962D01*
X100119670Y-119405585D01*
X99633489Y-119080729D01*
X99060000Y-118966655D01*
X98486511Y-119080729D01*
X98000330Y-119405585D01*
X97793539Y-119715069D01*
X97422036Y-119299268D01*
X96894791Y-119045291D01*
X96879026Y-119042642D01*
X96647000Y-119163783D01*
X96647000Y-120523000D01*
X96667000Y-120523000D01*
X96667000Y-120777000D01*
X96647000Y-120777000D01*
X96647000Y-122136217D01*
X96879026Y-122257358D01*
X96894791Y-122254709D01*
X97422036Y-122000732D01*
X97793539Y-121584930D01*
X98000330Y-121894415D01*
X98486511Y-122219271D01*
X99060000Y-122333345D01*
X99633489Y-122219271D01*
X100119670Y-121894415D01*
X100130215Y-121878632D01*
X100135937Y-121908123D01*
X100275727Y-122120927D01*
X100486760Y-122263377D01*
X100736400Y-122313440D01*
X102463600Y-122313440D01*
X102705723Y-122266463D01*
X102918527Y-122126673D01*
X103060977Y-121915640D01*
X103111040Y-121666000D01*
X103111040Y-135873000D01*
X96393000Y-135873000D01*
X96393000Y-122136217D01*
X96393000Y-120777000D01*
X96393000Y-120523000D01*
X96393000Y-119163783D01*
X96160974Y-119042642D01*
X96145209Y-119045291D01*
X95617964Y-119299268D01*
X95228046Y-119735680D01*
X95123000Y-120035986D01*
X95123000Y-99276217D01*
X95123000Y-97917000D01*
X95123000Y-97663000D01*
X95123000Y-96303783D01*
X94890974Y-96182642D01*
X94875209Y-96185291D01*
X94347964Y-96439268D01*
X93958046Y-96875680D01*
X93764816Y-97428087D01*
X93909076Y-97663000D01*
X95123000Y-97663000D01*
X95123000Y-97917000D01*
X93909076Y-97917000D01*
X93764816Y-98151913D01*
X93958046Y-98704320D01*
X94347964Y-99140732D01*
X94875209Y-99394709D01*
X94890974Y-99397358D01*
X95123000Y-99276217D01*
X95123000Y-120035986D01*
X95034816Y-120288087D01*
X95179076Y-120523000D01*
X96393000Y-120523000D01*
X96393000Y-120777000D01*
X95179076Y-120777000D01*
X95034816Y-121011913D01*
X95228046Y-121564320D01*
X95617964Y-122000732D01*
X96145209Y-122254709D01*
X96160974Y-122257358D01*
X96393000Y-122136217D01*
X96393000Y-135873000D01*
X88935162Y-135873000D01*
X88935162Y-107814833D01*
X88793117Y-107471057D01*
X88760000Y-107437882D01*
X88760000Y-87062462D01*
X88792192Y-87030327D01*
X88934838Y-86686799D01*
X88935162Y-86314833D01*
X88793117Y-85971057D01*
X88530327Y-85707808D01*
X88186799Y-85565162D01*
X87814833Y-85564838D01*
X87471057Y-85706883D01*
X87207808Y-85969673D01*
X87065162Y-86313201D01*
X87064838Y-86685167D01*
X87206883Y-87028943D01*
X87240000Y-87062117D01*
X87240000Y-89851330D01*
X87153117Y-89641057D01*
X86890327Y-89377808D01*
X86546799Y-89235162D01*
X86174833Y-89234838D01*
X85831057Y-89376883D01*
X85567808Y-89639673D01*
X85425162Y-89983201D01*
X85424838Y-90355167D01*
X85566883Y-90698943D01*
X85600000Y-90732117D01*
X85600000Y-113499367D01*
X85276799Y-113365162D01*
X84904833Y-113364838D01*
X84649570Y-113470310D01*
X84754838Y-113216799D01*
X84755162Y-112844833D01*
X84613117Y-112501057D01*
X84350327Y-112237808D01*
X84006799Y-112095162D01*
X83634833Y-112094838D01*
X83485162Y-112156680D01*
X83485162Y-97604833D01*
X83343117Y-97261057D01*
X83080327Y-96997808D01*
X82736799Y-96855162D01*
X82364833Y-96854838D01*
X82021057Y-96996883D01*
X81757808Y-97259673D01*
X81615162Y-97603201D01*
X81615121Y-97650076D01*
X80965198Y-98300000D01*
X78032462Y-98300000D01*
X78000327Y-98267808D01*
X77656799Y-98125162D01*
X77284833Y-98124838D01*
X76941057Y-98266883D01*
X76677808Y-98529673D01*
X76535162Y-98873201D01*
X76534838Y-99245167D01*
X76676883Y-99588943D01*
X76939673Y-99852192D01*
X77283201Y-99994838D01*
X77655167Y-99995162D01*
X77998943Y-99853117D01*
X78032117Y-99820000D01*
X81280000Y-99820000D01*
X81570839Y-99762148D01*
X81817401Y-99597401D01*
X82689679Y-98725122D01*
X82735167Y-98725162D01*
X83078943Y-98583117D01*
X83342192Y-98320327D01*
X83484838Y-97976799D01*
X83485162Y-97604833D01*
X83485162Y-112156680D01*
X83291057Y-112236883D01*
X83027808Y-112499673D01*
X82885162Y-112843201D01*
X82885121Y-112890076D01*
X77155198Y-118620000D01*
X77135162Y-118620000D01*
X77135162Y-111574833D01*
X76993117Y-111231057D01*
X76960000Y-111197882D01*
X76960000Y-105972462D01*
X76992192Y-105940327D01*
X77134838Y-105596799D01*
X77135162Y-105224833D01*
X76993117Y-104881057D01*
X76730327Y-104617808D01*
X76386799Y-104475162D01*
X76014833Y-104474838D01*
X75671057Y-104616883D01*
X75407808Y-104879673D01*
X75310000Y-105115219D01*
X75310000Y-98627054D01*
X75488943Y-98553117D01*
X75752192Y-98290327D01*
X75894838Y-97946799D01*
X75895162Y-97574833D01*
X75753117Y-97231057D01*
X75490327Y-96967808D01*
X75146799Y-96825162D01*
X74774833Y-96824838D01*
X74431057Y-96966883D01*
X74167808Y-97229673D01*
X74025162Y-97573201D01*
X74025121Y-97620076D01*
X74012599Y-97632599D01*
X73847852Y-97879161D01*
X73790000Y-98170000D01*
X73790000Y-112437537D01*
X73757808Y-112469673D01*
X73615162Y-112813201D01*
X73614838Y-113185167D01*
X73756883Y-113528943D01*
X74019673Y-113792192D01*
X74363201Y-113934838D01*
X74735167Y-113935162D01*
X75078943Y-113793117D01*
X75342192Y-113530327D01*
X75484838Y-113186799D01*
X75485162Y-112814833D01*
X75343117Y-112471057D01*
X75310000Y-112437882D01*
X75310000Y-112054467D01*
X75406883Y-112288943D01*
X75669673Y-112552192D01*
X76013201Y-112694838D01*
X76385167Y-112695162D01*
X76728943Y-112553117D01*
X76992192Y-112290327D01*
X77134838Y-111946799D01*
X77135162Y-111574833D01*
X77135162Y-118620000D01*
X76200000Y-118620000D01*
X75492462Y-118620000D01*
X75460327Y-118587808D01*
X75116799Y-118445162D01*
X74744833Y-118444838D01*
X74401057Y-118586883D01*
X74137808Y-118849673D01*
X73995162Y-119193201D01*
X73994838Y-119565167D01*
X74136883Y-119908943D01*
X74399673Y-120172192D01*
X74743201Y-120314838D01*
X75115167Y-120315162D01*
X75458943Y-120173117D01*
X75492117Y-120140000D01*
X76200000Y-120140000D01*
X77470000Y-120140000D01*
X77760839Y-120082148D01*
X78007401Y-119917401D01*
X83959679Y-113965122D01*
X84005167Y-113965162D01*
X84260429Y-113859689D01*
X84155162Y-114113201D01*
X84155121Y-114160076D01*
X77155198Y-121160000D01*
X75492462Y-121160000D01*
X75460327Y-121127808D01*
X75116799Y-120985162D01*
X74744833Y-120984838D01*
X74401057Y-121126883D01*
X74137808Y-121389673D01*
X73995162Y-121733201D01*
X73994838Y-122105167D01*
X74136883Y-122448943D01*
X74399673Y-122712192D01*
X74743201Y-122854838D01*
X75115167Y-122855162D01*
X75458943Y-122713117D01*
X75492117Y-122680000D01*
X77470000Y-122680000D01*
X77760839Y-122622148D01*
X78007401Y-122457401D01*
X85229679Y-115235122D01*
X85275167Y-115235162D01*
X85600000Y-115100944D01*
X85600000Y-115255198D01*
X76060320Y-124794877D01*
X76014833Y-124794838D01*
X75671057Y-124936883D01*
X75407808Y-125199673D01*
X75265162Y-125543201D01*
X75264838Y-125915167D01*
X75406883Y-126258943D01*
X75669673Y-126522192D01*
X76013201Y-126664838D01*
X76385167Y-126665162D01*
X76728943Y-126523117D01*
X76992192Y-126260327D01*
X77134838Y-125916799D01*
X77134878Y-125869923D01*
X86897401Y-116107401D01*
X87062148Y-115860839D01*
X87120000Y-115570000D01*
X87120000Y-108318669D01*
X87206883Y-108528943D01*
X87469673Y-108792192D01*
X87813201Y-108934838D01*
X88185167Y-108935162D01*
X88528943Y-108793117D01*
X88792192Y-108530327D01*
X88934838Y-108186799D01*
X88935162Y-107814833D01*
X88935162Y-135873000D01*
X72803345Y-135873000D01*
X72803345Y-127000000D01*
X72689271Y-126426511D01*
X72364415Y-125940330D01*
X72049634Y-125730000D01*
X72364415Y-125519670D01*
X72689271Y-125033489D01*
X72803345Y-124460000D01*
X72689271Y-123886511D01*
X72364415Y-123400330D01*
X72049634Y-123190000D01*
X72364415Y-122979670D01*
X72689271Y-122493489D01*
X72803345Y-121920000D01*
X72689271Y-121346511D01*
X72364415Y-120860330D01*
X72049634Y-120650000D01*
X72364415Y-120439670D01*
X72689271Y-119953489D01*
X72803345Y-119380000D01*
X72689271Y-118806511D01*
X72364415Y-118320330D01*
X72049634Y-118110000D01*
X72364415Y-117899670D01*
X72689271Y-117413489D01*
X72803345Y-116840000D01*
X72689271Y-116266511D01*
X72364415Y-115780330D01*
X72049634Y-115570000D01*
X72364415Y-115359670D01*
X72689271Y-114873489D01*
X72803345Y-114300000D01*
X72689271Y-113726511D01*
X72364415Y-113240330D01*
X72049634Y-113030000D01*
X72364415Y-112819670D01*
X72689271Y-112333489D01*
X72803345Y-111760000D01*
X72689271Y-111186511D01*
X72364415Y-110700330D01*
X72049634Y-110490000D01*
X72364415Y-110279670D01*
X72689271Y-109793489D01*
X72803345Y-109220000D01*
X72689271Y-108646511D01*
X72364415Y-108160330D01*
X72049634Y-107950000D01*
X72364415Y-107739670D01*
X72689271Y-107253489D01*
X72803345Y-106680000D01*
X72689271Y-106106511D01*
X72364415Y-105620330D01*
X72049634Y-105410000D01*
X72364415Y-105199670D01*
X72689271Y-104713489D01*
X72803345Y-104140000D01*
X72689271Y-103566511D01*
X72364415Y-103080330D01*
X72049634Y-102870000D01*
X72364415Y-102659670D01*
X72689271Y-102173489D01*
X72803345Y-101600000D01*
X72689271Y-101026511D01*
X72364415Y-100540330D01*
X72049634Y-100330000D01*
X72364415Y-100119670D01*
X72689271Y-99633489D01*
X72803345Y-99060000D01*
X72689271Y-98486511D01*
X72364415Y-98000330D01*
X72049634Y-97790000D01*
X72364415Y-97579670D01*
X72689271Y-97093489D01*
X72803345Y-96520000D01*
X72689271Y-95946511D01*
X72364415Y-95460330D01*
X72348632Y-95449784D01*
X72378123Y-95444063D01*
X72590927Y-95304273D01*
X72733377Y-95093240D01*
X72783440Y-94843600D01*
X72783440Y-93116400D01*
X72736463Y-92874277D01*
X72596673Y-92661473D01*
X72385640Y-92519023D01*
X72136000Y-92468960D01*
X70104000Y-92468960D01*
X69861877Y-92515937D01*
X69851331Y-92522864D01*
X69845640Y-92519023D01*
X69596000Y-92468960D01*
X67564000Y-92468960D01*
X67321877Y-92515937D01*
X67311331Y-92522864D01*
X67305640Y-92519023D01*
X67056000Y-92468960D01*
X65024000Y-92468960D01*
X64781877Y-92515937D01*
X64771331Y-92522864D01*
X64765640Y-92519023D01*
X64516000Y-92468960D01*
X62484000Y-92468960D01*
X62241877Y-92515937D01*
X62029073Y-92655727D01*
X61886623Y-92866760D01*
X61836560Y-93116400D01*
X61836560Y-94843600D01*
X61883537Y-95085723D01*
X62023327Y-95298527D01*
X62234360Y-95440977D01*
X62272962Y-95448718D01*
X62255585Y-95460330D01*
X61930729Y-95946511D01*
X61816655Y-96520000D01*
X61930729Y-97093489D01*
X62255585Y-97579670D01*
X62570365Y-97790000D01*
X62255585Y-98000330D01*
X61930729Y-98486511D01*
X61816655Y-99060000D01*
X61930729Y-99633489D01*
X62255585Y-100119670D01*
X62570365Y-100330000D01*
X62255585Y-100540330D01*
X61930729Y-101026511D01*
X61816655Y-101600000D01*
X61930729Y-102173489D01*
X62255585Y-102659670D01*
X62570365Y-102870000D01*
X62255585Y-103080330D01*
X61930729Y-103566511D01*
X61816655Y-104140000D01*
X61930729Y-104713489D01*
X62255585Y-105199670D01*
X62570365Y-105410000D01*
X62255585Y-105620330D01*
X61930729Y-106106511D01*
X61816655Y-106680000D01*
X61930729Y-107253489D01*
X62255585Y-107739670D01*
X62570365Y-107950000D01*
X62255585Y-108160330D01*
X61930729Y-108646511D01*
X61816655Y-109220000D01*
X61930729Y-109793489D01*
X62255585Y-110279670D01*
X62570365Y-110490000D01*
X62255585Y-110700330D01*
X61930729Y-111186511D01*
X61816655Y-111760000D01*
X61930729Y-112333489D01*
X62255585Y-112819670D01*
X62570365Y-113030000D01*
X62255585Y-113240330D01*
X61930729Y-113726511D01*
X61816655Y-114300000D01*
X61930729Y-114873489D01*
X62255585Y-115359670D01*
X62570365Y-115570000D01*
X62255585Y-115780330D01*
X61930729Y-116266511D01*
X61816655Y-116840000D01*
X61930729Y-117413489D01*
X62255585Y-117899670D01*
X62570365Y-118110000D01*
X62255585Y-118320330D01*
X61930729Y-118806511D01*
X61816655Y-119380000D01*
X61930729Y-119953489D01*
X62255585Y-120439670D01*
X62570365Y-120650000D01*
X62255585Y-120860330D01*
X61930729Y-121346511D01*
X61816655Y-121920000D01*
X61930729Y-122493489D01*
X62255585Y-122979670D01*
X62570365Y-123190000D01*
X62255585Y-123400330D01*
X61930729Y-123886511D01*
X61816655Y-124460000D01*
X61930729Y-125033489D01*
X62255585Y-125519670D01*
X62570365Y-125730000D01*
X62255585Y-125940330D01*
X61930729Y-126426511D01*
X61816655Y-127000000D01*
X61930729Y-127573489D01*
X62255585Y-128059670D01*
X62741766Y-128384526D01*
X63315255Y-128498600D01*
X63684745Y-128498600D01*
X64258234Y-128384526D01*
X64744415Y-128059670D01*
X64770000Y-128021379D01*
X64795585Y-128059670D01*
X65281766Y-128384526D01*
X65855255Y-128498600D01*
X66224745Y-128498600D01*
X66798234Y-128384526D01*
X67284415Y-128059670D01*
X67310000Y-128021379D01*
X67335585Y-128059670D01*
X67821766Y-128384526D01*
X68395255Y-128498600D01*
X68764745Y-128498600D01*
X69338234Y-128384526D01*
X69824415Y-128059670D01*
X69850000Y-128021379D01*
X69875585Y-128059670D01*
X70361766Y-128384526D01*
X70935255Y-128498600D01*
X71304745Y-128498600D01*
X71878234Y-128384526D01*
X72364415Y-128059670D01*
X72689271Y-127573489D01*
X72803345Y-127000000D01*
X72803345Y-135873000D01*
X63044549Y-135873000D01*
X58127000Y-131938961D01*
X58127000Y-86052605D01*
X63127000Y-81052605D01*
X63127000Y-70044549D01*
X67061039Y-65127000D01*
X141947395Y-65127000D01*
X142873000Y-66052605D01*
X142873000Y-70158264D01*
X142515632Y-70515632D01*
X142367143Y-70737862D01*
X142315000Y-71000000D01*
X142315000Y-132000000D01*
X142367143Y-132262138D01*
X142515632Y-132484368D01*
X142873000Y-132841736D01*
X142873000Y-134947395D01*
M02*
