G04 #@! TF.FileFunction,Legend,Top*
%FSLAX46Y46*%
G04 Gerber Fmt 4.6, Leading zero omitted, Abs format (unit mm)*
G04 Created by KiCad (PCBNEW (2015-04-08 BZR 5585)-product) date Tue 26 Apr 2016 05:59:57 PM CLT*
%MOMM*%
G01*
G04 APERTURE LIST*
%ADD10C,0.100000*%
%ADD11C,0.300000*%
%ADD12C,0.200000*%
%ADD13C,0.150000*%
G04 APERTURE END LIST*
D10*
D11*
X62907143Y-61521429D02*
X62907143Y-62021429D01*
X62121429Y-62235715D02*
X62121429Y-61521429D01*
X63621429Y-61521429D01*
X63621429Y-62235715D01*
X62121429Y-63521429D02*
X63621429Y-63521429D01*
X62192857Y-63521429D02*
X62121429Y-63378572D01*
X62121429Y-63092858D01*
X62192857Y-62950000D01*
X62264286Y-62878572D01*
X62407143Y-62807143D01*
X62835714Y-62807143D01*
X62978571Y-62878572D01*
X63050000Y-62950000D01*
X63121429Y-63092858D01*
X63121429Y-63378572D01*
X63050000Y-63521429D01*
X62121429Y-64235715D02*
X63121429Y-64235715D01*
X63621429Y-64235715D02*
X63550000Y-64164286D01*
X63478571Y-64235715D01*
X63550000Y-64307143D01*
X63621429Y-64235715D01*
X63478571Y-64235715D01*
X62192857Y-64878572D02*
X62121429Y-65021429D01*
X62121429Y-65307144D01*
X62192857Y-65450001D01*
X62335714Y-65521429D01*
X62407143Y-65521429D01*
X62550000Y-65450001D01*
X62621429Y-65307144D01*
X62621429Y-65092858D01*
X62692857Y-64950001D01*
X62835714Y-64878572D01*
X62907143Y-64878572D01*
X63050000Y-64950001D01*
X63121429Y-65092858D01*
X63121429Y-65307144D01*
X63050000Y-65450001D01*
X62121429Y-66378573D02*
X62192857Y-66235715D01*
X62264286Y-66164287D01*
X62407143Y-66092858D01*
X62835714Y-66092858D01*
X62978571Y-66164287D01*
X63050000Y-66235715D01*
X63121429Y-66378573D01*
X63121429Y-66592858D01*
X63050000Y-66735715D01*
X62978571Y-66807144D01*
X62835714Y-66878573D01*
X62407143Y-66878573D01*
X62264286Y-66807144D01*
X62192857Y-66735715D01*
X62121429Y-66592858D01*
X62121429Y-66378573D01*
X63121429Y-67521430D02*
X62121429Y-67521430D01*
X62978571Y-67521430D02*
X63050000Y-67592858D01*
X63121429Y-67735716D01*
X63121429Y-67950001D01*
X63050000Y-68092858D01*
X62907143Y-68164287D01*
X62121429Y-68164287D01*
X62907143Y-69378573D02*
X62835714Y-69592859D01*
X62764286Y-69664287D01*
X62621429Y-69735716D01*
X62407143Y-69735716D01*
X62264286Y-69664287D01*
X62192857Y-69592859D01*
X62121429Y-69450001D01*
X62121429Y-68878573D01*
X63621429Y-68878573D01*
X63621429Y-69378573D01*
X63550000Y-69521430D01*
X63478571Y-69592859D01*
X63335714Y-69664287D01*
X63192857Y-69664287D01*
X63050000Y-69592859D01*
X62978571Y-69521430D01*
X62907143Y-69378573D01*
X62907143Y-68878573D01*
X62121429Y-70378573D02*
X63121429Y-70378573D01*
X62835714Y-70378573D02*
X62978571Y-70450001D01*
X63050000Y-70521430D01*
X63121429Y-70664287D01*
X63121429Y-70807144D01*
X62121429Y-71307144D02*
X63621429Y-71307144D01*
X62692857Y-71450001D02*
X62121429Y-71878572D01*
X63121429Y-71878572D02*
X62550000Y-71307144D01*
X63121429Y-72307144D02*
X63121429Y-72878573D01*
X63621429Y-72521430D02*
X62335714Y-72521430D01*
X62192857Y-72592858D01*
X62121429Y-72735716D01*
X62121429Y-72878573D01*
X62907143Y-73878573D02*
X62835714Y-74092859D01*
X62764286Y-74164287D01*
X62621429Y-74235716D01*
X62407143Y-74235716D01*
X62264286Y-74164287D01*
X62192857Y-74092859D01*
X62121429Y-73950001D01*
X62121429Y-73378573D01*
X63621429Y-73378573D01*
X63621429Y-73878573D01*
X63550000Y-74021430D01*
X63478571Y-74092859D01*
X63335714Y-74164287D01*
X63192857Y-74164287D01*
X63050000Y-74092859D01*
X62978571Y-74021430D01*
X62907143Y-73878573D01*
X62907143Y-73378573D01*
X62121429Y-74878573D02*
X63121429Y-74878573D01*
X62835714Y-74878573D02*
X62978571Y-74950001D01*
X63050000Y-75021430D01*
X63121429Y-75164287D01*
X63121429Y-75307144D01*
X62121429Y-76450001D02*
X63621429Y-76450001D01*
X62192857Y-76450001D02*
X62121429Y-76307144D01*
X62121429Y-76021430D01*
X62192857Y-75878572D01*
X62264286Y-75807144D01*
X62407143Y-75735715D01*
X62835714Y-75735715D01*
X62978571Y-75807144D01*
X63050000Y-75878572D01*
X63121429Y-76021430D01*
X63121429Y-76307144D01*
X63050000Y-76450001D01*
X61978571Y-76807144D02*
X61978571Y-77950001D01*
X62121429Y-78307144D02*
X63621429Y-78307144D01*
X63621429Y-78878572D01*
X63550000Y-79021430D01*
X63478571Y-79092858D01*
X63335714Y-79164287D01*
X63121429Y-79164287D01*
X62978571Y-79092858D01*
X62907143Y-79021430D01*
X62835714Y-78878572D01*
X62835714Y-78307144D01*
X62264286Y-80664287D02*
X62192857Y-80592858D01*
X62121429Y-80378572D01*
X62121429Y-80235715D01*
X62192857Y-80021430D01*
X62335714Y-79878572D01*
X62478571Y-79807144D01*
X62764286Y-79735715D01*
X62978571Y-79735715D01*
X63264286Y-79807144D01*
X63407143Y-79878572D01*
X63550000Y-80021430D01*
X63621429Y-80235715D01*
X63621429Y-80378572D01*
X63550000Y-80592858D01*
X63478571Y-80664287D01*
X62121429Y-82092858D02*
X62121429Y-81235715D01*
X62121429Y-81664287D02*
X63621429Y-81664287D01*
X63407143Y-81521430D01*
X63264286Y-81378572D01*
X63192857Y-81235715D01*
X63621429Y-83021429D02*
X63621429Y-83164286D01*
X63550000Y-83307143D01*
X63478571Y-83378572D01*
X63335714Y-83450001D01*
X63050000Y-83521429D01*
X62692857Y-83521429D01*
X62407143Y-83450001D01*
X62264286Y-83378572D01*
X62192857Y-83307143D01*
X62121429Y-83164286D01*
X62121429Y-83021429D01*
X62192857Y-82878572D01*
X62264286Y-82807143D01*
X62407143Y-82735715D01*
X62692857Y-82664286D01*
X63050000Y-82664286D01*
X63335714Y-82735715D01*
X63478571Y-82807143D01*
X63550000Y-82878572D01*
X63621429Y-83021429D01*
X63121429Y-84807143D02*
X62121429Y-84807143D01*
X63692857Y-84450000D02*
X62621429Y-84092857D01*
X62621429Y-85021429D01*
X60150000Y-67521430D02*
X60150000Y-68235716D01*
X59721429Y-67378573D02*
X61221429Y-67878573D01*
X59721429Y-68378573D01*
X59721429Y-68878573D02*
X61221429Y-68878573D01*
X60650000Y-68878573D02*
X60721429Y-69021430D01*
X60721429Y-69307144D01*
X60650000Y-69450001D01*
X60578571Y-69521430D01*
X60435714Y-69592859D01*
X60007143Y-69592859D01*
X59864286Y-69521430D01*
X59792857Y-69450001D01*
X59721429Y-69307144D01*
X59721429Y-69021430D01*
X59792857Y-68878573D01*
X59721429Y-70235716D02*
X60721429Y-70235716D01*
X60435714Y-70235716D02*
X60578571Y-70307144D01*
X60650000Y-70378573D01*
X60721429Y-70521430D01*
X60721429Y-70664287D01*
X59721429Y-71164287D02*
X60721429Y-71164287D01*
X61221429Y-71164287D02*
X61150000Y-71092858D01*
X61078571Y-71164287D01*
X61150000Y-71235715D01*
X61221429Y-71164287D01*
X61078571Y-71164287D01*
X59721429Y-72092859D02*
X59792857Y-71950001D01*
X59935714Y-71878573D01*
X61221429Y-71878573D01*
X61078571Y-73735715D02*
X61150000Y-73807144D01*
X61221429Y-73950001D01*
X61221429Y-74307144D01*
X61150000Y-74450001D01*
X61078571Y-74521430D01*
X60935714Y-74592858D01*
X60792857Y-74592858D01*
X60578571Y-74521430D01*
X59721429Y-73664287D01*
X59721429Y-74592858D01*
X61221429Y-75521429D02*
X61221429Y-75664286D01*
X61150000Y-75807143D01*
X61078571Y-75878572D01*
X60935714Y-75950001D01*
X60650000Y-76021429D01*
X60292857Y-76021429D01*
X60007143Y-75950001D01*
X59864286Y-75878572D01*
X59792857Y-75807143D01*
X59721429Y-75664286D01*
X59721429Y-75521429D01*
X59792857Y-75378572D01*
X59864286Y-75307143D01*
X60007143Y-75235715D01*
X60292857Y-75164286D01*
X60650000Y-75164286D01*
X60935714Y-75235715D01*
X61078571Y-75307143D01*
X61150000Y-75378572D01*
X61221429Y-75521429D01*
X59721429Y-77450000D02*
X59721429Y-76592857D01*
X59721429Y-77021429D02*
X61221429Y-77021429D01*
X61007143Y-76878572D01*
X60864286Y-76735714D01*
X60792857Y-76592857D01*
X61221429Y-78735714D02*
X61221429Y-78450000D01*
X61150000Y-78307143D01*
X61078571Y-78235714D01*
X60864286Y-78092857D01*
X60578571Y-78021428D01*
X60007143Y-78021428D01*
X59864286Y-78092857D01*
X59792857Y-78164285D01*
X59721429Y-78307143D01*
X59721429Y-78592857D01*
X59792857Y-78735714D01*
X59864286Y-78807143D01*
X60007143Y-78878571D01*
X60364286Y-78878571D01*
X60507143Y-78807143D01*
X60578571Y-78735714D01*
X60650000Y-78592857D01*
X60650000Y-78307143D01*
X60578571Y-78164285D01*
X60507143Y-78092857D01*
X60364286Y-78021428D01*
X57392857Y-63342857D02*
X57321429Y-63485714D01*
X57321429Y-63771429D01*
X57392857Y-63914286D01*
X57535714Y-63985714D01*
X57607143Y-63985714D01*
X57750000Y-63914286D01*
X57821429Y-63771429D01*
X57821429Y-63557143D01*
X57892857Y-63414286D01*
X58035714Y-63342857D01*
X58107143Y-63342857D01*
X58250000Y-63414286D01*
X58321429Y-63557143D01*
X58321429Y-63771429D01*
X58250000Y-63914286D01*
X58321429Y-64628572D02*
X56821429Y-64628572D01*
X58250000Y-64628572D02*
X58321429Y-64771429D01*
X58321429Y-65057143D01*
X58250000Y-65200000D01*
X58178571Y-65271429D01*
X58035714Y-65342858D01*
X57607143Y-65342858D01*
X57464286Y-65271429D01*
X57392857Y-65200000D01*
X57321429Y-65057143D01*
X57321429Y-64771429D01*
X57392857Y-64628572D01*
X57392857Y-66557143D02*
X57321429Y-66414286D01*
X57321429Y-66128572D01*
X57392857Y-65985715D01*
X57535714Y-65914286D01*
X58107143Y-65914286D01*
X58250000Y-65985715D01*
X58321429Y-66128572D01*
X58321429Y-66414286D01*
X58250000Y-66557143D01*
X58107143Y-66628572D01*
X57964286Y-66628572D01*
X57821429Y-65914286D01*
X57321429Y-67485715D02*
X57392857Y-67342857D01*
X57535714Y-67271429D01*
X58821429Y-67271429D01*
X58035714Y-68985714D02*
X58107143Y-68914286D01*
X58178571Y-68771429D01*
X58178571Y-68628571D01*
X58107143Y-68485714D01*
X58035714Y-68414286D01*
X57892857Y-68342857D01*
X57750000Y-68342857D01*
X57607143Y-68414286D01*
X57535714Y-68485714D01*
X57464286Y-68628571D01*
X57464286Y-68771429D01*
X57535714Y-68914286D01*
X57607143Y-68985714D01*
X58178571Y-68985714D02*
X57607143Y-68985714D01*
X57535714Y-69057143D01*
X57535714Y-69128571D01*
X57607143Y-69271429D01*
X57750000Y-69342857D01*
X58107143Y-69342857D01*
X58321429Y-69200000D01*
X58464286Y-68985714D01*
X58535714Y-68700000D01*
X58464286Y-68414286D01*
X58321429Y-68200000D01*
X58107143Y-68057143D01*
X57821429Y-67985714D01*
X57535714Y-68057143D01*
X57321429Y-68200000D01*
X57178571Y-68414286D01*
X57107143Y-68700000D01*
X57178571Y-68985714D01*
X57321429Y-69200000D01*
X57321429Y-69985714D02*
X58321429Y-69985714D01*
X58821429Y-69985714D02*
X58750000Y-69914285D01*
X58678571Y-69985714D01*
X58750000Y-70057142D01*
X58821429Y-69985714D01*
X58678571Y-69985714D01*
X58321429Y-70700000D02*
X57321429Y-70700000D01*
X58178571Y-70700000D02*
X58250000Y-70771428D01*
X58321429Y-70914286D01*
X58321429Y-71128571D01*
X58250000Y-71271428D01*
X58107143Y-71342857D01*
X57321429Y-71342857D01*
X58321429Y-72700000D02*
X57107143Y-72700000D01*
X56964286Y-72628571D01*
X56892857Y-72557143D01*
X56821429Y-72414286D01*
X56821429Y-72200000D01*
X56892857Y-72057143D01*
X57392857Y-72700000D02*
X57321429Y-72557143D01*
X57321429Y-72271429D01*
X57392857Y-72128571D01*
X57464286Y-72057143D01*
X57607143Y-71985714D01*
X58035714Y-71985714D01*
X58178571Y-72057143D01*
X58250000Y-72128571D01*
X58321429Y-72271429D01*
X58321429Y-72557143D01*
X58250000Y-72700000D01*
X57464286Y-73414286D02*
X57392857Y-73485714D01*
X57321429Y-73414286D01*
X57392857Y-73342857D01*
X57464286Y-73414286D01*
X57321429Y-73414286D01*
X58321429Y-74771429D02*
X57321429Y-74771429D01*
X58321429Y-74128572D02*
X57535714Y-74128572D01*
X57392857Y-74200000D01*
X57321429Y-74342858D01*
X57321429Y-74557143D01*
X57392857Y-74700000D01*
X57464286Y-74771429D01*
X57392857Y-76128572D02*
X57321429Y-75985715D01*
X57321429Y-75700001D01*
X57392857Y-75557143D01*
X57464286Y-75485715D01*
X57607143Y-75414286D01*
X58035714Y-75414286D01*
X58178571Y-75485715D01*
X58250000Y-75557143D01*
X58321429Y-75700001D01*
X58321429Y-75985715D01*
X58250000Y-76128572D01*
X57321429Y-76771429D02*
X58821429Y-76771429D01*
X57321429Y-77414286D02*
X58107143Y-77414286D01*
X58250000Y-77342857D01*
X58321429Y-77200000D01*
X58321429Y-76985715D01*
X58250000Y-76842857D01*
X58178571Y-76771429D01*
X57321429Y-78128572D02*
X58321429Y-78128572D01*
X58821429Y-78128572D02*
X58750000Y-78057143D01*
X58678571Y-78128572D01*
X58750000Y-78200000D01*
X58821429Y-78128572D01*
X58678571Y-78128572D01*
X57321429Y-79057144D02*
X57392857Y-78914286D01*
X57535714Y-78842858D01*
X58821429Y-78842858D01*
X57392857Y-80200000D02*
X57321429Y-80057143D01*
X57321429Y-79771429D01*
X57392857Y-79628572D01*
X57535714Y-79557143D01*
X58107143Y-79557143D01*
X58250000Y-79628572D01*
X58321429Y-79771429D01*
X58321429Y-80057143D01*
X58250000Y-80200000D01*
X58107143Y-80271429D01*
X57964286Y-80271429D01*
X57821429Y-79557143D01*
X57464286Y-80914286D02*
X57392857Y-80985714D01*
X57321429Y-80914286D01*
X57392857Y-80842857D01*
X57464286Y-80914286D01*
X57321429Y-80914286D01*
X57392857Y-82271429D02*
X57321429Y-82128572D01*
X57321429Y-81842858D01*
X57392857Y-81700000D01*
X57464286Y-81628572D01*
X57607143Y-81557143D01*
X58035714Y-81557143D01*
X58178571Y-81628572D01*
X58250000Y-81700000D01*
X58321429Y-81842858D01*
X58321429Y-82128572D01*
X58250000Y-82271429D01*
X57321429Y-83128572D02*
X57392857Y-82985714D01*
X57535714Y-82914286D01*
X58821429Y-82914286D01*
D12*
X145000000Y-134000000D02*
X145000000Y-147000000D01*
X143000000Y-132000000D02*
X145000000Y-134000000D01*
X143000000Y-71000000D02*
X143000000Y-132000000D01*
X145000000Y-69000000D02*
X143000000Y-71000000D01*
X145000000Y-55000000D02*
X145000000Y-69000000D01*
X131000000Y-55000000D02*
X145000000Y-55000000D01*
X127000000Y-59000000D02*
X131000000Y-55000000D01*
X64000000Y-59000000D02*
X127000000Y-59000000D01*
X60000000Y-55000000D02*
X64000000Y-59000000D01*
X49000000Y-55000000D02*
X60000000Y-55000000D01*
X49000000Y-62000000D02*
X49000000Y-55000000D01*
X54000000Y-67000000D02*
X49000000Y-62000000D01*
X54000000Y-79000000D02*
X54000000Y-67000000D01*
X49000000Y-84000000D02*
X54000000Y-79000000D01*
X49000000Y-147000000D02*
X49000000Y-84000000D01*
X88000000Y-147000000D02*
X49000000Y-147000000D01*
X93000000Y-142000000D02*
X88000000Y-147000000D01*
X124000000Y-142000000D02*
X93000000Y-142000000D01*
X129000000Y-147000000D02*
X124000000Y-142000000D01*
X145000000Y-147000000D02*
X129000000Y-147000000D01*
D13*
X93286000Y-107460000D02*
X93286000Y-112540000D01*
X93286000Y-112540000D02*
X88714000Y-112540000D01*
X88714000Y-112540000D02*
X88714000Y-107460000D01*
X88714000Y-107460000D02*
X93286000Y-107460000D01*
X91762000Y-107460000D02*
X91762000Y-107968000D01*
X91762000Y-107968000D02*
X90492000Y-107968000D01*
X90492000Y-107968000D02*
X90492000Y-107460000D01*
X135890000Y-67310000D02*
X135890000Y-133350000D01*
X130810000Y-133350000D02*
X130810000Y-69850000D01*
X135890000Y-133350000D02*
X130810000Y-133350000D01*
X135890000Y-67310000D02*
X133350000Y-67310000D01*
X132080000Y-67030000D02*
X130530000Y-67030000D01*
X133350000Y-67310000D02*
X133350000Y-69850000D01*
X133350000Y-69850000D02*
X130810000Y-69850000D01*
X130530000Y-67030000D02*
X130530000Y-68580000D01*
X140970000Y-67310000D02*
X140970000Y-133350000D01*
X135890000Y-133350000D02*
X135890000Y-69850000D01*
X140970000Y-133350000D02*
X135890000Y-133350000D01*
X140970000Y-67310000D02*
X138430000Y-67310000D01*
X137160000Y-67030000D02*
X135610000Y-67030000D01*
X138430000Y-67310000D02*
X138430000Y-69850000D01*
X138430000Y-69850000D02*
X135890000Y-69850000D01*
X135610000Y-67030000D02*
X135610000Y-68580000D01*
X116680000Y-132810000D02*
X83660000Y-132810000D01*
X83660000Y-132810000D02*
X83660000Y-135350000D01*
X83660000Y-135350000D02*
X116680000Y-135350000D01*
X119500000Y-135630000D02*
X117950000Y-135630000D01*
X116680000Y-135350000D02*
X116680000Y-132810000D01*
X117950000Y-132530000D02*
X119500000Y-132530000D01*
X119500000Y-132530000D02*
X119500000Y-135630000D01*
X116680000Y-130270000D02*
X83660000Y-130270000D01*
X83660000Y-130270000D02*
X83660000Y-132810000D01*
X83660000Y-132810000D02*
X116680000Y-132810000D01*
X119500000Y-133090000D02*
X117950000Y-133090000D01*
X116680000Y-132810000D02*
X116680000Y-130270000D01*
X117950000Y-129990000D02*
X119500000Y-129990000D01*
X119500000Y-129990000D02*
X119500000Y-133090000D01*
X116680000Y-127730000D02*
X83660000Y-127730000D01*
X83660000Y-127730000D02*
X83660000Y-130270000D01*
X83660000Y-130270000D02*
X116680000Y-130270000D01*
X119500000Y-130550000D02*
X117950000Y-130550000D01*
X116680000Y-130270000D02*
X116680000Y-127730000D01*
X117950000Y-127450000D02*
X119500000Y-127450000D01*
X119500000Y-127450000D02*
X119500000Y-130550000D01*
X116680000Y-125190000D02*
X83660000Y-125190000D01*
X83660000Y-125190000D02*
X83660000Y-127730000D01*
X83660000Y-127730000D02*
X116680000Y-127730000D01*
X119500000Y-128010000D02*
X117950000Y-128010000D01*
X116680000Y-127730000D02*
X116680000Y-125190000D01*
X117950000Y-124910000D02*
X119500000Y-124910000D01*
X119500000Y-124910000D02*
X119500000Y-128010000D01*
X119830000Y-106830000D02*
X114750000Y-106830000D01*
X114750000Y-106830000D02*
X114750000Y-109370000D01*
X114750000Y-109370000D02*
X119830000Y-109370000D01*
X122650000Y-109650000D02*
X121100000Y-109650000D01*
X119830000Y-109370000D02*
X119830000Y-106830000D01*
X121100000Y-106550000D02*
X122650000Y-106550000D01*
X122650000Y-106550000D02*
X122650000Y-109650000D01*
X123780000Y-104370000D02*
X123780000Y-101830000D01*
X123780000Y-101830000D02*
X113620000Y-101830000D01*
X113620000Y-101830000D02*
X113620000Y-104370000D01*
X113620000Y-104370000D02*
X123780000Y-104370000D01*
X112470000Y-103100000D02*
X113620000Y-103100000D01*
X124930000Y-103100000D02*
X123780000Y-103100000D01*
X79075000Y-106000000D02*
X79075000Y-108000000D01*
X76925000Y-108000000D02*
X76925000Y-106000000D01*
X84075000Y-106000000D02*
X84075000Y-108000000D01*
X81925000Y-108000000D02*
X81925000Y-106000000D01*
X103075000Y-105000000D02*
X103075000Y-107000000D01*
X100925000Y-107000000D02*
X100925000Y-105000000D01*
X107075000Y-105000000D02*
X107075000Y-107000000D01*
X104925000Y-107000000D02*
X104925000Y-105000000D01*
X88460000Y-102857000D02*
X88206000Y-102857000D01*
X88206000Y-102857000D02*
X88206000Y-105143000D01*
X88206000Y-105143000D02*
X88460000Y-105143000D01*
X88460000Y-102857000D02*
X88460000Y-105143000D01*
X88460000Y-105143000D02*
X90111000Y-105143000D01*
X91889000Y-102857000D02*
X93540000Y-102857000D01*
X93540000Y-102857000D02*
X93540000Y-105143000D01*
X93540000Y-105143000D02*
X91889000Y-105143000D01*
X90111000Y-102857000D02*
X88460000Y-102857000D01*
X99075000Y-105000000D02*
X99075000Y-107000000D01*
X96925000Y-107000000D02*
X96925000Y-105000000D01*
X60990000Y-142710000D02*
X60990000Y-141160000D01*
X59690000Y-142710000D02*
X60990000Y-142710000D01*
X55499000Y-141287000D02*
X49657000Y-141287000D01*
X49657000Y-141287000D02*
X49657000Y-141033000D01*
X49657000Y-141033000D02*
X55499000Y-141033000D01*
X55499000Y-141033000D02*
X55499000Y-141160000D01*
X55499000Y-141160000D02*
X49657000Y-141160000D01*
X58166000Y-141414000D02*
X58547000Y-141414000D01*
X58166000Y-140906000D02*
X58547000Y-140906000D01*
X58166000Y-138874000D02*
X58547000Y-138874000D01*
X58166000Y-138366000D02*
X58547000Y-138366000D01*
X58166000Y-136334000D02*
X58547000Y-136334000D01*
X58166000Y-135826000D02*
X58547000Y-135826000D01*
X58166000Y-128206000D02*
X58547000Y-128206000D01*
X58166000Y-128714000D02*
X58547000Y-128714000D01*
X58166000Y-130746000D02*
X58547000Y-130746000D01*
X58166000Y-131254000D02*
X58547000Y-131254000D01*
X58166000Y-133286000D02*
X58547000Y-133286000D01*
X58166000Y-133794000D02*
X58547000Y-133794000D01*
X58166000Y-142430000D02*
X55626000Y-142430000D01*
X58166000Y-139890000D02*
X55626000Y-139890000D01*
X58166000Y-139890000D02*
X58166000Y-137350000D01*
X58166000Y-137350000D02*
X55626000Y-137350000D01*
X55626000Y-138874000D02*
X49530000Y-138874000D01*
X49530000Y-138874000D02*
X49530000Y-138366000D01*
X49530000Y-138366000D02*
X55626000Y-138366000D01*
X55626000Y-137350000D02*
X55626000Y-139890000D01*
X55626000Y-139890000D02*
X55626000Y-142430000D01*
X49530000Y-140906000D02*
X55626000Y-140906000D01*
X49530000Y-141414000D02*
X49530000Y-140906000D01*
X55626000Y-141414000D02*
X49530000Y-141414000D01*
X58166000Y-139890000D02*
X55626000Y-139890000D01*
X58166000Y-142430000D02*
X58166000Y-139890000D01*
X58166000Y-132270000D02*
X55626000Y-132270000D01*
X58166000Y-132270000D02*
X58166000Y-129730000D01*
X58166000Y-129730000D02*
X55626000Y-129730000D01*
X55626000Y-131254000D02*
X49530000Y-131254000D01*
X49530000Y-131254000D02*
X49530000Y-130746000D01*
X49530000Y-130746000D02*
X55626000Y-130746000D01*
X55626000Y-129730000D02*
X55626000Y-132270000D01*
X55626000Y-127190000D02*
X55626000Y-129730000D01*
X49530000Y-128206000D02*
X55626000Y-128206000D01*
X49530000Y-128714000D02*
X49530000Y-128206000D01*
X55626000Y-128714000D02*
X49530000Y-128714000D01*
X58166000Y-127190000D02*
X55626000Y-127190000D01*
X58166000Y-129730000D02*
X58166000Y-127190000D01*
X58166000Y-129730000D02*
X55626000Y-129730000D01*
X58166000Y-134810000D02*
X55626000Y-134810000D01*
X58166000Y-134810000D02*
X58166000Y-132270000D01*
X58166000Y-132270000D02*
X55626000Y-132270000D01*
X55626000Y-133794000D02*
X49530000Y-133794000D01*
X49530000Y-133794000D02*
X49530000Y-133286000D01*
X49530000Y-133286000D02*
X55626000Y-133286000D01*
X55626000Y-132270000D02*
X55626000Y-134810000D01*
X55626000Y-134810000D02*
X55626000Y-137350000D01*
X49530000Y-135826000D02*
X55626000Y-135826000D01*
X49530000Y-136334000D02*
X49530000Y-135826000D01*
X55626000Y-136334000D02*
X49530000Y-136334000D01*
X58166000Y-134810000D02*
X55626000Y-134810000D01*
X58166000Y-137350000D02*
X58166000Y-134810000D01*
X58166000Y-137350000D02*
X55626000Y-137350000D01*
X60990000Y-123660000D02*
X60990000Y-122110000D01*
X59690000Y-123660000D02*
X60990000Y-123660000D01*
X55499000Y-122237000D02*
X49657000Y-122237000D01*
X49657000Y-122237000D02*
X49657000Y-121983000D01*
X49657000Y-121983000D02*
X55499000Y-121983000D01*
X55499000Y-121983000D02*
X55499000Y-122110000D01*
X55499000Y-122110000D02*
X49657000Y-122110000D01*
X58166000Y-122364000D02*
X58547000Y-122364000D01*
X58166000Y-121856000D02*
X58547000Y-121856000D01*
X58166000Y-119824000D02*
X58547000Y-119824000D01*
X58166000Y-119316000D02*
X58547000Y-119316000D01*
X58166000Y-117284000D02*
X58547000Y-117284000D01*
X58166000Y-116776000D02*
X58547000Y-116776000D01*
X58166000Y-109156000D02*
X58547000Y-109156000D01*
X58166000Y-109664000D02*
X58547000Y-109664000D01*
X58166000Y-111696000D02*
X58547000Y-111696000D01*
X58166000Y-112204000D02*
X58547000Y-112204000D01*
X58166000Y-114236000D02*
X58547000Y-114236000D01*
X58166000Y-114744000D02*
X58547000Y-114744000D01*
X58166000Y-123380000D02*
X55626000Y-123380000D01*
X58166000Y-120840000D02*
X55626000Y-120840000D01*
X58166000Y-120840000D02*
X58166000Y-118300000D01*
X58166000Y-118300000D02*
X55626000Y-118300000D01*
X55626000Y-119824000D02*
X49530000Y-119824000D01*
X49530000Y-119824000D02*
X49530000Y-119316000D01*
X49530000Y-119316000D02*
X55626000Y-119316000D01*
X55626000Y-118300000D02*
X55626000Y-120840000D01*
X55626000Y-120840000D02*
X55626000Y-123380000D01*
X49530000Y-121856000D02*
X55626000Y-121856000D01*
X49530000Y-122364000D02*
X49530000Y-121856000D01*
X55626000Y-122364000D02*
X49530000Y-122364000D01*
X58166000Y-120840000D02*
X55626000Y-120840000D01*
X58166000Y-123380000D02*
X58166000Y-120840000D01*
X58166000Y-113220000D02*
X55626000Y-113220000D01*
X58166000Y-113220000D02*
X58166000Y-110680000D01*
X58166000Y-110680000D02*
X55626000Y-110680000D01*
X55626000Y-112204000D02*
X49530000Y-112204000D01*
X49530000Y-112204000D02*
X49530000Y-111696000D01*
X49530000Y-111696000D02*
X55626000Y-111696000D01*
X55626000Y-110680000D02*
X55626000Y-113220000D01*
X55626000Y-108140000D02*
X55626000Y-110680000D01*
X49530000Y-109156000D02*
X55626000Y-109156000D01*
X49530000Y-109664000D02*
X49530000Y-109156000D01*
X55626000Y-109664000D02*
X49530000Y-109664000D01*
X58166000Y-108140000D02*
X55626000Y-108140000D01*
X58166000Y-110680000D02*
X58166000Y-108140000D01*
X58166000Y-110680000D02*
X55626000Y-110680000D01*
X58166000Y-115760000D02*
X55626000Y-115760000D01*
X58166000Y-115760000D02*
X58166000Y-113220000D01*
X58166000Y-113220000D02*
X55626000Y-113220000D01*
X55626000Y-114744000D02*
X49530000Y-114744000D01*
X49530000Y-114744000D02*
X49530000Y-114236000D01*
X49530000Y-114236000D02*
X55626000Y-114236000D01*
X55626000Y-113220000D02*
X55626000Y-115760000D01*
X55626000Y-115760000D02*
X55626000Y-118300000D01*
X49530000Y-116776000D02*
X55626000Y-116776000D01*
X49530000Y-117284000D02*
X49530000Y-116776000D01*
X55626000Y-117284000D02*
X49530000Y-117284000D01*
X58166000Y-115760000D02*
X55626000Y-115760000D01*
X58166000Y-118300000D02*
X58166000Y-115760000D01*
X58166000Y-118300000D02*
X55626000Y-118300000D01*
X69500000Y-133700000D02*
G75*
G03X69500000Y-133700000I-100000J0D01*
G01*
X68750000Y-133450000D02*
X69250000Y-133450000D01*
X68750000Y-130550000D02*
X68750000Y-133450000D01*
X69250000Y-130550000D02*
X68750000Y-130550000D01*
X69250000Y-133450000D02*
X69250000Y-130550000D01*
X69500000Y-141700000D02*
G75*
G03X69500000Y-141700000I-100000J0D01*
G01*
X68750000Y-141450000D02*
X69250000Y-141450000D01*
X68750000Y-138550000D02*
X68750000Y-141450000D01*
X69250000Y-138550000D02*
X68750000Y-138550000D01*
X69250000Y-141450000D02*
X69250000Y-138550000D01*
X70300000Y-113300000D02*
G75*
G03X70300000Y-113300000I-100000J0D01*
G01*
X69550000Y-113050000D02*
X70050000Y-113050000D01*
X69550000Y-110150000D02*
X69550000Y-113050000D01*
X70050000Y-110150000D02*
X69550000Y-110150000D01*
X70050000Y-113050000D02*
X70050000Y-110150000D01*
X70300000Y-121400000D02*
G75*
G03X70300000Y-121400000I-100000J0D01*
G01*
X69550000Y-121150000D02*
X70050000Y-121150000D01*
X69550000Y-118250000D02*
X69550000Y-121150000D01*
X70050000Y-118250000D02*
X69550000Y-118250000D01*
X70050000Y-121150000D02*
X70050000Y-118250000D01*
X57300000Y-100550000D02*
X57300000Y-99000000D01*
X56000000Y-100550000D02*
X57300000Y-100550000D01*
X51809000Y-99127000D02*
X45967000Y-99127000D01*
X45967000Y-99127000D02*
X45967000Y-98873000D01*
X45967000Y-98873000D02*
X51809000Y-98873000D01*
X51809000Y-98873000D02*
X51809000Y-99000000D01*
X51809000Y-99000000D02*
X45967000Y-99000000D01*
X54476000Y-99254000D02*
X54857000Y-99254000D01*
X54476000Y-98746000D02*
X54857000Y-98746000D01*
X54476000Y-96714000D02*
X54857000Y-96714000D01*
X54476000Y-96206000D02*
X54857000Y-96206000D01*
X54476000Y-94174000D02*
X54857000Y-94174000D01*
X54476000Y-93666000D02*
X54857000Y-93666000D01*
X54476000Y-86046000D02*
X54857000Y-86046000D01*
X54476000Y-86554000D02*
X54857000Y-86554000D01*
X54476000Y-88586000D02*
X54857000Y-88586000D01*
X54476000Y-89094000D02*
X54857000Y-89094000D01*
X54476000Y-91126000D02*
X54857000Y-91126000D01*
X54476000Y-91634000D02*
X54857000Y-91634000D01*
X54476000Y-100270000D02*
X51936000Y-100270000D01*
X54476000Y-97730000D02*
X51936000Y-97730000D01*
X54476000Y-97730000D02*
X54476000Y-95190000D01*
X54476000Y-95190000D02*
X51936000Y-95190000D01*
X51936000Y-96714000D02*
X45840000Y-96714000D01*
X45840000Y-96714000D02*
X45840000Y-96206000D01*
X45840000Y-96206000D02*
X51936000Y-96206000D01*
X51936000Y-95190000D02*
X51936000Y-97730000D01*
X51936000Y-97730000D02*
X51936000Y-100270000D01*
X45840000Y-98746000D02*
X51936000Y-98746000D01*
X45840000Y-99254000D02*
X45840000Y-98746000D01*
X51936000Y-99254000D02*
X45840000Y-99254000D01*
X54476000Y-97730000D02*
X51936000Y-97730000D01*
X54476000Y-100270000D02*
X54476000Y-97730000D01*
X54476000Y-90110000D02*
X51936000Y-90110000D01*
X54476000Y-90110000D02*
X54476000Y-87570000D01*
X54476000Y-87570000D02*
X51936000Y-87570000D01*
X51936000Y-89094000D02*
X45840000Y-89094000D01*
X45840000Y-89094000D02*
X45840000Y-88586000D01*
X45840000Y-88586000D02*
X51936000Y-88586000D01*
X51936000Y-87570000D02*
X51936000Y-90110000D01*
X51936000Y-85030000D02*
X51936000Y-87570000D01*
X45840000Y-86046000D02*
X51936000Y-86046000D01*
X45840000Y-86554000D02*
X45840000Y-86046000D01*
X51936000Y-86554000D02*
X45840000Y-86554000D01*
X54476000Y-85030000D02*
X51936000Y-85030000D01*
X54476000Y-87570000D02*
X54476000Y-85030000D01*
X54476000Y-87570000D02*
X51936000Y-87570000D01*
X54476000Y-92650000D02*
X51936000Y-92650000D01*
X54476000Y-92650000D02*
X54476000Y-90110000D01*
X54476000Y-90110000D02*
X51936000Y-90110000D01*
X51936000Y-91634000D02*
X45840000Y-91634000D01*
X45840000Y-91634000D02*
X45840000Y-91126000D01*
X45840000Y-91126000D02*
X51936000Y-91126000D01*
X51936000Y-90110000D02*
X51936000Y-92650000D01*
X51936000Y-92650000D02*
X51936000Y-95190000D01*
X45840000Y-93666000D02*
X51936000Y-93666000D01*
X45840000Y-94174000D02*
X45840000Y-93666000D01*
X51936000Y-94174000D02*
X45840000Y-94174000D01*
X54476000Y-92650000D02*
X51936000Y-92650000D01*
X54476000Y-95190000D02*
X54476000Y-92650000D01*
X54476000Y-95190000D02*
X51936000Y-95190000D01*
X57500000Y-80950000D02*
X57500000Y-79400000D01*
X56200000Y-80950000D02*
X57500000Y-80950000D01*
X52009000Y-79527000D02*
X46167000Y-79527000D01*
X46167000Y-79527000D02*
X46167000Y-79273000D01*
X46167000Y-79273000D02*
X52009000Y-79273000D01*
X52009000Y-79273000D02*
X52009000Y-79400000D01*
X52009000Y-79400000D02*
X46167000Y-79400000D01*
X54676000Y-79654000D02*
X55057000Y-79654000D01*
X54676000Y-79146000D02*
X55057000Y-79146000D01*
X54676000Y-77114000D02*
X55057000Y-77114000D01*
X54676000Y-76606000D02*
X55057000Y-76606000D01*
X54676000Y-74574000D02*
X55057000Y-74574000D01*
X54676000Y-74066000D02*
X55057000Y-74066000D01*
X54676000Y-66446000D02*
X55057000Y-66446000D01*
X54676000Y-66954000D02*
X55057000Y-66954000D01*
X54676000Y-68986000D02*
X55057000Y-68986000D01*
X54676000Y-69494000D02*
X55057000Y-69494000D01*
X54676000Y-71526000D02*
X55057000Y-71526000D01*
X54676000Y-72034000D02*
X55057000Y-72034000D01*
X54676000Y-80670000D02*
X52136000Y-80670000D01*
X54676000Y-78130000D02*
X52136000Y-78130000D01*
X54676000Y-78130000D02*
X54676000Y-75590000D01*
X54676000Y-75590000D02*
X52136000Y-75590000D01*
X52136000Y-77114000D02*
X46040000Y-77114000D01*
X46040000Y-77114000D02*
X46040000Y-76606000D01*
X46040000Y-76606000D02*
X52136000Y-76606000D01*
X52136000Y-75590000D02*
X52136000Y-78130000D01*
X52136000Y-78130000D02*
X52136000Y-80670000D01*
X46040000Y-79146000D02*
X52136000Y-79146000D01*
X46040000Y-79654000D02*
X46040000Y-79146000D01*
X52136000Y-79654000D02*
X46040000Y-79654000D01*
X54676000Y-78130000D02*
X52136000Y-78130000D01*
X54676000Y-80670000D02*
X54676000Y-78130000D01*
X54676000Y-70510000D02*
X52136000Y-70510000D01*
X54676000Y-70510000D02*
X54676000Y-67970000D01*
X54676000Y-67970000D02*
X52136000Y-67970000D01*
X52136000Y-69494000D02*
X46040000Y-69494000D01*
X46040000Y-69494000D02*
X46040000Y-68986000D01*
X46040000Y-68986000D02*
X52136000Y-68986000D01*
X52136000Y-67970000D02*
X52136000Y-70510000D01*
X52136000Y-65430000D02*
X52136000Y-67970000D01*
X46040000Y-66446000D02*
X52136000Y-66446000D01*
X46040000Y-66954000D02*
X46040000Y-66446000D01*
X52136000Y-66954000D02*
X46040000Y-66954000D01*
X54676000Y-65430000D02*
X52136000Y-65430000D01*
X54676000Y-67970000D02*
X54676000Y-65430000D01*
X54676000Y-67970000D02*
X52136000Y-67970000D01*
X54676000Y-73050000D02*
X52136000Y-73050000D01*
X54676000Y-73050000D02*
X54676000Y-70510000D01*
X54676000Y-70510000D02*
X52136000Y-70510000D01*
X52136000Y-72034000D02*
X46040000Y-72034000D01*
X46040000Y-72034000D02*
X46040000Y-71526000D01*
X46040000Y-71526000D02*
X52136000Y-71526000D01*
X52136000Y-70510000D02*
X52136000Y-73050000D01*
X52136000Y-73050000D02*
X52136000Y-75590000D01*
X46040000Y-74066000D02*
X52136000Y-74066000D01*
X46040000Y-74574000D02*
X46040000Y-74066000D01*
X52136000Y-74574000D02*
X46040000Y-74574000D01*
X54676000Y-73050000D02*
X52136000Y-73050000D01*
X54676000Y-75590000D02*
X54676000Y-73050000D01*
X54676000Y-75590000D02*
X52136000Y-75590000D01*
X68470000Y-88810000D02*
X119270000Y-88810000D01*
X116730000Y-83730000D02*
X68470000Y-83730000D01*
X68470000Y-88810000D02*
X68470000Y-83730000D01*
X119270000Y-88810000D02*
X119270000Y-86270000D01*
X119550000Y-85000000D02*
X119550000Y-83450000D01*
X119270000Y-86270000D02*
X116730000Y-86270000D01*
X116730000Y-86270000D02*
X116730000Y-83730000D01*
X119550000Y-83450000D02*
X118000000Y-83450000D01*
X91722381Y-110761905D02*
X92531905Y-110761905D01*
X92627143Y-110714286D01*
X92674762Y-110666667D01*
X92722381Y-110571429D01*
X92722381Y-110380952D01*
X92674762Y-110285714D01*
X92627143Y-110238095D01*
X92531905Y-110190476D01*
X91722381Y-110190476D01*
X91817619Y-109761905D02*
X91770000Y-109714286D01*
X91722381Y-109619048D01*
X91722381Y-109380952D01*
X91770000Y-109285714D01*
X91817619Y-109238095D01*
X91912857Y-109190476D01*
X92008095Y-109190476D01*
X92150952Y-109238095D01*
X92722381Y-109809524D01*
X92722381Y-109190476D01*
X131318095Y-63932381D02*
X131318095Y-62932381D01*
X131318095Y-63408571D02*
X131889524Y-63408571D01*
X131889524Y-63932381D02*
X131889524Y-62932381D01*
X132889524Y-63932381D02*
X132318095Y-63932381D01*
X132603809Y-63932381D02*
X132603809Y-62932381D01*
X132508571Y-63075238D01*
X132413333Y-63170476D01*
X132318095Y-63218095D01*
X136398095Y-63932381D02*
X136398095Y-62932381D01*
X136398095Y-63408571D02*
X136969524Y-63408571D01*
X136969524Y-63932381D02*
X136969524Y-62932381D01*
X137398095Y-63027619D02*
X137445714Y-62980000D01*
X137540952Y-62932381D01*
X137779048Y-62932381D01*
X137874286Y-62980000D01*
X137921905Y-63027619D01*
X137969524Y-63122857D01*
X137969524Y-63218095D01*
X137921905Y-63360952D01*
X137350476Y-63932381D01*
X137969524Y-63932381D01*
X122502381Y-134889523D02*
X123216667Y-134889523D01*
X123359524Y-134937143D01*
X123454762Y-135032381D01*
X123502381Y-135175238D01*
X123502381Y-135270476D01*
X123502381Y-133889523D02*
X123502381Y-134460952D01*
X123502381Y-134175238D02*
X122502381Y-134175238D01*
X122645238Y-134270476D01*
X122740476Y-134365714D01*
X122788095Y-134460952D01*
X122502381Y-133556190D02*
X122502381Y-132889523D01*
X123502381Y-133318095D01*
X122502381Y-132349523D02*
X123216667Y-132349523D01*
X123359524Y-132397143D01*
X123454762Y-132492381D01*
X123502381Y-132635238D01*
X123502381Y-132730476D01*
X123502381Y-131349523D02*
X123502381Y-131920952D01*
X123502381Y-131635238D02*
X122502381Y-131635238D01*
X122645238Y-131730476D01*
X122740476Y-131825714D01*
X122788095Y-131920952D01*
X122930952Y-130778095D02*
X122883333Y-130873333D01*
X122835714Y-130920952D01*
X122740476Y-130968571D01*
X122692857Y-130968571D01*
X122597619Y-130920952D01*
X122550000Y-130873333D01*
X122502381Y-130778095D01*
X122502381Y-130587618D01*
X122550000Y-130492380D01*
X122597619Y-130444761D01*
X122692857Y-130397142D01*
X122740476Y-130397142D01*
X122835714Y-130444761D01*
X122883333Y-130492380D01*
X122930952Y-130587618D01*
X122930952Y-130778095D01*
X122978571Y-130873333D01*
X123026190Y-130920952D01*
X123121429Y-130968571D01*
X123311905Y-130968571D01*
X123407143Y-130920952D01*
X123454762Y-130873333D01*
X123502381Y-130778095D01*
X123502381Y-130587618D01*
X123454762Y-130492380D01*
X123407143Y-130444761D01*
X123311905Y-130397142D01*
X123121429Y-130397142D01*
X123026190Y-130444761D01*
X122978571Y-130492380D01*
X122930952Y-130587618D01*
X122502381Y-129809523D02*
X123216667Y-129809523D01*
X123359524Y-129857143D01*
X123454762Y-129952381D01*
X123502381Y-130095238D01*
X123502381Y-130190476D01*
X123502381Y-128809523D02*
X123502381Y-129380952D01*
X123502381Y-129095238D02*
X122502381Y-129095238D01*
X122645238Y-129190476D01*
X122740476Y-129285714D01*
X122788095Y-129380952D01*
X123502381Y-128333333D02*
X123502381Y-128142857D01*
X123454762Y-128047618D01*
X123407143Y-127999999D01*
X123264286Y-127904761D01*
X123073810Y-127857142D01*
X122692857Y-127857142D01*
X122597619Y-127904761D01*
X122550000Y-127952380D01*
X122502381Y-128047618D01*
X122502381Y-128238095D01*
X122550000Y-128333333D01*
X122597619Y-128380952D01*
X122692857Y-128428571D01*
X122930952Y-128428571D01*
X123026190Y-128380952D01*
X123073810Y-128333333D01*
X123121429Y-128238095D01*
X123121429Y-128047618D01*
X123073810Y-127952380D01*
X123026190Y-127904761D01*
X122930952Y-127857142D01*
X122502381Y-127269523D02*
X123216667Y-127269523D01*
X123359524Y-127317143D01*
X123454762Y-127412381D01*
X123502381Y-127555238D01*
X123502381Y-127650476D01*
X122597619Y-126840952D02*
X122550000Y-126793333D01*
X122502381Y-126698095D01*
X122502381Y-126459999D01*
X122550000Y-126364761D01*
X122597619Y-126317142D01*
X122692857Y-126269523D01*
X122788095Y-126269523D01*
X122930952Y-126317142D01*
X123502381Y-126888571D01*
X123502381Y-126269523D01*
X122502381Y-125650476D02*
X122502381Y-125555237D01*
X122550000Y-125459999D01*
X122597619Y-125412380D01*
X122692857Y-125364761D01*
X122883333Y-125317142D01*
X123121429Y-125317142D01*
X123311905Y-125364761D01*
X123407143Y-125412380D01*
X123454762Y-125459999D01*
X123502381Y-125555237D01*
X123502381Y-125650476D01*
X123454762Y-125745714D01*
X123407143Y-125793333D01*
X123311905Y-125840952D01*
X123121429Y-125888571D01*
X122883333Y-125888571D01*
X122692857Y-125840952D01*
X122597619Y-125793333D01*
X122550000Y-125745714D01*
X122502381Y-125650476D01*
X126652381Y-108838095D02*
X125652381Y-108838095D01*
X126652381Y-108266666D02*
X126080952Y-108695238D01*
X125652381Y-108266666D02*
X126223810Y-108838095D01*
X125652381Y-107933333D02*
X125652381Y-107314285D01*
X126033333Y-107647619D01*
X126033333Y-107504761D01*
X126080952Y-107409523D01*
X126128571Y-107361904D01*
X126223810Y-107314285D01*
X126461905Y-107314285D01*
X126557143Y-107361904D01*
X126604762Y-107409523D01*
X126652381Y-107504761D01*
X126652381Y-107790476D01*
X126604762Y-107885714D01*
X126557143Y-107933333D01*
X118533334Y-107301421D02*
X118200000Y-106825230D01*
X117961905Y-107301421D02*
X117961905Y-106301421D01*
X118342858Y-106301421D01*
X118438096Y-106349040D01*
X118485715Y-106396659D01*
X118533334Y-106491897D01*
X118533334Y-106634754D01*
X118485715Y-106729992D01*
X118438096Y-106777611D01*
X118342858Y-106825230D01*
X117961905Y-106825230D01*
X119485715Y-107301421D02*
X118914286Y-107301421D01*
X119200000Y-107301421D02*
X119200000Y-106301421D01*
X119104762Y-106444278D01*
X119009524Y-106539516D01*
X118914286Y-106587135D01*
X76152381Y-108071428D02*
X76152381Y-108642857D01*
X76152381Y-108357143D02*
X75152381Y-108357143D01*
X75295238Y-108452381D01*
X75390476Y-108547619D01*
X75438095Y-108642857D01*
X75152381Y-107452381D02*
X75152381Y-107357142D01*
X75200000Y-107261904D01*
X75247619Y-107214285D01*
X75342857Y-107166666D01*
X75533333Y-107119047D01*
X75771429Y-107119047D01*
X75961905Y-107166666D01*
X76057143Y-107214285D01*
X76104762Y-107261904D01*
X76152381Y-107357142D01*
X76152381Y-107452381D01*
X76104762Y-107547619D01*
X76057143Y-107595238D01*
X75961905Y-107642857D01*
X75771429Y-107690476D01*
X75533333Y-107690476D01*
X75342857Y-107642857D01*
X75247619Y-107595238D01*
X75200000Y-107547619D01*
X75152381Y-107452381D01*
X76152381Y-106690476D02*
X75152381Y-106690476D01*
X75771429Y-106595238D02*
X76152381Y-106309523D01*
X75485714Y-106309523D02*
X75866667Y-106690476D01*
X76152381Y-105357142D02*
X76152381Y-105928571D01*
X76152381Y-105642857D02*
X75152381Y-105642857D01*
X75295238Y-105738095D01*
X75390476Y-105833333D01*
X75438095Y-105928571D01*
X81152381Y-108071428D02*
X81152381Y-108642857D01*
X81152381Y-108357143D02*
X80152381Y-108357143D01*
X80295238Y-108452381D01*
X80390476Y-108547619D01*
X80438095Y-108642857D01*
X80152381Y-107452381D02*
X80152381Y-107357142D01*
X80200000Y-107261904D01*
X80247619Y-107214285D01*
X80342857Y-107166666D01*
X80533333Y-107119047D01*
X80771429Y-107119047D01*
X80961905Y-107166666D01*
X81057143Y-107214285D01*
X81104762Y-107261904D01*
X81152381Y-107357142D01*
X81152381Y-107452381D01*
X81104762Y-107547619D01*
X81057143Y-107595238D01*
X80961905Y-107642857D01*
X80771429Y-107690476D01*
X80533333Y-107690476D01*
X80342857Y-107642857D01*
X80247619Y-107595238D01*
X80200000Y-107547619D01*
X80152381Y-107452381D01*
X81152381Y-106690476D02*
X80152381Y-106690476D01*
X80771429Y-106595238D02*
X81152381Y-106309523D01*
X80485714Y-106309523D02*
X80866667Y-106690476D01*
X80247619Y-105928571D02*
X80200000Y-105880952D01*
X80152381Y-105785714D01*
X80152381Y-105547618D01*
X80200000Y-105452380D01*
X80247619Y-105404761D01*
X80342857Y-105357142D01*
X80438095Y-105357142D01*
X80580952Y-105404761D01*
X81152381Y-105976190D01*
X81152381Y-105357142D01*
X100152381Y-107071428D02*
X100152381Y-107642857D01*
X100152381Y-107357143D02*
X99152381Y-107357143D01*
X99295238Y-107452381D01*
X99390476Y-107547619D01*
X99438095Y-107642857D01*
X99152381Y-106452381D02*
X99152381Y-106357142D01*
X99200000Y-106261904D01*
X99247619Y-106214285D01*
X99342857Y-106166666D01*
X99533333Y-106119047D01*
X99771429Y-106119047D01*
X99961905Y-106166666D01*
X100057143Y-106214285D01*
X100104762Y-106261904D01*
X100152381Y-106357142D01*
X100152381Y-106452381D01*
X100104762Y-106547619D01*
X100057143Y-106595238D01*
X99961905Y-106642857D01*
X99771429Y-106690476D01*
X99533333Y-106690476D01*
X99342857Y-106642857D01*
X99247619Y-106595238D01*
X99200000Y-106547619D01*
X99152381Y-106452381D01*
X100152381Y-105690476D02*
X99152381Y-105690476D01*
X99771429Y-105595238D02*
X100152381Y-105309523D01*
X99485714Y-105309523D02*
X99866667Y-105690476D01*
X99152381Y-104976190D02*
X99152381Y-104357142D01*
X99533333Y-104690476D01*
X99533333Y-104547618D01*
X99580952Y-104452380D01*
X99628571Y-104404761D01*
X99723810Y-104357142D01*
X99961905Y-104357142D01*
X100057143Y-104404761D01*
X100104762Y-104452380D01*
X100152381Y-104547618D01*
X100152381Y-104833333D01*
X100104762Y-104928571D01*
X100057143Y-104976190D01*
X104152381Y-107071428D02*
X104152381Y-107642857D01*
X104152381Y-107357143D02*
X103152381Y-107357143D01*
X103295238Y-107452381D01*
X103390476Y-107547619D01*
X103438095Y-107642857D01*
X103152381Y-106452381D02*
X103152381Y-106357142D01*
X103200000Y-106261904D01*
X103247619Y-106214285D01*
X103342857Y-106166666D01*
X103533333Y-106119047D01*
X103771429Y-106119047D01*
X103961905Y-106166666D01*
X104057143Y-106214285D01*
X104104762Y-106261904D01*
X104152381Y-106357142D01*
X104152381Y-106452381D01*
X104104762Y-106547619D01*
X104057143Y-106595238D01*
X103961905Y-106642857D01*
X103771429Y-106690476D01*
X103533333Y-106690476D01*
X103342857Y-106642857D01*
X103247619Y-106595238D01*
X103200000Y-106547619D01*
X103152381Y-106452381D01*
X104152381Y-105690476D02*
X103152381Y-105690476D01*
X103771429Y-105595238D02*
X104152381Y-105309523D01*
X103485714Y-105309523D02*
X103866667Y-105690476D01*
X103485714Y-104452380D02*
X104152381Y-104452380D01*
X103104762Y-104690476D02*
X103819048Y-104928571D01*
X103819048Y-104309523D01*
X89452381Y-102252381D02*
X88880952Y-102252381D01*
X89166666Y-102252381D02*
X89166666Y-101252381D01*
X89071428Y-101395238D01*
X88976190Y-101490476D01*
X88880952Y-101538095D01*
X90071428Y-101252381D02*
X90166667Y-101252381D01*
X90261905Y-101300000D01*
X90309524Y-101347619D01*
X90357143Y-101442857D01*
X90404762Y-101633333D01*
X90404762Y-101871429D01*
X90357143Y-102061905D01*
X90309524Y-102157143D01*
X90261905Y-102204762D01*
X90166667Y-102252381D01*
X90071428Y-102252381D01*
X89976190Y-102204762D01*
X89928571Y-102157143D01*
X89880952Y-102061905D01*
X89833333Y-101871429D01*
X89833333Y-101633333D01*
X89880952Y-101442857D01*
X89928571Y-101347619D01*
X89976190Y-101300000D01*
X90071428Y-101252381D01*
X91261905Y-101585714D02*
X91261905Y-102252381D01*
X90833333Y-101585714D02*
X90833333Y-102109524D01*
X90880952Y-102204762D01*
X90976190Y-102252381D01*
X91119048Y-102252381D01*
X91214286Y-102204762D01*
X91261905Y-102157143D01*
X92071429Y-101728571D02*
X91738095Y-101728571D01*
X91738095Y-102252381D02*
X91738095Y-101252381D01*
X92214286Y-101252381D01*
X93119048Y-102252381D02*
X92547619Y-102252381D01*
X92833333Y-102252381D02*
X92833333Y-101252381D01*
X92738095Y-101395238D01*
X92642857Y-101490476D01*
X92547619Y-101538095D01*
X95247619Y-108119048D02*
X95200000Y-108071429D01*
X95152381Y-107976191D01*
X95152381Y-107738095D01*
X95200000Y-107642857D01*
X95247619Y-107595238D01*
X95342857Y-107547619D01*
X95438095Y-107547619D01*
X95580952Y-107595238D01*
X96152381Y-108166667D01*
X96152381Y-107547619D01*
X95152381Y-106928572D02*
X95152381Y-106833333D01*
X95200000Y-106738095D01*
X95247619Y-106690476D01*
X95342857Y-106642857D01*
X95533333Y-106595238D01*
X95771429Y-106595238D01*
X95961905Y-106642857D01*
X96057143Y-106690476D01*
X96104762Y-106738095D01*
X96152381Y-106833333D01*
X96152381Y-106928572D01*
X96104762Y-107023810D01*
X96057143Y-107071429D01*
X95961905Y-107119048D01*
X95771429Y-107166667D01*
X95533333Y-107166667D01*
X95342857Y-107119048D01*
X95247619Y-107071429D01*
X95200000Y-107023810D01*
X95152381Y-106928572D01*
X95152381Y-105976191D02*
X95152381Y-105880952D01*
X95200000Y-105785714D01*
X95247619Y-105738095D01*
X95342857Y-105690476D01*
X95533333Y-105642857D01*
X95771429Y-105642857D01*
X95961905Y-105690476D01*
X96057143Y-105738095D01*
X96104762Y-105785714D01*
X96152381Y-105880952D01*
X96152381Y-105976191D01*
X96104762Y-106071429D01*
X96057143Y-106119048D01*
X95961905Y-106166667D01*
X95771429Y-106214286D01*
X95533333Y-106214286D01*
X95342857Y-106166667D01*
X95247619Y-106119048D01*
X95200000Y-106071429D01*
X95152381Y-105976191D01*
X96152381Y-105214286D02*
X95152381Y-105214286D01*
X95771429Y-105119048D02*
X96152381Y-104833333D01*
X95485714Y-104833333D02*
X95866667Y-105214286D01*
X96152381Y-103880952D02*
X96152381Y-104452381D01*
X96152381Y-104166667D02*
X95152381Y-104166667D01*
X95295238Y-104261905D01*
X95390476Y-104357143D01*
X95438095Y-104452381D01*
X59261905Y-126652381D02*
X59261905Y-125652381D01*
X59642858Y-125652381D01*
X59738096Y-125700000D01*
X59785715Y-125747619D01*
X59833334Y-125842857D01*
X59833334Y-125985714D01*
X59785715Y-126080952D01*
X59738096Y-126128571D01*
X59642858Y-126176190D01*
X59261905Y-126176190D01*
X60785715Y-126652381D02*
X60214286Y-126652381D01*
X60500000Y-126652381D02*
X60500000Y-125652381D01*
X60404762Y-125795238D01*
X60309524Y-125890476D01*
X60214286Y-125938095D01*
X59261905Y-107452381D02*
X59261905Y-106452381D01*
X59642858Y-106452381D01*
X59738096Y-106500000D01*
X59785715Y-106547619D01*
X59833334Y-106642857D01*
X59833334Y-106785714D01*
X59785715Y-106880952D01*
X59738096Y-106928571D01*
X59642858Y-106976190D01*
X59261905Y-106976190D01*
X60214286Y-106547619D02*
X60261905Y-106500000D01*
X60357143Y-106452381D01*
X60595239Y-106452381D01*
X60690477Y-106500000D01*
X60738096Y-106547619D01*
X60785715Y-106642857D01*
X60785715Y-106738095D01*
X60738096Y-106880952D01*
X60166667Y-107452381D01*
X60785715Y-107452381D01*
X68238095Y-134352381D02*
X68238095Y-135161905D01*
X68285714Y-135257143D01*
X68333333Y-135304762D01*
X68428571Y-135352381D01*
X68619048Y-135352381D01*
X68714286Y-135304762D01*
X68761905Y-135257143D01*
X68809524Y-135161905D01*
X68809524Y-134352381D01*
X69190476Y-134352381D02*
X69809524Y-134352381D01*
X69476190Y-134733333D01*
X69619048Y-134733333D01*
X69714286Y-134780952D01*
X69761905Y-134828571D01*
X69809524Y-134923810D01*
X69809524Y-135161905D01*
X69761905Y-135257143D01*
X69714286Y-135304762D01*
X69619048Y-135352381D01*
X69333333Y-135352381D01*
X69238095Y-135304762D01*
X69190476Y-135257143D01*
X68238095Y-142352381D02*
X68238095Y-143161905D01*
X68285714Y-143257143D01*
X68333333Y-143304762D01*
X68428571Y-143352381D01*
X68619048Y-143352381D01*
X68714286Y-143304762D01*
X68761905Y-143257143D01*
X68809524Y-143161905D01*
X68809524Y-142352381D01*
X69714286Y-142685714D02*
X69714286Y-143352381D01*
X69476190Y-142304762D02*
X69238095Y-143019048D01*
X69857143Y-143019048D01*
X69038095Y-113952381D02*
X69038095Y-114761905D01*
X69085714Y-114857143D01*
X69133333Y-114904762D01*
X69228571Y-114952381D01*
X69419048Y-114952381D01*
X69514286Y-114904762D01*
X69561905Y-114857143D01*
X69609524Y-114761905D01*
X69609524Y-113952381D01*
X70561905Y-113952381D02*
X70085714Y-113952381D01*
X70038095Y-114428571D01*
X70085714Y-114380952D01*
X70180952Y-114333333D01*
X70419048Y-114333333D01*
X70514286Y-114380952D01*
X70561905Y-114428571D01*
X70609524Y-114523810D01*
X70609524Y-114761905D01*
X70561905Y-114857143D01*
X70514286Y-114904762D01*
X70419048Y-114952381D01*
X70180952Y-114952381D01*
X70085714Y-114904762D01*
X70038095Y-114857143D01*
X69038095Y-122052381D02*
X69038095Y-122861905D01*
X69085714Y-122957143D01*
X69133333Y-123004762D01*
X69228571Y-123052381D01*
X69419048Y-123052381D01*
X69514286Y-123004762D01*
X69561905Y-122957143D01*
X69609524Y-122861905D01*
X69609524Y-122052381D01*
X70514286Y-122052381D02*
X70323809Y-122052381D01*
X70228571Y-122100000D01*
X70180952Y-122147619D01*
X70085714Y-122290476D01*
X70038095Y-122480952D01*
X70038095Y-122861905D01*
X70085714Y-122957143D01*
X70133333Y-123004762D01*
X70228571Y-123052381D01*
X70419048Y-123052381D01*
X70514286Y-123004762D01*
X70561905Y-122957143D01*
X70609524Y-122861905D01*
X70609524Y-122623810D01*
X70561905Y-122528571D01*
X70514286Y-122480952D01*
X70419048Y-122433333D01*
X70228571Y-122433333D01*
X70133333Y-122480952D01*
X70085714Y-122528571D01*
X70038095Y-122623810D01*
X55261905Y-104552381D02*
X55261905Y-103552381D01*
X55642858Y-103552381D01*
X55738096Y-103600000D01*
X55785715Y-103647619D01*
X55833334Y-103742857D01*
X55833334Y-103885714D01*
X55785715Y-103980952D01*
X55738096Y-104028571D01*
X55642858Y-104076190D01*
X55261905Y-104076190D01*
X56690477Y-103885714D02*
X56690477Y-104552381D01*
X56452381Y-103504762D02*
X56214286Y-104219048D01*
X56833334Y-104219048D01*
X55461905Y-84952381D02*
X55461905Y-83952381D01*
X55842858Y-83952381D01*
X55938096Y-84000000D01*
X55985715Y-84047619D01*
X56033334Y-84142857D01*
X56033334Y-84285714D01*
X55985715Y-84380952D01*
X55938096Y-84428571D01*
X55842858Y-84476190D01*
X55461905Y-84476190D01*
X56938096Y-83952381D02*
X56461905Y-83952381D01*
X56414286Y-84428571D01*
X56461905Y-84380952D01*
X56557143Y-84333333D01*
X56795239Y-84333333D01*
X56890477Y-84380952D01*
X56938096Y-84428571D01*
X56985715Y-84523810D01*
X56985715Y-84761905D01*
X56938096Y-84857143D01*
X56890477Y-84904762D01*
X56795239Y-84952381D01*
X56557143Y-84952381D01*
X56461905Y-84904762D01*
X56414286Y-84857143D01*
X123552381Y-85738095D02*
X122552381Y-85738095D01*
X122552381Y-85357142D01*
X122600000Y-85261904D01*
X122647619Y-85214285D01*
X122742857Y-85166666D01*
X122885714Y-85166666D01*
X122980952Y-85214285D01*
X123028571Y-85261904D01*
X123076190Y-85357142D01*
X123076190Y-85738095D01*
X122552381Y-84833333D02*
X122552381Y-84214285D01*
X122933333Y-84547619D01*
X122933333Y-84404761D01*
X122980952Y-84309523D01*
X123028571Y-84261904D01*
X123123810Y-84214285D01*
X123361905Y-84214285D01*
X123457143Y-84261904D01*
X123504762Y-84309523D01*
X123552381Y-84404761D01*
X123552381Y-84690476D01*
X123504762Y-84785714D01*
X123457143Y-84833333D01*
M02*
