G75*
%MOIN*%
%OFA0B0*%
%FSLAX24Y24*%
%IPPOS*%
%LPD*%
%AMOC8*
5,1,8,0,0,1.08239X$1,22.5*
%
%ADD10C,0.0000*%
%ADD11C,0.0100*%
%ADD12C,0.0160*%
D10*
X000100Y002483D02*
X000100Y041849D01*
X003939Y041849D01*
X003941Y041849D01*
X003941Y044233D01*
X028437Y044233D01*
X028437Y041849D01*
X032277Y041849D01*
X032277Y002484D01*
X028437Y002484D01*
X028437Y000100D01*
X028437Y000100D01*
X003941Y000100D01*
X003941Y002484D01*
X000100Y002484D01*
X000100Y002483D02*
X000103Y002483D01*
X003939Y041849D02*
X003941Y041849D01*
X032139Y041852D02*
X032277Y041849D01*
D11*
X029234Y039076D02*
X014470Y039076D01*
X014401Y039154D01*
X014328Y039229D01*
X014253Y039302D01*
X014175Y039371D01*
X014095Y039438D01*
X014012Y039502D01*
X013927Y039563D01*
X013840Y039621D01*
X013751Y039675D01*
X013659Y039726D01*
X013566Y039774D01*
X013472Y039818D01*
X013376Y039859D01*
X013278Y039896D01*
X013179Y039930D01*
X013079Y039960D01*
X012978Y039987D01*
X012876Y040009D01*
X012773Y040028D01*
X012670Y040044D01*
X012566Y040055D01*
X012462Y040063D01*
X012357Y040067D01*
X012253Y040067D01*
X012148Y040063D01*
X012044Y040055D01*
X011940Y040044D01*
X011837Y040028D01*
X011734Y040009D01*
X011632Y039987D01*
X011531Y039960D01*
X011431Y039930D01*
X011332Y039896D01*
X011234Y039859D01*
X011138Y039818D01*
X011044Y039774D01*
X010951Y039726D01*
X010859Y039675D01*
X010770Y039621D01*
X010683Y039563D01*
X010598Y039502D01*
X010515Y039438D01*
X010435Y039371D01*
X010357Y039302D01*
X010282Y039229D01*
X010209Y039154D01*
X010140Y039076D01*
X010139Y039076D02*
X006990Y039076D01*
X006950Y039050D02*
X006950Y029850D01*
X006950Y029800D02*
X007000Y029800D01*
X014800Y029800D01*
X014800Y028350D01*
X014786Y028328D02*
X014795Y028255D01*
X014808Y028182D01*
X014825Y028110D01*
X014845Y028040D01*
X014870Y027970D01*
X014898Y027901D01*
X014929Y027835D01*
X014964Y027770D01*
X015002Y027706D01*
X015044Y027645D01*
X015088Y027587D01*
X015136Y027530D01*
X015187Y027477D01*
X015240Y027426D01*
X015296Y027378D01*
X015355Y027332D01*
X015415Y027290D01*
X015478Y027252D01*
X015543Y027216D01*
X015610Y027184D01*
X015678Y027156D01*
X015747Y027131D01*
X015818Y027110D01*
X015890Y027093D01*
X015962Y027079D01*
X016036Y027070D01*
X016109Y027064D01*
X016183Y027062D01*
X016257Y027064D01*
X016330Y027070D01*
X016404Y027079D01*
X016476Y027093D01*
X016548Y027110D01*
X016619Y027131D01*
X016688Y027156D01*
X016756Y027184D01*
X016823Y027216D01*
X016888Y027252D01*
X016951Y027290D01*
X017011Y027332D01*
X017070Y027378D01*
X017126Y027426D01*
X017179Y027477D01*
X017230Y027530D01*
X017278Y027587D01*
X017322Y027645D01*
X017364Y027706D01*
X017402Y027770D01*
X017437Y027835D01*
X017468Y027901D01*
X017496Y027970D01*
X017521Y028040D01*
X017541Y028110D01*
X017558Y028182D01*
X017571Y028255D01*
X017580Y028328D01*
X017600Y028350D02*
X017600Y029800D01*
X029250Y029800D01*
X029250Y039050D01*
X019704Y016776D02*
X019031Y016776D01*
X017532Y016352D01*
X014943Y016352D01*
X013589Y016776D01*
X012919Y016776D01*
X006793Y010769D01*
X011368Y006104D01*
X014784Y007601D01*
X018384Y007601D01*
X021009Y006104D01*
X025691Y010769D01*
X019704Y016776D01*
X010609Y018182D02*
X010609Y024072D01*
X006257Y024072D01*
X006257Y028450D01*
X001678Y028450D01*
X001678Y010733D01*
X003163Y010733D01*
X010609Y018182D01*
D12*
X013930Y021887D02*
X013932Y021982D01*
X013938Y022076D01*
X013948Y022170D01*
X013962Y022264D01*
X013979Y022357D01*
X014001Y022449D01*
X014027Y022541D01*
X014056Y022631D01*
X014089Y022719D01*
X014125Y022807D01*
X014166Y022892D01*
X014210Y022976D01*
X014257Y023058D01*
X014308Y023138D01*
X014362Y023216D01*
X014419Y023291D01*
X014479Y023364D01*
X014543Y023435D01*
X014609Y023502D01*
X014678Y023567D01*
X014750Y023629D01*
X014824Y023688D01*
X014901Y023744D01*
X014979Y023796D01*
X015060Y023845D01*
X015143Y023891D01*
X015228Y023933D01*
X015315Y023971D01*
X015403Y024006D01*
X015492Y024037D01*
X015583Y024065D01*
X015675Y024088D01*
X015767Y024108D01*
X015861Y024124D01*
X015955Y024136D01*
X016049Y024144D01*
X016144Y024148D01*
X016238Y024148D01*
X016333Y024144D01*
X016427Y024136D01*
X016521Y024124D01*
X016615Y024108D01*
X016707Y024088D01*
X016799Y024065D01*
X016890Y024037D01*
X016979Y024006D01*
X017067Y023971D01*
X017154Y023933D01*
X017239Y023891D01*
X017321Y023845D01*
X017403Y023796D01*
X017481Y023744D01*
X017558Y023688D01*
X017632Y023629D01*
X017704Y023567D01*
X017773Y023502D01*
X017839Y023435D01*
X017903Y023364D01*
X017963Y023291D01*
X018020Y023216D01*
X018074Y023138D01*
X018125Y023058D01*
X018172Y022976D01*
X018216Y022892D01*
X018257Y022807D01*
X018293Y022719D01*
X018326Y022631D01*
X018355Y022541D01*
X018381Y022449D01*
X018403Y022357D01*
X018420Y022264D01*
X018434Y022170D01*
X018444Y022076D01*
X018450Y021982D01*
X018452Y021887D01*
X018450Y021792D01*
X018444Y021698D01*
X018434Y021604D01*
X018420Y021510D01*
X018403Y021417D01*
X018381Y021325D01*
X018355Y021233D01*
X018326Y021143D01*
X018293Y021055D01*
X018257Y020967D01*
X018216Y020882D01*
X018172Y020798D01*
X018125Y020716D01*
X018074Y020636D01*
X018020Y020558D01*
X017963Y020483D01*
X017903Y020410D01*
X017839Y020339D01*
X017773Y020272D01*
X017704Y020207D01*
X017632Y020145D01*
X017558Y020086D01*
X017481Y020030D01*
X017403Y019978D01*
X017322Y019929D01*
X017239Y019883D01*
X017154Y019841D01*
X017067Y019803D01*
X016979Y019768D01*
X016890Y019737D01*
X016799Y019709D01*
X016707Y019686D01*
X016615Y019666D01*
X016521Y019650D01*
X016427Y019638D01*
X016333Y019630D01*
X016238Y019626D01*
X016144Y019626D01*
X016049Y019630D01*
X015955Y019638D01*
X015861Y019650D01*
X015767Y019666D01*
X015675Y019686D01*
X015583Y019709D01*
X015492Y019737D01*
X015403Y019768D01*
X015315Y019803D01*
X015228Y019841D01*
X015143Y019883D01*
X015061Y019929D01*
X014979Y019978D01*
X014901Y020030D01*
X014824Y020086D01*
X014750Y020145D01*
X014678Y020207D01*
X014609Y020272D01*
X014543Y020339D01*
X014479Y020410D01*
X014419Y020483D01*
X014362Y020558D01*
X014308Y020636D01*
X014257Y020716D01*
X014210Y020798D01*
X014166Y020882D01*
X014125Y020967D01*
X014089Y021055D01*
X014056Y021143D01*
X014027Y021233D01*
X014001Y021325D01*
X013979Y021417D01*
X013962Y021510D01*
X013948Y021604D01*
X013938Y021698D01*
X013932Y021792D01*
X013930Y021887D01*
M02*
