%
M48
M72
T01C0.0295
T02C0.0472
T03C0.0571
T04C0.0650
%
T01
X3063Y31104
X3663Y31104
X25051Y23690
X25051Y23090
X25068Y19841
X25068Y19241
T02
X26631Y18836
X26631Y23836
X6021Y29513
X1021Y29513
T03
X15602Y5376
X16587Y5376
X17571Y5376
T04
X6793Y8368
X8761Y6399
X13427Y24982
X9943Y26084
X7974Y26084
X19057Y24982
X22541Y26084
X24509Y26084
X25691Y8368
X23722Y6399
M30
